<?xml version="1.0" standalone="no"?>
<!DOCTYPE svg PUBLIC "-//W3C//DTD SVG 1.1//EN" "http://www.w3.org/Graphics/SVG/1.1/DTD/svg11.dtd" >
<svg xmlns="http://www.w3.org/2000/svg">
<metadata>
This is a custom SVG webfont generated by Font Squirrel.
Copyright   : Lemon Chicken Version 10    CrackAJack Studios  2000       wwwcrackajackcom     studiocrackajackcom        This is a free downloadable font
</metadata>
<defs>
<font id="webfontSYBP38np" horiz-adv-x="1400" >
<font-face units-per-em="2048" ascent="1638" descent="-410" />
<missing-glyph horiz-adv-x="776" />
<glyph unicode=" "  horiz-adv-x="776" />
<glyph unicode="&#x09;" horiz-adv-x="776" />
<glyph unicode="&#xa0;" horiz-adv-x="776" />
<glyph unicode="!" horiz-adv-x="385" d="M121 -2q0 23 18 53q20 39 54 39q63 0 63 -88q0 -20 -35 -160.5t-47 -165.5q-12 33 -33 170q-20 125 -20 152zM127 346v260q0 33 16 123l-4 811q4 45 0 125q-4 100 -4 119q0 100 43 100q-6 0 25 -4q25 -2 63 2q0 -240 -6 -393q-4 -131 -4 -234q0 -225 12 -927 q-18 -14 -67 -15q-66 0 -74 33z" />
<glyph unicode="&#x22;" horiz-adv-x="552" d="M104 1425q0 25 19 54q20 39 53 39q63 0 64 -88q0 -20 -35 -161t-47 -165q-12 33 -33 170q-21 126 -21 151zM342 1425q0 25 16 54q20 39 56 39q63 0 63 -88q0 -20 -34.5 -161t-47.5 -165q-14 33 -35 170q-18 126 -18 151z" />
<glyph unicode="#" d="M233 588v30q125 104 193 105q25 0 78 -10q8 90 18 295q-113 25 -160 24q-45 0 -73 -26q-37 -35 -56 -41v30q125 102 193 103q31 0 100 -15l17 312q14 8 45 6q20 0 26 -4q18 -4 21 -23q-12 -102 -33 -309l211 -64l18 326q12 8 46 6q18 -2 26 -4q18 -6 21 -22 q-14 -109 -35 -328q57 -14 104 -21q70 -10 113 89l20 -11v-2q-35 -127 -155 -127q-27 0 -86 13l-19 -310q72 -20 127 -28q70 -10 113 88q2 0 10 -4t10 -4v-3q-35 -127 -155 -127q-31 0 -109 15l-4 -174q-10 -139 -43 -137q-78 6 -59 6q12 156 28 323l-211 53l-4 -176 q-8 -141 -43 -139q-78 6 -57 6q10 150 29 328q-96 18 -136 18q-45 0 -73 -26q-38 -33 -56 -41zM580 694q39 -10 211 -63q8 90 20 305l-213 53z" />
<glyph unicode="$" horiz-adv-x="1228" d="M133 1133q0 236 166 383q154 137 377 143l12 90q16 14 47 14q55 0 56 -45l-11 -69q129 -29 221 -115q106 -96 107 -219q0 -156 -96 -244q-88 -78 -230 -78q-51 0 -106 11l-35 -240q268 -113 268 -356q0 -139 -98 -250q-104 -119 -274 -150q-25 -221 -62 -219q-10 2 -18 4 q-18 4 -47 2l30 207q-86 12 -129 41q-2 31 0 35q4 12 29 12l28 -21q28 -22 78 -26q23 133 99 633q-219 94 -277 141q-135 111 -135 316zM199 1169q0 -160 114 -251q66 -53 248 -123l33 237q-109 51 -109 146q0 74 64 114q-6 -29 -6 -57q0 -84 59 -135l68 512 q-197 12 -334 -115t-137 -328zM541 47q125 25 196 115q70 84 70 192q0 188 -182 285l-60 -420zM682 1055q63 -23 119 -23q100 0 158.5 69.5t58.5 198.5q0 244 -246 297q-33 -180 -90 -542z" />
<glyph unicode="%" horiz-adv-x="1454" d="M14 1309q0 145 68 258.5t166 113.5q6 0 20 -8q-92 -23 -141 -110q-45 -78 -45 -189q0 -156 78 -274q84 -131 211 -131t209 125q72 113 71 260q0 49 -8 94q-160 -63 -248 -64q-127 0 -127 119q0 23 4 47q18 51 86 86q59 31 113 31q139 0 209 -156q160 68 358 172l2 -2 q27 16 76 19q68 0 58 -37l-629 -1331l-113 -255q-57 -128 -104 -130q-12 4 -88 2q55 121 268 555q96 199 504 1116q-170 -88 -316 -150q23 -72 23 -151q0 -158 -82 -266q-94 -123 -260 -123q-184 0 -281 119q-82 102 -82 260zM313 1499q0 -66 93 -65q84 0 227 57 q-49 143 -197 135q-45 -2 -84 -44t-39 -83zM713 328q0 145 67.5 257.5t167.5 112.5q4 0 19 -6q-92 -23 -142 -110q-45 -78 -45 -191q0 -154 78 -274q84 -129 213 -129q127 0 207 123q72 113 72 262q0 127 -56 207q-66 90 -178 84q-53 -4 -88 -64l-47 -84q-6 6 -6 21 q0 66 72 110q59 39 124 39q111 0 181 -108q66 -98 65 -240q0 -158 -82 -266q-94 -125 -260 -125q-182 0 -278 121q-84 100 -84 260z" />
<glyph unicode="&#x26;" horiz-adv-x="1122" d="M18 422q0 309 312 477q-233 186 -236 334q-2 158 109.5 254t294.5 96q152 0 247 -74q106 -84 107 -239q0 -115 -113 -221q-104 -98 -268 -158q279 -238 410 -645q104 121 168 268q10 27 34 27q14 0 15 -17q0 -6 -4 -16l-78 -150q-57 -106 -117 -174q63 -141 102 -141 q14 0 29 10q29 23 47 23q23 0 19 -27q-2 -27 -27 -43q-31 -20 -76 -20q-51 0 -73 26q-31 39 -70 125q-150 -131 -379 -131q-188 0 -320.5 118t-132.5 298zM98 465q0 -160 78 -275q98 -147 289 -147q207 0 364 145q-94 233 -153 336q-125 211 -314 344q-141 -74 -212 -213 q-54 -102 -52 -190zM172 1276q0 -115 111 -225l137 -119q141 47 249.5 143t108.5 170q0 301 -315 301q-109 0 -197 -76q-92 -82 -92 -194h-2z" />
<glyph unicode="'" horiz-adv-x="339" d="M104 1425q0 25 19 54q20 39 53 39q63 0 64 -88q0 -20 -35 -161t-47 -165q-12 33 -33 170q-21 126 -21 151z" />
<glyph unicode="(" horiz-adv-x="710" d="M66 811q0 381 215 674q209 283 456 280q4 0 15.5 -3t17.5 -1q0 -39 -72 -55q-264 -57 -401 -344q-117 -244 -117 -582q0 -264 154 -551q166 -307 350 -307q106 0 107 -37q0 -18 -27 -18q-283 0 -492 291q-206 284 -206 653z" />
<glyph unicode=")" horiz-adv-x="710" d="M-68 -115q0 -18 27 -18q283 0 494 291q205 285 204 653q0 381 -215 674q-209 283 -456 280q-4 0 -15.5 -3t-17.5 -1q0 -39 72 -55q264 -57 401 -344q119 -244 119 -582q0 -264 -156 -551q-166 -307 -350 -307q-107 0 -107 -37z" />
<glyph unicode="*" d="M76 688v41q104 96 162.5 128t134.5 30q98 -4 219 -25l-322 309q2 16 27 42t45 26q8 0 12 -2l303 -322l-10 422q16 10 55 13q53 0 60 -23l2 -186q0 -29 -16 -88l2 -160l235 242q72 72 94 71q8 0 14.5 -7t47.5 -48l-340 -328q229 -45 344 -49q98 -6 147 127q12 -4 29 -8v-4 q-39 -197 -254 -184q-94 6 -217 22l119 -117q18 -23 106 -102q59 -55 60 -80q0 -10 -8.5 -16t-47.5 -47l-325 340q4 -393 4 -347q-2 -135 -33 -135q-10 2 -72 0q0 188 4.5 282.5t4.5 176.5l-328 -338q-16 2 -42 25.5t-26 44.5q0 8 2 14l353 334q-184 27 -310 31 q-80 4 -121 -15q-23 -10 -52 -43t-62 -47z" />
<glyph unicode="+" d="M76 688v41q104 96 162.5 128t134.5 30q121 -6 286 -37q-2 131 -8 342l-4 145q16 10 55 13q53 0 60 -23l2 -186q0 -29 -16 -88l4 -219q152 -31 200 -39q111 -18 193 -21q98 -6 147 127q12 -4 29 -8v-4q-39 -197 -254 -184q-117 8 -315 36l4 -270q-2 -35 0 -92q4 -72 4 -84 q0 -72 -35 -72q-10 2 -72 0q0 193 6 299q4 90 3 234q-219 31 -351 37q-80 4 -121 -15q-23 -10 -52 -43t-62 -47z" />
<glyph unicode="," horiz-adv-x="385" d="M121 -2q0 23 18 53q20 39 54 39q63 0 63 -88q0 -20 -35 -160.5t-47 -165.5q-12 33 -33 170q-20 125 -20 152z" />
<glyph unicode="-" d="M178 741q92 80 144.5 106.5t119.5 26.5q53 0 71.5 -20t37.5 -45q96 68 147 86q39 12 115 12q51 0 153.5 -43t168.5 -43q86 0 129 105q4 0 14 -3t12 -3v-2q-31 -152 -225 -152q-33 0 -175 26.5t-167 26.5q-74 0 -134.5 -41t-49.5 -41q4 0 -54.5 32t-95.5 32 q-96 0 -135 -33q-63 -53 -74 -57z" />
<glyph unicode="." horiz-adv-x="385" d="M121 -2q0 23 18 53q20 39 54 39q63 0 63 -88q0 -16 -25 -63l-38 -68q-8 23 -43 74q-29 41 -29 53z" />
<glyph unicode="/" horiz-adv-x="811" d="M-90 -51q43 94 270 561q98 205 531 1171q27 16 75 19q68 0 58 -37l-135 -289q-20 -45 -82 -137l-412 -905l-113 -254q-57 -129 -104 -131q-12 4 -88 2z" />
<glyph unicode="0" horiz-adv-x="1931" d="M233 770v162q0 190 166 424q172 248 342 248q12 0 41 -15q-209 -53 -327 -278q-94 -180 -93 -365l3 -201q0 -94 127 -376q68 -150 225 -244q137 -80 260 -80h27q344 0 503 283q119 209 121 528q0 203 -88 408q-123 276 -344 276q-6 0 -43 -7t-53 -7q-111 -6 -189 -135 l-96 -177q-14 14 -14 41q0 143 151 238q129 82 265 82q176 0 385 -232q72 -80 114 -266q35 -156 35 -297q0 -297 -213 -532q-221 -244 -524 -244h-66q-297 0 -512 250q-203 233 -203 516z" />
<glyph unicode="1" horiz-adv-x="524" d="M201 1556q18 14 67 15q66 0 74 -33v-260q0 -39 -18 -123l6 -811q-4 -47 0 -125q6 -102 6 -119q0 -100 -45 -100q6 0 -25 2q-25 2 -63 0q0 240 6 393q6 131 6 234q0 225 -14 927z" />
<glyph unicode="2" horiz-adv-x="1363" d="M176 1178q0 186 168 325q158 133 346 133q178 0 320 -118q152 -131 151 -324v-2q0 -154 -127 -365q-82 -137 -268 -366q-195 -242 -244 -318q0 -18 25 -18h158q6 0 37.5 -6t39.5 -6q-12 0 36 2t175 4q20 -27 21 -45q0 -57 -31 -72q-14 -8 -68 -8q8 0 -86 4q-86 4 -129 2 q-217 -8 -249 -4h-86l421 575q246 362 246 580q0 432 -368 432q-168 0 -299 -102q-145 -115 -146 -291q0 -154 78 -240q82 -94 235 -94q133 0 213 156q20 -8 21 -33q0 -90 -121 -135q-78 -29 -147 -29q-160 0 -246 115q-76 98 -76 248z" />
<glyph unicode="3" horiz-adv-x="1265" d="M197 1182q0 209 184 342q160 115 352 114q162 0 260 -131q84 -113 84 -258h-2q0 -143 -104.5 -311t-278.5 -293q342 -53 344 -334q0 -162 -131 -294t-291 -132q-18 0 -28 11q348 113 348 426q0 74 -51 151q-59 92 -154 119q-70 18 -100 16q-45 -4 -78 0q401 215 401 588 q0 395 -309 395q-160 0 -273.5 -125t-113.5 -272q0 -94 45 -152q55 -72 162 -67q-6 -8 -26.5 -20.5t-26.5 -12.5q-94 0 -158 84q-55 74 -55 156z" />
<glyph unicode="4" horiz-adv-x="1630" d="M115 449q127 170 549 802q256 387 321 387q43 0 43 -288q0 -66 -2 -141.5t-2 -67.5v-172q0 -6 -3 -49t-3 -52v-262q0 -25 119 -24h57q39 0 113 51l123 86q8 -14 8 -29h-2q0 -72 -138 -123q-102 -39 -157 -39q-6 0 -46 6.5t-48 6.5q-16 0 -23 -15v-149q0 -16 8 -125 q4 -68 -6 -223q-12 -12 -68 -25q-18 0 -32 -2q-29 0 -29 123q0 45 4 105.5t4 54.5v170q0 2 -2 34q-4 27 -2 41q-10 10 -18 11q-33 0 -98.5 -47.5t-82.5 -47.5q-4 0 -34 29q-37 35 -74 55q-57 29 -125 29q-106 0 -182 -31q-47 -18 -94 -53q-37 -29 -48 -29zM264 565 q66 35 201 35q88 0 153 -22q43 -16 76 -43l27 -23q68 25 172 78q12 2 12 35q-2 68 -2 137l2 315q2 236 -12 320l-16 86z" />
<glyph unicode="5" horiz-adv-x="1112" d="M209 1507q0 31 10 129q90 -20 207 -8q113 10 145 2q61 -18 95 -110q-6 -14 -21 -15h-366q-20 -10 -21 -47q0 -301 29 -483q141 18 139 18q168 0 289 -92q139 -106 139 -293h2q0 -199 -178 -393q-164 -176 -418 -297q-8 8 -8 23q0 6 123 82q145 90 227 194 q123 154 123 354q0 379 -383 381q-33 0 -59 -18q-35 -23 -54 -29z" />
<glyph unicode="6" horiz-adv-x="1482" d="M190 616v146q2 254 160 510q180 285 445 356l32 -8q-252 -88 -389 -387q-113 -246 -112 -531q0 -231 75 -407q113 -260 357 -260q227 0 350 192q98 154 98 353q0 141 -57 247q-76 145 -236 146q-131 0 -202 -105q-59 -88 -62 -209q0 -49 21 -112q27 -84 71 -98 q29 -2 76 -23q-29 -20 -55 -20q-84 0 -139 114q-43 88 -43 154q0 141 101 237.5t243 96.5q168 0 280 -144q102 -129 103 -286q0 -190 -144 -375q-160 -209 -375 -209q-51 0 -65 -2q-209 0 -379 221q-158 202 -154 403z" />
<glyph unicode="7" horiz-adv-x="1075" d="M135 1524q43 82 201 82q45 0 114.5 -14.5t141.5 -14.5h113q10 0 31.5 11t43.5 11q10 0 25 -2h-2l-307 -991q-76 -248 -150 -581q-33 -18 -76 -19h-69v33q0 10 88 315q94 322 141 469l225 693q0 10 -132 29.5t-179 19.5q-63 0 -124.5 -20.5t-53.5 -20.5h-31z" />
<glyph unicode="8" horiz-adv-x="1372" d="M127 1245q0 223 178 369q164 131 377 131q209 0 355.5 -130t146.5 -331q0 -338 -332 -516q31 -25 96 -59q51 -27 82 -60q16 -41 35 -80q31 -84 31 -137q0 -180 -121 -305q-127 -129 -322 -129q-63 0 -78 -2q-133 0 -245 127q-109 119 -109 242q0 131 52.5 198.5 t213.5 157.5q-360 182 -360 524zM215 1206q0 -166 242 -307q201 -117 321 -117q154 0 248 189q70 143 70 266q0 176 -86 305q-111 162 -322 162q-141 0 -282 -72q-190 -98 -191 -268v-158zM303 393q0 -166 101.5 -260t285.5 -94q123 0 222.5 88t99.5 213h2q0 145 -150 254 q-137 100 -295 100q-92 0 -179 -107.5t-87 -193.5z" />
<glyph unicode="9" horiz-adv-x="1476" d="M162 1163q0 231 190 365q162 111 383 110q231 0 393 -204q150 -188 150 -422v-2q0 -254 -156 -572q-47 -94 -231 -286q-209 -219 -299 -220l-47 7q272 98 452 460q156 311 156 582q0 240 -92 405q-121 217 -365 218q-213 0 -329 -162q-98 -139 -99 -340 q0 -164 100.5 -259t254.5 -95q139 0 225 104q76 92 76 211q0 94 -35 141q-72 98 -78 111q74 -10 129 -121q49 -94 49 -170q0 -133 -129 -227q-113 -86 -233 -86q-6 0 -45 3t-47 3q-150 0 -267 155q-106 144 -106 291z" />
<glyph unicode=":" horiz-adv-x="385" d="M121 281q0 23 18 53q20 39 54 39q63 0 63 -88q0 -16 -25 -64q-18 -35 -38 -67q-8 23 -43 71q-29 42 -29 56zM121 795q0 23 18 53q20 39 54 39q63 0 63 -88q0 -16 -25 -64l-38 -67q-8 23 -43 71q-29 44 -29 56z" />
<glyph unicode=";" horiz-adv-x="385" d="M121 281q0 23 18 53q20 39 54 39q63 0 63 -88q0 -20 -25.5 -111.5t-37.5 -116.5q-72 173 -72 224zM121 795q0 23 18 53q20 39 54 39q63 0 63 -88q0 -16 -25 -64l-38 -67q-8 23 -43 71q-29 44 -29 56z" />
<glyph unicode="&#x3c;" horiz-adv-x="753" d="M55 772q6 -2 49 -2l265 -184l325 -264h13q4 23 4 61q0 63 -6 68q-41 37 -494 376q18 39 235 213q203 164 250 189q16 53 17 55q0 35 -13 35q-27 0 -322.5 -254t-314.5 -256q-4 0 -8 -37z" />
<glyph unicode="=" d="M154 479l2 31q156 102 241 102q129 0 361 -59q268 -70 356 -80q86 -10 141 88l25 -10q-111 -127 -195 -127q-127 0 -348 49q-268 59 -364 70q-31 4 -56 4q-57 0 -92 -27q-46 -35 -71 -41zM154 852l2 31q156 102 241 102q129 0 361 -61q268 -70 356 -78q86 -10 141 88 q10 -6 25 -10q-111 -129 -195 -129q-127 0 -348 51q-268 59 -364 69q-31 4 -56 5q-57 0 -92 -27q-46 -35 -71 -41z" />
<glyph unicode="&#x3e;" horiz-adv-x="753" d="M55 1284q0 35 13 35q27 0 322.5 -254t314.5 -256q2 0 8 -37q-6 -2 -51 -2l-263 -184l-325 -264h-15q-2 23 -2 61q0 63 6 68q41 37 494 376q-18 39 -235 213q-205 164 -250 189q-17 53 -17 55z" />
<glyph unicode="?" horiz-adv-x="1257" d="M193 1260q0 168 139 307t309 139q184 0 313 -116.5t129 -303.5l2 2q0 -182 -102 -364l-195 -314q-109 -201 -118 -417q-25 -4 -33 16q14 248 98 436l148 285q76 162 75 356q0 152 -59 250q-80 129 -250 129q-160 0 -267.5 -115.5t-107.5 -265.5q0 -137 64 -240 q78 -129 223 -129q8 0 90 11q0 -45 -106 -45q-158 2 -258 120q-94 112 -94 259zM590 -2q0 23 16 53q23 39 56 39q63 0 63 -88q0 -20 -35 -160.5t-47 -165.5q-14 33 -35 170q-18 125 -18 152z" />
<glyph unicode="@" horiz-adv-x="1757" d="M262 831q0 297 200 494t494 197q309 0 459 -228q90 -137 94 -276q6 -166 -39 -293q-57 -158 -172 -162q-80 -4 -108 39q-16 23 -27 98q-37 -74 -112.5 -117.5t-169.5 -43.5q-127 0 -217.5 77.5t-90.5 188.5t90.5 188.5t217.5 77.5q98 0 176 -48t110 -126q31 84 84 115 q6 -6 25 -8q2 -2 0 -46q-88 -102 -88 -229q0 -129 102 -123q59 2 101 82q53 104 53 324q0 170 -163 325.5t-329 155.5q-279 0 -438 -195q-143 -176 -143 -452q0 -242 125 -412q143 -193 397 -192q63 0 76 2q109 0 243 84q147 92 209 217q8 -8 9 -19q0 -2 -35 -73 q-57 -123 -234 -203q-152 -72 -284 -72q-285 0 -457 203q-158 184 -158 450zM614 811q0 -88 76 -136t197 -48t201.5 48t80.5 136q0 86 -80.5 134t-201.5 48t-197 -48t-76 -134z" />
<glyph unicode="A" horiz-adv-x="1787" d="M203 313q41 18 86 19h80q23 47 233 551q213 507 213 520q0 6 -17.5 45t-17.5 47q0 4 54 117q27 0 38 -19q27 -86 82 -237l152 -340q84 -190 127 -320q27 -78 92 -227q76 -172 94 -172q59 2 152 57q74 43 123 90q8 -12 8 -26q0 -61 -139.5 -117.5t-139.5 -64.5 q0 -4 30 -82t32 -136q-16 4 -39 5q-23 0 -68 -5q-29 143 -88 218q-178 16 -575 49q-7 1 -15 0q-44 0 -86 -21q-57 -31 -82 -98l-133 123q-16 -31 -127 -283q-14 0 -28 14l114 275q-16 2 -34 2q-23 0 -51.5 -7t-39.5 -7q-12 0 -24 8zM472 283q36 -29 42 -29q111 72 166 72 q20 -2 238 -29q150 -16 231 -16q74 0 117 12l-197 506q-121 301 -231 524q-84 -180 -254 -588q-166 -397 -167 -417l10 -6l24 -14.5t21 -14.5z" />
<glyph unicode="B" horiz-adv-x="811" d="M199 1565q8 20 53 32q33 10 51 11q166 0 250 -160q59 -117 59 -260q0 -156 -69 -266q-47 -72 -103 -103q119 -49 189 -188q66 -125 65 -266q0 -135 -149 -252q-137 -111 -264 -111h-39q-35 0 -35 191q0 57 4 143q4 102 4 106q1 26 1 57q0 91 -5 218q-6 217 -6 274z M311 913q0 -90 43 -90q86 0 135 119q43 104 43 256q0 147 -40 250q-45 113 -119 113h-62v-648zM319 53q131 0 220 125q80 115 79 252h-2q0 94 -53 205q-74 150 -194 149q-29 0 -50 -12v-719z" />
<glyph unicode="C" horiz-adv-x="1757" d="M160 788q0 360 240.5 598t598.5 238q238 0 412 -149q184 -158 184 -398h-2q0 -164 -129 -278.5t-297 -114.5q-117 0 -222 87q-108 89 -107 214q0 109 43 166q35 45 86 45q45 2 45 -20q0 -18 -45 -25q-35 -8 -61.5 -49t-26.5 -106q0 -107 84 -187q86 -82 196 -82 q164 0 260 121q88 111 88 272q0 203 -157 340q-152 129 -355 129q-338 0 -530 -235q-174 -213 -174 -547q0 -291 151 -498q174 -233 480 -233q201 0 372 92q182 100 267 274q10 -10 10 -20q0 -158 -262 -297q-233 -125 -406 -125q-344 0 -553 244q-190 222 -190 544z" />
<glyph unicode="D" horiz-adv-x="1222" d="M233 29l15 1638q12 14 37 14q358 0 581 -251q205 -233 205 -564q0 -297 -227 -571q-242 -293 -543 -293q-39 0 -68 27zM356 426q4 -39 6 -92l-2 -174q-2 -96 35 -97q49 0 117 37l74 47q162 88 272 332q96 211 96 391v-2q0 336 -159 545q-29 39 -146 111q-137 84 -213 84 h-55z" />
<glyph unicode="E" horiz-adv-x="1169" d="M145 502q0 53 105 82q55 16 112 30q2 66 3 471q0 315 -7 469q25 25 86 25q377 0 398 -63q-113 10 -344 22q-21 -34 -21 -214v-34q4 -100 6 -203q2 -101 2 -218.5t-2 -252.5q45 -39 168 -38q154 0 217 45q8 6 19 6q18 0 24 -15q2 -4 2 -7q0 -10 -12 -17q-51 -55 -194 -55 q-18 0 -213 28q-23 -23 -23 -119v-262q0 -70 6 -92q12 -45 55 -45q47 0 137.5 9t133.5 9q27 0 26 -61q-151 3 -254 3q-156 0 -208 -7q-14 14 -15 33v352q0 4 6.5 67.5t3.5 73.5q0 41 -30 41q-55 0 -101 -33q-70 -47 -77 -51q-9 9 -9 21z" />
<glyph unicode="F" horiz-adv-x="1032" d="M100 465q0 29 68 65.5t72 53.5q8 31 8 100q0 51 -6 168t-6 158v458q0 41 24 78q33 45 86 45l330 -2q12 0 28.5 -13t20.5 -24q-6 -6 -6 -26l-316 16q-49 2 -49 -557v-254q0 -111 6 -125q16 -37 103 -37q6 0 74.5 -3t76.5 -3q162 0 201 64q23 -10 23 -31q0 -76 -199 -76 q-41 0 -244 12q-2 0 -3 1q-42 0 -42 -54q0 -18 5 -48t5 -36v-159q0 -233 -47 -234q-4 0 -33.5 3t-41.5 3q-8 27 -9 68q0 31 6.5 92t6.5 86l2 246q-10 10 -13 10q-8 0 -44.5 -25.5t-47.5 -40.5q-39 1 -39 21z" />
<glyph unicode="G" horiz-adv-x="1294" d="M180 811q0 328 244 580q234 242 511 241h5q4 0 17.5 -3t19.5 -1q0 -35 -80 -47q-299 -49 -455 -295q-133 -211 -133 -502q0 -227 174 -475q188 -264 398 -264q43 0 43 45v352q0 55 -2 195q-2 123 -2 194q0 82 -6.5 115t-6.5 39q0 70 123 107q12 2 17 -7q1 -3 1 -8t-1 -12 q-4 -16 -5 -18v-994q0 -37 -20 -47q-12 -8 -51 -8q-319 0 -555 248t-236 565z" />
<glyph unicode="H" horiz-adv-x="1376" d="M123 430v29q154 72 164 78q35 23 35 67q0 8 -2.5 45t-2.5 68q0 123 -3 366.5t-3 364.5q0 123 19 145q37 -12 53 -12t49 12q6 -76 8 -368q3 -324 3 -453q0 -64 -1 -80q0 -8 -4 -33.5t-4 -40.5q0 -53 45 -53q158 0 242 -6t117 -6q20 18 20 63q0 20 -5 61.5t-5 57.5v828 q33 29 86 29q7 0 14 -1q6 0 22.5 -9t18.5 -15q2 -68 2 -187q-2 -82 -4 -183t-2 -97q0 -45 -5 -151.5t-5 -164.5q0 -135 22 -221q10 -1 21 -1q101 0 164 151q4 6 8 6q18 0 18 -39v2q0 -63 -59 -102q-27 -16 -111 -50q-59 -23 -59 -43q0 -381 4 -450l2 -37q-16 10 -41 10 l-82 -12l-6 72q-7 85 -6 133v22q5 74 5 187q0 38 -1 80q-47 33 -338 32q-78 0 -78 -26q-4 -43 -4 -283v-211h-100q-18 0 -25 37q-3 18 -2 44v28q4 61 4 49v276q0 37 -10 51q-51 -4 -85 -26l-66 -45q-9 0 -27 12z" />
<glyph unicode="I" horiz-adv-x="600" d="M229 1556q18 14 68 15q66 0 74 -33v-260q0 -35 -17 -123l4 -811q-2 -24 -2 -55t2 -70l7 -119q0 -100 -46 -100q6 0 -24 2q-25 2 -64 0q0 240 7 393q6 131 6 234q-1 225 -15 927zM231 2118q0 43 11 59q14 27 59 27q43 0 51 -19q4 -8 4 -51h-2l-47 -426q-27 12 -53 199 q-23 152 -23 211z" />
<glyph unicode="J" horiz-adv-x="671" d="M-123 -383q180 16 318 217q125 180 124 354v1299q0 6 -6 51t-6 53q0 41 64 41h59q18 -90 19 -463q0 -90 6 -271t6 -271q0 -47 -6 -139.5t-6 -141.5q0 -481 -431 -711q-78 -41 -100 -41q-31 0 -41 23z" />
<glyph unicode="K" horiz-adv-x="1679" d="M88 211q0 8 100.5 63.5t104.5 73.5q10 37 12 96q0 84 2 97l-18 1024q0 33 86 32q47 0 53 -10q2 -18 2 -219v-154l-6 -749q-4 -4 10 -4q55 0 242 274q168 252 194 326q100 285 117 348q12 41 29 172q5 34 30 34q5 0 11 -1q12 -20 12 -58q0 -244 -221 -636 q-213 -383 -424 -543q-6 -4 -6 -45q0 -53 22 -60q246 -70 494 -172q115 -45 264 -45q303 2 363 221q27 -14 26 -36q0 -106 -149 -179q-119 -55 -228 -55h-80q-63 0 -391 127q-170 66 -305 96q-12 -10 -16 -41l-6 -174q-49 -12 -80 -12q-37 0 -37 39v158q0 37 0 34 q-4 10 -33 11q-25 0 -119 -54h-49q0 2 -3 7.5t-3 13.5z" />
<glyph unicode="L" horiz-adv-x="1064" d="M197 31q72 6 71 94q0 16 -4 57q-2 35 -2 54q3 49 3 92q0 22 -1 43q-2 41 -5 76l-3 36q0 8 6 62.5t6 70.5l-2 258q0 43 3 178.5t3 172.5v205q0 2 -2 57t-2 86q16 12 58 14l69 4l6 -895q-17 -81 -16 -167v-19l2 -164q0 6 0 -49q-2 -70 -2 -195q0 -45 70 -45l342 -2 q41 0 123 49l34 -8q2 -86 -219 -86q-6 0 -52 6.5t-54 6.5h-164q-25 0 -236 -19z" />
<glyph unicode="M" horiz-adv-x="1425" d="M199 82l12 1360v117q14 14 25 14q12 0 215 -258q225 -287 294 -354q111 111 306 352q170 211 237 266q14 -14 15 -20q-41 -184 -41 -201l18 -486q1 -10 1 -21q0 -25 -3 -60l-4 -58l-2 -155q0 -8 9 -184.5t9 -184.5q0 -197 -26 -199q-18 4 -72 4h-25q-10 14 -10 43 q0 20 5 54t5 43v200l-22 981q-20 -12 -191 -200q-178 -193 -178 -213q0 -6 12.5 -25.5t12.5 -26.5q0 -20 -36 -47.5t-50 -29.5l-447 526q-10 -10 -12 -23q-2 -8 0 -18l2 -14v-148l-6 -862q-6 -43 -8 -80v-100q0 -33 -23 -70q-22 10 -22 78z" />
<glyph unicode="N" horiz-adv-x="1128" d="M215 430v258v356v-66v595h25q16 -102 114 -221q61 -72 211 -207t203 -199q12 6 16 27q2 14 0 41l-2 37v217q0 276 27 311q19 -21 19 -68q0 -9 -1 -18q-3 -32 -2 -56q0 -31 4 -44l-6 -678q0 -6 6.5 -77t6.5 -77v-172q0 -6 6 -116.5t6 -118.5v-2q0 -29 -21 -132h-39l7 459 q-14 186 -17 199q-23 113 -104 205q-14 16 -209 172q-178 143 -201 186q-16 -8 -16 -92q0 -61 10 -196.5t10 -168.5v-639q0 -111 -32 -143q-16 14 -16 76q0 36 5 88q1 6 1 17q0 35 -5 124q-6 129 -6 123z" />
<glyph unicode="O" horiz-adv-x="1818" d="M168 932q0 190 166 424q172 248 342 248q12 0 41 -15q-209 -53 -328 -278q-92 -176 -92 -357q0 -340 137 -596q166 -313 477 -313q344 0 510 246q141 210 142 575q0 290 -117 465q-129 196 -373 196q-19 0 -39 -1q-111 -6 -188 -135l-96 -177q-14 14 -15 41 q0 143 152 238q129 82 264 82q258 0 410 -285q125 -231 125 -510q0 -336 -233.5 -556t-569.5 -220q-362 0 -553 301q-162 252 -162 627z" />
<glyph unicode="P" horiz-adv-x="1032" d="M133 313v29q2 0 12.5 6t16.5 6q8 0 27.5 -6t25.5 -6q63 0 83.5 14.5t20.5 51.5q0 10 -2 43.5t-2 58.5v182q0 20 -3 205.5t-3 239.5v409q47 18 90 19q186 0 326 -219q121 -190 121 -369q0 -190 -80 -334q-96 -166 -326 -319q-12 -8 -12 -111q1 -75 1 -117.5t-1 -52.5 q-6 -14 -38 -28.5t-46 -14.5q-27 0 -27 96v45q2 31 2 47q0 125 -40 125q-6 0 -47.5 -6t-49.5 -6q-12 0 -49 12zM428 1399v1l4 -208q3 -137 3 -334q0 -99 -1 -213l-2 -235q14 -14 23 -15q303 152 303 557v2q0 412 -309 549q-19 -106 -21 -105v1z" />
<glyph unicode="Q" horiz-adv-x="1851" d="M133 831q0 147 107 355q117 229 262 307q217 115 456 115q270 0 499 -221.5t229 -493.5v-2q0 -219 -107 -469q-129 -297 -307 -297q-14 0 -29 14v27q156 39 244 270q70 182 69 377q0 754 -702 754q-272 0 -440 -252q-139 -210 -140 -452q0 -330 129 -556 q157 -274 465 -274h4q182 2 181 41q-18 31 -39 61q-37 68 -37 152q0 35 14 63q18 -2 29 -71q14 -88 29 -119q41 -86 136 -148.5t187 -62.5q51 0 85 15.5t102 66.5q16 0 28 -27q-37 -37 -37 -74q0 -49 29 -94q35 -57 100 -72v-22q-12 -12 -32 -12q-59 0 -101 80q-2 2 -41 110 q-4 -4 -61.5 -17.5t-65.5 -13.5q-86 0 -180 64.5t-98 64.5q-6 0 -90 -17t-92 -17q-385 0 -590 239q-195 223 -195 608z" />
<glyph unicode="R" horiz-adv-x="1556" d="M133 338v29q82 39 90 47q33 27 33 83q0 24 -3 223t-3 382v276q0 162 8 183q12 33 90 32q233 0 373 -159q131 -154 133 -394q0 -115 -24.5 -186.5t-95 -168.5t-163.5 -165q-47 -33 -135 -78q-55 -27 -55 -45q0 -25 383 -182q393 -162 493 -162q49 0 127 29q90 35 109 82 q27 -10 27 -29q0 -63 -127 -102q-88 -27 -142 -27q-129 0 -393 115q-430 186 -463 198q-18 -29 -18 -88q0 -20 3 -64t3 -65q0 -72 -29 -102q-14 4 -39 4q-23 0 -39 -4q-6 43 -14 164l-2 170q-14 20 -24 20h3q0 -2 -106 -16zM377 504q0 -27 24 -41q174 92 271 246 q92 143 92 297q0 203 -57 333q-84 195 -285 197q-27 0 -41 -8z" />
<glyph unicode="S" horiz-adv-x="1228" d="M133 1133q0 242 174 389q160 137 387 137q141 0 271 -94q143 -104 143 -250q0 -127 -82 -215t-205 -88q-88 0 -157.5 59t-71.5 152q0 10 19.5 38.5t39.5 30.5q-16 -76 -16 -98q0 -66 80 -109q63 -33 116 -32q98 0 150 98q37 72 37 149q0 311 -428 314q-164 0 -283 -152 q-109 -139 -108 -293q0 -199 184 -299l340 -145q184 -102 184 -303q0 -180 -143 -305q-135 -117 -307 -117q-25 0 -76 15.5t-70 27.5l-2 35q12 12 31 12q-6 0 32 -24.5t107 -24.5q131 0 229.5 93t98.5 218q0 186 -174 283l-326 153q-174 114 -174 345z" />
<glyph unicode="T" horiz-adv-x="1064" d="M127 1528q0 89 200 89q21 0 44 -1l426 -19q-1 0 -2 1q0 2 133 28q14 -14 14 -22q0 -39 -131 -50q-6 0 -15.5 3.5t-17.5 3.5q-2 0 -62.5 -4.5t-88.5 -4.5q-24 -94 -25 -371q0 -74 2 -161l6 -301q0 -12 -6 -117.5t-6 -130.5v-152q0 -4 -10 -280q-39 -25 -78 -25h-27 l-2 1526q0 29 -39 35q12 -2 -49 -2q-172 0 -231 -66h-27q-8 9 -8 21z" />
<glyph unicode="U" horiz-adv-x="1064" d="M170 367q-1 73 -1 161q0 177 3 418q4 420 4 576q0 16 -3 34.5t-3 22.5q0 12 70 12q61 0 65 -123v-192l-12 -766q-1 -29 -1 -55q0 -157 21 -222q53 -182 246 -182q78 0 171 78t95 162q8 324 9 582q0 129 -3 243q-4 246 -4 291q4 154 31 172q18 4 33 -18l-6 -1051 q-2 -506 -344 -506q-328 1 -371 363z" />
<glyph unicode="V" horiz-adv-x="1327" d="M166 1548v31q23 8 59 8q61 0 68 -14q35 -94 385 -1237q20 25 55 133l62 195l131 399q92 293 135 489q2 2 29 27q12 12 26 12q35 0 35 -28q0 8 -160 -504l-186 -537q-156 -446 -158 -504q0 -6 -37 -18q-2 14 -2 121l-153 543z" />
<glyph unicode="W" horiz-adv-x="2113" d="M188 1593l7 33h61q76 0 82 -18q55 -240 170 -650q70 -207 127 -417q72 -272 84 -314q53 76 164 391q156 446 223 613l31 -8q-2 -12 -17.5 -64.5t-15.5 -58.5q0 -61 145 -447q121 -317 176 -442q37 59 80 213q57 213 82 284l82 226q8 18 121 383q94 303 119 303 q30 -2 29 -23q0 -7 -3 -16l-276 -874l-156 -510q-70 -205 -110 -205q-27 0 -164 342l-199 508q-10 -20 -192 -473q-141 -346 -191 -346q-14 0 -190 653q-197 731 -269 917z" />
<glyph unicode="X" horiz-adv-x="1261" d="M170 1550q6 16 63 21q96 8 101 8q100 -213 317 -641q39 33 162 344q115 295 150 295q33 0 26 -27q0 -2 -143.5 -320.5t-143.5 -367.5q0 -25 166 -375q182 -385 211 -467v-2q-32 -11 -54 -11q-6 0 -11 1q-37 0 -51 8q-16 29 -187 383q-100 203 -162 287q-41 -59 -96 -194 l-196 -459q-8 -18 -62 -33q-8 6 -6 20q0 51 165 378t165 374q0 25 -186.5 378t-227.5 400z" />
<glyph unicode="Y" horiz-adv-x="1228" d="M135 1544q0 16 37 47t57 31l199 -334q199 -334 213 -336q27 0 164 254l207 396q4 6 41 4l-387 -744v-342q0 -371 18 -504q-37 -18 -76 -18q-35 0 -43 96t-14 195q-2 25 -6 276q-2 213 -17 291q-37 74 -118 217q-35 53 -152 254q-123 207 -123 217z" />
<glyph unicode="Z" horiz-adv-x="966" d="M127 25q0 45 251 739t251 762q0 59 -68 59l-293 -37q-27 0 -47 21v28q35 14 80 17l371 18h7q85 0 87 -94q0 -33 -242 -688q-248 -670 -260 -784q10 -16 53 -17q12 0 66.5 -3t89.5 -3q190 0 303 78v-39q0 -74 -225 -74q-6 0 -107.5 6t-109.5 6q-6 0 -63.5 -9t-63.5 -9 l-74 -6q0 2 -3 12.5t-3 16.5z" />
<glyph unicode="[" horiz-adv-x="563" d="M59 -109q0 1837 19 1835l297 -24q-14 2 131 33q16 -16 16 -25q0 -57 -319 -57q-33 -133 -23 -596q2 -119 -2 -307q-4 -225 -4 -306v-170q0 -4 -10 -313q8 6 196 6q164 0 168 -32.5t4 -24.5q0 -10 -16 -12q-39 10 -123 16z" />
<glyph unicode="\" horiz-adv-x="811" d="M-90 1663l133 -289q20 -45 82 -137l414 -905l112 -254q57 -129 105 -131q10 4 88 2q-43 94 -271 561q-100 205 -530 1171q-27 16 -76 19q-67 0 -57 -37z" />
<glyph unicode="]" horiz-adv-x="563" d="M55 -90q0 -10 17 -12q39 10 123 16l333 -23q0 1837 -20 1835l-295 -24q12 2 -133 33q-14 -16 -14 -25q0 -57 319 -57q31 -133 23 -596q-2 -119 2 -307q4 -225 4 -306v-170q0 -4 10 -313q-8 6 -197 6q-166 0 -169 -32.5t-3 -24.5z" />
<glyph unicode="a" horiz-adv-x="1787" d="M203 313q41 18 86 19h80q63 131 178 420q119 303 184 442q84 178 84 207q0 8 -17.5 47t-17.5 47q0 4 54 117q27 0 38 -19q27 -86 82 -237l152 -340q84 -190 127 -320q27 -78 92 -227q76 -172 94 -172q121 0 275 147q8 -12 8 -26q0 -61 -139.5 -117.5t-139.5 -64.5 q0 -6 30 -77t30 -77l2 -64q-16 4 -39 5q-23 0 -68 -5q-29 143 -88 218q-178 16 -575 49q-7 1 -15 0q-44 0 -86 -21q-57 -31 -82 -98q-29 31 -55 63q-37 39 -72 39q-8 0 -16 -2q-12 -20 -117 -260q-14 0 -28 14l102 246q4 25 -37 25q16 0 -47 -6q-39 -4 -53 6zM416 317 q0 -8 3 -13t3 -7q10 2 48 -20.5t44 -22.5q111 72 166 72l522 -47q31 0 64 14l-197 506q-121 301 -231 524q-74 -158 -250 -584q-172 -412 -172 -422z" />
<glyph unicode="b" horiz-adv-x="811" d="M199 1565q8 20 53 32q33 10 51 11q166 0 250 -160q59 -117 59 -260q0 -104 -45 -195q-29 -55 -82 -114q-45 -49 -45 -60q63 -37 111 -78q117 -100 143 -227v-149q0 -135 -149 -252q-137 -111 -264 -111h-39q-35 0 -35 191q0 57 4 143q4 102 4 106q1 20 1 45q0 74 -5 193 l-6 153v-2v160zM311 913q0 -90 43 -90q106 2 156 203q31 125 31 246v-2q0 45 -45 153q-57 137 -123 138h-62v-648zM319 53h54q6 0 44 25.5t52 32.5q68 31 111 135q39 92 38 184h-2q0 94 -53 205q-74 150 -194 149q-29 0 -50 -12v-719z" />
<glyph unicode="c" horiz-adv-x="1757" d="M160 788q0 360 240.5 598t598.5 238q238 0 412 -149q184 -158 184 -398h-2q0 -164 -129 -278.5t-297 -114.5q-117 0 -222 87t-107 204q0 51 20 112q29 84 84 117q6 -6 27 -6l-2 -47q-35 -8 -61.5 -49t-26.5 -101q0 -94 77.5 -184t178.5 -90h24q164 0 260 121 q88 111 88 272q0 203 -157 340q-152 129 -355 129q-338 0 -530 -235q-174 -213 -174 -547q0 -291 151 -498q174 -233 480 -233q78 0 92 2q131 0 295 102q180 111 252 262q10 -10 10 -20q0 -4 -41 -90q-72 -147 -283 -246q-184 -86 -344 -86q-344 0 -553 244 q-190 222 -190 544z" />
<glyph unicode="d" horiz-adv-x="1222" d="M233 29l15 1638q12 14 37 14q358 0 581 -251q205 -233 205 -564q0 -297 -227 -571q-242 -293 -543 -293q-39 0 -68 27zM356 426q4 -39 6 -92l-2 -174q-2 -96 35 -97q49 0 117 37l74 47q162 88 272 332q96 211 96 391v-2q0 336 -159 545q-29 39 -146 111q-137 84 -213 84 h-55z" />
<glyph unicode="e" horiz-adv-x="1169" d="M145 502q0 53 105 82q55 16 112 30q2 66 3 207v264q0 315 -7 469q25 25 86 25q377 0 398 -63q-113 10 -344 22q-21 -34 -21 -214v-34q4 -100 6 -203q2 -101 2 -218.5t-2 -252.5q33 -29 62 -28q8 0 85 -3t83 -3q98 0 155 41l29 -2l4 -31q-51 -55 -194 -55q-18 0 -213 28 q-23 -23 -23 -119v-262q0 -70 6 -92q12 -45 55 -45q6 0 55.5 -3t57.5 -3q25 0 84 12t74 12q6 0 26 -20v-41q-151 3 -254 3q-156 0 -208 -7q-14 14 -15 33v352q0 4 6.5 67.5t3.5 73.5q0 41 -30 41q-55 0 -101 -33q-70 -47 -77 -51q-9 9 -9 21z" />
<glyph unicode="f" horiz-adv-x="1032" d="M100 465q0 29 68 65.5t72 53.5q8 31 8 100q0 51 -6 168t-6 158v458q0 41 24 78q33 45 86 45l330 -2q12 0 28.5 -13t20.5 -24q-6 -6 -6 -26l-316 16h-3q-44 0 -44 -49q0 -37 21 -86q0 -51 -11.5 -145.5t-11.5 -276.5v-254q0 -111 6 -125q16 -37 103 -37q6 0 74.5 -3 t76.5 -3q162 0 201 64q23 -10 23 -31q0 -39 -78 -64q-53 -17 -84 -16h-6l-275 16q-2 0 -3 1q-42 0 -42 -54q0 -18 5 -48t5 -36v-159q0 -233 -47 -234q-4 0 -33.5 3t-41.5 3q-8 27 -9 68q0 31 6.5 92t6.5 86l2 246q-10 10 -13 10q-8 0 -44.5 -25.5t-47.5 -40.5h-24 q-15 15 -15 21z" />
<glyph unicode="g" horiz-adv-x="1294" d="M180 811q0 328 244 580q234 242 511 241h5q4 0 17.5 -3t19.5 -1q0 -35 -80 -47q-299 -49 -455 -295q-133 -211 -133 -502l12 -70q11 -71 11 -106q4 -143 196 -350q201 -213 353 -213q43 0 43 45v352q0 6 -3 94.5t-3 96.5l2 198q0 82 -6.5 115t-6.5 39q0 51 123 107 q12 -25 12 -45v-994q0 -37 -20 -47q-12 -8 -51 -8q-229 0 -455 164q-238 172 -305 418q-31 110 -31 231z" />
<glyph unicode="h" horiz-adv-x="1376" d="M123 430v29q154 72 164 78q35 23 35 67q0 8 -2.5 45t-2.5 68v340q0 4 -3 111.5t-3 115.5v164q0 123 19 145q37 -12 53 -12t49 12q6 -76 8 -368l2 -275q1 -105 1 -169.5t-1 -88.5q0 -8 -4 -33.5t-4 -40.5q0 -53 45 -53q158 0 242 -6t117 -6q20 18 20 63q0 20 -5 61.5 t-5 57.5v828q33 29 86 29q7 0 14 -1q6 0 22.5 -9t18.5 -15q2 -68 2 -187q-2 -82 -4 -183t-2 -97v-226q0 -31 -4 -81t-4 -78q0 -70 20 -152q10 -1 21 -1q101 0 164 151q27 -10 26 -33v2q0 -63 -59 -102q-27 -16 -111 -50q-59 -23 -59 -43v-368q0 -6 3 -36t1 -46l2 -37 q-16 10 -41 10l-82 -12l-6 72q-7 85 -6 133v22q5 74 5 187q0 38 -1 80q-47 33 -338 32q-78 0 -78 -26q-4 -43 -4 -283v-211h-100q-18 0 -25 37q-3 18 -2 44v28q4 61 4 49v276q0 37 -10 51q-51 -4 -85 -26l-66 -45q-9 0 -27 12z" />
<glyph unicode="i" horiz-adv-x="600" d="M229 1556q18 14 68 15q66 0 74 -33v-260q0 -35 -17 -123l4 -811q-2 -24 -2 -55t2 -70l7 -119q0 -100 -46 -100q6 0 -24 2q-25 2 -64 0q0 240 7 393q6 131 6 234q-1 225 -15 927zM231 2118q0 43 11 59q14 27 59 27q43 0 51 -19q4 -8 4 -51h-2l-47 -426q-27 12 -53 199 q-23 152 -23 211z" />
<glyph unicode="j" horiz-adv-x="671" d="M-123 -383q180 16 318 217q125 180 124 354v1299q0 6 -6 51t-6 53q0 41 64 41h59q18 -90 19 -463v-168q0 -66 6 -195.5t6 -176.5v-2q0 -6 -6 -55.5t-6 -57.5v-168q0 -481 -431 -711q-78 -41 -100 -41q-31 0 -41 23z" />
<glyph unicode="k" horiz-adv-x="1679" d="M88 211q0 8 100.5 63.5t104.5 73.5q10 37 12 96q0 84 2 97l-18 1024q0 33 86 32q47 0 53 -10q2 -18 2 -219v-154l-6 -749q-4 -4 10 -4q55 0 242 274q168 252 194 326q100 285 117 348q12 41 29 172q5 34 30 34q5 0 11 -1q12 -20 12 -58q0 -244 -221 -636 q-213 -383 -424 -543q-6 -4 -6 -45q0 -53 22 -60q246 -70 494 -172q115 -45 264 -45q303 2 363 221q27 -14 26 -36q0 -106 -149 -179q-119 -55 -228 -55h-80q-63 0 -391 127q-170 66 -305 96q-12 -10 -16 -41l-6 -174q-49 -12 -80 -12q-37 0 -37 39v158q0 37 0 34 q-4 10 -33 11q-25 0 -119 -54h-49q0 2 -3 7.5t-3 13.5z" />
<glyph unicode="l" horiz-adv-x="1064" d="M197 31q72 6 71 94q0 16 -4 57q-2 35 -2 54q3 49 3 92q0 22 -1 43q-2 41 -5 76l-3 36q0 8 6 62.5t6 70.5l-2 258q0 43 3 178.5t3 172.5v205q0 2 -2 57t-2 86q16 12 58 14l69 4l6 -895q-17 -81 -16 -167v-19l2 -164q0 6 0 -49q-2 -70 -2 -195q0 -45 70 -45l342 -2 q41 0 123 49l34 -8q2 -86 -219 -86q-6 0 -52 6.5t-54 6.5h-164q-25 0 -236 -19z" />
<glyph unicode="m" horiz-adv-x="1425" d="M199 82l12 1360v117q14 14 25 14q12 0 215 -258q225 -287 294 -354q111 111 306 352q170 211 237 266q14 -14 15 -20q-41 -184 -41 -201l18 -486q1 -10 1 -21q0 -25 -3 -60l-4 -58l-2 -155q0 -8 9 -184.5t9 -184.5q0 -197 -26 -199q-18 4 -72 4h-25q-10 14 -10 43 q0 20 5 54t5 43v200l-22 981q-20 -12 -191 -200q-178 -193 -178 -213q0 -6 12.5 -25.5t12.5 -26.5q0 -20 -36 -47.5t-50 -29.5l-447 526q-10 -10 -12 -23q-2 -8 0 -18l2 -14v-148l-6 -862q-6 -43 -8 -80v-100q0 -33 -23 -70q-22 10 -22 78z" />
<glyph unicode="n" horiz-adv-x="1128" d="M215 430v258v356v-66v595h25q16 -102 114 -221q61 -72 211 -207t203 -199q12 6 16 27q2 14 0 41l-2 37v217q0 276 27 311q19 -21 19 -68q0 -9 -1 -18q-3 -32 -2 -56q0 -31 4 -44l-6 -678q0 -6 6.5 -77t6.5 -77v-172q0 -6 6 -116.5t6 -118.5v-2q0 -29 -21 -132h-39l7 459 q-14 186 -17 199q-23 113 -104 205q-14 16 -209 172q-178 143 -201 186q-16 -8 -16 -92q0 -61 10 -196.5t10 -168.5v-639q0 -111 -32 -143q-16 14 -16 76q0 36 5 88q1 6 1 17q0 35 -5 124q-6 129 -6 123z" />
<glyph unicode="o" horiz-adv-x="1818" d="M168 770v162q0 190 166 424q172 248 342 248q12 0 41 -15q-209 -53 -328 -278q-94 -180 -92 -365l2 -201q0 -94 127 -376q68 -150 225 -244q137 -80 260 -80h27q344 0 504 283q119 209 121 528q0 203 -88 408q-123 276 -345 276q-6 0 -42.5 -7t-53.5 -7 q-111 -6 -188 -135l-96 -177q-14 14 -15 41q0 143 152 238q129 82 264 82q176 0 385 -232q72 -80 115 -266q35 -156 35 -297q0 -297 -213 -532q-221 -244 -525 -244h-65q-297 0 -512 250q-203 233 -203 516z" />
<glyph unicode="p" horiz-adv-x="1032" d="M133 313v29q2 0 12.5 6t16.5 6q8 0 27.5 -6t25.5 -6q63 0 83.5 14.5t20.5 51.5q0 10 -2 43.5t-2 58.5v182q0 20 -3 205.5t-3 239.5v409q47 18 90 19q186 0 326 -219q121 -190 121 -369q0 -190 -80 -334q-96 -166 -326 -319q-12 -8 -12 -111q1 -75 1 -117.5t-1 -52.5 q-6 -14 -38 -28.5t-46 -14.5q-27 0 -27 96v45q2 31 2 47q0 125 -40 125q-6 0 -47.5 -6t-49.5 -6q-12 0 -49 12zM428 1399v1l4 -208q3 -137 3 -334q0 -99 -1 -213l-2 -235q14 -14 23 -15q303 152 303 557v2q0 412 -309 549q-19 -106 -21 -105v1z" />
<glyph unicode="q" horiz-adv-x="1851" d="M133 690v141q0 147 107 355q117 229 262 307q217 115 456 115q270 0 499 -221.5t229 -493.5v-2q0 2 -10 -75q-8 -63 -7 -100v-12v-12q0 -135 -129 -342q-141 -225 -268 -225q-14 0 -29 14v27q156 39 244 270q70 182 69 377q0 754 -702 754q-272 0 -440 -252 q-141 -213 -140 -459l2 -190q2 -231 183 -430q185 -203 409 -203h4q182 2 181 41q-18 31 -39 61q-37 68 -37 152q0 35 14 63q18 -2 29 -71q14 -88 29 -119q33 -68 128 -139.5t144 -71.5h51q51 0 85 15.5t102 66.5q16 0 28 -27q-37 -37 -37 -74q0 -49 29 -94q35 -57 100 -72 v-22q-12 -12 -32 -12q-59 0 -101 80q-2 2 -41 110q-4 -4 -61.5 -17.5t-65.5 -13.5q-86 0 -180 64.5t-98 64.5q-6 0 -90 -17t-92 -17q-303 0 -535 190q-250 205 -250 516z" />
<glyph unicode="r" horiz-adv-x="1556" d="M133 338v29q82 39 90 47q33 27 33 83q0 24 -3 223t-3 382v276q0 162 8 183q12 33 90 32q233 0 373 -159q131 -154 133 -394q0 -115 -24.5 -186.5t-95 -168.5t-163.5 -165q-47 -33 -135 -78q-55 -27 -55 -45q0 -23 86 -55l125 -43l293 -141q231 -104 372 -105q49 0 127 29 q90 35 109 82q27 -10 27 -29q0 -63 -127 -102q-88 -27 -142 -27q-129 0 -393 115q-430 186 -463 198q-18 -29 -18 -88q0 -20 3 -64t3 -65q0 -72 -29 -102q-14 4 -39 4q-23 0 -39 -4q-6 43 -14 164l-2 170q-14 20 -24 20h3q0 -2 -106 -16zM377 504q0 -27 24 -41 q174 92 271 246q92 143 92 297q0 203 -57 333q-84 195 -285 197q-27 0 -41 -8z" />
<glyph unicode="s" horiz-adv-x="1228" d="M133 1133q0 242 174 389q160 137 387 137q141 0 271 -94q143 -104 143 -250q0 -127 -82 -215t-205 -88q-88 0 -157.5 59t-71.5 152q0 10 19.5 38.5t39.5 30.5q-16 -76 -16 -98q0 -66 80 -109q63 -33 116 -32q98 0 150 98q37 72 37 149q0 311 -428 314q-164 0 -283 -152 q-109 -139 -108 -293q0 -199 184 -299l340 -145q184 -102 184 -303q0 -180 -143 -305q-135 -117 -307 -117q-25 0 -76 15.5t-70 27.5l-2 35q12 12 31 12q-6 0 32 -24.5t107 -24.5q131 0 229.5 93t98.5 218q0 186 -174 283l-326 153q-174 114 -174 345z" />
<glyph unicode="t" horiz-adv-x="1064" d="M127 1528q0 89 200 89q21 0 44 -1l426 -19q-1 0 -2 1q0 2 133 28q14 -14 14 -22q0 -39 -131 -50q-6 0 -15.5 3.5t-17.5 3.5q-2 0 -62.5 -4.5t-88.5 -4.5q-24 -94 -25 -371q0 -74 2 -161l6 -301q0 -12 -6 -117.5t-6 -130.5v-152q0 -4 -10 -280q-39 -25 -78 -25h-27 l-2 1526q0 29 -39 35q12 -2 -49 -2q-172 0 -231 -66h-27q-8 9 -8 21z" />
<glyph unicode="u" horiz-adv-x="1064" d="M164 1182q12 106 12 166v174q0 16 -3 34.5t-3 22.5q0 12 70 12q61 0 65 -123v-192l-12 -766q-1 -29 -1 -55q0 -157 21 -222q53 -182 246 -182q78 0 172 78t94 162v248q0 29 9.5 65.5t9.5 71.5q0 33 -6 80l-7 360q-4 246 -4 291q4 154 31 172q18 4 33 -18l-6 -1051 q-2 -506 -344 -506q-328 0 -371 363z" />
<glyph unicode="v" horiz-adv-x="1327" d="M166 1548v31q23 8 59 8q61 0 68 -14q35 -94 385 -1237q20 25 55 133l62 195l131 399q92 293 135 489q2 2 29 27q12 12 26 12q35 0 35 -28q0 8 -160 -504l-186 -537q-156 -446 -158 -504q0 -6 -37 -18q-2 14 -2 121l-153 543z" />
<glyph unicode="w" horiz-adv-x="2113" d="M188 1593l7 33h61q76 0 82 -18q55 -240 170 -650q70 -207 127 -417q72 -272 84 -314q53 76 164 391q156 446 223 613l31 -8q-2 -12 -17.5 -64.5t-15.5 -58.5q0 -61 145 -447q121 -317 176 -442q37 59 80 213q57 213 82 284l82 226q8 18 121 383q94 303 119 303 q30 -2 29 -23q0 -7 -3 -16l-276 -874l-156 -510q-70 -205 -110 -205q-27 0 -164 342l-199 508q-10 -20 -192 -473q-141 -346 -191 -346q-14 0 -190 653q-197 731 -269 917z" />
<glyph unicode="x" horiz-adv-x="1261" d="M170 1550q6 16 63 21q96 8 101 8q100 -213 317 -641q39 33 162 344q115 295 150 295q33 0 26 -27q0 -2 -143.5 -320.5t-143.5 -367.5q0 -25 166 -375q182 -385 211 -467v-2q-32 -11 -54 -11q-6 0 -11 1q-37 0 -51 8q-16 29 -187 383q-100 203 -162 287q-41 -59 -96 -194 l-196 -459q-8 -18 -62 -33q-8 6 -6 20q0 51 165 378t165 374q0 25 -186.5 378t-227.5 400z" />
<glyph unicode="y" horiz-adv-x="1228" d="M135 1544q0 16 37 47t57 31l199 -334q199 -334 213 -336q27 0 164 254l207 396q4 6 41 4l-387 -744v-342q0 -371 18 -504q-37 -18 -76 -18q-35 0 -43 96t-14 195q-2 25 -6 276q-2 213 -17 291q-37 74 -118 217q-35 53 -152 254q-123 207 -123 217z" />
<glyph unicode="z" horiz-adv-x="966" d="M127 25q0 45 251 739t251 762q0 59 -68 59l-293 -37q-27 0 -47 21v28q35 14 80 17l371 18h7q85 0 87 -94q0 -33 -242 -688q-248 -670 -260 -784q10 -16 53 -17q12 0 66.5 -3t89.5 -3q190 0 303 78v-39q0 -74 -225 -74q-6 0 -107.5 6t-109.5 6q-6 0 -63.5 -9t-63.5 -9 l-74 -6q0 2 -3 12.5t-3 16.5z" />
<glyph unicode="|" horiz-adv-x="524" d="M199 1661q20 16 69 16q70 0 76 -37v-284q0 -43 -18 -133l6 -887q-2 -27 -2 -57q0 -39 4 -110t4 -99q0 -109 -47 -109q8 0 -25 2q-25 2 -65 0q0 260 6 430q6 141 6 254q0 246 -14 1014z" />
<glyph unicode="&#xad;" d="M178 741q92 80 144.5 106.5t119.5 26.5q53 0 71.5 -20t37.5 -45q96 68 147 86q39 12 115 12q51 0 153.5 -43t168.5 -43q86 0 129 105q4 0 14 -3t12 -3v-2q-31 -152 -225 -152q-33 0 -175 26.5t-167 26.5q-74 0 -134.5 -41t-49.5 -41q4 0 -54.5 32t-95.5 32 q-96 0 -135 -33q-63 -53 -74 -57z" />
<glyph unicode="&#x2000;" horiz-adv-x="1101" />
<glyph unicode="&#x2001;" horiz-adv-x="2203" />
<glyph unicode="&#x2002;" horiz-adv-x="1101" />
<glyph unicode="&#x2003;" horiz-adv-x="2203" />
<glyph unicode="&#x2004;" horiz-adv-x="733" />
<glyph unicode="&#x2005;" horiz-adv-x="550" />
<glyph unicode="&#x2006;" horiz-adv-x="366" />
<glyph unicode="&#x2007;" horiz-adv-x="366" />
<glyph unicode="&#x2008;" horiz-adv-x="274" />
<glyph unicode="&#x2009;" horiz-adv-x="440" />
<glyph unicode="&#x200a;" horiz-adv-x="120" />
<glyph unicode="&#x2010;" d="M178 741q92 80 144.5 106.5t119.5 26.5q53 0 71.5 -20t37.5 -45q96 68 147 86q39 12 115 12q51 0 153.5 -43t168.5 -43q86 0 129 105q4 0 14 -3t12 -3v-2q-31 -152 -225 -152q-33 0 -175 26.5t-167 26.5q-74 0 -134.5 -41t-49.5 -41q4 0 -54.5 32t-95.5 32 q-96 0 -135 -33q-63 -53 -74 -57z" />
<glyph unicode="&#x2011;" d="M178 741q92 80 144.5 106.5t119.5 26.5q53 0 71.5 -20t37.5 -45q96 68 147 86q39 12 115 12q51 0 153.5 -43t168.5 -43q86 0 129 105q4 0 14 -3t12 -3v-2q-31 -152 -225 -152q-33 0 -175 26.5t-167 26.5q-74 0 -134.5 -41t-49.5 -41q4 0 -54.5 32t-95.5 32 q-96 0 -135 -33q-63 -53 -74 -57z" />
<glyph unicode="&#x2012;" d="M178 741q92 80 144.5 106.5t119.5 26.5q53 0 71.5 -20t37.5 -45q96 68 147 86q39 12 115 12q51 0 153.5 -43t168.5 -43q86 0 129 105q4 0 14 -3t12 -3v-2q-31 -152 -225 -152q-33 0 -175 26.5t-167 26.5q-74 0 -134.5 -41t-49.5 -41q4 0 -54.5 32t-95.5 32 q-96 0 -135 -33q-63 -53 -74 -57z" />
<glyph unicode="&#x2013;" horiz-adv-x="1024" d="M178 711v215h735v-215h-735z" />
<glyph unicode="&#x2014;" horiz-adv-x="1138" d="M12 741q92 80 144.5 106.5t122.5 26.5q53 0 71.5 -20t36.5 -45q96 68 148 86q39 12 114 12q51 0 153.5 -43t168.5 -43q88 0 127 105q4 0 15 -3t13 -3l-2 -2q-31 -152 -225 -152q-33 0 -175 26.5t-167 26.5q-74 0 -133 -41t-49 -41q4 0 -54.5 32t-95.5 32q-96 0 -135 -33 q-63 -53 -74 -57z" />
<glyph unicode="&#x2019;" horiz-adv-x="339" d="M104 1425q0 25 19 54q20 39 53 39q63 0 64 -88q0 -20 -35 -161t-47 -165q-12 33 -33 170q-21 126 -21 151z" />
<glyph unicode="&#x201c;" horiz-adv-x="552" d="M104 1425q0 25 19 54q20 39 53 39q63 0 64 -88q0 -20 -35 -161t-47 -165q-12 33 -33 170q-21 126 -21 151zM342 1425q0 25 16 54q20 39 56 39q63 0 63 -88q0 -20 -34.5 -161t-47.5 -165q-14 33 -35 170q-18 126 -18 151z" />
<glyph unicode="&#x201d;" horiz-adv-x="552" d="M104 1425q0 25 19 54q20 39 53 39q63 0 64 -88q0 -20 -35 -161t-47 -165q-12 33 -33 170q-21 126 -21 151zM342 1425q0 25 16 54q20 39 56 39q63 0 63 -88q0 -20 -34.5 -161t-47.5 -165q-14 33 -35 170q-18 126 -18 151z" />
<glyph unicode="&#x2026;" horiz-adv-x="1155" d="M891 -2q0 23 18 53q20 39 54 39q63 0 63 -88q0 -16 -25 -63l-38 -68q-8 23 -43 74q-29 41 -29 53zM506 -2q0 23 18 53q20 39 54 39q63 0 63 -88q0 -16 -25 -63l-38 -68q-8 23 -43 74q-29 41 -29 53zM121 -2q0 23 18 53q20 39 54 39q63 0 63 -88q0 -16 -25 -63l-38 -68 q-8 23 -43 74q-29 41 -29 53z" />
<glyph unicode="&#x202f;" horiz-adv-x="440" />
<glyph unicode="&#x205f;" horiz-adv-x="550" />
<glyph unicode="&#x2122;" horiz-adv-x="2490" d="M1264 82l12 1360v117q14 14 25 14q12 0 215 -258q225 -287 294 -354q111 111 306 352q170 211 237 266q14 -14 15 -20q-41 -184 -41 -201l18 -486q1 -10 1 -21q0 -25 -3 -60l-4 -58l-2 -155q0 -8 9 -184.5t9 -184.5q0 -197 -26 -199q-18 4 -72 4h-25q-10 14 -10 43 q0 20 5 54t5 43v200l-22 981q-20 -12 -191 -200q-178 -193 -178 -213q0 -6 12.5 -25.5t12.5 -26.5q0 -20 -36 -47.5t-50 -29.5l-447 526q-10 -10 -12 -23q-2 -8 0 -18l2 -14v-148l-6 -862q-6 -43 -8 -80v-100q0 -33 -23 -70q-22 10 -22 78zM127 1528q0 89 200 89q21 0 44 -1 l426 -19q-1 0 -2 1q0 2 133 28q14 -14 14 -22q0 -39 -131 -50q-6 0 -15.5 3.5t-17.5 3.5q-2 0 -62.5 -4.5t-88.5 -4.5q-24 -94 -25 -371q0 -74 2 -161l6 -301q0 -12 -6 -117.5t-6 -130.5v-152q0 -4 -10 -280q-39 -25 -78 -25h-27l-2 1526q0 29 -39 35q12 -2 -49 -2 q-172 0 -231 -66h-27q-8 9 -8 21z" />
<glyph unicode="&#xe000;" horiz-adv-x="1580" d="M0 1580h1580v-1580h-1580v1580z" />
<glyph unicode="&#xfb01;" horiz-adv-x="1632" d="M1261 1556q18 14 68 15q66 0 74 -33v-260q0 -35 -17 -123l4 -811q-2 -24 -2 -55t2 -70l7 -119q0 -100 -46 -100q6 0 -24 2q-25 2 -64 0q0 240 7 393q6 131 6 234q-1 225 -15 927zM1263 2118q0 43 11 59q14 27 59 27q43 0 51 -19q4 -8 4 -51h-2l-47 -426q-27 12 -53 199 q-23 152 -23 211zM100 465q0 29 68 65.5t72 53.5q8 31 8 100q0 51 -6 168t-6 158v458q0 41 24 78q33 45 86 45l330 -2q12 0 28.5 -13t20.5 -24q-6 -6 -6 -26l-316 16h-3q-44 0 -44 -49q0 -37 21 -86q0 -51 -11.5 -145.5t-11.5 -276.5v-254q0 -111 6 -125q16 -37 103 -37 q6 0 74.5 -3t76.5 -3q162 0 201 64q23 -10 23 -31q0 -39 -78 -64q-53 -17 -84 -16h-6l-275 16q-2 0 -3 1q-42 0 -42 -54q0 -18 5 -48t5 -36v-159q0 -233 -47 -234q-4 0 -33.5 3t-41.5 3q-8 27 -9 68q0 31 6.5 92t6.5 86l2 246q-10 10 -13 10q-8 0 -44.5 -25.5t-47.5 -40.5 h-24q-15 15 -15 21z" />
<glyph unicode="&#xfb02;" horiz-adv-x="2097" d="M1229 31q72 6 71 94q0 16 -4 57q-2 35 -2 54q3 49 3 92q0 22 -1 43q-2 41 -5 76l-3 36q0 8 6 62.5t6 70.5l-2 258q0 43 3 178.5t3 172.5v205q0 2 -2 57t-2 86q16 12 58 14l69 4l6 -895q-17 -81 -16 -167v-19l2 -164q0 6 0 -49q-2 -70 -2 -195q0 -45 70 -45l342 -2 q41 0 123 49l34 -8q2 -86 -219 -86q-6 0 -52 6.5t-54 6.5h-164q-25 0 -236 -19zM100 465q0 29 68 65.5t72 53.5q8 31 8 100q0 51 -6 168t-6 158v458q0 41 24 78q33 45 86 45l330 -2q12 0 28.5 -13t20.5 -24q-6 -6 -6 -26l-316 16h-3q-44 0 -44 -49q0 -37 21 -86 q0 -51 -11.5 -145.5t-11.5 -276.5v-254q0 -111 6 -125q16 -37 103 -37q6 0 74.5 -3t76.5 -3q162 0 201 64q23 -10 23 -31q0 -39 -78 -64q-53 -17 -84 -16h-6l-275 16q-2 0 -3 1q-42 0 -42 -54q0 -18 5 -48t5 -36v-159q0 -233 -47 -234q-4 0 -33.5 3t-41.5 3q-8 27 -9 68 q0 31 6.5 92t6.5 86l2 246q-10 10 -13 10q-8 0 -44.5 -25.5t-47.5 -40.5h-24q-15 15 -15 21z" />
<glyph unicode="&#xfb03;" horiz-adv-x="2664" d="M2293 1556q18 14 68 15q66 0 74 -33v-260q0 -35 -17 -123l4 -811q-2 -24 -2 -55t2 -70l7 -119q0 -100 -46 -100q6 0 -24 2q-25 2 -64 0q0 240 7 393q6 131 6 234q-1 225 -15 927zM2295 2118q0 43 11 59q14 27 59 27q43 0 51 -19q4 -8 4 -51h-2l-47 -426q-27 12 -53 199 q-23 152 -23 211zM1132 465q0 29 68 65.5t72 53.5q8 31 8 100q0 51 -6 168t-6 158v458q0 41 24 78q33 45 86 45l330 -2q12 0 28.5 -13t20.5 -24q-6 -6 -6 -26l-316 16h-3q-44 0 -44 -49q0 -37 21 -86q0 -51 -11.5 -145.5t-11.5 -276.5v-254q0 -111 6 -125q16 -37 103 -37 q6 0 74.5 -3t76.5 -3q162 0 201 64q23 -10 23 -31q0 -39 -78 -64q-53 -17 -84 -16h-6l-275 16q-2 0 -3 1q-42 0 -42 -54q0 -18 5 -48t5 -36v-159q0 -233 -47 -234q-4 0 -33.5 3t-41.5 3q-8 27 -9 68q0 31 6.5 92t6.5 86l2 246q-10 10 -13 10q-8 0 -44.5 -25.5t-47.5 -40.5 h-24q-15 15 -15 21zM100 465q0 29 68 65.5t72 53.5q8 31 8 100q0 51 -6 168t-6 158v458q0 41 24 78q33 45 86 45l330 -2q12 0 28.5 -13t20.5 -24q-6 -6 -6 -26l-316 16h-3q-44 0 -44 -49q0 -37 21 -86q0 -51 -11.5 -145.5t-11.5 -276.5v-254q0 -111 6 -125q16 -37 103 -37 q6 0 74.5 -3t76.5 -3q162 0 201 64q23 -10 23 -31q0 -39 -78 -64q-53 -17 -84 -16h-6l-275 16q-2 0 -3 1q-42 0 -42 -54q0 -18 5 -48t5 -36v-159q0 -233 -47 -234q-4 0 -33.5 3t-41.5 3q-8 27 -9 68q0 31 6.5 92t6.5 86l2 246q-10 10 -13 10q-8 0 -44.5 -25.5t-47.5 -40.5 h-24q-15 15 -15 21z" />
<glyph unicode="&#xfb04;" horiz-adv-x="3129" d="M2261 31q72 6 71 94q0 16 -4 57q-2 35 -2 54q3 49 3 92q0 22 -1 43q-2 41 -5 76l-3 36q0 8 6 62.5t6 70.5l-2 258q0 43 3 178.5t3 172.5v205q0 2 -2 57t-2 86q16 12 58 14l69 4l6 -895q-17 -81 -16 -167v-19l2 -164q0 6 0 -49q-2 -70 -2 -195q0 -45 70 -45l342 -2 q41 0 123 49l34 -8q2 -86 -219 -86q-6 0 -52 6.5t-54 6.5h-164q-25 0 -236 -19zM1132 465q0 29 68 65.5t72 53.5q8 31 8 100q0 51 -6 168t-6 158v458q0 41 24 78q33 45 86 45l330 -2q12 0 28.5 -13t20.5 -24q-6 -6 -6 -26l-316 16h-3q-44 0 -44 -49q0 -37 21 -86 q0 -51 -11.5 -145.5t-11.5 -276.5v-254q0 -111 6 -125q16 -37 103 -37q6 0 74.5 -3t76.5 -3q162 0 201 64q23 -10 23 -31q0 -39 -78 -64q-53 -17 -84 -16h-6l-275 16q-2 0 -3 1q-42 0 -42 -54q0 -18 5 -48t5 -36v-159q0 -233 -47 -234q-4 0 -33.5 3t-41.5 3q-8 27 -9 68 q0 31 6.5 92t6.5 86l2 246q-10 10 -13 10q-8 0 -44.5 -25.5t-47.5 -40.5h-24q-15 15 -15 21zM100 465q0 29 68 65.5t72 53.5q8 31 8 100q0 51 -6 168t-6 158v458q0 41 24 78q33 45 86 45l330 -2q12 0 28.5 -13t20.5 -24q-6 -6 -6 -26l-316 16h-3q-44 0 -44 -49q0 -37 21 -86 q0 -51 -11.5 -145.5t-11.5 -276.5v-254q0 -111 6 -125q16 -37 103 -37q6 0 74.5 -3t76.5 -3q162 0 201 64q23 -10 23 -31q0 -39 -78 -64q-53 -17 -84 -16h-6l-275 16q-2 0 -3 1q-42 0 -42 -54q0 -18 5 -48t5 -36v-159q0 -233 -47 -234q-4 0 -33.5 3t-41.5 3q-8 27 -9 68 q0 31 6.5 92t6.5 86l2 246q-10 10 -13 10q-8 0 -44.5 -25.5t-47.5 -40.5h-24q-15 15 -15 21z" />
</font>
</defs>
</svg>
