<?xml version="1.0" standalone="no"?>
<!DOCTYPE svg PUBLIC "-//W3C//DTD SVG 1.1//EN" "http://www.w3.org/Graphics/SVG/1.1/DTD/svg11.dtd" >
<svg xmlns="http://www.w3.org/2000/svg">
<metadata></metadata>
<defs>
<font id="flamencoregular" horiz-adv-x="921" >
<font-face units-per-em="2048" ascent="1638" descent="-410" />
<missing-glyph horiz-adv-x="450" />
<glyph horiz-adv-x="2048" />
<glyph horiz-adv-x="2048" />
<glyph unicode="&#xd;" horiz-adv-x="681" />
<glyph unicode=" "  horiz-adv-x="450" />
<glyph unicode="&#x09;" horiz-adv-x="450" />
<glyph unicode="&#xa0;" horiz-adv-x="450" />
<glyph unicode="!" horiz-adv-x="466" d="M164 49q0 29 18.5 48.5t51 19.5t51 -19.5t18.5 -48.5t-18.5 -49t-51 -20t-51 20t-18.5 49zM168 1219q0 20 18.5 33.5t47 13.5t47 -13.5t18.5 -33.5l-18 -975q0 -18 -13.5 -30.5t-34 -12.5t-34 12t-13.5 31z" />
<glyph unicode="&#x22;" horiz-adv-x="512" d="M104 1509q-2 23 13.5 35t39 12t39 -12t13.5 -35l-16 -168q-4 -39 -36 -38.5t-36 38.5zM303 1509q-2 23 13.5 35t39 12t39 -12t13.5 -35l-17 -168q-4 -39 -35.5 -38.5t-36.5 38.5z" />
<glyph unicode="#" horiz-adv-x="1052" d="M68 473.5q0 20.5 13 34.5t34 14h137l47 203h-115q-20 0 -33.5 13.5t-13.5 34t13.5 34.5t33.5 14h135l95 410q6 35 38.5 35t53 -16.5t14.5 -43.5l-88 -385h275l94 410q6 35 38.5 35t53 -16.5t14.5 -43.5l-88 -385h119q20 0 33.5 -14t13.5 -34.5t-13.5 -34t-33.5 -13.5 h-141l-45 -203h116q20 0 33.5 -14t13.5 -34.5t-13 -34t-34 -13.5h-139l-92 -412q-6 -35 -41 -34.5t-53.5 17.5t-12.5 42l88 387h-276l-92 -412q-6 -35 -41 -34.5t-53.5 17.5t-12.5 42l88 387h-116q-20 0 -33.5 13.5t-13.5 34zM365 522h274l47 203h-276z" />
<glyph unicode="$" horiz-adv-x="1132" d="M74 115v168q0 20 16 33.5t39 13.5t39 -13.5t16 -33.5v-142q123 -61 338 -65v536q-215 43 -319.5 115t-104.5 217q0 305 424 320v225q0 20 16.5 33.5t39 13.5t39 -13.5t16.5 -33.5v-225q217 -10 362 -90q31 -18 31 -44v-167q0 -20 -16.5 -34t-39 -14t-39 13.5t-16.5 34.5 v141q-109 49 -282 63v-467q319 -68 399 -219q35 -66 35 -153q0 -145 -112.5 -237.5t-321.5 -106.5v-273q0 -20 -16.5 -33.5t-39 -13.5t-39 13.5t-16.5 33.5v269q-113 4 -235 28q-213 45 -213 107zM209 944q0 -94 80 -141t233 -80v444q-313 -14 -313 -223zM633 80 q153 14 238 78.5t85 172t-80.5 164t-242.5 93.5v-508z" />
<glyph unicode="%" horiz-adv-x="1208" d="M78 976q0 134 72.5 212t198.5 78t196.5 -82t70.5 -210t-71.5 -209t-196.5 -81t-197.5 79t-72.5 213zM147 36.5q0 16.5 11 31.5l807 1163q14 25 32.5 24.5t43 -14.5t24.5 -31.5t-10 -29.5l-807 -1164q-14 -25 -32.5 -24.5t-43.5 14.5t-25 30.5zM188 975q0 -92 42 -144.5 t117 -52.5t118 53.5t43 143.5t-43 143t-118 53t-117 -52t-42 -144zM594 271.5q0 134.5 72.5 212t198.5 77.5t197 -82t71 -210t-72 -208.5t-197 -80.5t-197.5 78.5t-72.5 213zM705 270q0 -92 41.5 -144t116.5 -52t118 53t43 143t-43 143.5t-118 53.5t-116.5 -52.5 t-41.5 -144.5z" />
<glyph unicode="&#x26;" horiz-adv-x="1103" d="M98 293q0 203 244 389q-102 168 -102 305t71.5 208t189 71t179 -70t61.5 -182q0 -162 -262 -346q145 -203 328 -392q82 104 123 228q8 23 27.5 33t39.5 2q37 -12 37 -45q0 -8 -2 -19q-37 -129 -155 -272l145 -144q12 -14 12 -34.5t-17.5 -32.5t-35.5 -12t-39 18l-137 133 q-166 -152 -340 -151.5t-270.5 82t-96.5 231.5zM209 282.5q0 -96.5 66.5 -152.5t198.5 -56t267 127q-188 188 -346 405q-80 -59 -133 -143t-53 -180.5zM350 1004q0 -123 78 -261q82 59 143.5 134t61.5 141q0 153 -127 153q-68 0 -106 -36.5t-44 -67.5t-6 -63z" />
<glyph unicode="'" horiz-adv-x="313" d="M104 1509q-2 23 13.5 35t39 12t39 -12t13.5 -35l-16 -168q-4 -39 -36 -38.5t-36 38.5z" />
<glyph unicode="(" horiz-adv-x="514" d="M92 500q0 248 78 465t219 307q14 10 31.5 10t30 -19.5t12.5 -37t-23 -33.5q-104 -78 -170.5 -276.5t-66.5 -415.5t66.5 -416t170.5 -277q23 -16 23 -33.5t-12.5 -37t-30 -19.5t-31.5 11q-141 90 -219 307t-78 465z" />
<glyph unicode=")" horiz-adv-x="514" d="M51 -226.5q0 17.5 23 33.5q104 78 170.5 277t66.5 416t-66.5 415.5t-170.5 276.5q-23 16 -23 33.5t12.5 37t30 19.5t31.5 -10q141 -90 219 -307t78 -465t-78 -465t-219 -307q-14 -10 -31.5 -10.5t-30 19t-12.5 37z" />
<glyph unicode="*" horiz-adv-x="823" d="M86 1340.5q0 17.5 10 34t28.5 21.5t35.5 -5l205 -117v235q0 20 14 33.5t34.5 13.5t34 -13t13.5 -34v-235l203 117q14 6 31.5 6t28.5 -18.5t11 -28.5q0 -29 -22 -43l-203 -115l201 -113q27 -16 26.5 -32.5t-10.5 -30.5q-14 -29 -31.5 -29t-31.5 8l-203 115v-233 q0 -20 -13.5 -34t-34 -14t-34.5 13.5t-14 34.5v231l-203 -115q-14 -8 -32.5 -8t-29 21.5t-10.5 38t25 32.5l200 115l-202 117q-27 14 -27 31.5z" />
<glyph unicode="+" horiz-adv-x="743" d="M86 448.5q0 20.5 13.5 35t33.5 14.5h189v190q0 20 14 33.5t34.5 13.5t34 -13.5t13.5 -33.5v-190h192q20 0 33.5 -14.5t13.5 -35t-13 -34t-34 -13.5h-192v-190q0 -20 -13.5 -33.5t-34 -13.5t-34.5 13t-14 34v190h-189q-20 0 -33.5 13.5t-13.5 34z" />
<glyph unicode="," horiz-adv-x="405" d="M115 -127q0 12 14 25q39 31 51 86q-51 12 -51 69q0 31 19.5 52.5t54.5 21.5t55.5 -21.5t20.5 -52.5q0 -76 -49.5 -137t-92.5 -61q-23 0 -22 18z" />
<glyph unicode="-" horiz-adv-x="817" d="M123 448.5q0 20.5 13.5 35t33.5 14.5h477q20 0 33.5 -14.5t13.5 -35t-13.5 -34t-33.5 -13.5h-477q-20 0 -33.5 13.5t-13.5 34z" />
<glyph unicode="." horiz-adv-x="395" d="M123 53.5q0 30.5 19.5 52t54 21.5t55 -21.5t20.5 -52t-20.5 -52t-55 -21.5t-54 21.5t-19.5 52z" />
<glyph unicode="/" horiz-adv-x="1015" d="M49 36.5q0 16.5 10 31.5l807 1163q14 25 33 24.5t43.5 -14.5t24.5 -31.5t-11 -29.5l-806 -1164q-14 -25 -33 -24.5t-43.5 14.5t-24.5 30.5z" />
<glyph unicode="0" d="M98 385q0 180 95.5 290.5t266.5 110.5t266 -110.5t95 -291.5t-95 -292.5t-266 -111.5t-266.5 112.5t-95.5 292.5zM207 384q0 -140 65.5 -225t186.5 -85t186.5 85t65.5 225t-65.5 224t-186.5 84t-186.5 -84t-65.5 -224z" />
<glyph unicode="1" horiz-adv-x="618" d="M94 47.5q0 20.5 13.5 34.5t33.5 14h135v518q-76 -72 -124 -71q-20 0 -34 12t-14 39t29 39q90 39 152 127q20 26 49 26q53 0 53 -43v-647h135q20 0 33.5 -14t13.5 -34.5t-13 -34t-34 -13.5h-381q-20 0 -33.5 13.5t-13.5 34z" />
<glyph unicode="2" horiz-adv-x="917" d="M98 51q0 51 20.5 99.5t48.5 81t81 67.5q82 51 203.5 105.5t172 90t50.5 83.5q0 115 -225 114q-129 0 -209 -33v-133q0 -20 -16.5 -33.5t-39 -13.5t-39 13.5t-16.5 33.5v162q0 27 35 43q115 55 285 55q334 0 333 -208q0 -96 -90 -156q-66 -45 -164 -88t-128.5 -58.5 t-80.5 -46.5q-88 -51 -108 -135h487v121q0 20 16.5 33.5t39 13.5t39 -13t16.5 -34v-170q0 -45 -49 -45h-613q-49 0 -49 51z" />
<glyph unicode="3" horiz-adv-x="966" d="M90 -168q0 20 16.5 33.5t39 13.5t39 -13t16.5 -34v-141q115 -66 270 -66q301 0 301 247t-375 288q-47 6 -47 46t47 46q348 43 348 240q0 201 -268 200q-152 0 -252 -55v-137q0 -20 -16 -33.5t-39 -13.5t-39 13t-16 34v162q0 27 39 49q127 76 323 75q377 0 377 -294 q0 -209 -233 -283q260 -84 260 -338q0 -162 -103.5 -251t-306.5 -89q-98 0 -196.5 26.5t-157.5 69.5q-27 16 -27 39v166z" />
<glyph unicode="4" horiz-adv-x="878" d="M27 48q0 11 8 24l391 686q16 29 34.5 28.5t37 -8.5t29 -26.5t-0.5 -36.5l-356 -621h387v131q0 20 16.5 33.5t39 13.5t39 -13t16.5 -34v-129h137q20 0 33.5 -14t13.5 -34.5t-13.5 -34t-33.5 -13.5h-137v-422q0 -20 -16.5 -33.5t-39 -13.5t-39 13.5t-16.5 33.5v422h-479 q-35 0 -45 25q-6 12 -6 23z" />
<glyph unicode="5" horiz-adv-x="958" d="M96 -127q0 20 16.5 33.5t39 13.5t39 -13.5t16.5 -33.5v-172q119 -76 264 -76t223 93.5t78 213.5q0 332 -311 332q-90 0 -181.5 -20.5t-103.5 -20.5q-41 0 -41 31v469q0 43 47 43h600q20 0 33.5 -14.5t13.5 -35t-13 -33.5t-34 -13h-538v-342q102 31 213 30 q207 0 315.5 -108.5t108.5 -299t-114 -305t-307.5 -114.5t-336.5 109q-27 23 -27 45v188z" />
<glyph unicode="6" horiz-adv-x="946" d="M96 528q0 471 143.5 725t438.5 303q8 3 14 3q45 0 45 -54q0 -35 -35 -41q-231 -37 -358 -250t-135 -577q129 150 308 149.5t275.5 -114t96.5 -288.5t-111.5 -289.5t-288.5 -114.5q-150 0 -262 104q-131 123 -131 444zM207 514q2 -213 73.5 -326.5t203.5 -113.5t213 86 t81 223t-73.5 223t-183 86t-189.5 -57t-125 -121z" />
<glyph unicode="7" horiz-adv-x="847" d="M45 555v166q0 45 47 45h672q47 0 47 -47q0 -168 -61 -287q-35 -68 -55.5 -99.5t-95.5 -136t-132 -254t-57 -364.5q0 -20 -16.5 -33.5t-39 -13.5t-39 13.5t-16.5 33.5q0 201 56.5 366t176.5 337q55 78 79 115.5t52.5 114.5t34.5 161h-542v-117q0 -20 -16.5 -33.5 t-39 -13.5t-39 13.5t-16.5 33.5z" />
<glyph unicode="8" horiz-adv-x="1056" d="M90 362.5q0 169.5 87 266t241 174.5q-143 76 -214 168t-71 240.5t106.5 246.5t289 98t289 -99t106.5 -245.5t-70 -235.5t-217 -165q154 -78 242 -177t88 -265t-122 -277.5t-319.5 -111.5t-316.5 106.5t-119 276zM201 374q0 -134 86 -217t237.5 -83t241.5 85t90 220 q0 139 -115 235q-86 74 -219 140q-153 -78 -237 -162t-84 -218zM242 1196q0 -117 73.5 -192.5t214.5 -145.5q141 68 212 143.5t71 195.5t-77 192.5t-210 72.5q-90 0 -151.5 -29.5t-87.5 -76.5q-45 -80 -45 -160z" />
<glyph unicode="9" horiz-adv-x="931" d="M61 409q0 171 111 274t287 103q274 0 352 -229q41 -123 41 -289t-55.5 -310t-186.5 -266t-313 -155q-27 -6 -47 -6q-59 0 -59.5 43t40.5 49q197 29 328 173t176 345q-119 -119 -296 -118.5t-277.5 108t-100.5 278.5zM170 403.5q0 -133.5 73.5 -210t183.5 -76.5t189.5 44 t126.5 99q0 315 -137 395q-59 37 -147 37q-129 0 -209 -77.5t-80 -211z" />
<glyph unicode=":" horiz-adv-x="395" d="M123 53.5q0 30.5 19.5 52t54 21.5t55 -21.5t20.5 -52t-20.5 -52t-55 -21.5t-54 21.5t-19.5 52zM123 712.5q0 30.5 19.5 52t54 21.5t55 -21.5t20.5 -52t-20.5 -52t-55 -21.5t-54 21.5t-19.5 52z" />
<glyph unicode=";" horiz-adv-x="417" d="M123 -127q0 12 14 25q39 31 51 86q-51 12 -51 69q0 31 19.5 52.5t54.5 21.5t55.5 -21.5t20.5 -52.5q0 -76 -49.5 -137t-92.5 -61q-23 0 -22 18zM137 712.5q0 30.5 19.5 52t54.5 21.5t55.5 -21.5t20.5 -52t-20.5 -52t-55.5 -21.5t-54.5 21.5t-19.5 52z" />
<glyph unicode="&#x3c;" horiz-adv-x="884" d="M65.5 480q0.5 26 24.5 42l596 379q12 6 28.5 6t32 -23.5t15.5 -41t-19 -27.5l-538 -334l538 -334q18 -10 18.5 -27.5t-15 -41t-32 -23.5t-28.5 6l-596 377q-25 16 -24.5 42z" />
<glyph unicode="=" horiz-adv-x="872" d="M131 333.5q0 20.5 13.5 35t33.5 14.5h516q20 0 33.5 -14.5t13.5 -35t-13.5 -33.5t-33.5 -13h-516q-20 0 -33.5 13t-13.5 33.5zM131 563.5q0 20.5 13.5 34.5t33.5 14h516q20 0 33.5 -14t13.5 -34.5t-13.5 -34t-33.5 -13.5h-516q-20 0 -33.5 13.5t-13.5 34z" />
<glyph unicode="&#x3e;" horiz-adv-x="884" d="M121 119.5q0 17.5 18 27.5l539 334l-539 334q-18 10 -18 27.5t15.5 41t31.5 23.5t29 -6l596 -379q25 -16 24.5 -41.5t-24.5 -42.5l-596 -377q-12 -6 -28.5 -6t-32 23.5t-15.5 41z" />
<glyph unicode="?" horiz-adv-x="966" d="M70 969v166q0 39 49 61q143 70 354 70q430 0 430 -285q0 -137 -76 -219q-59 -63 -137 -112.5t-104.5 -69t-61.5 -56.5q-70 -74 -69 -196q0 -20 -16.5 -33.5t-39 -13.5t-39 13.5t-16.5 33.5q0 180 115 282q49 41 126 90.5t111.5 77t65.5 81.5t31 122q0 190 -320 190 q-178 0 -295 -53v-149q0 -20 -16.5 -33.5t-39 -13.5t-37.5 13t-15 34zM328 51.5q0 28.5 19.5 50t52 21.5t53 -21.5t20.5 -50t-20.5 -50t-53 -21.5t-52 21.5t-19.5 50z" />
<glyph unicode="@" horiz-adv-x="1794" d="M86 397q0 379 226.5 624t598 245t595 -246t223.5 -621q0 -190 -103.5 -326t-269.5 -136q-211 0 -211 194q-43 -61 -125 -106t-166 -45q-180 0 -266 112.5t-86 290.5t98 290.5t260 112.5t281 -108v61q0 20 16.5 33.5t39 13.5t38.5 -13t16 -34v-606q0 -45 27 -73.5 t78 -28.5q115 0 188.5 105.5t73.5 262.5q0 344 -199.5 558t-514 214t-511 -214t-196.5 -559t196.5 -558t509.5 -213q242 0 430 133q14 10 30.5 10.5t32 -19t16.5 -39t-13 -29.5q-211 -150 -496 -150q-371 0 -594 242.5t-223 621.5zM610 380q0 -142 61.5 -224t184.5 -82 q80 0 157 49t128 141v305q-128 123 -275 123q-117 0 -186.5 -85t-69.5 -227z" />
<glyph unicode="A" horiz-adv-x="1273" d="M10 29q0 8 4 18l545 1102h-88q-20 0 -33.5 13.5t-13.5 34t13.5 34.5t33.5 14h182q33 0 45 -24l580 -1172q4 -8 4 -18q0 -35 -33 -47q-12 -4 -22 -4q-35 0 -47 26l-191 385h-686l-190 -385q-12 -28 -40 -28q-13 0 -30 6q-33 12 -33 45zM348 485h596l-299 615z" />
<glyph unicode="B" horiz-adv-x="1253" d="M51 1196.5q0 20.5 13.5 34.5t33.5 14h570q215 0 318.5 -76.5t103.5 -252t-142 -248.5q213 -76 213 -316q0 -352 -454 -352h-443q-25 0 -41 13.5t-16 33.5v1102h-109q-20 0 -33.5 13.5t-13.5 34zM317 96h390q174 0 258 61.5t84 194.5q0 256 -310 256h-422v-512zM317 705 h398q121 0 192.5 57t71.5 168.5t-76 165t-235 53.5h-351v-444z" />
<glyph unicode="C" horiz-adv-x="1249" d="M96 620.5q0 286.5 168 466t423 179.5t425 -99q31 -16 31 -43v-176q0 -20 -16.5 -33.5t-39 -13.5t-39 13.5t-16.5 33.5v152q-150 69 -329 69h-5q-219 0 -355 -152.5t-136 -394t136 -394t371 -152.5t376 172q14 20 32.5 20t40 -17.5t21.5 -33.5t-13 -31 q-171 -206 -470 -206h-3q-266 0 -434 177t-168 463.5z" />
<glyph unicode="D" horiz-adv-x="1345" d="M39 1196.5q0 20.5 13.5 34.5t33.5 14h547q279 0 447.5 -169t168.5 -455.5t-165.5 -453.5t-450.5 -167h-371q-53 0 -53 47v1102h-123q-20 0 -33.5 13.5t-13.5 34zM319 96h314q238 0 372 138.5t134 385t-137.5 388t-368.5 141.5h-314v-1053z" />
<glyph unicode="E" horiz-adv-x="1187" d="M41 1196.5q0 20.5 13.5 34.5t33.5 14h961q53 0 53 -49v-168q0 -20 -16.5 -33.5t-39 -13.5t-39 13.5t-16.5 33.5v121h-672v-475h578v76q0 20 15.5 33.5t38 13.5t38 -13.5t15.5 -33.5v-250q0 -20 -15.5 -33.5t-38 -13.5t-38 13t-15.5 34v78h-578v-482h728q25 0 40 -13 t15 -33.5t-16.5 -35t-38.5 -14.5h-787q-51 0 -51 45v1104h-121q-20 0 -33.5 13.5t-13.5 34z" />
<glyph unicode="F" horiz-adv-x="1101" d="M41 1196.5q0 20.5 13.5 34.5t33.5 14h905q53 0 54 -49v-168q0 -20 -16.5 -33.5t-39 -13.5t-39 13.5t-16.5 33.5v121h-617v-475h519v76q0 20 15 33.5t37.5 13.5t38 -13.5t15.5 -33.5v-250q0 -20 -15.5 -33.5t-38 -13.5t-37.5 13t-15 34v78h-519v-551q0 -20 -16 -33.5 t-38.5 -13.5t-39 13t-16.5 34v1122h-121q-20 0 -33.5 13.5t-13.5 34z" />
<glyph unicode="G" horiz-adv-x="1288" d="M94 631.5q0 281.5 171 458t419 176.5t426 -101q33 -16 33 -43v-176q0 -20 -16.5 -33.5t-39 -13.5t-39 13.5t-16.5 33.5v150q-152 73 -329 73h-5q-221 0 -357 -150.5t-136 -392t137 -396t348 -154.5t367 133v307h-307q-20 0 -34 13.5t-14 34t13.5 34.5t34.5 14h364 q53 0 53 -47v-538q0 -20 -16 -33.5t-38.5 -13.5t-39 13.5t-16.5 33.5v82q-158 -129 -365 -129q-266 0 -432 185t-166 466.5z" />
<glyph unicode="H" horiz-adv-x="1390" d="M43 1196.5q0 20.5 13.5 34.5t33.5 14h176q20 0 36.5 -14t16.5 -35v-522h752v475h-121q-20 0 -33.5 13.5t-13.5 34t13.5 34.5t33.5 14h178q20 0 37 -14t17 -35v-1069q0 -31 47 -31h76q20 0 33.5 -14t13.5 -34.5t-13.5 -34t-33.5 -13.5h-76q-90 0 -124 39t-34 88v451h-752 v-551q0 -20 -16 -33.5t-38.5 -13.5t-39 13t-16.5 34v1122h-119q-20 0 -33.5 13.5t-13.5 34z" />
<glyph unicode="I" horiz-adv-x="569" d="M61 49.5q0 20.5 13.5 33.5t34.5 13h120v1053h-120q-20 0 -34 13.5t-14 34t13.5 34.5t34.5 14h352q20 0 33.5 -14t13.5 -34.5t-13.5 -34t-33.5 -13.5h-121v-1053h121q20 0 33.5 -13t13.5 -33.5t-13.5 -35t-33.5 -14.5h-352q-20 0 -34 14.5t-14 35z" />
<glyph unicode="J" horiz-adv-x="528" d="M-6 -358q0 29 39 41q102 31 139 111.5t37 221.5v1133h-121q-20 0 -33.5 13.5t-13.5 34t13.5 34.5t33.5 14h352q20 0 33.5 -14t13.5 -34.5t-13 -34t-34 -13.5h-121v-1139q0 -178 -52 -268t-175 -141q-26 -11 -51 -11q-47 0 -47 52z" />
<glyph unicode="K" horiz-adv-x="1196" d="M41 1196.5q0 20.5 13.5 34.5t33.5 14h178q53 0 53 -49v-733l584 686h-51q-20 0 -33.5 13.5t-13.5 34t13 34.5t34 14h295q20 0 33.5 -14t13.5 -34.5t-13.5 -34t-33.5 -13.5h-107l-399 -467l489 -623q12 -14 12.5 -30.5t-23 -34t-42 -17.5t-33.5 19l-475 604l-250 -291 v-282q0 -20 -16 -33.5t-38.5 -13.5t-39 13t-16.5 34v1122h-121q-20 0 -33.5 13.5t-13.5 34z" />
<glyph unicode="L" horiz-adv-x="1112" d="M41 1196.5q0 20.5 13.5 34.5t33.5 14h352q20 0 33.5 -14t13.5 -34.5t-13 -34t-34 -13.5h-121v-1053h658v121q0 20 16.5 33.5t39 13.5t38.5 -13.5t16 -33.5v-170q0 -47 -47 -47h-774q-35 0 -46 12.5t-11 36.5v1100h-121q-20 0 -33.5 13.5t-13.5 34z" />
<glyph unicode="M" horiz-adv-x="1667" d="M39 1196.5q0 20.5 13.5 34.5t33.5 14h170q33 0 53 -24l514 -703l512 701q17 26 49 26h2h175q20 0 33.5 -14t13.5 -34.5t-13.5 -34t-33.5 -13.5h-123v-1022q0 -31 47 -31h76q20 0 33.5 -14t13.5 -34.5t-13.5 -34t-33.5 -13.5h-76q-158 0 -158 127v903l-459 -627 q-16 -23 -44.5 -22.5t-45.5 22.5l-459 627v-1003q0 -20 -16 -33.5t-38.5 -13.5t-39 13.5t-16.5 33.5v1122h-123q-20 0 -33.5 13.5t-13.5 34z" />
<glyph unicode="N" horiz-adv-x="1429" d="M41 1198.5q0 20.5 15.5 33.5t39.5 13h160q33 0 51 -20l803 -1032v956h-121q-20 0 -33.5 13.5t-13.5 34t13.5 34.5t33.5 14h352q20 0 34 -14t14 -34.5t-13.5 -34t-34.5 -13.5h-120v-1116q0 -53 -54 -53q-29 0 -49 28l-799 1028v-1009q0 -20 -16 -33.5t-38.5 -13.5t-39 13 t-16.5 34v1122h-113q-23 0 -39 14.5t-16 35z" />
<glyph unicode="O" horiz-adv-x="1425" d="M94 622.5q0 278.5 173 461t445.5 182.5t445.5 -182.5t173 -462t-173 -460.5t-445.5 -181t-445.5 182t-173 460.5zM205 622.5q0 -237.5 141 -392t366.5 -154.5t367 154.5t141.5 392t-141.5 392t-367 154.5t-366.5 -154.5t-141 -392z" />
<glyph unicode="P" horiz-adv-x="1234" d="M41 1196.5q0 20.5 13.5 34.5t33.5 14h643q446 0 447 -403q0 -402 -447 -402h-412v-413q0 -20 -16 -33.5t-38.5 -13.5t-39 13.5t-16.5 33.5v1122h-121q-20 0 -33.5 13.5t-13.5 34zM319 535h412q336 0 336 307t-336 307h-412v-614z" />
<glyph unicode="Q" horiz-adv-x="1427" d="M94 621.5q0 279.5 173 462t445.5 182.5t445.5 -182.5t173 -460.5q0 -172 -69.5 -313.5t-192.5 -225.5l203 -221q10 -12 10 -28.5t-21.5 -34t-39 -17.5t-33.5 18l-213 232q-123 -53 -262 -53q-272 0 -445.5 181t-173.5 460.5zM205 622.5q0 -237.5 141 -392t367 -154.5 q115 0 194 33l-233 270q-10 12 -10 28.5t21.5 34t38.5 17.5t34 -19l246 -278q98 70 157.5 192.5t59.5 268.5q0 238 -141.5 392t-367 154t-366.5 -154.5t-141 -392z" />
<glyph unicode="R" horiz-adv-x="1298" d="M39 1196.5q0 20.5 13.5 34.5t33.5 14h643q449 0 449 -383q0 -276 -244 -356l264 -457q4 -8 4 -18q0 -29 -23.5 -41.5t-42 -12.5t-32.5 23l-281 481q-53 -4 -94 -4h-410v-450q0 -20 -16 -33.5t-38.5 -13.5t-39 13t-16.5 34v1122h-123q-20 0 -33.5 13.5t-13.5 34zM319 571 h410q338 0 338 291q0 154 -85 220.5t-253 66.5h-410v-578z" />
<glyph unicode="S" horiz-adv-x="1183" d="M98 115v168q0 20 16.5 33.5t39 13.5t39 -13.5t16.5 -33.5v-142q136 -66 345 -66q2 1 3 1q211 0 317.5 66.5t106.5 188.5t-100.5 181t-319.5 101t-328.5 112t-109.5 219q0 322 477 322q254 0 420 -92q31 -18 31 -44v-167q0 -20 -16.5 -34t-39 -14t-39 13.5t-16.5 34.5v141 q-140 66 -332 66h-2q-194 0 -283.5 -55.5t-89.5 -170.5q0 -109 115 -162q78 -39 210 -66.5t187.5 -42t129 -44t114.5 -66.5t72 -97t31 -138q0 -160 -134.5 -254t-384.5 -94q-115 0 -247.5 25.5t-200.5 68.5q-27 16 -27 41z" />
<glyph unicode="T" horiz-adv-x="1200" d="M29 1028v168q0 20 16 34.5t37 14.5h1034q23 0 39 -14t16 -35v-168q0 -20 -16 -33.5t-38.5 -13.5t-39 13.5t-16.5 33.5v121h-406v-1122q0 -20 -16 -33.5t-38.5 -13.5t-39 13.5t-16.5 33.5v1122h-406v-121q0 -20 -16.5 -33.5t-39 -13.5t-38.5 13.5t-16 33.5z" />
<glyph unicode="U" horiz-adv-x="1323" d="M20 1196.5q0 20.5 13.5 34.5t34.5 14h178q20 0 36.5 -14t16.5 -35v-807q0 -139 104.5 -226t270.5 -87t271.5 87t105.5 226v760h-121q-20 0 -33.5 13.5t-13.5 34t13.5 34.5t33.5 14h178q53 0 53 -49v-807q0 -188 -142 -298.5t-351 -110.5t-344.5 114.5t-135.5 294.5v760 h-120q-20 0 -34 13.5t-14 34z" />
<glyph unicode="V" horiz-adv-x="1216" d="M0 1217q0 33 33 45q12 4 22 4q35 0 47 -27l506 -1085l504 1085q12 27 35 27q49 0 63 -33q4 -8 4 -18.5t-4 -18.5l-551 -1176q-16 -31 -50 -31l-1 1q-35 0 -49 28l-555 1180q-4 10 -4 19z" />
<glyph unicode="W" horiz-adv-x="1695" d="M4 1219q0 33 35 43q12 4 22 4q35 0 48 -29l456 -1083l226 555l-209 491q-9 19 0.5 37t26 23.5t26.5 5.5q35 0 47 -29l166 -399l168 401q12 27 34.5 27t39 -6.5t24.5 -26t0 -37.5l-207 -487l228 -557l452 1087q12 27 35 27q49 0 64 -33q4 -8 4 -18.5t-4 -18.5l-498 -1182 q-12 -35 -52 -35l-1 1q-41 0 -54 34l-233 557l-234 -557q-12 -35 -51 -35l-1 1q-40 0 -52 34l-502 1186q-4 8 -4 19z" />
<glyph unicode="X" horiz-adv-x="1236" d="M29 28.5q0 16.5 12 30.5l508 574l-492 553q-12 14 -12 30.5t21.5 34t40 17.5t32.5 -19l479 -544l480 544q14 18 32.5 18.5t40 -17t21.5 -34t-12 -30.5l-492 -555l510 -572q12 -14 12 -30.5t-21.5 -34t-40 -17.5t-32.5 19l-495 563l-498 -563q-14 -18 -32.5 -18.5t-40 17 t-21.5 34z" />
<glyph unicode="Y" horiz-adv-x="1150" d="M0 1210q0 33 22.5 45.5t42 12.5t33.5 -25l477 -698l478 700q16 23 34.5 23t36.5 -11q25 -14 25 -35.5t-6 -31.5l-512 -735v-428q0 -20 -16.5 -33.5t-39 -13.5t-39 13t-16.5 34v424l-514 741q-6 10 -6 18z" />
<glyph unicode="Z" horiz-adv-x="1222" d="M82 49q0 188 156 348q78 82 151.5 141.5t183.5 137.5l60 43q104 76 166.5 129t125 136t76.5 165h-788v-160q0 -20 -16.5 -33.5t-39 -13.5t-39 13.5t-16.5 33.5v209q0 18 16.5 32.5t39.5 14.5h901q23 0 40 -14t17 -33q0 -172 -149 -326q-76 -78 -131.5 -124t-147.5 -113 l-102 -76q-111 -80 -175.5 -135t-132 -146.5t-81.5 -181.5h833v160q0 20 16.5 33.5t39 13.5t39 -13.5t16.5 -33.5v-207q0 -20 -16.5 -34.5t-41.5 -14.5h-946q-23 0 -39 14.5t-16 34.5z" />
<glyph unicode="[" horiz-adv-x="591" d="M174 -162v1360q0 47 53 47h258q20 0 33.5 -14t13.5 -34.5t-13 -34t-34 -13.5h-202v-1262h202q20 0 33.5 -13t13.5 -33.5t-13 -35t-34 -14.5h-258q-53 0 -53 47z" />
<glyph unicode="\" horiz-adv-x="786" d="M61 1204q0 29 35 43q14 4 32.5 4t33.5 -26l559 -1170q4 -8 4 -18q0 -29 -35 -43q-12 -4 -32.5 -4t-34.5 30l-557 1166q-4 8 -5 18z" />
<glyph unicode="]" horiz-adv-x="591" d="M59 -159.5q0 20.5 13.5 33.5t33.5 13h203v1262h-203q-20 0 -33.5 13.5t-13.5 34t13.5 34.5t33.5 14h259q53 0 53 -47v-1360q0 -47 -53 -47h-259q-20 0 -33.5 14.5t-13.5 35z" />
<glyph unicode="^" horiz-adv-x="448" d="M8 792.5q0 12.5 8 26.5l162 275q16 25 46 24.5t44 -24.5l162 -275q8 -14 8 -26.5t-11 -22.5t-25.5 -10t-26.5 18l-152 226l-151 -226q-12 -18 -26.5 -18t-26 10t-11.5 22.5z" />
<glyph unicode="_" horiz-adv-x="1103" d="M225 -98.5q0 20.5 13.5 35t33.5 14.5h559q20 0 34 -14.5t14 -35t-14 -33.5t-34 -13h-559q-20 0 -33.5 13t-13.5 33.5z" />
<glyph unicode="`" horiz-adv-x="331" d="M57.5 1089.5q-0.5 16.5 16 33t33 16.5t34.5 -21l113 -127q12 -14 12 -27.5t-10 -23.5t-23.5 -10t-27.5 12l-127 113q-20 18 -20.5 34.5z" />
<glyph unicode="a" d="M86 212q0 110 87 172t217 62t253 -43v142q0 98 -72 127q-55 20 -152 20t-179 -33v-129q0 -20 -16.5 -33.5t-39 -13.5t-39 13.5t-16.5 33.5v156q0 27 27 41q100 59 266 59t248 -54t82 -187v-410q0 -39 55 -39h80q20 0 33.5 -14t13.5 -34.5t-13.5 -34t-33.5 -13.5h-90 q-74 0 -114 33t-40 92q0 10 2 22q-108 -167 -313 -167h-2q-115 0 -179.5 61t-64.5 171zM197 214q0 -67 38.5 -103.5t106.5 -36.5q188 0 301 205v38q-135 37 -230.5 37t-155.5 -36.5t-60 -103.5z" />
<glyph unicode="b" horiz-adv-x="974" d="M-45 1486.5q0 20.5 13.5 35t33.5 14.5h191q20 0 37.5 -14.5t17.5 -34.5v-856q104 156 277 156l1 -1q174 0 267.5 -110.5t93.5 -290.5t-96.5 -292.5t-256 -112.5t-286.5 116v-69q0 -20 -16.5 -33.5t-39 -13.5t-39 13t-16.5 34v1413h-135q-20 0 -33.5 13t-13.5 33.5z M248 197q135 -123 263 -123t197.5 86t69.5 227t-68.5 223t-187.5 82q-168 0 -274 -190v-305z" />
<glyph unicode="c" horiz-adv-x="880" d="M86 387q0 172 109.5 285.5t272.5 113.5t284 -75q25 -16 24 -39v-172q0 -20 -16.5 -33.5t-39 -13.5t-38.5 13t-16 34v145q-82 47 -197 47t-194.5 -86t-79.5 -222t76.5 -223t197.5 -87q160 0 240 123q16 25 33.5 24.5t35.5 -8.5q29 -12 29 -33.5t-6 -32.5 q-103 -167 -329 -167h-3q-174 0 -278.5 117.5t-104.5 289.5z" />
<glyph unicode="d" horiz-adv-x="1036" d="M86 385q0 172 95 286.5t261 114.5t283 -108v762h-135q-20 0 -33.5 13t-13.5 33.5t13 35t34 14.5h190q23 0 39.5 -14.5t16.5 -34.5v-1352q0 -39 41 -39h94q20 0 33.5 -13t13.5 -33.5t-13.5 -35t-33.5 -14.5h-109q-129 0 -129 137v8q-45 -70 -117.5 -117.5t-164.5 -47.5 q-182 0 -273.5 116.5t-91.5 288.5zM195 381q0 -143 68.5 -225t187.5 -82q172 0 274 194v301q-53 51 -127.5 87t-146.5 36q-117 0 -186.5 -84t-69.5 -227z" />
<glyph unicode="e" horiz-adv-x="901" d="M86 387q0 176 106.5 287.5t280.5 111.5t259 -104t85 -279q0 -47 -53 -47l-567 -2q8 -127 82.5 -203.5t193.5 -76.5q160 0 240 123q14 25 32.5 24.5t37 -9.5t25.5 -28.5t-3 -36.5q-103 -167 -329 -167h-3q-180 0 -283.5 115.5t-103.5 291.5zM201 451h508q-7 110 -65 175.5 t-167.5 65.5t-183.5 -66.5t-92 -174.5z" />
<glyph unicode="f" horiz-adv-x="745" d="M-23 -424q0 37 48 49q106 33 147 122t41 241v682h-125q-20 0 -33.5 13t-13.5 33.5t13.5 35t33.5 14.5h125v463q0 178 74.5 252.5t230.5 74.5t266 -67q25 -14 25 -37v-176q0 -20 -16.5 -33.5t-39 -13.5t-39 13t-16.5 34v154q-71 33 -175 33q-1 0 -3 -1q-106 0 -152 -54 t-46 -181v-461h356q20 0 33.5 -14.5t13.5 -35t-13.5 -33.5t-33.5 -13h-356v-682q0 -182 -55.5 -291t-207.5 -160q-23 -6 -39 -6t-29.5 12.5t-13.5 32.5z" />
<glyph unicode="g" horiz-adv-x="849" d="M29 -174q0 127 108 192q-45 27 -45 93q0 90 141 145q-121 92 -121 229q0 140 91 223q90 83 218 83t202 -48q55 55 55 142q0 43 -14 80q-8 21 -8 37q0 31 32 45q15 6 27 6q33 0 45 -35q29 -72 28 -129q0 -119 -98 -201q74 -76 74 -203t-95.5 -207.5t-232.5 -80.5 q-61 0 -117 16q-47 -14 -82.5 -44t-35.5 -58q0 -39 102 -58q45 -6 326 -39q241 -31 241 -193q0 -128 -144 -195.5t-307 -67.5t-276.5 70.5t-113.5 197.5zM139 -157q0 -89 75 -140t206 -51t235.5 45t104.5 123q0 84 -148 100q-51 4 -325 41q-45 8 -70 16q-78 -45 -78 -134z M221 493.5q0 -90.5 60.5 -146.5t155.5 -56t155.5 56t60.5 146.5t-60.5 146.5t-155.5 56t-155.5 -56t-60.5 -146.5z" />
<glyph unicode="h" horiz-adv-x="985" d="M-45 1486.5q0 20.5 13.5 35t33.5 14.5h193q20 0 36.5 -14.5t16.5 -34.5v-858q127 162 301 162q115 0 183.5 -58.5t68.5 -163.5v-436q0 -37 55 -37h80q20 0 33.5 -14t13.5 -34.5t-13.5 -34t-33.5 -13.5h-80q-166 0 -166 133v436q0 127 -141 127q-188 0 -301 -200v-469 q0 -20 -16.5 -33.5t-39 -13.5t-39 13t-16.5 34v1413h-135q-20 0 -33.5 13t-13.5 33.5z" />
<glyph unicode="i" horiz-adv-x="442" d="M12 716.5q0 20.5 13.5 35t33.5 14.5h199q47 0 47 -47v-692q0 -20 -16.5 -33.5t-39 -13.5t-38.5 13t-16 34v643h-136q-20 0 -33.5 13t-13.5 33.5zM172 1122.5q0 28.5 18.5 49t51 20.5t52 -20.5t19.5 -49t-19.5 -49t-52 -20.5t-51 20.5t-18.5 49z" />
<glyph unicode="j" horiz-adv-x="444" d="M-39 -395q0 31 37 43q117 37 158 125t41 241v656h-136q-20 0 -33.5 13t-13.5 33.5t13.5 35t33.5 14.5h199q47 0 47 -47v-705q0 -180 -52 -283.5t-198 -162.5q-20 -8 -39 -8q-57 0 -57 45zM174 1122.5q0 28.5 18.5 49t51 20.5t52 -20.5t19.5 -49t-19.5 -49t-52 -20.5 t-51 20.5t-18.5 49z" />
<glyph unicode="k" horiz-adv-x="907" d="M-45 1486.5q0 20.5 13.5 35t33.5 14.5h191q20 0 37.5 -14.5t17.5 -34.5v-858q119 162 299 162q117 0 184.5 -54.5t67.5 -151t-62 -155.5q-100 -96 -282 -96q-68 0 -121 14q88 -117 222 -195.5t271 -78.5q20 0 33.5 -13.5t13.5 -34t-13 -33.5t-34 -13q-182 0 -332.5 99 t-246.5 249v-301q0 -20 -16.5 -33.5t-39 -13.5t-39 13t-16.5 34v1413h-135q-20 0 -33.5 13t-13.5 33.5zM248 434q90 -14 184 -14t175 38t81 122q0 116 -139 116h-2q-190 0 -299 -200v-62z" />
<glyph unicode="l" horiz-adv-x="462" d="M-35 1486.5q0 20.5 13.5 35t33.5 14.5h191q23 0 39 -14.5t16 -34.5v-1352q0 -39 55 -39h80q20 0 33.5 -14t13.5 -34.5t-13 -34t-34 -13.5h-80q-166 0 -166 133v1307h-135q-20 0 -33.5 13t-13.5 33.5z" />
<glyph unicode="m" horiz-adv-x="1486" d="M12 716.5q0 20.5 13.5 35t33.5 14.5h111q127 0 127 -139q63 82 127.5 120.5t157.5 38.5q176 0 217 -147q61 74 124.5 110.5t160 36.5t158 -56t61.5 -165v-430q0 -39 55 -39h80q20 0 33.5 -14t13.5 -34.5t-13.5 -34t-33.5 -13.5h-80q-166 0 -166 133v432q0 127 -119 127 q-160 0 -264 -178v-487q0 -20 -16.5 -33.5t-39 -13.5t-39 13t-16.5 34v538q0 127 -118 127q-92 0 -155 -47t-120 -147v-471q0 -20 -16.5 -33.5t-39 -13.5t-38.5 13t-16 34v604q0 39 -39 39h-97q-20 0 -33.5 13t-13.5 33.5z" />
<glyph unicode="n" horiz-adv-x="1042" d="M12 716.5q0 20.5 13.5 35t33.5 14.5h111q127 0 127 -139q122 159 307 159h2q111 0 181.5 -56t70.5 -165v-430q0 -39 55 -39h80q20 0 33.5 -14t13.5 -34.5t-13 -34t-34 -13.5h-80q-166 0 -165 133v432q0 61 -38 94t-106 33q-188 0 -299 -196v-469q0 -20 -16.5 -33.5 t-39 -13.5t-38.5 13t-16 34v604q0 39 -39 39h-97q-20 0 -33.5 13t-13.5 33.5z" />
<glyph unicode="o" horiz-adv-x="952" d="M84 383q0 176 110.5 289.5t282.5 113.5t281.5 -113.5t109.5 -290.5t-109.5 -289.5t-282.5 -112.5t-282.5 113.5t-109.5 289.5zM195 382q0 -136 78.5 -222t203.5 -86t204 86t79 222t-79 223t-204 87t-203.5 -87t-78.5 -223z" />
<glyph unicode="p" horiz-adv-x="1034" d="M14 716.5q0 20.5 13.5 35t33.5 14.5h111q127 0 127 -137v-8q106 166 282 166q1 0 1 -1q178 0 271 -113.5t93 -287.5t-95 -289.5t-264 -115.5t-280 116v-518q0 -20 -16.5 -33.5t-39 -13.5t-38.5 13.5t-16 33.5v1053q0 39 -39 39h-97q-20 0 -33.5 13t-13.5 33.5zM307 197 q131 -123 262 -123t200 86t69 227t-68 223t-186 82q-174 0 -277 -194v-301z" />
<glyph unicode="q" horiz-adv-x="972" d="M86 381q0 176 96.5 290.5t259 114.5t283.5 -98v53q0 45 57 45q20 0 37 -12t17 -33v-1165q0 -20 -17 -32.5t-37 -12.5q-57 0 -57 45v557q-47 -68 -120 -110.5t-154 -42.5q-178 0 -271.5 112.5t-93.5 288.5zM195 383q0 -143 67.5 -226t186.5 -83q172 0 276 194v316 q-120 109 -256 109l-1 -1q-136 0 -204.5 -83t-68.5 -226z" />
<glyph unicode="r" horiz-adv-x="770" d="M12 716.5q0 20.5 13.5 35t33.5 14.5h105q129 0 133 -139q110 159 260 159h2q86 0 146 -32q29 -16 28 -43v-172q0 -20 -16.5 -33.5t-39 -13.5t-38.5 13t-16 34v143q-27 10 -80.5 10t-121 -50t-116.5 -148v-467q0 -20 -16.5 -33.5t-39 -13.5t-38.5 13t-16 34v604 q0 39 -41 39h-95q-20 0 -33.5 13t-13.5 33.5z" />
<glyph unicode="s" horiz-adv-x="843" d="M94 80v166q0 20 16.5 33.5t39 13.5t39 -13.5t16.5 -33.5v-140q95 -32 199 -32h6q233 0 233 131q0 98 -219 145q-10 2 -45 10.5t-57.5 13.5t-74.5 24.5t-75 39.5q-61 55 -61 136t54 131.5t119.5 65.5t143.5 15q143 0 264 -55q37 -16 37 -45v-158q0 -20 -16.5 -33.5 t-39 -13.5t-39 13.5t-16.5 33.5v131q-82 33 -190 33q-209 0 -209 -119q0 -43 27.5 -59t41 -24.5t48.5 -16.5q49 -12 100 -22.5t84 -18.5t83 -27.5t79 -44.5q72 -57 72 -149t-60.5 -146.5t-131 -69.5t-152.5 -15q-162 0 -279 53q-37 16 -37 47z" />
<glyph unicode="t" horiz-adv-x="776" d="M41 716.5q0 20.5 13.5 35t33.5 14.5h115v293q0 20 16.5 33.5t39 13.5t38.5 -13.5t16 -33.5v-293h344q20 0 34 -14.5t14 -35t-13.5 -33.5t-34.5 -13h-344v-439q0 -86 36 -121.5t133.5 -35.5t195.5 57q16 10 37.5 6t30 -17.5t8.5 -23.5q0 -31 -23 -45q-122 -72 -262 -72 q-1 1 -2 1q-141 0 -202.5 58t-61.5 193v439h-115q-20 0 -33.5 13t-13.5 33.5z" />
<glyph unicode="u" horiz-adv-x="1042" d="M2 718.5q0 20.5 13.5 34t33.5 13.5h80q166 0 166 -133v-432q0 -61 38 -94t105 -33q188 0 299 196v469q0 20 16.5 33.5t39 13.5t39 -13t16.5 -34v-604q0 -39 39 -39h96q20 0 33.5 -13t13.5 -33.5t-13 -35t-34 -14.5h-111q-127 0 -127 139q-122 -159 -307 -159h-2 q-111 0 -181.5 56t-70.5 165v430q0 39 -55 39h-80q-20 0 -33.5 14t-13.5 34.5z" />
<glyph unicode="v" horiz-adv-x="876" d="M45 733q0 31 37 47q16 8 35.5 8t34.5 -30l288 -623l287 623q14 30 32 30h1q49 0 67 -36q4 -10 4 -19.5t-4 -17.5l-335 -703q-16 -33 -51 -33l-1 1q-36 0 -53 32l-338 703q-4 8 -4 18z" />
<glyph unicode="w" horiz-adv-x="1243" d="M55 735q0 31 37 45q12 6 27 6q33 -4 43 -28l215 -574l192 570q10 33 51 33l2 -1q42 0 52 -32l194 -572l215 576q12 31 31 31l1 -1q20 0 36 -8q37 -14 37 -45q0 -10 -4 -20l-266 -697q-14 -39 -53 -39l-1 1q-40 0 -51 36l-190 566l-191 -566q-10 -37 -49 -37l-1 1 q-40 0 -54 36l-269 699q-4 10 -4 20z" />
<glyph unicode="x" horiz-adv-x="876" d="M66 56.5q0 21.5 10 31.5l293 311l-281 299q-14 14 -10 36t21.5 37t39 15t35.5 -14l266 -297l262 297q14 14 36 14t39.5 -15t21.5 -36.5t-11 -36.5l-280 -299l293 -311q10 -10 10 -31.5t-19.5 -39t-41 -17.5t-35.5 14l-275 310l-278 -310q-15 -14 -36.5 -14t-40.5 17.5 t-19 39z" />
<glyph unicode="y" horiz-adv-x="884" d="M-64 -411q6 42 41 42l66 -6q100 0 164 84q49 63 108 187l70 143l-334 676q-8 18 1 36.5t28.5 27.5t39 9t34.5 -30l288 -606l289 606q14 30 32 30h1q49 0 67 -36q5 -11 5 -21q0 -9 -5 -16l-417 -860q-39 -82 -62.5 -122t-68.5 -98q-88 -104 -242 -104q-43 0 -66 6 q-40 9 -40 43q0 4 1 9z" />
<glyph unicode="z" horiz-adv-x="892" d="M76 51q0 100 70.5 179t205.5 171l74 52q197 135 231 235h-448v-115q0 -20 -16.5 -33.5t-39 -13.5t-39 13.5t-16.5 33.5v162q0 47 47 47h576q20 0 36.5 -13t16.5 -34q0 -70 -48 -140.5t-99 -111.5q-94 -80 -146 -114l-61 -45q-147 -109 -183 -152t-47 -78h498v121 q0 20 16.5 33.5t39 13.5t39 -13.5t16.5 -33.5v-170q0 -45 -54 -45h-616q-53 0 -53 51z" />
<glyph unicode="{" horiz-adv-x="614" d="M84 548.5q0 20.5 13.5 35t46 14.5t69.5 19.5t37 54.5t-68.5 154.5t-68.5 213.5q0 145 99 232.5t247 87.5h55q20 0 33.5 -14.5t13.5 -35t-13 -33.5t-34 -13h-53q-109 0 -174.5 -62.5t-65.5 -151.5t68.5 -202t68.5 -172q0 -86 -79 -125q80 -41 79.5 -111.5t-69 -186.5 t-68.5 -202t65.5 -148.5t174.5 -62.5h45q20 0 33.5 -14t13.5 -34.5t-13.5 -34t-33.5 -13.5h-47q-154 0 -250 88t-96 231q0 106 102 275q35 57 35 93t-38 54.5t-69.5 18.5t-45 12t-13.5 32.5z" />
<glyph unicode="|" horiz-adv-x="442" d="M166 -422v1931q0 20 16.5 33.5t39 13.5t38.5 -13.5t16 -33.5v-1931q0 -20 -16 -33.5t-38.5 -13.5t-39 13.5t-16.5 33.5z" />
<glyph unicode="}" horiz-adv-x="614" d="M53 1310.5q0 20.5 13.5 35t33.5 14.5h56q147 0 246.5 -87t99.5 -233q0 -94 -68.5 -213.5t-68.5 -154.5t36.5 -54.5t69.5 -19.5t46 -14.5t13 -35t-13 -32.5t-45 -12t-69.5 -18.5t-37.5 -54.5t34 -93q102 -168 103 -275q0 -143 -96.5 -231t-249.5 -88h-47q-20 0 -34 13.5 t-14 34t13.5 34.5t34.5 14h45q109 0 174 62.5t65 148.5t-68.5 202t-68.5 186.5t80 111.5q-80 39 -80 125q0 59 68.5 172t68.5 202t-65.5 151.5t-173.5 62.5h-54q-20 0 -33.5 13t-13.5 33.5z" />
<glyph unicode="~" horiz-adv-x="1142" d="M121 373q0 96 59.5 157.5t157.5 61.5t177 -42t149.5 -84t135 -42t93.5 36t29 87q0 47 52 47t52 -47q0 -98 -60.5 -157.5t-157.5 -59.5t-177 42t-149.5 84t-133 42t-93.5 -37t-30 -88q0 -45 -52 -45t-52 45z" />
<glyph unicode="&#xa1;" horiz-adv-x="466" d="M164 1196q0 29 18.5 49.5t51 20.5t51 -20.5t18.5 -49.5t-18.5 -48.5t-51 -19.5t-51 19.5t-18.5 48.5zM168 27l18 974q0 18 13.5 30.5t34 12.5t34 -12t13.5 -31l18 -974q0 -20 -18.5 -33.5t-47 -13.5t-47 13t-18.5 34z" />
<glyph unicode="&#xa2;" horiz-adv-x="888" d="M90 386q0 157 90 264.5t238 129.5v201q0 20 16.5 33.5t39 13.5t38.5 -13.5t16 -33.5v-197q131 -12 228 -73q25 -16 24 -39v-172q0 -20 -16 -33.5t-39 -13.5t-39 13t-16 34v145q-66 35 -142 45v-612q117 19 185 119q14 25 32 24q49 0 62 -37q4 -8 4 -17t-6 -20 q-92 -145 -277 -163v-199q0 -20 -16 -33.5t-38.5 -13.5t-39 13t-16.5 34v199q-152 18 -240 131.5t-88 270.5zM199 383q0 -119 60 -201t159 -102v604q-99 -22 -159 -102t-60 -199z" />
<glyph unicode="&#xa3;" horiz-adv-x="1067" d="M86 47.5q0 20.5 13.5 34.5t33.5 14h125v574h-125q-20 0 -33.5 13t-13.5 33.5t13.5 35t33.5 14.5h125v113q0 182 90 284.5t261 102.5t292 -76q25 -19 25 -37v-174q0 -20 -16.5 -33.5t-39 -13.5t-39 13t-16.5 34v145q-86 47 -206 47t-181 -76.5t-61 -213.5v-115h243 q20 0 33.5 -14.5t13.5 -35t-13 -33.5t-34 -13h-243v-574h495v119q0 20 16.5 33.5t39 13.5t39 -13t16.5 -34v-174q0 -41 -47 -41h-793q-20 0 -33.5 13.5t-13.5 34z" />
<glyph unicode="&#xa4;" horiz-adv-x="841" d="M121 635.5q0 17.5 18.5 36t34.5 18.5l39 -22l70 -72q57 39 137 39t137 -39l70 72q20 20 39.5 20t37 -18.5t17.5 -35t-16 -32.5l-82 -80q39 -61 39 -133t-37 -133l82 -80q16 -16 16 -32.5t-17.5 -34t-36 -17.5t-40.5 21l-74 71q-59 -39 -139 -39t-133 37l-70 -69 q-18 -18 -41 -19l-35 17q-14 16 -14 32.5t14 34.5l76 78q-37 59 -37 135t37 135l-76 76q-16 16 -16 33.5zM281 391.5q0 -67.5 39.5 -111.5t99 -44t98.5 44t39 111.5t-39 110.5t-98.5 43t-99 -43t-39.5 -110.5z" />
<glyph unicode="&#xa5;" horiz-adv-x="1085" d="M63 1210q0 33 23 45.5t42 12.5t34 -25l381 -614l381 614q14 25 34 25q49 0 62 -39q2 -8 2 -17.5t-6 -19.5l-379 -600h250q20 0 33.5 -14.5t13.5 -35t-13.5 -33.5t-33.5 -13h-287v-152h287q20 0 33.5 -14.5t13.5 -35t-13.5 -33.5t-33.5 -13h-287v-221q0 -20 -16.5 -33.5 t-39 -13.5t-39 13.5t-16.5 33.5v221h-290q-20 0 -33.5 13t-13.5 33.5t13 35t34 14.5h290v152h-290q-20 0 -33.5 13t-13.5 33.5t13 35t34 14.5h247l-376 600q-6 10 -7 18z" />
<glyph unicode="&#xa6;" horiz-adv-x="454" d="M172 -317v647q0 20 16.5 33.5t39 13.5t39 -13.5t16.5 -33.5v-647q0 -20 -16.5 -34t-39 -14t-39 13.5t-16.5 34.5zM172 735v647q0 20 16.5 34t39 14t39 -14t16.5 -34v-647q0 -20 -16.5 -33.5t-39 -13.5t-39 13.5t-16.5 33.5z" />
<glyph unicode="&#xa7;" horiz-adv-x="897" d="M115 80v172q0 20 16 33.5t39 13.5t39 -13.5t16 -33.5v-141q100 -37 194.5 -37t169.5 39t75 116.5t-68 130t-146.5 69.5t-106.5 24.5t-76 27t-72 39.5q-63 53 -64 135q0 115 125 185q-121 68 -121 187.5t100.5 179t230.5 59.5t253 -60q37 -18 37 -43v-168 q0 -20 -16.5 -33.5t-39 -13.5t-39 13.5t-16.5 33.5v140q-84 37 -177 36.5t-157.5 -37t-64.5 -103t69.5 -106.5t136 -52.5t102.5 -20.5t84 -26.5t75 -39.5q66 -53 65 -143q0 -135 -131 -188q131 -92 131 -222q0 -86 -61 -147q-106 -106 -273.5 -106t-291.5 55q-37 14 -37 45z M240 647q0 -51 75.5 -83t229.5 -54q43 8 84 44t41 79t-23.5 67.5t-63.5 39t-78 22.5t-83 16t-62 13q-47 -15 -83.5 -54t-36.5 -90z" />
<glyph unicode="&#xa8;" horiz-adv-x="526" d="M61 1014q0 63 64 63q29 0 46 -18.5t17 -45t-17 -44t-47 -17.5t-46.5 17.5t-16.5 44.5zM338 1014q0 63 63 63q29 0 46.5 -18.5t17.5 -45t-17.5 -44t-47 -17.5t-46 17.5t-16.5 44.5z" />
<glyph unicode="&#xa9;" horiz-adv-x="1441" d="M96 621.5q0 277.5 174 461t450.5 183.5t451 -183.5t174.5 -461t-174.5 -459.5t-452 -182t-450.5 182t-173 459.5zM207 622.5q0 -237.5 142.5 -393t371.5 -155.5t371.5 155.5t142.5 393t-142.5 393t-371.5 155.5t-371.5 -155.5t-142.5 -393zM379 620.5q0 157.5 94 255 t230.5 97.5t236.5 -53q33 -16 33 -39v-93q0 -20 -16.5 -33.5t-39 -13.5t-38 13.5t-15.5 33.5v66q-63 29 -157.5 29t-159 -73t-64.5 -187.5t64.5 -187.5t171 -73t184.5 82q16 18 31.5 18.5t35 -15t19.5 -31t-10 -27.5q-102 -117 -258 -117t-249 95.5t-93 253z" />
<glyph unicode="&#xaa;" horiz-adv-x="804" d="M102 857q0 83 65.5 127t156 44t163.5 -18v73q0 47 -29.5 67.5t-101 20.5t-114.5 -14v-59q0 -20 -16.5 -33.5t-39 -13.5t-38 13t-15.5 34v86q0 25 33 43q72 39 191.5 39t179 -41t59.5 -142v-290q0 -14 18 -15h58q20 0 33.5 -13t13.5 -33.5t-13.5 -34t-33.5 -13.5h-51 q-104 0 -125 64q-86 -63 -186.5 -63.5t-154 44.5t-53.5 128zM211 852q0 -74 86 -74q117 0 190 127v8q-76 20 -149 21q-127 0 -127 -82z" />
<glyph unicode="&#xab;" horiz-adv-x="1112" d="M80 393.5q0 22.5 26 40.5l406 293q12 10 22.5 10t23.5 -1t25.5 -18.5t12.5 -35.5t-23 -35l-360 -254l360 -252q23 -16 23 -34.5t-12 -34.5q-14 -20 -37 -20.5t-35 9.5l-406 291q-26 19 -26 41.5zM500 393.5q0 22.5 26 40.5l406 293q12 10 22.5 10t23.5 -1t25.5 -18.5 t12.5 -35.5t-23 -35l-360 -254l360 -252q23 -16 23 -34.5t-12 -34.5q-14 -20 -37 -20.5t-35 9.5l-406 291q-26 19 -26 41.5z" />
<glyph unicode="&#xac;" horiz-adv-x="972" d="M127 571.5q0 20.5 13.5 35t33.5 14.5h612q47 0 48 -43v-316q0 -20 -16.5 -33.5t-39 -13.5t-39 13.5t-16.5 33.5v262h-549q-20 0 -33.5 13.5t-13.5 34z" />
<glyph unicode="&#xad;" horiz-adv-x="817" d="M123 448.5q0 20.5 13.5 35t33.5 14.5h477q20 0 33.5 -14.5t13.5 -35t-13.5 -34t-33.5 -13.5h-477q-20 0 -33.5 13.5t-13.5 34z" />
<glyph unicode="&#xae;" horiz-adv-x="1441" d="M96 621.5q0 277.5 174 461t450.5 183.5t451 -183.5t174.5 -461t-174.5 -459.5t-452 -182t-450.5 182t-173 459.5zM207 622.5q0 -237.5 142.5 -393t371.5 -155.5t371.5 155.5t142.5 393t-142.5 393t-371.5 155.5t-371.5 -155.5t-142.5 -393zM379 906.5q0 19.5 13.5 32.5 t33.5 13h336q258 0 258 -221q0 -139 -123 -194l125 -211q10 -18 3 -36t-24.5 -27t-37 -9t-35.5 27l-133 227h-222v-207q0 -20 -16 -33.5t-38.5 -13.5t-38 13.5t-15.5 33.5v559h-39q-20 0 -33.5 13.5t-13.5 33zM573 600h189q150 0 149.5 130t-149.5 130h-189v-260z" />
<glyph unicode="&#xaf;" horiz-adv-x="587" d="M68 976.5q0 20.5 13 35t34 14.5h360q20 0 33.5 -14.5t13.5 -35t-13.5 -33.5t-33.5 -13h-360q-20 0 -33.5 13t-13.5 33.5z" />
<glyph unicode="&#xb0;" horiz-adv-x="628" d="M98 1051.5q0 95.5 59.5 155t157 59.5t156.5 -60.5t59 -155t-60 -153.5t-155.5 -59t-156 59t-60.5 154.5zM197 1051.5q0 -56.5 31.5 -92t86 -35.5t86 35.5t31.5 92t-31.5 92.5t-86 36t-86 -36t-31.5 -92.5z" />
<glyph unicode="&#xb1;" horiz-adv-x="800" d="M115 47.5q0 20.5 13.5 34.5t33.5 14h477q20 0 33.5 -14t13.5 -34.5t-13.5 -34t-33.5 -13.5h-477q-20 0 -33.5 13.5t-13.5 34zM115 489.5q0 20.5 13 35t34 14.5h188v190q0 20 14.5 33.5t35 13.5t33.5 -13.5t13 -33.5v-190h193q20 0 33.5 -14.5t13.5 -35t-13.5 -34 t-33.5 -13.5h-193v-190q0 -20 -13 -33.5t-33.5 -13.5t-35 13t-14.5 34v190h-188q-20 0 -33.5 13.5t-13.5 34z" />
<glyph unicode="&#xb2;" horiz-adv-x="751" d="M115 731q0 84 61.5 147.5t135 93t135 64.5t61.5 70q0 66 -137 65q-66 0 -125 -16v-72q0 -20 -16.5 -33.5t-39 -13.5t-38 13.5t-15.5 33.5v101q0 27 58.5 54.5t175.5 27.5q248 0 247 -160q0 -61 -51 -107.5t-116 -70.5q-180 -68 -215 -150h288v66q0 20 15.5 33.5t38 13.5 t39 -13.5t16.5 -33.5v-113q0 -47 -47 -47h-422q-49 0 -49 47z" />
<glyph unicode="&#xb3;" horiz-adv-x="727" d="M113 756v71q0 20 15 33.5t37.5 13.5t39 -13t16.5 -34v-41q66 -20 139 -20q152 0 152 74q0 98 -199 98q-20 0 -33.5 13.5t-13.5 34t13.5 33.5t33.5 13q182 0 183 80q0 57 -134 57q-57 0 -126 -16v-39q0 -20 -16.5 -33.5t-39 -13.5t-38 13.5t-15.5 33.5v70q0 27 31 41 q80 39 204 39q244 0 244 -152q0 -72 -100 -125q115 -49 115 -147q0 -168 -261 -168q-119 0 -206 39q-41 18 -41 45z" />
<glyph unicode="&#xb4;" horiz-adv-x="331" d="M63 963.5q0 13.5 13 27.5l112 127q18 20 35 20.5t33 -16t16 -33t-20 -34.5l-127 -113q-14 -12 -27.5 -12t-24 10t-10.5 23.5z" />
<glyph unicode="&#xb5;" horiz-adv-x="1185" d="M49 -391q0 31 31 41q117 37 158 122.5t41 241.5v725q0 20 16 33.5t38.5 13.5t39 -13t16.5 -34v-551q0 -55 39 -84.5t104 -29.5q188 0 299 196v469q0 20 16.5 33.5t39 13.5t39 -13t16.5 -34v-604q0 -39 39 -39h96q20 0 33.5 -13t13.5 -33.5t-13 -35t-34 -14.5h-110 q-127 0 -127 139q-123 -160 -310 -159q-94 0 -141 38q-2 -182 -54 -286.5t-200 -163.5q-25 -8 -35 -8q-51 0 -51 49z" />
<glyph unicode="&#xb6;" horiz-adv-x="1067" d="M61 904q0 167 102.5 254t282.5 87h492q20 0 33.5 -14t13.5 -34.5t-13.5 -34t-33.5 -13.5h-102v-1364q0 -20 -16.5 -33.5t-39 -13.5t-38 13t-15.5 34v1364h-106v-1364q0 -20 -16.5 -33.5t-39 -13.5t-38 13t-15.5 34v778h-66q-180 0 -282.5 87t-102.5 254z" />
<glyph unicode="&#xb7;" horiz-adv-x="395" d="M123 774q0 31 19.5 52.5t54 21.5t55 -21.5t20.5 -52.5t-20.5 -52.5t-55 -21.5t-54 21.5t-19.5 52.5z" />
<glyph unicode="&#xb8;" horiz-adv-x="524" d="M61 -276.5q0 38.5 41 38.5q6 0 56.5 -23.5t94.5 -23.5t71.5 17.5t27.5 48.5q0 72 -119 72q-45 0 -45 36q0 16 13 37l39 80h118l-36 -84q66 -8 103.5 -48t37.5 -101.5t-57.5 -104.5t-138.5 -43t-143.5 30t-62.5 68.5z" />
<glyph unicode="&#xb9;" horiz-adv-x="563" d="M113 1108q0 23 18.5 35t52 35.5t57 55.5t56.5 32q53 0 53 -39v-447h78q20 0 33.5 -13t13.5 -34q0 -49 -47 -49h-260q-47 0 -47 49q0 20 13.5 33.5t33.5 13.5h72v324q-49 -41 -82 -41q-45 0 -45 45z" />
<glyph unicode="&#xba;" horiz-adv-x="765" d="M92 965q0 129 81 213t209 84t210 -86t82 -212t-83 -211t-210 -85t-208 84t-81 213zM203 966q0 -89 50 -146.5t129 -57.5t130 57.5t51 146.5t-50 145t-130 56t-130 -56t-50 -145z" />
<glyph unicode="&#xbb;" horiz-adv-x="1112" d="M96 106.5q0 18.5 23 34.5l360 252l-360 254q-23 16 -23 34.5t13 35.5q14 20 36.5 20t34.5 -10l406 -293q27 -18 26.5 -40.5t-26.5 -41.5l-406 -291q-12 -10 -22.5 -10t-23.5 1t-25.5 18.5t-12.5 36zM516 106.5q0 18.5 23 34.5l360 252l-360 254q-23 16 -23 34.5t12 35.5 q14 20 37 20t35 -10l406 -293q27 -18 26.5 -40.5t-26.5 -41.5l-406 -291q-12 -10 -22.5 -10t-23.5 1t-25.5 18.5t-12.5 36z" />
<glyph unicode="&#xbc;" horiz-adv-x="1116" d="M104 1108q0 23 18.5 35t52.5 35.5t57.5 55.5t56.5 32q53 0 53 -39v-447h78q20 0 33.5 -13t13.5 -34q0 -49 -47 -49h-260q-47 0 -47 49q0 20 13.5 33.5t33.5 13.5h71v324q-49 -41 -81 -41q-45 0 -46 45zM106 36.5q0 16.5 11 31.5l807 1163q14 25 32.5 24.5t43 -14.5 t24.5 -31.5t-10 -29.5l-807 -1164q-14 -25 -32.5 -24.5t-43.5 14.5t-25 30.5zM444 133q0 18 11 35l254 383q14 25 32.5 24.5t43 -14.5t24.5 -31.5t-10 -29.5l-213 -318h221v78q0 20 15.5 33.5t38 13.5t38.5 -13t16 -34v-78h72q20 0 33.5 -13t13.5 -34q0 -49 -47 -49h-72v-59 q0 -20 -16 -33.5t-38.5 -13.5t-38 13t-15.5 34v59h-307q-55 0 -56 47z" />
<glyph unicode="&#xbd;" horiz-adv-x="1169" d="M84 36.5q0 16.5 10 31.5l807 1163q14 25 32.5 24.5t43 -14.5t24.5 -31.5t-10 -29.5l-807 -1164q-14 -25 -32.5 -24.5t-43 14.5t-24.5 30.5zM119 1108q0 23 18.5 35t52 35.5t57 55.5t56.5 32q53 0 53 -39v-447h78q20 0 33.5 -13t13.5 -34q0 -49 -47 -49h-260q-47 0 -47 49 q0 20 13.5 33.5t33.5 13.5h72v324q-49 -41 -82 -41q-45 0 -45 45zM565 47q0 84 61.5 147.5t135.5 93t135 64.5t61 70q0 66 -137 65q-66 0 -125 -16v-72q0 -20 -16 -33.5t-39 -13.5t-38 13.5t-15 33.5v101q0 27 58.5 54.5t174.5 27.5q248 0 248 -160q0 -61 -51 -107.5 t-117 -70.5q-180 -68 -215 -150h289v66q0 20 15.5 33.5t38 13.5t38.5 -13.5t16 -33.5v-113q0 -47 -47 -47h-422q-49 0 -49 47z" />
<glyph unicode="&#xbe;" horiz-adv-x="1185" d="M88 756v71q0 20 15.5 33.5t38 13.5t39 -13t16.5 -34v-41q66 -20 139 -20q152 0 151 74q0 98 -198 98q-20 0 -33.5 13.5t-13.5 34t13.5 33.5t33.5 13q182 0 182 80q0 57 -133 57q-57 0 -127 -16v-39q0 -20 -16.5 -33.5t-39 -13.5t-38 13.5t-15.5 33.5v70q0 27 31 41 q80 39 205 39q244 0 244 -152q0 -72 -101 -125q115 -49 115 -147q0 -168 -260 -168q-119 0 -207 39q-41 18 -41 45zM184 36.5q0 16.5 11 31.5l806 1163q14 25 33 24.5t43.5 -14.5t24.5 -31.5t-10 -29.5l-807 -1164q-14 -25 -33 -24.5t-43.5 14.5t-24.5 30.5zM516 109 q-14 29 4 59l254 383q14 25 32.5 24.5t43 -14.5t24.5 -31.5t-10 -29.5l-213 -318h221v78q0 20 15.5 33.5t38 13.5t39 -13t16.5 -34v-78h72q20 0 33.5 -13t13.5 -34q0 -49 -47 -49h-72v-59q0 -20 -16.5 -33.5t-39 -13.5t-38 13.5t-15.5 33.5v59h-307q-35 0 -49 23z" />
<glyph unicode="&#xbf;" horiz-adv-x="966" d="M63 264q0 137 76 219q41 43 73 67.5t87 59.5t82 54.5t61 56.5q70 74 70 197q0 20 16.5 33.5t39 13.5t39 -13.5t16.5 -33.5q0 -121 -54 -211q-20 -35 -62 -72t-66.5 -53.5t-96.5 -61.5t-121 -102.5t-49 -153.5q0 -190 320 -190q178 0 294 53v149q0 20 16.5 34t39 14 t38 -13.5t15.5 -34.5v-165q0 -39 -49 -62q-143 -70 -354 -69q-430 0 -431 284zM494 1194q0 29 20.5 50.5t53 21.5t52 -21.5t19.5 -50.5t-19.5 -50.5t-52 -21.5t-53 21.5t-20.5 50.5z" />
<glyph unicode="&#xc0;" horiz-adv-x="1273" d="M10 29q0 8 4 18l545 1102h-88q-20 0 -33.5 13.5t-13.5 34t13.5 34.5t33.5 14h182q33 0 45 -24l580 -1172q4 -8 4 -18q0 -35 -33 -47q-12 -4 -22 -4q-35 0 -47 26l-191 385h-686l-190 -385q-18 -41 -70 -22q-33 12 -33 45zM348 485h596l-299 615zM440.5 1568.5 q-0.5 16.5 16 33t33 16.5t34.5 -21l113 -127q12 -14 12 -27t-10 -23.5t-23.5 -10.5t-27.5 12l-127 113q-20 18 -20.5 34.5z" />
<glyph unicode="&#xc1;" horiz-adv-x="1273" d="M10 29q0 8 4 18l545 1102h-88q-20 0 -33.5 13.5t-13.5 34t13.5 34.5t33.5 14h182q33 0 45 -24l580 -1172q4 -8 4 -18q0 -35 -33 -47q-51 -18 -69 22l-191 385h-686l-190 -385q-12 -27 -47 -26q-10 0 -23 4q-33 12 -33 45zM348 485h596l-299 615zM590 1443q0 13 12 27 l113 127q18 20 34.5 20.5t33 -16t16.5 -33t-21 -34.5l-127 -113q-14 -12 -27.5 -12t-23.5 10.5t-10 23.5z" />
<glyph unicode="&#xc2;" horiz-adv-x="1273" d="M10 29q0 8 4 18l545 1102h-88q-20 0 -33.5 13.5t-13.5 34t13.5 34.5t33.5 14h182q33 0 45 -24l580 -1172q4 -8 4 -18q0 -35 -33 -47q-12 -4 -22 -4q-35 0 -47 26l-191 385h-686l-190 -385q-18 -41 -70 -22q-33 12 -33 45zM348 485h596l-299 615zM500 1429.5 q0 12.5 10 24.5l90 119q16 23 45 22.5t45 -22.5l90 -119q10 -12 10.5 -24.5t-11 -22.5t-23.5 -10l-31 16l-80 84l-80 -84q-16 -16 -30 -16l-23 8q-12 12 -12 24.5z" />
<glyph unicode="&#xc3;" horiz-adv-x="1273" d="M10 29q0 8 4 18l545 1102h-88q-20 0 -33.5 13.5t-13.5 34t13.5 34.5t33.5 14h182q33 0 45 -24l580 -1172q4 -8 4 -18q0 -35 -33 -47q-12 -4 -22 -4q-35 0 -47 26l-191 385h-686l-190 -385q-18 -41 -70 -22q-33 12 -33 45zM348 485h596l-299 615zM379 1462.5q0 53.5 37 91 t100.5 37.5t140 -45t101.5 -45q41 0 41 45t47 45t47 -52t-37 -89t-99.5 -37t-136 44t-104.5 44q-43 0 -43 -46t-47 -46t-47 53.5z" />
<glyph unicode="&#xc4;" horiz-adv-x="1273" d="M10 29q0 8 4 18l545 1102h-88q-20 0 -33.5 13.5t-13.5 34t13.5 34.5t33.5 14h182q33 0 45 -24l580 -1172q4 -8 4 -18q0 -35 -33 -47q-51 -18 -69 22l-191 385h-686l-190 -385q-12 -27 -47 -26q-10 0 -23 4q-33 12 -33 45zM348 485h596l-299 615zM444 1493q0 63 64 63 q29 0 46 -18t17 -45t-17 -44t-47 -17t-46.5 17t-16.5 44zM721 1493q0 63 63 63q29 0 46.5 -18t17.5 -45t-17.5 -44t-47 -17t-46 17t-16.5 44z" />
<glyph unicode="&#xc5;" horiz-adv-x="1273" d="M10 29q0 8 4 18l545 1102h-88q-20 0 -33.5 13.5t-13.5 34t13.5 34.5t33.5 14h182q33 0 45 -24l580 -1172q4 -8 4 -18q0 -35 -33 -47q-51 -18 -69 22l-191 385h-686l-190 -385q-12 -27 -47 -26q-10 0 -23 4q-33 12 -33 45zM348 485h596l-299 615zM502 1503.5q0 59.5 40 97 t103.5 37.5t104.5 -37.5t41 -97t-41 -97.5t-104.5 -38t-103.5 38t-40 97.5zM580 1503q0 -33 19 -50t46 -17t47.5 17t20.5 50t-20.5 50.5t-47.5 17.5t-46 -17.5t-19 -50.5z" />
<glyph unicode="&#xc6;" horiz-adv-x="1867" d="M-27 37.5q0 9.5 9 19.5l772 1092h-64q-23 0 -39 14.5t-16 35t15.5 33.5t39.5 13h1039q53 0 53 -49v-168q0 -20 -16.5 -33.5t-39 -13.5t-39 13.5t-16.5 33.5v121h-672v-475h578v76q0 20 15.5 33.5t38 13.5t37.5 -13.5t15 -33.5v-250q0 -20 -15 -33.5t-37.5 -13.5t-38 13 t-15.5 34v78h-578v-482h727q25 0 40.5 -13t15.5 -33.5t-16.5 -35t-39.5 -14.5h-786q-51 0 -51 45v533h-410l-407 -578q-16 -23 -35 -23q-49 0 -62 43q-2 8 -2 17.5zM547 674h342v475h-8z" />
<glyph unicode="&#xc7;" horiz-adv-x="1249" d="M96 628.5q0 278.5 168 458t423 179.5t425 -99q31 -16 31 -43v-176q0 -20 -16.5 -33.5t-39 -13.5t-39 13.5t-16.5 33.5v152q-152 70 -334 69q-219 0 -355 -152.5t-136 -394t136 -394t371 -152.5t376 172q14 20 32.5 20t40 -17.5t21.5 -33.5t-13 -31q-147 -178 -407 -202 l-27 -62q66 -8 104 -48t38 -101.5t-57.5 -104.5t-138.5 -43t-143.5 30t-62.5 68.5t41 38.5q6 0 56.5 -23.5t94.5 -23.5t71.5 17.5t27.5 48.5q0 72 -119 72q-45 0 -45 36q0 16 12 37l27 56q-244 18 -395.5 193t-151.5 453.5z" />
<glyph unicode="&#xc8;" horiz-adv-x="1187" d="M41 1196.5q0 20.5 13.5 34.5t33.5 14h961q53 0 53 -49v-168q0 -20 -16.5 -33.5t-39 -13.5t-39 13.5t-16.5 33.5v121h-672v-475h578v76q0 20 15.5 33.5t38 13.5t38 -13.5t15.5 -33.5v-250q0 -20 -15.5 -33.5t-38 -13.5t-38 13t-15.5 34v78h-578v-482h728q25 0 40 -13 t15 -33.5t-16.5 -35t-38.5 -14.5h-787q-51 0 -51 45v1104h-121q-20 0 -33.5 13.5t-13.5 34zM492 1568.5q0 16.5 16 33t32.5 16.5t34.5 -21l113 -127q12 -14 12 -27t-10 -23.5t-23.5 -10.5t-27.5 12l-127 113q-20 18 -20 34.5z" />
<glyph unicode="&#xc9;" horiz-adv-x="1187" d="M41 1196.5q0 20.5 13.5 34.5t33.5 14h961q53 0 53 -49v-168q0 -20 -16.5 -33.5t-39 -13.5t-39 13.5t-16.5 33.5v121h-672v-475h578v76q0 20 15.5 33.5t38 13.5t38 -13.5t15.5 -33.5v-250q0 -20 -15.5 -33.5t-38 -13.5t-38 13t-15.5 34v78h-578v-482h728q25 0 40 -13 t15 -33.5t-16.5 -35t-38.5 -14.5h-787q-51 0 -51 45v1104h-121q-20 0 -33.5 13.5t-13.5 34zM545 1443q0 13 12 27l113 127q18 20 34.5 20.5t33 -16t16.5 -33t-21 -34.5l-127 -113q-14 -12 -27.5 -12t-23.5 10.5t-10 23.5z" />
<glyph unicode="&#xca;" horiz-adv-x="1187" d="M41 1196.5q0 20.5 13.5 34.5t33.5 14h961q53 0 53 -49v-168q0 -20 -16.5 -33.5t-39 -13.5t-39 13.5t-16.5 33.5v121h-672v-475h578v76q0 20 15.5 33.5t38 13.5t38 -13.5t15.5 -33.5v-250q0 -20 -15.5 -33.5t-38 -13.5t-38 13t-15.5 34v78h-578v-482h728q25 0 40 -13 t15 -33.5t-16.5 -35t-38.5 -14.5h-787q-51 0 -51 45v1104h-121q-20 0 -33.5 13.5t-13.5 34zM475 1429.5q0 12.5 10 24.5l90 119q16 23 45 22.5t46 -22.5l90 -119q10 -12 10 -24.5t-11.5 -22.5t-23.5 -10l-31 16l-79 84l-80 -84q-16 -16 -31 -16l-23 8q-12 12 -12 24.5z" />
<glyph unicode="&#xcb;" horiz-adv-x="1187" d="M41 1196.5q0 20.5 13.5 34.5t33.5 14h961q53 0 53 -49v-168q0 -20 -16.5 -33.5t-39 -13.5t-39 13.5t-16.5 33.5v121h-672v-475h578v76q0 20 15.5 33.5t38 13.5t38 -13.5t15.5 -33.5v-250q0 -20 -15.5 -33.5t-38 -13.5t-38 13t-15.5 34v78h-578v-482h728q25 0 40 -13 t15 -33.5t-16.5 -35t-38.5 -14.5h-787q-51 0 -51 45v1104h-121q-20 0 -33.5 13.5t-13.5 34zM410 1493q0 63 63 63q29 0 46.5 -18t17.5 -45t-17.5 -44t-47.5 -17t-46 17t-16 44zM686 1493q0 63 64 63q29 0 46 -18t17 -45t-17.5 -44t-47 -17t-46 17t-16.5 44z" />
<glyph unicode="&#xcc;" horiz-adv-x="569" d="M61 49.5q0 20.5 13.5 33.5t34.5 13h120v1053h-120q-20 0 -34 13.5t-14 34t13.5 34.5t34.5 14h352q20 0 33.5 -14t13.5 -34.5t-13.5 -34t-33.5 -13.5h-121v-1053h121q20 0 33.5 -13t13.5 -33.5t-13.5 -35t-33.5 -14.5h-352q-20 0 -34 14.5t-14 35zM168 1568.5 q0 16.5 16.5 33t32.5 16.5t35 -21l113 -127q12 -14 12 -27t-10.5 -23.5t-23.5 -10.5t-28 12l-127 113q-20 18 -20 34.5z" />
<glyph unicode="&#xcd;" horiz-adv-x="569" d="M61 49.5q0 20.5 13.5 33.5t34.5 13h120v1053h-120q-20 0 -34 13.5t-14 34t13.5 34.5t34.5 14h352q20 0 33.5 -14t13.5 -34.5t-13.5 -34t-33.5 -13.5h-121v-1053h121q20 0 33.5 -13t13.5 -33.5t-13.5 -35t-33.5 -14.5h-352q-20 0 -34 14.5t-14 35zM184 1443q0 13 13 27 l112 127q18 20 34.5 20.5t33 -16t16.5 -33t-20 -34.5l-127 -113q-14 -12 -27.5 -12t-24 10.5t-10.5 23.5z" />
<glyph unicode="&#xce;" horiz-adv-x="569" d="M61 49.5q0 20.5 13.5 33.5t34.5 13h120v1053h-120q-20 0 -34 13.5t-14 34t13.5 34.5t34.5 14h352q20 0 33.5 -14t13.5 -34.5t-13.5 -34t-33.5 -13.5h-121v-1053h121q20 0 33.5 -13t13.5 -33.5t-13.5 -35t-33.5 -14.5h-352q-20 0 -34 14.5t-14 35zM143.5 1429.5 q-0.5 12.5 10.5 24.5l90 119q16 23 44.5 22.5t45.5 -22.5l90 -119q10 -12 10 -24.5t-11 -22.5t-24 -10l-30 16l-80 84l-80 -84q-16 -16 -31 -16l-22 8q-12 12 -12.5 24.5z" />
<glyph unicode="&#xcf;" horiz-adv-x="569" d="M61 49.5q0 20.5 13.5 33.5t34.5 13h120v1053h-120q-20 0 -34 13.5t-14 34t13.5 34.5t34.5 14h352q20 0 33.5 -14t13.5 -34.5t-13.5 -34t-33.5 -13.5h-121v-1053h121q20 0 33.5 -13t13.5 -33.5t-13.5 -35t-33.5 -14.5h-352q-20 0 -34 14.5t-14 35zM88 1493q0 63 64 63 q29 0 46 -18t17 -45t-17.5 -44t-47 -17t-46 17t-16.5 44zM365 1493q0 63 63 63q29 0 46.5 -18t17.5 -45t-17.5 -44t-47.5 -17t-46 17t-16 44z" />
<glyph unicode="&#xd0;" horiz-adv-x="1345" d="M39 1196.5q0 20.5 13.5 34.5t33.5 14h547q279 0 447.5 -169t168.5 -455.5t-165.5 -453.5t-450.5 -167h-371q-53 0 -53 47v545h-121q-20 0 -33.5 13t-13.5 33.5t13.5 35t33.5 14.5h121v461h-123q-20 0 -33.5 13.5t-13.5 34zM319 96h314q238 0 372 138.5t134 385 t-137.5 388t-368.5 141.5h-314v-461h185q20 0 33.5 -14.5t13.5 -35t-13.5 -33.5t-33.5 -13h-185v-496z" />
<glyph unicode="&#xd1;" horiz-adv-x="1429" d="M41 1198.5q0 20.5 15.5 33.5t39.5 13h160q33 0 51 -20l803 -1032v956h-121q-20 0 -33.5 13.5t-13.5 34t13.5 34.5t33.5 14h352q20 0 34 -14t14 -34.5t-13.5 -34t-34.5 -13.5h-120v-1116q0 -53 -54 -53q-29 0 -49 28l-799 1028v-1009q0 -20 -16 -33.5t-38.5 -13.5t-39 13 t-16.5 34v1122h-113q-23 0 -39 14.5t-16 35zM463 1462.5q0 53.5 37 91t100.5 37.5t140 -45t101.5 -45q41 0 41 45t47 45t47 -52t-37 -89t-99.5 -37t-136 44t-104.5 44q-43 0 -43 -46t-47 -46t-47 53.5z" />
<glyph unicode="&#xd2;" horiz-adv-x="1425" d="M94 622.5q0 278.5 173 461t445.5 182.5t445.5 -182.5t173 -462t-173 -460.5t-445.5 -181t-445.5 182t-173 460.5zM205 622.5q0 -237.5 141 -392t366.5 -154.5t367 154.5t141.5 392t-141.5 392t-367 154.5t-366.5 -154.5t-141 -392zM586 1568.5q0 16.5 16 33t32.5 16.5 t35.5 -21l112 -127q12 -14 12.5 -27t-10 -23.5t-23.5 -10.5t-28 12l-127 113q-20 18 -20 34.5z" />
<glyph unicode="&#xd3;" horiz-adv-x="1425" d="M94 622.5q0 278.5 173 461t445.5 182.5t445.5 -182.5t173 -462t-173 -460.5t-445.5 -181t-445.5 182t-173 460.5zM205 622.5q0 -237.5 141 -392t366.5 -154.5t367 154.5t141.5 392t-141.5 392t-367 154.5t-366.5 -154.5t-141 -392zM625 1443q0 13 12 27l113 127 q18 20 34.5 20.5t33 -16t16.5 -33t-21 -34.5l-127 -113q-14 -12 -27.5 -12t-23.5 10.5t-10 23.5z" />
<glyph unicode="&#xd4;" horiz-adv-x="1425" d="M94 622.5q0 278.5 173 461t445.5 182.5t445.5 -182.5t173 -462t-173 -460.5t-445.5 -181t-445.5 182t-173 460.5zM205 622.5q0 -237.5 141 -392t366.5 -154.5t367 154.5t141.5 392t-141.5 392t-367 154.5t-366.5 -154.5t-141 -392zM586 1429.5q0 12.5 10 24.5l90 119 q16 23 45 22.5t45 -22.5l90 -119q10 -12 10.5 -24.5t-11 -22.5t-23.5 -10l-31 16l-80 84l-80 -84q-16 -16 -30 -16l-23 8q-12 12 -12 24.5z" />
<glyph unicode="&#xd5;" horiz-adv-x="1425" d="M94 622.5q0 278.5 173 461t445.5 182.5t445.5 -182.5t173 -462t-173 -460.5t-445.5 -181t-445.5 182t-173 460.5zM205 622.5q0 -237.5 141 -392t366.5 -154.5t367 154.5t141.5 392t-141.5 392t-367 154.5t-366.5 -154.5t-141 -392zM455 1462.5q0 53.5 36.5 91t100 37.5 t140.5 -45t102 -45q41 0 40.5 45t47 45t47.5 -52t-37 -89t-99.5 -37t-136 44t-104.5 44q-43 0 -43 -46t-47 -46t-47 53.5z" />
<glyph unicode="&#xd6;" horiz-adv-x="1425" d="M94 622.5q0 278.5 173 461t445.5 182.5t445.5 -182.5t173 -462t-173 -460.5t-445.5 -181t-445.5 182t-173 460.5zM205 622.5q0 -237.5 141 -392t366.5 -154.5t367 154.5t141.5 392t-141.5 392t-367 154.5t-366.5 -154.5t-141 -392zM528 1493q0 63 64 63q29 0 46 -18 t17 -45t-17 -44t-47 -17t-46.5 17t-16.5 44zM805 1493q0 63 63 63q29 0 46.5 -18t17.5 -45t-17.5 -44t-47 -17t-46 17t-16.5 44z" />
<glyph unicode="&#xd7;" horiz-adv-x="995" d="M88 733q0 19 20.5 39.5t39 20.5t32.5 -15l318 -319l317 319q14 14 32.5 14.5t39 -20t20.5 -39t-14 -33.5l-320 -317l318 -315q14 -14 14 -35t-18 -39t-39 -18.5t-35 14.5l-315 317l-316 -317q-14 -14 -24.5 -14.5t-21.5 0.5t-28.5 18.5t-17.5 38t14 35.5l318 315 l-320 317q-14 14 -14 33z" />
<glyph unicode="&#xd8;" horiz-adv-x="1425" d="M94 623q0 279 173 461t446 182q180 0 323 -86l45 63q14 25 33 25t43.5 -14.5t24.5 -32t-11 -29.5l-51 -74q211 -182 211 -479t-173 -478t-445 -181q-178 0 -324 83l-43 -61q-14 -25 -32.5 -25t-43 14.5t-24.5 32t10 29.5l49 72q-211 183 -211 498zM205 613.5 q0 -246.5 160 -402.5l614 885q-119 74 -266 73q-226 0 -367 -154.5t-141 -401zM446 147q115 -72 267 -71q225 0 366.5 154.5t141.5 400.5t-160 401z" />
<glyph unicode="&#xd9;" horiz-adv-x="1323" d="M20 1196.5q0 20.5 13.5 34.5t34.5 14h178q20 0 36.5 -14t16.5 -35v-807q0 -139 104.5 -226t270.5 -87t271.5 87t105.5 226v760h-121q-20 0 -33.5 13.5t-13.5 34t13.5 34.5t33.5 14h178q53 0 53 -49v-807q0 -188 -142 -298.5t-351 -110.5t-344.5 114.5t-135.5 294.5v760 h-120q-20 0 -34 13.5t-14 34zM516.5 1568.5q-0.5 16.5 16 33t33 16.5t34.5 -21l113 -127q12 -14 12 -27t-10 -23.5t-23.5 -10.5t-27.5 12l-127 113q-20 18 -20.5 34.5z" />
<glyph unicode="&#xda;" horiz-adv-x="1323" d="M20 1196.5q0 20.5 13.5 34.5t34.5 14h178q20 0 36.5 -14t16.5 -35v-807q0 -139 104.5 -226t270.5 -87t271.5 87t105.5 226v760h-121q-20 0 -33.5 13.5t-13.5 34t13 34.5t34 14h178q53 0 53 -49v-807q0 -188 -142 -298.5t-351 -110.5t-344.5 114.5t-135.5 294.5v760h-120 q-20 0 -34 13.5t-14 34zM575 1443q0 13 13 27l112 127q18 20 35 20.5t33 -16t16 -33t-20 -34.5l-127 -113q-14 -12 -27.5 -12t-24 10.5t-10.5 23.5z" />
<glyph unicode="&#xdb;" horiz-adv-x="1323" d="M20 1196.5q0 20.5 13.5 34.5t34.5 14h178q20 0 36.5 -14t16.5 -35v-807q0 -139 104.5 -226t270.5 -87t271.5 87t105.5 226v760h-121q-20 0 -33.5 13.5t-13.5 34t13.5 34.5t33.5 14h178q53 0 53 -49v-807q0 -188 -142 -298.5t-351 -110.5t-344.5 114.5t-135.5 294.5v760 h-120q-20 0 -34 13.5t-14 34zM514 1429.5q0 12.5 10 24.5l90 119q16 23 45 22.5t46 -22.5l90 -119q10 -12 10 -24.5t-11.5 -22.5t-23.5 -10l-31 16l-80 84l-79 -84q-16 -16 -31 -16l-23 8q-12 12 -12 24.5z" />
<glyph unicode="&#xdc;" horiz-adv-x="1323" d="M20 1196.5q0 20.5 13.5 34.5t34.5 14h178q20 0 36.5 -14t16.5 -35v-807q0 -139 104.5 -226t270.5 -87t271.5 87t105.5 226v760h-121q-20 0 -33.5 13.5t-13.5 34t13 34.5t34 14h178q53 0 53 -49v-807q0 -188 -142 -298.5t-351 -110.5t-344.5 114.5t-135.5 294.5v760h-120 q-20 0 -34 13.5t-14 34zM449 1493q0 63 63 63q29 0 46 -18t17 -45t-17 -44t-47 -17t-46 17t-16 44zM725 1493q0 63 63 63q29 0 46.5 -18t17.5 -45t-17.5 -44t-47 -17t-46 17t-16.5 44z" />
<glyph unicode="&#xdd;" horiz-adv-x="1150" d="M0 1211.5q0 9.5 2 17.5q12 39 61 39q21 0 35 -25l477 -698l478 700q16 23 34.5 23t40 -12.5t21.5 -45.5q0 -10 -6 -20l-512 -735v-428q0 -20 -16.5 -33.5t-39 -13.5t-39 13t-16.5 34v424l-514 741q-6 10 -6 19.5zM487 1443q0 13 13 27l112 127q18 20 35 20.5t33 -16 t16 -33t-20 -34.5l-127 -113q-14 -12 -27.5 -12t-24 10.5t-10.5 23.5z" />
<glyph unicode="&#xde;" horiz-adv-x="1222" d="M184 27v1192q0 20 16.5 33.5t39 13.5t39 -13.5t16.5 -33.5v-203h412q225 0 335.5 -92.5t110.5 -291t-110.5 -290.5t-335.5 -92h-412v-223q0 -20 -16.5 -33.5t-39 -13.5t-39 13t-16.5 34zM295 344h412q174 0 254.5 67.5t80.5 223.5t-85 220.5t-250 64.5h-412v-576z" />
<glyph unicode="&#xdf;" horiz-adv-x="1122" d="M137 27v1173q0 168 86 262t243 94t271.5 -81.5t114.5 -227.5q0 -78 -54.5 -142.5t-117.5 -100.5q-174 -94 -174 -175q0 -96 190 -174q78 -33 157 -73.5t134 -114.5t55 -176q0 -147 -88 -229t-252 -82q-76 0 -164 25.5t-137 64.5q-18 16 -18 32.5t13.5 34t30.5 17.5 t46 -18.5t101.5 -40t123.5 -21.5q113 0 173.5 57t60.5 147.5t-55.5 146.5t-134 92t-156.5 72t-133.5 96t-55.5 139t54.5 138.5t119 93.5t118.5 85t54 106q0 100 -87 158.5t-192.5 58.5t-160.5 -72.5t-55 -191.5v-1173q0 -20 -16.5 -33.5t-39 -13.5t-39 13t-16.5 34z" />
<glyph unicode="&#xe0;" d="M86 212q0 110 87 172t217 62t253 -43v142q0 98 -72 127q-55 20 -152 20t-179 -33v-129q0 -20 -16.5 -33.5t-39 -13.5t-39 13.5t-16.5 33.5v156q0 27 27 41q100 59 266 59t248 -54t82 -187v-410q0 -39 55 -39h80q20 0 33.5 -14t13.5 -34.5t-13.5 -34t-33.5 -13.5h-90 q-74 0 -114 33t-40 92q0 10 2 22q-109 -168 -315 -167q-115 0 -179.5 61t-64.5 171zM197 214q0 -67 38.5 -103.5t106.5 -36.5q188 0 301 205v38q-135 37 -230.5 37t-155.5 -36.5t-60 -103.5zM315.5 1089.5q-0.5 16.5 16 33t33 16.5t34.5 -21l113 -127q12 -14 12 -27.5 t-10 -23.5t-23.5 -10t-27.5 12l-127 113q-20 18 -20.5 34.5z" />
<glyph unicode="&#xe1;" d="M86 212q0 110 87 172t217 62t253 -43v142q0 98 -72 127q-35 12 -66.5 16t-107 4t-157.5 -33v-129q0 -20 -16.5 -33.5t-39 -13.5t-39 13.5t-16.5 33.5v156q0 27 27 41q100 59 266 59t248 -54t82 -187v-410q0 -39 55 -39h80q20 0 33.5 -14t13.5 -34.5t-13.5 -34 t-33.5 -13.5h-90q-74 0 -114 33t-40 92q0 10 2 22q-109 -168 -315 -167q-115 0 -179.5 61t-64.5 171zM197 214q0 -67 38.5 -103.5t106.5 -36.5q188 0 301 205v38q-135 37 -230.5 37t-155.5 -36.5t-60 -103.5zM350 963.5q0 13.5 12 27.5l113 127q18 20 34.5 20.5t33 -16 t16.5 -33t-20 -34.5l-127 -113q-14 -12 -27.5 -12t-24 10t-10.5 23.5z" />
<glyph unicode="&#xe2;" d="M86 212q0 110 87 172t217 62t253 -43v142q0 98 -72 127q-55 20 -152 20t-179 -33v-129q0 -20 -16.5 -33.5t-39 -13.5t-39 13.5t-16.5 33.5v156q0 27 27 41q100 59 266 59t248 -54t82 -187v-410q0 -39 55 -39h80q20 0 33.5 -14t13.5 -34.5t-13.5 -34t-33.5 -13.5h-90 q-74 0 -114 33t-40 92q0 10 2 22q-109 -168 -315 -167q-115 0 -179.5 61t-64.5 171zM197 214q0 -67 38.5 -103.5t106.5 -36.5q188 0 301 205v38q-135 37 -230.5 37t-155.5 -36.5t-60 -103.5zM283 950.5q0 12.5 10 24.5l90 119q16 23 45 22.5t45 -22.5l90 -119 q10 -12 10 -24.5t-11 -22.5t-23 -10l-31 16l-80 84l-80 -84q-16 -16 -31 -16l-22 8q-12 12 -12 24.5z" />
<glyph unicode="&#xe3;" d="M86 212q0 110 87 172t217 62t253 -43v142q0 98 -72 127q-55 20 -152 20t-179 -33v-129q0 -20 -16.5 -33.5t-39 -13.5t-39 13.5t-16.5 33.5v156q0 27 27 41q100 59 266 59t248 -54t82 -187v-410q0 -39 55 -39h80q20 0 33.5 -14t13.5 -34.5t-13.5 -34t-33.5 -13.5h-90 q-74 0 -114 33t-40 92q0 10 2 22q-109 -168 -315 -167q-115 0 -179.5 61t-64.5 171zM166 983q0 53 37 91t100.5 38t140 -45t101.5 -45q41 0 41 45t47 45t47 -52t-37 -89t-99.5 -37t-136 44t-104.5 44q-43 0 -43 -46t-47 -46t-47 53zM197 214q0 -67 38.5 -103.5t106.5 -36.5 q188 0 301 205v38q-135 37 -230.5 37t-155.5 -36.5t-60 -103.5z" />
<glyph unicode="&#xe4;" d="M86 212q0 110 87 172t217 62t253 -43v142q0 98 -72 127q-35 12 -66.5 16t-107 4t-157.5 -33v-129q0 -20 -16.5 -33.5t-39 -13.5t-39 13.5t-16.5 33.5v156q0 27 27 41q100 59 266 59t248 -54t82 -187v-410q0 -39 55 -39h80q20 0 33.5 -14t13.5 -34.5t-13.5 -34 t-33.5 -13.5h-90q-74 0 -114 33t-40 92q0 10 2 22q-109 -168 -315 -167q-115 0 -179.5 61t-64.5 171zM197 214q0 -67 38.5 -103.5t106.5 -36.5q188 0 301 205v38q-135 37 -230.5 37t-155.5 -36.5t-60 -103.5zM233 1014q0 63 64 63q29 0 46 -18.5t17 -45t-17 -44t-47 -17.5 t-46.5 17.5t-16.5 44.5zM510 1014q0 63 63 63q29 0 46.5 -18.5t17.5 -45t-17.5 -44t-47 -17.5t-46 17.5t-16.5 44.5z" />
<glyph unicode="&#xe5;" d="M86 212q0 110 87 172t217 62t253 -43v142q0 98 -72 127q-35 12 -66.5 16t-107 4t-157.5 -33v-129q0 -20 -16.5 -33.5t-39 -13.5t-39 13.5t-16.5 33.5v156q0 27 27 41q100 59 266 59t248 -54t82 -187v-410q0 -39 55 -39h80q20 0 33.5 -14t13.5 -34.5t-13.5 -34 t-33.5 -13.5h-90q-74 0 -114 33t-40 92q0 10 2 22q-109 -168 -315 -167q-115 0 -179.5 61t-64.5 171zM197 214q0 -67 38.5 -103.5t106.5 -36.5q188 0 301 205v38q-135 37 -230.5 37t-155.5 -36.5t-60 -103.5zM289 1026q0 59 40 97t103.5 38t104.5 -38t41 -97t-41 -97 t-104.5 -38t-103.5 38t-40 97zM367 1026q0 -33 19.5 -50.5t46 -17.5t47 17.5t20.5 50.5t-20.5 50.5t-47 17.5t-46 -17.5t-19.5 -50.5z" />
<glyph unicode="&#xe6;" horiz-adv-x="1454" d="M86 213q0 111 73.5 172t190.5 61h293v99q0 98 -72 127q-55 20 -155.5 20t-175.5 -30v-119q0 -20 -16.5 -33.5t-39 -13.5t-39 13t-16.5 34v145q0 27 27 41q98 57 248.5 57t224 -28.5t102.5 -110.5q106 139 287.5 139t266.5 -104t85 -279q0 -47 -53 -47l-567 -2 q8 -127 82.5 -203.5t193.5 -76.5q160 0 240 123q14 25 32.5 24.5t37 -9.5t25.5 -28.5t-3 -36.5q-104 -168 -340 -167.5t-336 202.5q-150 -203 -352 -202q-115 0 -179.5 61t-64.5 172zM197 207q0 -59 38.5 -96t106.5 -37q188 0 301 205v75h-268q-178 0 -178 -147zM754 446 h508q-7 111 -65 178.5t-167.5 67.5t-183.5 -68.5t-92 -177.5z" />
<glyph unicode="&#xe7;" horiz-adv-x="882" d="M86 393q0 166 109.5 279.5t272.5 113.5t284 -75q25 -16 24 -39v-172q0 -20 -16.5 -33.5t-39 -13.5t-38.5 13t-16 34v145q-82 47 -197 47t-194.5 -86t-79.5 -222t76.5 -223t197.5 -87q160 0 240 123q16 25 33.5 24.5t35.5 -8.5q29 -12 29 -33.5t-6 -32.5 q-86 -137 -256 -161l-27 -64q66 -8 103.5 -48t37.5 -101.5t-57 -104.5t-138 -43t-143.5 30t-62.5 68.5t41 38.5q6 0 56.5 -23.5t94.5 -23.5t71.5 17.5t27.5 48.5q0 72 -119 72q-45 0 -45 36q0 16 12 37l27 56q-156 16 -247 130.5t-91 280.5z" />
<glyph unicode="&#xe8;" horiz-adv-x="901" d="M86 387q0 176 106.5 287.5t280.5 111.5t259 -104t85 -279q0 -47 -53 -47l-567 -2q8 -127 82.5 -203.5t193.5 -76.5q160 0 240 123q14 25 32.5 24.5t37 -9.5t25.5 -28.5t-3 -36.5q-104 -168 -332 -167q-180 0 -283.5 115.5t-103.5 291.5zM201 451h508q-7 110 -65 175.5 t-167.5 65.5t-183.5 -66.5t-92 -174.5zM322 1089.5q0 16.5 16 33t32.5 16.5t35.5 -21l112 -127q12 -14 12 -27.5t-10 -23.5t-23.5 -10t-27.5 12l-127 113q-20 18 -20 34.5z" />
<glyph unicode="&#xe9;" horiz-adv-x="901" d="M86 387q0 176 106.5 287.5t280.5 111.5t259 -104t85 -279q0 -47 -53 -47l-567 -2q8 -127 82.5 -203.5t193.5 -76.5q160 0 240 123q14 25 32.5 24.5t37 -9.5t25.5 -28.5t-3 -36.5q-104 -168 -332 -167q-180 0 -283.5 115.5t-103.5 291.5zM201 451h508q-6 111 -64.5 176 t-168 65t-183.5 -66.5t-92 -174.5zM377 963.5q0 13.5 12 27.5l113 127q18 20 34.5 20.5t33 -16t16.5 -33t-21 -34.5l-127 -113q-14 -12 -27.5 -12t-23.5 10t-10 23.5z" />
<glyph unicode="&#xea;" horiz-adv-x="901" d="M86 387q0 176 106.5 287.5t280.5 111.5t259 -104t85 -279q0 -47 -53 -47l-567 -2q8 -127 82.5 -203.5t193.5 -76.5q160 0 240 123q14 25 32.5 24.5t37 -9.5t25.5 -28.5t-3 -36.5q-104 -168 -332 -167q-180 0 -283.5 115.5t-103.5 291.5zM201 451h508q-7 110 -65 175.5 t-167.5 65.5t-183.5 -66.5t-92 -174.5zM322 950.5q0 12.5 10 24.5l90 119q16 23 45 22.5t45 -22.5l90 -119q10 -12 10 -24.5t-11 -22.5t-23 -10l-31 16l-80 84l-80 -84q-16 -16 -31 -16l-22 8q-12 12 -12 24.5z" />
<glyph unicode="&#xeb;" horiz-adv-x="901" d="M86 387q0 176 106.5 287.5t280.5 111.5t259 -104t85 -279q0 -47 -53 -47l-567 -2q8 -127 82.5 -203.5t193.5 -76.5q160 0 240 123q14 25 32.5 24.5t37 -9.5t25.5 -28.5t-3 -36.5q-104 -168 -332 -167q-180 0 -283.5 115.5t-103.5 291.5zM201 451h508q-6 111 -64.5 176 t-168 65t-183.5 -66.5t-92 -174.5zM258 1014q0 63 64 63q29 0 46 -18.5t17 -45t-17.5 -44t-47 -17.5t-46 17.5t-16.5 44.5zM535 1014q0 63 63 63q29 0 46.5 -18.5t17.5 -45t-17.5 -44t-47.5 -17.5t-46 17.5t-16 44.5z" />
<glyph unicode="&#xec;" horiz-adv-x="442" d="M12 716.5q0 20.5 13.5 35t33.5 14.5h199q47 0 47 -47v-692q0 -20 -16.5 -33.5t-39 -13.5t-38.5 13t-16 34v643h-136q-20 0 -33.5 13t-13.5 33.5zM100.5 1089.5q-0.5 16.5 16 33t33 16.5t34.5 -21l113 -127q12 -14 12 -27.5t-10 -23.5t-23.5 -10t-27.5 12l-127 113 q-20 18 -20.5 34.5z" />
<glyph unicode="&#xed;" horiz-adv-x="442" d="M12 716.5q0 20.5 13.5 35t33.5 14.5h199q47 0 47 -47v-692q0 -20 -16.5 -33.5t-39 -13.5t-38.5 13t-16 34v643h-136q-20 0 -33.5 13t-13.5 33.5zM125 963.5q0 13.5 12 27.5l113 127q18 20 34.5 20.5t33 -16t16.5 -33t-21 -34.5l-127 -113q-14 -12 -27.5 -12t-23.5 10 t-10 23.5z" />
<glyph unicode="&#xee;" horiz-adv-x="442" d="M12 716.5q0 20.5 13.5 35t33.5 14.5h199q47 0 47 -47v-692q0 -20 -16.5 -33.5t-39 -13.5t-38.5 13t-16 34v643h-136q-20 0 -33.5 13t-13.5 33.5zM96.5 950.5q-0.5 12.5 9.5 24.5l91 119q16 23 44.5 22.5t45.5 -22.5l90 -119q10 -12 10 -24.5t-11 -22.5t-24 -10l-30 16 l-80 84l-80 -84q-16 -16 -31 -16l-22 8q-12 12 -12.5 24.5z" />
<glyph unicode="&#xef;" horiz-adv-x="442" d="M12 716.5q0 20.5 13.5 35t33.5 14.5h199q47 0 47 -47v-692q0 -20 -16.5 -33.5t-39 -13.5t-38.5 13t-16 34v643h-136q-20 0 -33.5 13t-13.5 33.5zM39 1014q0 63 63 63q29 0 46.5 -18.5t17.5 -45t-17.5 -44t-47 -17.5t-46 17.5t-16.5 44.5zM285 1014q0 63 63 63 q29 0 46.5 -18.5t17.5 -45t-17.5 -44t-47.5 -17.5t-46 17.5t-16 44.5z" />
<glyph unicode="&#xf0;" horiz-adv-x="976" d="M86 384q0 175 96.5 288.5t275.5 113.5t308 -149q-8 397 -160 616l-108 -88q-16 -12 -36 -10t-32 18.5t-12 34t18 33.5l107 86q-109 109 -271 137q-34 6 -34 41q0 53 45 54q6 0 14 -3q199 -33 330 -161l114 94q14 12 29 12l37 -22q14 -18 14 -35t-18 -31l-113 -92 q188 -260 189 -793q0 -322 -131 -444q-113 -104 -276 -104t-274.5 114.5t-111.5 289.5zM197 383q0 -137 80.5 -223t213 -86t204 113.5t73.5 326.5q-45 64 -125 121t-189.5 57t-183 -86t-73.5 -223z" />
<glyph unicode="&#xf1;" horiz-adv-x="1042" d="M12 716.5q0 20.5 13.5 35t33.5 14.5h111q127 0 127 -139q123 160 309 159q111 0 181.5 -56t70.5 -165v-430q0 -39 55 -39h80q20 0 33.5 -14t13.5 -34.5t-13 -34t-34 -13.5h-80q-166 0 -165 133v432q0 61 -38 94t-106 33q-188 0 -299 -196v-469q0 -20 -16.5 -33.5 t-39 -13.5t-38.5 13t-16 34v604q0 39 -39 39h-97q-20 0 -33.5 13t-13.5 33.5zM262 983q0 53 37 91t100.5 38t140 -45t101.5 -45q41 0 41 45t47 45t47 -52t-37 -89t-99 -37t-136 44t-105 44q-43 0 -43 -46t-47 -46t-47 53z" />
<glyph unicode="&#xf2;" horiz-adv-x="952" d="M84 383q0 176 110.5 289.5t282.5 113.5t281.5 -113.5t109.5 -290.5t-109.5 -289.5t-282.5 -112.5t-282.5 113.5t-109.5 289.5zM195 382q0 -136 78.5 -222t203.5 -86t204 86t79 222t-79 223t-204 87t-203.5 -87t-78.5 -223zM326 1089.5q0 16.5 16 33t32.5 16.5t35.5 -21 l112 -127q12 -14 12.5 -27.5t-10 -23.5t-24 -10t-27.5 12l-127 113q-20 18 -20 34.5z" />
<glyph unicode="&#xf3;" horiz-adv-x="952" d="M84 383q0 176 110.5 289.5t282.5 113.5t281.5 -113.5t109.5 -290.5t-109.5 -289.5t-282.5 -112.5t-282.5 113.5t-109.5 289.5zM195 382q0 -136 78.5 -222t203.5 -86t204 86t79 222t-79 223t-204 87t-203.5 -87t-78.5 -223zM385 963.5q0 13.5 12 27.5l113 127 q18 20 34.5 20.5t33 -16t16.5 -33t-21 -34.5l-127 -113q-14 -12 -27 -12t-23.5 10t-10.5 23.5z" />
<glyph unicode="&#xf4;" horiz-adv-x="952" d="M84 383q0 176 110.5 289.5t282.5 113.5t281.5 -113.5t109.5 -290.5t-109.5 -289.5t-282.5 -112.5t-282.5 113.5t-109.5 289.5zM195 382q0 -136 78.5 -222t203.5 -86t204 86t79 222t-79 223t-204 87t-203.5 -87t-78.5 -223zM330 950.5q0 12.5 10 24.5l90 119 q16 23 45 22.5t45 -22.5l90 -119q10 -12 10.5 -24.5t-11 -22.5t-23.5 -10l-31 16l-80 84l-80 -84q-16 -16 -30 -16l-23 8q-12 12 -12 24.5z" />
<glyph unicode="&#xf5;" horiz-adv-x="952" d="M84 383q0 176 110.5 289.5t282.5 113.5t281.5 -113.5t109.5 -290.5t-109.5 -289.5t-282.5 -112.5t-282.5 113.5t-109.5 289.5zM195 382q0 -136 78.5 -222t203.5 -86t204 86t79 222t-79 223t-204 87t-203.5 -87t-78.5 -223zM219 983q0 53 37 91t100.5 38t140 -45 t101.5 -45q41 0 41 45t47 45t47 -52t-37 -89t-99 -37t-136 44t-105 44q-43 0 -43 -46t-47 -46t-47 53z" />
<glyph unicode="&#xf6;" horiz-adv-x="952" d="M84 383q0 176 110.5 289.5t282.5 113.5t281.5 -113.5t109.5 -290.5t-109.5 -289.5t-282.5 -112.5t-282.5 113.5t-109.5 289.5zM195 382q0 -136 78.5 -222t203.5 -86t204 86t79 222t-79 223t-204 87t-203.5 -87t-78.5 -223zM274 1014q0 63 64 63q29 0 46 -18.5t17 -45 t-17 -44t-47 -17.5t-46.5 17.5t-16.5 44.5zM551 1014q0 63 63 63q29 0 46.5 -18.5t17.5 -45t-17.5 -44t-47 -17.5t-46 17.5t-16.5 44.5z" />
<glyph unicode="&#xf7;" horiz-adv-x="806" d="M117 380.5q0 20.5 13 35t34 14.5h477q20 0 33.5 -14.5t13.5 -35t-13.5 -33.5t-33.5 -13h-477q-20 0 -33.5 13t-13.5 33.5zM328 153.5q0 30.5 19.5 52t54 21.5t55 -21.5t20.5 -52t-20.5 -52t-55 -21.5t-54 21.5t-19.5 52zM328 610.5q0 30.5 19.5 52t54 21.5t55 -21.5 t20.5 -52t-20.5 -52t-55 -21.5t-54 21.5t-19.5 52z" />
<glyph unicode="&#xf8;" horiz-adv-x="952" d="M84 376q0 183 110.5 296.5t282.5 113.5q104 0 191 -45l61 88q12 20 32.5 20.5t39 -14t18.5 -31t-12 -30.5l-62 -88q123 -117 123 -299t-109.5 -294.5t-281.5 -112.5q-104 0 -194 47l-62 -88q-14 -23 -31.5 -23t-33.5 10q-25 16 -25 33.5t12 34.5l62 88q-121 111 -121 294 zM195 386q0 -132 69 -218l346 491q-61 33 -133 33q-125 0 -203.5 -87t-78.5 -219zM340 109q59 -35 137 -35q125 0 204 86t79 219t-76 221z" />
<glyph unicode="&#xf9;" horiz-adv-x="1042" d="M2 718.5q0 20.5 13.5 34t33.5 13.5h80q166 0 166 -133v-432q0 -61 38 -94t105 -33q188 0 299 196v469q0 20 16.5 33.5t39 13.5t39 -13t16.5 -34v-604q0 -39 39 -39h96q20 0 33.5 -13t13.5 -33.5t-13 -35t-34 -14.5h-111q-127 0 -127 139q-123 -160 -309 -159 q-111 0 -181.5 56t-70.5 165v430q0 39 -55 39h-80q-20 0 -33.5 14t-13.5 34.5zM350.5 1089.5q-0.5 16.5 16 33t33 16.5t34.5 -21l113 -127q12 -14 12 -27.5t-10 -23.5t-23.5 -10t-27.5 12l-127 113q-20 18 -20.5 34.5z" />
<glyph unicode="&#xfa;" horiz-adv-x="1042" d="M2 718.5q0 20.5 13.5 34t33.5 13.5h80q166 0 166 -133v-432q0 -61 38 -94t105 -33q188 0 299 196v469q0 20 16.5 33.5t39 13.5t39 -13t16.5 -34v-604q0 -39 39 -39h96q20 0 33.5 -13t13.5 -33.5t-13 -35t-34 -14.5h-111q-127 0 -127 139q-123 -160 -309 -159 q-111 0 -181.5 56t-70.5 165v430q0 39 -55 39h-80q-20 0 -33.5 14t-13.5 34.5zM436 963.5q0 13.5 13 27.5l112 127q18 20 34.5 20.5t33 -16t16.5 -33t-20 -34.5l-127 -113q-14 -12 -27.5 -12t-24 10t-10.5 23.5z" />
<glyph unicode="&#xfb;" horiz-adv-x="1042" d="M2 718.5q0 20.5 13.5 34t33.5 13.5h80q166 0 166 -133v-432q0 -61 38 -94t105 -33q188 0 299 196v469q0 20 16.5 33.5t39 13.5t39 -13t16.5 -34v-604q0 -39 39 -39h96q20 0 33.5 -13t13.5 -33.5t-13 -35t-34 -14.5h-111q-127 0 -127 139q-123 -160 -309 -159 q-111 0 -181.5 56t-70.5 165v430q0 39 -55 39h-80q-20 0 -33.5 14t-13.5 34.5zM344 950.5q0 12.5 10 24.5l90 119q16 23 45 22.5t46 -22.5l90 -119q10 -12 10 -24.5t-11.5 -22.5t-23.5 -10l-31 16l-80 84l-79 -84q-16 -16 -31 -16l-23 8q-12 12 -12 24.5z" />
<glyph unicode="&#xfc;" horiz-adv-x="1042" d="M2 718.5q0 20.5 13.5 34t33.5 13.5h80q166 0 166 -133v-432q0 -61 38 -94t105 -33q188 0 299 196v469q0 20 16.5 33.5t39 13.5t39 -13t16.5 -34v-604q0 -39 39 -39h96q20 0 33.5 -13t13.5 -33.5t-13 -35t-34 -14.5h-111q-127 0 -127 139q-123 -160 -309 -159 q-111 0 -181.5 56t-70.5 165v430q0 39 -55 39h-80q-20 0 -33.5 14t-13.5 34.5zM272 1014q0 63 64 63q29 0 46 -18.5t17 -45t-17 -44t-47 -17.5t-46.5 17.5t-16.5 44.5zM549 1014q0 63 63 63q29 0 46.5 -18.5t17.5 -45t-17.5 -44t-47 -17.5t-46 17.5t-16.5 44.5z" />
<glyph unicode="&#xfd;" horiz-adv-x="884" d="M-63.5 -411q6.5 42 40.5 42l66 -6q51 0 90 19q78 37 182 252l70 143l-334 676q-8 18 1 36.5t28.5 27.5t39 9t34.5 -30l288 -606l289 606q14 31 32.5 30.5t35.5 -8.5q37 -16 37 -47q0 -10 -5 -18l-417 -860q-39 -82 -62.5 -122t-69.5 -96.5t-104.5 -81t-119 -24.5t-83.5 6 q-45 10 -38.5 52zM371 963.5q0 13.5 12 27.5l113 127q18 20 34.5 20.5t33 -16t16.5 -33t-21 -34.5l-127 -113q-14 -12 -27.5 -12t-23.5 10t-10 23.5z" />
<glyph unicode="&#xfe;" horiz-adv-x="974" d="M-45 1486.5q0 20.5 13.5 35t33.5 14.5h191q20 0 37.5 -14.5t17.5 -34.5v-856q104 156 278 155.5t267.5 -111t93.5 -290.5t-96.5 -292.5t-256 -112.5t-286.5 116v-518q0 -20 -16.5 -33.5t-39 -13.5t-39 13.5t-16.5 33.5v1862h-135q-20 0 -33.5 13t-13.5 33.5zM248 197 q135 -123 263 -123t197.5 86t69.5 227t-68.5 223t-187.5 82q-168 0 -274 -190v-305z" />
<glyph unicode="&#xff;" horiz-adv-x="884" d="M-63.5 -411q6.5 42 40.5 42l66 -6q51 0 90 19q78 37 182 252l70 143l-334 676q-8 18 1 36.5t28.5 27.5t39 9t34.5 -30l288 -606l289 606q14 31 32.5 30.5t35.5 -8.5q37 -16 37 -47q0 -10 -5 -18l-417 -860q-39 -82 -62.5 -122t-69.5 -96.5t-104.5 -81t-119 -24.5t-83.5 6 q-45 10 -38.5 52zM242 1014q0 63 63 63q29 0 46.5 -18.5t17.5 -45t-17.5 -44t-47.5 -17.5t-46 17.5t-16 44.5zM518 1014q0 63 64 63q29 0 46 -18.5t17 -45t-17.5 -44t-47 -17.5t-46 17.5t-16.5 44.5z" />
<glyph unicode="&#x152;" horiz-adv-x="1923" d="M96 620.5q0 286.5 169 455.5t450 169h1071q53 0 53 -49v-168q0 -20 -16.5 -33.5t-39 -13.5t-38.5 13.5t-16 33.5v121h-672v-475h573v76q0 20 15.5 33.5t38 13.5t38 -13.5t15.5 -33.5v-250q0 -20 -15.5 -33.5t-38 -13.5t-38 13t-15.5 34v78h-573v-482h727q25 0 40 -13 t15 -33.5t-16.5 -35t-38.5 -14.5h-1069q-287 0 -453 167t-166 453.5zM209 619.5q0 -246.5 133 -385t373 -138.5h231v1053h-231q-233 0 -369.5 -141.5t-136.5 -388z" />
<glyph unicode="&#x153;" horiz-adv-x="1421" d="M86 385q0 176 109.5 288.5t267.5 112.5t270 -88q104 88 269 88t250 -104t85 -279q0 -47 -47 -47l-575 -2q10 -127 83.5 -203.5t192.5 -76.5q160 0 240 123q14 25 32.5 24.5t37 -9.5t25.5 -28.5t-3 -36.5q-105 -167 -332 -167q-160 0 -258 88q-100 -88 -264 -88 t-273.5 114.5t-109.5 290.5zM195 384q0 -136 79.5 -223t196.5 -87t199 71q-66 107 -66 240t64 236q-78 72 -196 71.5t-197.5 -86.5t-79.5 -222zM719 451h508q-6 110 -64.5 175.5t-169 65.5t-183.5 -66.5t-91 -174.5z" />
<glyph unicode="&#x178;" horiz-adv-x="1150" d="M0 1211.5q0 9.5 2 17.5q12 39 61 39q21 0 35 -25l477 -698l478 700q16 23 34.5 23t40 -12.5t21.5 -45.5q0 -10 -6 -20l-512 -735v-428q0 -20 -16.5 -33.5t-39 -13.5t-39 13t-16.5 34v424l-514 741q-6 10 -6 19.5zM375 1493q0 63 63 63q29 0 46.5 -18t17.5 -45t-17.5 -44 t-47 -17t-46 17t-16.5 44zM651 1493q0 63 64 63q29 0 46 -18t17 -45t-17.5 -44t-47 -17t-46 17t-16.5 44z" />
<glyph unicode="&#x2c6;" horiz-adv-x="413" d="M61.5 950.5q-0.5 12.5 10.5 24.5l90 119q16 23 45 22.5t45 -22.5l90 -119q10 -12 10 -24.5t-11 -22.5t-24 -10l-30 16l-80 84l-80 -84q-16 -16 -31 -16l-22 8q-12 12 -12.5 24.5z" />
<glyph unicode="&#x2dc;" horiz-adv-x="677" d="M82 983q0 53 37 91t100.5 38t140 -45t101.5 -45q41 0 41 45t47 45t47 -52t-37 -89t-99.5 -37t-136 44t-104.5 44q-43 0 -43 -46t-47 -46t-47 53z" />
<glyph unicode="&#x2000;" horiz-adv-x="819" />
<glyph unicode="&#x2001;" horiz-adv-x="1638" />
<glyph unicode="&#x2002;" horiz-adv-x="819" />
<glyph unicode="&#x2003;" horiz-adv-x="1638" />
<glyph unicode="&#x2004;" horiz-adv-x="546" />
<glyph unicode="&#x2005;" horiz-adv-x="409" />
<glyph unicode="&#x2006;" horiz-adv-x="273" />
<glyph unicode="&#x2007;" horiz-adv-x="273" />
<glyph unicode="&#x2008;" horiz-adv-x="204" />
<glyph unicode="&#x2009;" horiz-adv-x="327" />
<glyph unicode="&#x200a;" horiz-adv-x="91" />
<glyph unicode="&#x2010;" horiz-adv-x="817" d="M123 448.5q0 20.5 13.5 35t33.5 14.5h477q20 0 33.5 -14.5t13.5 -35t-13.5 -34t-33.5 -13.5h-477q-20 0 -33.5 13.5t-13.5 34z" />
<glyph unicode="&#x2011;" horiz-adv-x="817" d="M123 448.5q0 20.5 13.5 35t33.5 14.5h477q20 0 33.5 -14.5t13.5 -35t-13.5 -34t-33.5 -13.5h-477q-20 0 -33.5 13.5t-13.5 34z" />
<glyph unicode="&#x2012;" horiz-adv-x="817" d="M123 448.5q0 20.5 13.5 35t33.5 14.5h477q20 0 33.5 -14.5t13.5 -35t-13.5 -34t-33.5 -13.5h-477q-20 0 -33.5 13.5t-13.5 34z" />
<glyph unicode="&#x2013;" horiz-adv-x="1046" d="M123 448.5q0 20.5 13.5 35t33.5 14.5h707q20 0 33.5 -14.5t13.5 -35t-13.5 -34t-33.5 -13.5h-707q-20 0 -33.5 13.5t-13.5 34z" />
<glyph unicode="&#x2014;" horiz-adv-x="1529" d="M123 448.5q0 20.5 13.5 35t33.5 14.5h1190q20 0 33.5 -14.5t13.5 -35t-13.5 -34t-33.5 -13.5h-1190q-20 0 -33.5 13.5t-13.5 34z" />
<glyph unicode="&#x2018;" horiz-adv-x="354" d="M96 1358q0 76 49.5 137t92.5 61q23 0 22 -18q0 -12 -14 -25q-39 -31 -51 -86q51 -12 51 -69q0 -31 -19.5 -52.5t-54.5 -21.5t-55.5 21.5t-20.5 52.5z" />
<glyph unicode="&#x2019;" horiz-adv-x="358" d="M106 1303q0 12 15 24q39 31 51 86q-51 13 -51 70q0 31 19.5 52t54 21t55 -21.5t20.5 -51.5q0 -76 -49 -137.5t-92 -61.5q-23 0 -23 19z" />
<glyph unicode="&#x201a;" horiz-adv-x="405" d="M115 -127q0 12 14 25q39 31 51 86q-51 12 -51 69q0 31 19.5 52.5t54.5 21.5t55.5 -21.5t20.5 -52.5q0 -76 -49.5 -137t-92.5 -61q-23 0 -22 18z" />
<glyph unicode="&#x201c;" horiz-adv-x="583" d="M96 1358q0 76 49.5 137t92.5 61q23 0 22 -18q0 -12 -14 -25q-39 -31 -51 -86q51 -12 51 -69q0 -31 -19.5 -52.5t-54.5 -21.5t-55.5 21.5t-20.5 52.5zM326 1358q0 76 49 137t92 61q23 0 22 -18q0 -12 -14 -25q-39 -31 -51 -86q51 -12 51 -69q0 -31 -19.5 -52.5t-54 -21.5 t-55 21.5t-20.5 52.5z" />
<glyph unicode="&#x201d;" horiz-adv-x="587" d="M106 1303q0 12 15 24q39 31 51 86q-51 13 -51 70q0 31 19.5 52t54 21t55 -21.5t20.5 -51.5q0 -76 -49 -137.5t-92 -61.5q-23 0 -23 19zM336 1303q0 12 14 24q39 31 51 86q-51 13 -51 70q0 31 19.5 52t54.5 21t55.5 -21.5t20.5 -51.5q0 -76 -49.5 -137.5t-92.5 -61.5 q-23 0 -22 19z" />
<glyph unicode="&#x201e;" horiz-adv-x="634" d="M115 -127q0 12 14 25q39 31 51 86q-51 12 -51 69q0 31 19.5 52.5t54.5 21.5t55.5 -21.5t20.5 -52.5q0 -76 -49.5 -137t-92.5 -61q-23 0 -22 18zM344 -127q0 12 14 25q39 31 52 86q-52 12 -52 69q0 31 19.5 52.5t54.5 21.5t55.5 -21.5t20.5 -52.5q0 -76 -49 -137t-92 -61 q-23 0 -23 18z" />
<glyph unicode="&#x2022;" horiz-adv-x="616" d="M172 708.5q0 59.5 39 97.5t96.5 38t97 -38t39.5 -97.5t-39.5 -95t-97 -35.5t-96.5 35.5t-39 95z" />
<glyph unicode="&#x2026;" horiz-adv-x="825" d="M123 53.5q0 30.5 19.5 52t54 21.5t55 -21.5t20.5 -52t-20.5 -52t-55 -21.5t-54 21.5t-19.5 52zM338 53.5q0 30.5 19.5 52t54 21.5t55 -21.5t20.5 -52t-20.5 -52t-55 -21.5t-54 21.5t-19.5 52zM553 53.5q0 30.5 19.5 52t54.5 21.5t55 -21.5t20 -52t-20 -52t-55 -21.5 t-54.5 21.5t-19.5 52z" />
<glyph unicode="&#x202f;" horiz-adv-x="327" />
<glyph unicode="&#x2039;" horiz-adv-x="694" d="M80 393.5q0 22.5 26 40.5l406 293q12 10 22.5 10t23.5 -1t25.5 -18.5t12.5 -35.5t-23 -35l-360 -254l360 -252q23 -16 23 -34.5t-12 -34.5q-14 -20 -37 -20.5t-35 9.5l-406 291q-26 19 -26 41.5z" />
<glyph unicode="&#x203a;" horiz-adv-x="692" d="M96 106.5q0 18.5 23 34.5l360 252l-360 254q-23 16 -23 34.5t13 35.5q14 20 36.5 20t34.5 -10l406 -293q27 -18 26.5 -40.5t-26.5 -41.5l-406 -291q-12 -10 -22.5 -10t-23.5 1t-25.5 18.5t-12.5 36z" />
<glyph unicode="&#x205f;" horiz-adv-x="409" />
<glyph unicode="&#x20ac;" horiz-adv-x="876" d="M80 479.5q0 20.5 13 34.5t34 14h55q-4 49 -4 91.5t4 80.5h-55q-20 0 -33.5 13.5t-13.5 34t13 35t34 14.5h70q39 213 171 341t349 128q20 0 33.5 -13.5t13.5 -34t-13.5 -34t-33.5 -13.5q-174 0 -276.5 -99t-135.5 -275h381q20 0 33.5 -14.5t13.5 -35t-13 -34t-34 -13.5 h-393q-4 -53 -4 -94t4 -78h393q20 0 33.5 -14t13.5 -34.5t-13 -34t-34 -13.5h-379q37 -164 140.5 -261t269.5 -97q20 0 33.5 -13.5t13.5 -34t-13.5 -33.5t-33.5 -13q-221 0 -352.5 120.5t-169.5 331.5h-68q-20 0 -33.5 13.5t-13.5 34z" />
<glyph unicode="&#x2122;" horiz-adv-x="1550" d="M141 1183.5q0 20.5 13.5 35t33.5 14.5h76q33 0 53 -29l183 -252l186 256q18 25 45 25h80q20 0 33.5 -14.5t13.5 -35t-13.5 -33.5t-33.5 -13h-23v-389h23q20 0 33.5 -14.5t13.5 -35t-13.5 -34t-33.5 -13.5h-33q-41 0 -64.5 13.5t-28.5 28t-5 36.5v293l-133 -182 q-18 -29 -45 -29t-49 31l-131 182v-328q0 -20 -16.5 -33.5t-39 -13.5t-39 13.5t-16.5 33.5v441h-23q-20 0 -33.5 13t-13.5 33.5zM915 1114v74q0 18 13.5 31.5t36.5 13.5h458q50 0 50 -43v-76q0 -20 -15.5 -33.5t-38 -13.5t-37 13.5t-14.5 33.5v23h-117v-441q0 -20 -16 -33.5 t-38.5 -13.5t-39 13.5t-16.5 33.5v441h-121v-23q0 -20 -15.5 -33.5t-38 -13.5t-37 13.5t-14.5 33.5z" />
<glyph unicode="&#x25fc;" horiz-adv-x="788" d="M0 0v788h788v-788h-788z" />
<glyph unicode="&#xfb01;" horiz-adv-x="1073" d="M-23 -424q0 37 48 49q106 33 147 122t41 241v682h-125q-20 0 -33.5 13t-13.5 33.5t13.5 35t33.5 14.5h125v463q0 178 96.5 252.5t284.5 74.5t313 -67q25 -14 25 -37v-350q0 -20 -16.5 -33.5t-39 -13.5t-39 13t-16.5 34v328q-84 33 -228 32.5t-207.5 -54.5t-63.5 -181 v-461h571q47 0 47 -47v-692q0 -20 -16.5 -33.5t-39 -13.5t-39 13t-16.5 34v643h-507v-682q0 -182 -55.5 -291t-207.5 -160q-23 -6 -39 -6t-29.5 12.5t-13.5 32.5z" />
<glyph unicode="&#xfb02;" horiz-adv-x="1144" d="M-23 -424q0 37 48 49q106 33 147 122t41 241v682h-125q-20 0 -33.5 13t-13.5 33.5t13.5 35t33.5 14.5h125v463q0 178 96.5 252.5t289 74.5t316.5 -67q25 -14 25 -37v-1317q0 -39 55 -39h80q20 0 33.5 -14t13.5 -34.5t-13 -34t-34 -13.5h-80q-166 0 -166 133v1297 q-84 33 -232 32.5t-211.5 -54.5t-63.5 -181v-461h356q20 0 33.5 -14.5t13.5 -35t-13.5 -33.5t-33.5 -13h-356v-682q0 -182 -55.5 -291t-207.5 -160q-23 -6 -39 -6t-29.5 12.5t-13.5 32.5z" />
</font>
</defs>
</svg>
