<?xml version="1.0" standalone="no"?>
<!DOCTYPE svg PUBLIC "-//W3C//DTD SVG 1.1//EN" "http://www.w3.org/Graphics/SVG/1.1/DTD/svg11.dtd" >
<svg xmlns="http://www.w3.org/2000/svg">
<metadata></metadata>
<defs>
<font id="StRydeRegularRegular" horiz-adv-x="493" >
<font-face units-per-em="1000" ascent="800" descent="-200" />
<missing-glyph horiz-adv-x="240" />
<glyph unicode="&#xfb01;" horiz-adv-x="601" d="M44 445q0 37 37 37h29v92q0 71 31.5 101.5t91.5 30.5q61 0 81 -10.5t20 -30.5q0 -22 -9 -33h-72q-34 0 -50 -14.5t-16 -53.5v-82h237q36 0 53.5 -16.5t17.5 -61.5v-316q0 -26 23 -26h29q6 -12 6 -25q0 -37 -67 -37q-66 0 -66 68v321q0 28 -25 28h-208v-392q0 -25 -43 -25 q-24 0 -34 9v408h-59q-7 12 -7 28zM399 619q0 50 49 50t49 -50q0 -48 -49 -48t-49 48z" />
<glyph unicode="&#xfb02;" horiz-adv-x="629" d="M44 445q0 37 37 37h29v92q0 71 31.5 101.5t91.5 30.5q61 0 81 -10.5t20 -30.5q0 -22 -9 -33h-72q-34 0 -50 -14.5t-16 -53.5v-82h121q7 -11 7 -27q0 -38 -34 -38h-94v-392q0 -25 -43 -25q-24 0 -34 9v408h-59q-7 12 -7 28zM402 123v567q14 11 37 11q38 -1 38 -34v-526 q0 -44 15 -60t52 -16h68q3 -9 3 -23q0 -18 -24 -30t-72 -12q-61 0 -89 29.5t-28 93.5z" />
<glyph horiz-adv-x="0" />
<glyph horiz-adv-x="0" />
<glyph horiz-adv-x="1000" />
<glyph unicode="&#xd;" horiz-adv-x="0" />
<glyph unicode=" "  horiz-adv-x="240" />
<glyph unicode="&#x09;" horiz-adv-x="240" />
<glyph unicode="&#xa0;" horiz-adv-x="240" />
<glyph unicode="!" horiz-adv-x="205" d="M57 45q0 47 46 47t46 -47q0 -45 -46 -45t-46 45zM63 189v503q13 8 37 8q41 0 41 -31v-511q-11 -11 -39 -11q-39 0 -39 42z" />
<glyph unicode="&#x22;" horiz-adv-x="293" d="M49 528v149q0 24 35 24q23 0 32 -12t9 -44q0 -127 -43 -127q-21 0 -33 10zM168 528v149q0 24 35 24q23 0 32 -12t9 -44q0 -127 -43 -127q-21 0 -33 10z" />
<glyph unicode="#" horiz-adv-x="802" d="M18 168q0 21 9 31.5t37 10.5h134l37 212h-164q-9 22 -9 33q0 21 9 31t37 10h140l37 208q14 8 36 8q18 0 29.5 -7.5t8.5 -23.5l-33 -185h211l37 208q13 8 35 8q18 0 29.5 -7.5t9.5 -23.5l-33 -185h161q8 -10 8 -29q0 -45 -53 -45h-129l-37 -212h167q8 -12 8 -30 q0 -45 -53 -45h-135l-32 -181q-11 -8 -38 -8q-43 0 -35 37l27 152h-211l-32 -181q-10 -8 -38 -8q-42 0 -35 37l27 152h-158q-9 23 -9 33zM276 210h210l38 212h-210z" />
<glyph unicode="$" horiz-adv-x="599" d="M54 96q0 24 14 40q70 -64 208 -69l1 256q-115 34 -160.5 77.5t-45.5 124.5q0 78 52 128t157 56l1 97q13 9 31 9q28 0 27 -27v-80q106 -6 163 -59q16 -16 16 -39q0 -21 -22 -37q-56 48 -158 54l-1 -240q111 -33 159.5 -78t49.5 -126q0 -84 -53 -134.5t-159 -57.5l-1 -100 q-8 -7 -29 -7q-30 0 -29 34v73q-107 3 -177 46q-44 29 -44 59zM147 524q0 -42 29 -68t102 -52l1 222q-132 -7 -132 -102zM335 69q69 6 102 35.5t33 75.5q0 45 -30 73.5t-104 53.5z" />
<glyph unicode="%" horiz-adv-x="871" d="M35 491q0 104 43.5 157t114.5 53q72 0 114 -52.5t42 -157.5q0 -108 -42.5 -158t-114.5 -50t-114.5 50.5t-42.5 157.5zM93 489q0 -82 27 -119.5t72 -37.5q98 0 98 157q0 81 -26 121t-71 40q-44 0 -72 -41t-28 -120zM280 39l245 656q11 5 31 5q18 0 25.5 -8t2.5 -23 l-251 -665q-14 -6 -31 -6q-38 0 -22 41zM507 205q0 104 43.5 157t114.5 53q72 0 114 -52.5t42 -157.5q0 -108 -42.5 -158t-114.5 -50t-114.5 50.5t-42.5 157.5zM565 203q0 -82 27 -119.5t72 -37.5q98 0 98 157q0 81 -26 121t-71 40q-44 0 -72 -41t-28 -120z" />
<glyph unicode="&#x26;" horiz-adv-x="816" d="M53 212q0 160 157 214q-4 27 -4 62q0 108 53 159t159 51q127 0 127 -49q0 -22 -6 -33h-113q-77 0 -109 -31t-32 -104q0 -105 47 -195t126 -145q84 93 103 234h-135q-8 16 -8 32q0 40 43 40h263q9 -11 9 -35q0 -37 -33 -37h-82q-17 -158 -103 -267q64 -29 134 -29h93 q8 -14 8 -36t-20 -32.5t-74 -10.5q-100 0 -194 54q-77 -64 -177 -64q-110 0 -171 60t-61 162zM123 214q0 -71 44.5 -113.5t122.5 -42.5q60 0 113 35q-137 108 -181 275q-99 -42 -99 -154z" />
<glyph unicode="'" horiz-adv-x="174" d="M49 528v149q0 24 35 24q23 0 32 -12t9 -44q0 -127 -43 -127q-21 0 -33 10z" />
<glyph unicode="(" horiz-adv-x="235" d="M28 304q0 184 43.5 296t98.5 112q37 0 43 -35q-46 -34 -77 -128t-31 -245q0 -148 31.5 -245.5t80.5 -132.5q-6 -38 -43 -38q-57 0 -101.5 119t-44.5 297z" />
<glyph unicode=")" horiz-adv-x="235" d="M28 674q6 38 43 38q57 0 101.5 -119t44.5 -297q0 -184 -43.5 -296t-98.5 -112q-37 0 -43 35q46 34 77 128t31 245q0 148 -31.5 245.5t-80.5 132.5z" />
<glyph unicode="*" horiz-adv-x="524" d="M67 505q0 20 8.5 31.5t30.5 7.5l112 -10l-82 117q11 15 26 24q40 25 52 -14l49 -107l60 132q17 2 37 -9q7 -5 12.5 -12t7.5 -19t-9 -23l-65 -89l143 10q8 -16 8 -34q0 -16 -9.5 -29t-30.5 -10l-112 10l80 -115q-8 -17 -24 -26q-9 -9 -28 -7t-26 23l-46 103l-63 -129 q-20 2 -32 9q-40 23 -14 52l67 91l-143 -10q-9 16 -9 33z" />
<glyph unicode="+" horiz-adv-x="524" d="M54 265q0 38 30 38h141v163q10 8 38 8q36 0 36 -37v-134h163q8 -10 8 -36q0 -38 -35 -38h-136v-163q-14 -8 -36 -8q-20 0 -29 9t-9 32v130h-163q-8 16 -8 36z" />
<glyph unicode="," horiz-adv-x="175" d="M40 45q0 47 46 47q25 0 37 -15.5t12 -53.5q0 -54 -15 -86t-36 -32q-22 0 -26 17q13 12 20.5 36.5t7.5 41.5q-46 0 -46 45z" />
<glyph unicode="-" horiz-adv-x="427" d="M54 265q0 38 40 38h270q8 -10 8 -34q0 -40 -42 -40h-267q-9 18 -9 36z" />
<glyph unicode="." horiz-adv-x="171" d="M40 45q0 47 45 47q46 0 46 -47q0 -45 -46 -45q-45 0 -45 45z" />
<glyph unicode="/" horiz-adv-x="298" d="M37 -17l127 721q14 8 36 8q18 0 29.5 -7.5t8.5 -23.5l-128 -727q-10 -8 -38 -8q-42 0 -35 37z" />
<glyph unicode="0" horiz-adv-x="592" d="M52 278q0 141 68 212.5t179 71.5q113 0 177 -70.5t64 -213.5q0 -147 -65.5 -214.5t-178.5 -67.5t-178.5 68.5t-65.5 213.5zM128 275q0 -112 45 -162.5t123 -50.5q167 0 167 213q0 111 -43.5 165t-120.5 54q-76 0 -123.5 -55t-47.5 -164z" />
<glyph unicode="1" horiz-adv-x="479" d="M47 430q0 15 10 32q132 20 170 88q15 10 36 10q41 0 41 -31l-1 -456h142q9 -13 9 -31q0 -42 -33 -42h-339q-9 18 -9 34q0 20 9 29.5t37 9.5h108v369q-73 -45 -147 -45q-13 0 -23 8t-10 25z" />
<glyph unicode="2" horiz-adv-x="499" d="M27 40q0 32 23 50q9 5 43.5 26.5t51.5 32t51 33t53 38t44.5 39t39 43t23.5 42.5t10 45q0 99 -140 99q-54 0 -101 -18.5t-63 -44.5q-31 12 -31 43q0 32 55.5 63t143.5 31q107 0 160 -43t53 -120q0 -164 -313 -335h335q7 -8 7 -29q0 -35 -29 -35h-409q-7 18 -7 40z" />
<glyph unicode="3" horiz-adv-x="520" d="M28 -1q0 40 34 47q13 -45 54.5 -77t118.5 -32q83 0 124 36t41 93q0 55 -37 86t-99 31h-34q-21 0 -21 32q0 18 7 32q79 1 122 33.5t42 86.5q-1 52 -38.5 84t-107.5 32q-58 0 -102.5 -21.5t-60.5 -54.5q-31 11 -31 42q0 39 52.5 75.5t145.5 36.5q105 0 162 -51.5t57 -130.5 q0 -56 -31 -100.5t-80 -55.5v-2q55 -9 92 -50.5t37 -110.5q0 -85 -58.5 -139.5t-177.5 -54.5q-59 0 -102.5 14t-66 35.5t-32.5 42.5t-10 41z" />
<glyph unicode="4" horiz-adv-x="573" d="M31 27q0 13 7 36l150 476q13 8 42 8q17 0 23.5 -9.5t1.5 -24.5l-139 -446h250v261q15 10 39 10q35 0 35 -28v-243h95q7 -11 7 -35q0 -32 -26 -32h-76v-137q-10 -6 -41 -6q-32 0 -32 29l-1 114h-329q-6 10 -6 27z" />
<glyph unicode="5" horiz-adv-x="531" d="M37 4q0 37 36 46q10 -48 54 -85t125 -37q87 0 129.5 41t42.5 112q0 140 -177 140q-40 0 -90.5 -11t-65.5 -11q-29 0 -27 36l11 313q16 10 46 10h347q9 -14 9 -33q0 -41 -33 -41h-299l-10 -222q65 25 133 25q106 0 168.5 -51t62.5 -159q0 -95 -62 -155.5t-182 -60.5 q-60 0 -105 15t-68 38t-34 46t-11 44z" />
<glyph unicode="6" horiz-adv-x="556" d="M52 333q0 170 64 264.5t193 94.5q79 0 130 -26t51 -58q0 -30 -23 -42q-71 54 -156 54q-172 0 -183 -254q80 41 170 41q101 0 161.5 -47.5t60.5 -154.5q0 -94 -53.5 -154.5t-166.5 -60.5q-248 0 -248 343zM127 302q4 -128 44.5 -186t126.5 -58q76 0 112 40t36 106 q0 72 -41.5 106t-113.5 34q-92 0 -164 -42z" />
<glyph unicode="7" horiz-adv-x="477" d="M0 521q0 15 8.5 25.5t23.5 10.5h423q5 -9 5 -27t-8 -44l-216 -612q-14 -7 -40 -7q-19 0 -26 9.5t-2 23.5l203 582h-362q-9 11 -9 39z" />
<glyph unicode="8" horiz-adv-x="544" d="M41 190q0 124 114 174q-88 49 -88 156q0 81 52.5 126t148.5 45q102 0 155.5 -44.5t53.5 -129.5q0 -53 -26.5 -94.5t-70.5 -65.5q122 -47 122 -170q0 -87 -57 -142t-174 -55q-115 0 -172.5 54.5t-57.5 145.5zM114 189q0 -58 40 -94.5t116 -36.5q82 0 121 35t39 93t-44 90 t-120 49l-31 7q-53 -11 -87 -47t-34 -96zM136 520q0 -36 13.5 -61.5t40 -41t51.5 -23.5t63 -16q47 14 76 50.5t29 88.5q0 53 -36 83t-100 30q-62 0 -99.5 -30.5t-37.5 -79.5z" />
<glyph unicode="9" horiz-adv-x="551" d="M34 326q0 107 55.5 171t170.5 64q123 0 181 -80.5t58 -279.5q0 -343 -249 -343q-88 0 -147.5 30.5t-59.5 62.5q0 23 21 39q79 -60 174 -60q97 0 139 58.5t45 190.5q-73 -48 -179 -48q-89 0 -149 48.5t-60 146.5zM107 332q0 -65 40.5 -100.5t102.5 -35.5q103 0 172 49 q-4 134 -40.5 190.5t-116.5 56.5t-119 -43.5t-39 -116.5z" />
<glyph unicode=":" horiz-adv-x="171" d="M40 45q0 47 45 47q46 0 46 -47q0 -45 -46 -45q-45 0 -45 45zM40 453q0 47 45 47q46 0 46 -47q0 -45 -46 -45q-45 0 -45 45z" />
<glyph unicode=";" horiz-adv-x="175" d="M40 45q0 47 46 47q25 0 37 -15.5t12 -53.5q0 -54 -15 -86t-36 -32q-22 0 -26 17q13 12 20.5 36.5t7.5 41.5q-46 0 -46 45zM42 453q0 47 45 47q46 0 46 -47q0 -45 -46 -45q-45 0 -45 45z" />
<glyph unicode="&#x3c;" horiz-adv-x="356" d="M38 245q0 23 22 42l214 202q8 4 19 4q10 0 19 -10t9 -21q0 -12 -14 -28l-198 -189l202 -191q6 -8 6 -21t-10 -22.5t-20 -9.5q-15 0 -30 15l-207 195q-12 22 -12 34z" />
<glyph unicode="=" horiz-adv-x="524" d="M54 162q0 35 32 35h376q8 -13 8 -36q0 -38 -36 -38h-372q-8 20 -8 39zM54 352q0 35 32 35h376q8 -13 8 -36q0 -38 -36 -38h-372q-8 20 -8 39z" />
<glyph unicode="&#x3e;" horiz-adv-x="356" d="M35 32q0 12 14 28l198 189l-202 191q-6 8 -6 21t10 22.5t20 9.5q15 0 30 -15l207 -195q12 -22 12 -34q0 -23 -22 -42l-214 -202q-8 -4 -19 -4q-10 0 -19 10t-9 21z" />
<glyph unicode="?" d="M33 578q0 38 52.5 75t145.5 37q101 0 160.5 -54t59.5 -148q0 -93 -55.5 -146t-145.5 -62l6 -132q-11 -10 -38 -10q-29 0 -31 31l-4 130q0 22 8 31q74 2 129 37.5t55 104.5q0 72 -40 106.5t-108 34.5q-58 0 -102.5 -23t-59.5 -57q-32 12 -32 45zM181 45q0 47 46 47t46 -47 q0 -45 -46 -45t-46 45z" />
<glyph unicode="@" horiz-adv-x="865" d="M34 228q0 177 110.5 286.5t288.5 109.5t287.5 -106t109.5 -272q0 -113 -55.5 -179.5t-138.5 -66.5q-93 0 -93 73v11q-94 -83 -177 -83q-58 0 -89.5 36.5t-31.5 98.5q0 51 33.5 81t97.5 34l167 11v36q0 83 -101 83q-43 0 -84.5 -8.5t-59.5 -17.5q-13 8 -13 32 q0 29 51.5 45.5t109.5 16.5q157 -2 157 -131v-228q0 -22 9.5 -29.5t31.5 -7.5q51 0 86.5 52.5t35.5 143.5q0 135 -92 221.5t-241 86.5q-148 0 -240.5 -91.5t-92.5 -238.5q0 -152 93.5 -240.5t240.5 -88.5q120 0 217 39q19 -10 19 -27q0 -22 -24 -35q-86 -42 -213 -42 q-175 0 -287 107.5t-112 287.5zM309 134q0 -32 19 -52t54 -20q68 0 161 72v78l-164 -14q-70 -7 -70 -64z" />
<glyph unicode="A" horiz-adv-x="640" d="M18 11l258 676q22 13 46 13q32 0 44 -30l256 -652q-8 -18 -38 -18q-35 0 -44 31l-56 139h-329l-55 -145q-9 -25 -44 -25q-27 0 -38 11zM180 236h278l-141 357z" />
<glyph unicode="B" horiz-adv-x="665" d="M104 36v657q11 7 39 7h219q197 0 197 -184q0 -96 -72 -147q114 -45 114 -174q0 -67 -34.5 -113t-83.5 -64t-108 -18h-232q-39 0 -39 36zM181 65h171q171 0 171 134q0 129 -178 129h-164v-263zM181 391h165q139 4 139 127q0 65 -34.5 91.5t-103.5 26.5h-166v-245z" />
<glyph unicode="C" horiz-adv-x="641" d="M64 350q0 178 78.5 269t212.5 91q146 0 215 -83q22 -19 22 -43q0 -26 -29 -36q-69 88 -205 88q-100 0 -158.5 -72.5t-58.5 -214.5q0 -287 222 -287q135 0 206 85q12 1 23 -7.5t11 -24.5q0 -27 -26 -46q-79 -79 -217 -79q-137 0 -216.5 88t-79.5 272z" />
<glyph unicode="D" horiz-adv-x="696" d="M104 36v656q13 8 39 8h136q180 0 266.5 -87t86.5 -271q0 -182 -83.5 -262t-242.5 -80h-163q-39 0 -39 36zM182 70h121q126 0 188.5 63t62.5 207q0 147 -66 217t-204 70h-102v-557z" />
<glyph unicode="E" horiz-adv-x="636" d="M104 37v655q13 8 37 8h434q9 -9 9 -32q0 -42 -32 -42h-370v-230h334q9 -9 9 -35q0 -39 -31 -39h-312v-248h393q9 -9 9 -32q0 -42 -32 -42h-413q-35 0 -35 37z" />
<glyph unicode="F" horiz-adv-x="623" d="M104 37v655q13 8 37 8h430q8 -10 8 -32q0 -42 -32 -42h-365v-243h336q8 -10 8 -32q0 -42 -32 -42h-312v-301q-10 -8 -43 -8q-35 0 -35 37z" />
<glyph unicode="G" horiz-adv-x="702" d="M64 350q0 176 84.5 268t219.5 92q102 0 165 -34.5t63 -65.5q0 -15 -10 -24.5t-22 -10.5q-72 64 -195 64q-100 0 -166 -75t-66 -215q0 -148 64.5 -220t158.5 -72q60 0 112 30t85 83v125h-188q-7 16 -7 33q0 15 9.5 23.5t36.5 8.5h160q32 0 43 -13.5t11 -49.5v-289 q-14 -9 -36 -9q-14 0 -21.5 6.5t-7.5 25.5v65q-82 -106 -203 -106q-124 0 -207 90t-83 270z" />
<glyph unicode="H" horiz-adv-x="733" d="M104 37v655q14 8 41 8q37 0 37 -31v-275h368v298q16 8 41 8q38 0 38 -31v-660q-13 -9 -38 -9q-41 0 -41 37v285h-368v-312q-10 -10 -43 -10q-35 0 -35 37z" />
<glyph unicode="I" horiz-adv-x="286" d="M104 37v655q14 8 42 8q36 0 36 -31v-659q-17 -10 -42 -10q-36 0 -36 37z" />
<glyph unicode="J" horiz-adv-x="386" d="M20 47q0 17 6 29h102q41 0 60.5 18t19.5 60v538q16 8 39 8q35 0 35 -32v-532q0 -136 -135 -136q-127 0 -127 47z" />
<glyph unicode="K" horiz-adv-x="614" d="M104 36v655q18 9 41 9q36 0 36 -31v-308q84 64 155.5 157t105.5 176q12 6 33 6q11 0 19.5 -8t8.5 -19q0 -20 -15 -48q-76 -146 -190 -250q29 -28 75.5 -108.5t88 -139t75.5 -58.5h28q7 -9 7 -26q0 -43 -60 -43q-46 0 -91 57.5t-95 149t-79 126.5q-36 -27 -66 -47v-277 q-15 -9 -44 -9q-33 0 -33 36z" />
<glyph unicode="L" horiz-adv-x="540" d="M104 36v657q14 7 40 7q38 0 38 -31v-595h331q9 -11 9 -32q0 -42 -45 -42h-338q-35 0 -35 36z" />
<glyph unicode="M" horiz-adv-x="897" d="M86 7l45 639q5 54 54 54q21 0 38 -6l222 -552l190 516q12 42 53 42q25 0 47 -10l76 -680q-15 -10 -41 -10q-37 0 -41 28l-48 536l-183 -484q-7 -26 -19.5 -34t-33.5 -8q-37 0 -51 42l-198 484l-33 -536q-1 -28 -38 -28q-25 0 -39 7z" />
<glyph unicode="N" horiz-adv-x="734" d="M104 36v656q16 8 41 8q22 0 36 -19l375 -541l-2 550q13 10 37 10q41 0 41 -31v-662q-12 -7 -40 -7q-22 0 -37 20l-377 531l4 -542q-11 -9 -44 -9q-34 0 -34 36z" />
<glyph unicode="O" horiz-adv-x="712" d="M64 350q0 178 79.5 269t215.5 91q134 0 211 -91t77 -269q0 -186 -76.5 -273t-211.5 -87q-137 0 -216 88.5t-79 271.5zM140 349q0 -151 59 -221t161 -70q211 0 211 291q0 144 -57 217.5t-155 73.5q-102 0 -160.5 -74t-58.5 -217z" />
<glyph unicode="P" horiz-adv-x="621" d="M104 36v657q14 7 39 7h219q87 0 142 -52t55 -154q0 -61 -18.5 -105t-51.5 -67t-70.5 -33.5t-81.5 -10.5h-155v-270q-13 -8 -43 -8q-35 0 -35 36zM182 343h139q164 0 164 146q0 73 -35.5 110t-99.5 37h-168v-293z" />
<glyph unicode="Q" horiz-adv-x="712" d="M64 350q0 178 79.5 269t215.5 91q134 0 211 -91t77 -269q0 -264 -161 -333q55 -103 128 -103h50q6 -12 6 -28q0 -22 -18 -35.5t-50 -13.5q-112 0 -183 158q-32 -5 -60 -5q-137 0 -216 88.5t-79 271.5zM140 349q0 -151 59 -221t161 -70q211 0 211 291q0 144 -57 217.5 t-155 73.5q-102 0 -160.5 -74t-58.5 -217z" />
<glyph unicode="R" horiz-adv-x="670" d="M104 36v657q11 7 39 7h219q90 0 145.5 -46.5t55.5 -146.5q0 -79 -46.5 -130t-116.5 -66q22 -29 57.5 -96t65 -106.5t60.5 -39.5h28q7 -9 7 -26q0 -43 -60 -43q-36 0 -68.5 34.5t-54 78.5t-52.5 102t-57 90h-144v-296q-10 -9 -39 -9q-39 0 -39 36zM182 367h152 q67 0 111 35.5t44 103.5q0 132 -142 132h-165v-271z" />
<glyph unicode="S" horiz-adv-x="608" d="M58 96q0 24 14 40q37 -32 99.5 -50.5t130.5 -18.5q89 0 130.5 31t41.5 82q0 49 -36.5 79.5t-133.5 57.5q-128 35 -178.5 79.5t-50.5 128.5q0 83 56.5 134t167.5 51q144 0 207 -61q16 -16 16 -39q0 -21 -22 -37q-66 55 -201 55q-75 0 -111.5 -28.5t-36.5 -75.5t38.5 -76.5 t139.5 -58.5q118 -31 169 -76q52 -46 52 -133q0 -88 -61 -138q-62 -52 -184 -52q-126 0 -202 47q-45 29 -45 59z" />
<glyph unicode="T" horiz-adv-x="598" d="M16 664q0 36 41 36h516q9 -11 9 -32q0 -42 -33 -42h-212v-618q-11 -8 -43 -8q-33 0 -33 36v590h-236q-9 18 -9 38z" />
<glyph unicode="U" horiz-adv-x="701" d="M97 692q13 8 40 8q38 0 38 -31v-404q0 -104 41 -154t134 -50q97 0 138.5 49.5t41.5 153.5v428q13 8 39 8q39 0 39 -31v-415q0 -264 -258 -264q-129 0 -190.5 64.5t-61.5 199.5z" />
<glyph unicode="V" horiz-adv-x="647" d="M24 692q16 8 45 8q30 0 41 -27l224 -567q65 107 136 295t84 290q16 9 41 9q12 0 20 -5.5t8 -14.5q0 -16 -7 -52q-17 -93 -95.5 -286t-163.5 -336q-17 -6 -34 -6q-26 0 -39 32z" />
<glyph unicode="W" horiz-adv-x="1000" d="M18 692q16 8 45 8q30 0 41 -27l214 -566q37 62 85 170.5t85 210.5l-80 204q14 8 45 8q30 0 40 -27l224 -567q61 101 121.5 287.5t74.5 297.5q18 9 41 9q12 0 20 -5.5t8 -14.5q0 -15 -6 -52q-19 -105 -87 -295.5t-148 -326.5q-17 -6 -34 -6q-27 0 -39 32l-142 360 q-94 -229 -185 -385q-17 -6 -34 -6q-26 0 -39 31z" />
<glyph unicode="X" horiz-adv-x="669" d="M42 18l239 343l-223 319q12 20 47 20q38 0 65 -39l167 -236l170 246q19 29 55 29q31 0 42 -16l-223 -321l246 -347q-19 -16 -52 -16q-39 0 -62 32l-187 266l-191 -272q-16 -26 -54 -26q-26 0 -39 18z" />
<glyph unicode="Y" horiz-adv-x="591" d="M36 688q19 12 44 12q29 0 38 -26q62 -202 188 -387q61 93 117.5 216.5t68.5 191.5q10 5 37 5q11 0 18.5 -8t7.5 -19q-1 -59 -74 -204.5t-139 -235.5v-224q-13 -9 -43 -9q-34 0 -34 29v201q-159 228 -229 458z" />
<glyph unicode="Z" horiz-adv-x="639" d="M32 28q0 23 14 40l418 560h-397q-9 16 -9 34q0 38 35 38h475q6 -6 6 -27q0 -22 -15 -41l-418 -563h459q7 -16 7 -33q0 -36 -38 -36h-531q-6 14 -6 28z" />
<glyph unicode="[" horiz-adv-x="307" d="M58 -73v773q20 12 53 12h158q9 -11 9 -33q0 -42 -28 -42h-117v-673h136q9 -14 9 -33q0 -42 -30 -42h-180q-10 15 -10 38z" />
<glyph unicode="\" horiz-adv-x="298" d="M35 681q-3 16 8.5 23.5t29.5 7.5q22 0 36 -8l127 -721q7 -37 -35 -37q-28 0 -38 8z" />
<glyph unicode="]" horiz-adv-x="307" d="M58 -79q0 42 28 42h117v673h-136q-9 14 -9 33q0 42 30 42h180q10 -15 10 -38v-773q-20 -12 -53 -12h-158q-9 11 -9 33z" />
<glyph unicode="^" horiz-adv-x="483" d="M73 580q8 4 70 58t87 54q24 0 87 -53t74 -59q-5 -23 -24 -26q-8 -3 -19 0q-13 4 -31.5 16t-45 32t-39.5 29q-12 -8 -39.5 -28.5t-46 -32.5t-31.5 -16q-10 -3 -18 0q-19 3 -24 26z" />
<glyph unicode="_" horiz-adv-x="608" d="M20 -118q0 37 36 37h525q7 -9 7 -34q0 -40 -30 -40h-530q-8 20 -8 37z" />
<glyph unicode="`" horiz-adv-x="540" d="M142 656q2 34 39 34q24 0 87 -54t70 -58q-6 -28 -34 -28q-15 0 -43.5 20t-64 48t-54.5 38z" />
<glyph unicode="a" d="M32 139q0 60 34.5 95.5t101.5 39.5l169 10v43q0 95 -104 95q-43 0 -85 -10.5t-63 -24.5q-14 12 -14 32q0 33 52.5 53t112.5 20q74 0 121 -34.5t47 -110.5v-257q0 -35 25 -35h28q6 -8 6 -26q0 -29 -64 -29q-28 0 -45 19t-17 50v4q-85 -83 -173 -83q-65 0 -98.5 40.5 t-33.5 108.5zM101 138q0 -35 19 -58.5t55 -23.5q78 0 162 78v94l-165 -16q-71 -7 -71 -74z" />
<glyph unicode="b" horiz-adv-x="516" d="M66 76v614q15 10 38 10q35 0 35 -30v-241q61 63 139 63q83 0 132.5 -61.5t49.5 -179.5q0 -131 -58 -196t-155 -65q-93 0 -156 45q-25 20 -25 41zM139 96q44 -36 111 -36q65 0 101.5 46.5t36.5 137.5q0 84 -34.5 127.5t-91.5 43.5q-73 0 -123 -59v-260z" />
<glyph unicode="c" horiz-adv-x="472" d="M56 240q0 129 63.5 190.5t151.5 61.5q36 0 62.5 -5.5t39.5 -11.5t30 -17q20 -11 21 -34q0 -20 -19 -39q-38 18 -62 24.5t-70 6.5q-63 0 -103.5 -42.5t-40.5 -134.5q0 -84 41.5 -131.5t110.5 -47.5q83 0 136 39q13 -11 13 -33q0 -29 -30 -46q-52 -30 -123 -30 q-101 0 -161 67.5t-60 182.5z" />
<glyph unicode="d" horiz-adv-x="563" d="M56 239q0 125 60 189t143 64q79 0 127 -48v227q0 29 31 29q27 0 41 -10v-597q0 -34 31 -34h32q6 -12 6 -26q0 -33 -58 -33t-77 47q-64 -57 -143 -57q-83 0 -138 61.5t-55 187.5zM130 242q0 -91 36 -136.5t94 -45.5q75 0 126 46v258q-24 27 -49.5 38.5t-68.5 11.5 q-55 0 -96.5 -43t-41.5 -129z" />
<glyph unicode="e" horiz-adv-x="501" d="M53 239q0 120 64 186.5t154 66.5q87 0 133.5 -58t46.5 -150q0 -33 -7 -51h-317q1 -83 41 -128t105 -45q48 0 91.5 14.5t64.5 30.5q17 -10 17 -33t-17 -35q-63 -47 -162 -47q-97 0 -155.5 68t-58.5 181zM131 288h252q0 63 -28.5 99.5t-85.5 36.5q-51 0 -89 -35t-49 -101z " />
<glyph unicode="f" horiz-adv-x="346" d="M44 445q0 37 37 37h29v92q0 71 31.5 101.5t91.5 30.5q61 0 81 -10.5t20 -30.5q0 -22 -9 -33h-72q-34 0 -50 -14.5t-16 -53.5v-82h121q7 -11 7 -27q0 -38 -34 -38h-94v-392q0 -25 -43 -25q-24 0 -34 9v408h-59q-7 12 -7 28z" />
<glyph unicode="g" horiz-adv-x="505" d="M42 -153q0 24 24 41q60 -74 170 -74q79 0 123.5 27.5t44.5 73.5q0 49 -60 49h-149q-131 0 -131 96q0 50 38 106q-47 45 -47 140q0 92 49 139t129 47q64 0 105 -29q10 19 36 19h81q7 -9 7 -27q0 -33 -36 -33h-48q28 -45 28 -116q0 -96 -47.5 -140t-129.5 -44q-47 0 -84 15 q-13 -31 -13 -54q0 -27 17 -40.5t59 -13.5h153q55 0 83 -28t28 -76q0 -81 -62.5 -129t-171.5 -48q-84 0 -140 31.5t-56 67.5zM131 304q0 -121 99 -121t99 121q0 124 -95 124q-48 0 -75.5 -31.5t-27.5 -92.5z" />
<glyph unicode="h" horiz-adv-x="534" d="M64 37v654q14 9 40 9q35 0 35 -31v-273q73 96 174 96q135 0 135 -159v-252q0 -25 21 -25h30q5 -8 5 -22q0 -34 -70 -34q-62 0 -62 74v241q0 100 -82 100q-41 0 -82.5 -25.5t-68.5 -68.5v-313q-11 -8 -39 -8q-36 0 -36 37z" />
<glyph unicode="i" horiz-adv-x="291" d="M50 441q0 41 64 41q36 0 53.5 -16.5t17.5 -61.5v-316q0 -26 23 -26h29q6 -9 6 -25q0 -37 -67 -37q-66 0 -66 68v315q0 28 -25 28h-29q-6 11 -6 30zM89 619q0 50 49 50t49 -50q0 -48 -49 -48t-49 48z" />
<glyph unicode="j" horiz-adv-x="284" d="M-18 -129q0 16 5 30h73q62 0 62 69v413q0 28 -23 28h-39q-5 13 -5 31q0 40 68 40q38 0 54.5 -17.5t16.5 -59.5v-450q0 -126 -117 -126q-95 0 -95 42zM101 619q0 50 49 50t49 -50q0 -48 -49 -48t-49 48z" />
<glyph unicode="k" horiz-adv-x="454" d="M66 37v653q13 10 36 10q41 0 41 -31v-392q68 32 111 88.5t46 108.5q13 8 33 8q37 0 37 -32q0 -49 -50.5 -110t-110.5 -84q26 -15 59.5 -62.5t66 -84t65.5 -36.5h35q6 -10 6 -28q0 -20 -15 -32.5t-42 -12.5q-37 0 -72 29t-58.5 65t-54 77t-56.5 57v-218q-13 -10 -42 -10 q-35 0 -35 37z" />
<glyph unicode="l" horiz-adv-x="299" d="M72 123v567q14 11 37 11q38 -1 38 -34v-526q0 -44 14.5 -60t52.5 -16h68q3 -9 3 -23q0 -18 -24 -30t-72 -12q-61 0 -89 29t-28 94z" />
<glyph unicode="m" horiz-adv-x="886" d="M38 444q0 38 72 38q76 0 76 -78v-17q73 105 168 105q102 0 124 -106q78 106 177 106q64 0 101.5 -42t37.5 -123v-244q0 -27 19 -27h38q5 -8 5 -21q0 -35 -75 -35q-65 0 -65 70v239q0 104 -83 104q-82 0 -150 -93v-237q0 -27 18 -27h35q4 -10 4 -22q0 -34 -74 -34 q-32 0 -47 16.5t-15 53.5v241q0 102 -78 102q-77 0 -140 -94v-310q-14 -9 -43 -9q-37 0 -37 39v344q0 28 -25 28h-36q-7 17 -7 33z" />
<glyph unicode="n" horiz-adv-x="592" d="M38 444q0 38 71 38q36 0 56.5 -20t20.5 -58v-15q78 103 176 103q64 0 101 -41.5t37 -123.5v-244q0 -27 19 -27h39q4 -10 4 -21q0 -35 -74 -35q-33 0 -49 16.5t-16 53.5v239q0 51 -22.5 78.5t-62.5 27.5q-84 0 -152 -99v-307q-14 -9 -43 -9q-37 0 -37 39v344q0 28 -25 28 h-36q-7 17 -7 33z" />
<glyph unicode="o" horiz-adv-x="551" d="M56 240q0 124 61 188t162 64t158 -63.5t57 -188.5q0 -130 -58.5 -190t-161.5 -60q-101 0 -159.5 60.5t-58.5 189.5zM135 239q0 -179 139 -179q141 0 141 179q0 91 -35.5 136.5t-100.5 45.5q-66 0 -105 -46.5t-39 -135.5z" />
<glyph unicode="p" horiz-adv-x="562" d="M30 444q0 38 71 38q70 0 73 -73q68 83 154 83q78 0 127.5 -55.5t50.5 -187.5q0 -125 -56 -192t-138 -67q-81 0 -138 59v-236q-13 -8 -40 -8q-37 0 -37 39v539q0 28 -24 28h-36q-7 17 -7 33zM174 130q53 -68 124 -68q59 0 96 45.5t37 133.5q0 172 -124 172q-75 0 -133 -74 v-209z" />
<glyph unicode="q" horiz-adv-x="558" d="M56 241q0 122 56.5 186.5t142.5 64.5t141 -58q19 48 77 48q55 0 55 -36q0 -19 -5 -32h-35q-26 0 -26 -31v-563q-16 -8 -39 -8q-33 0 -33 31v200q-61 -53 -144 -53q-85 0 -137.5 64t-52.5 187zM129 241q0 -87 37.5 -134t94.5 -47q77 0 129 47v249q-43 59 -133 59 q-52 0 -90 -44t-38 -130z" />
<glyph unicode="r" horiz-adv-x="426" d="M30 444q0 16 19 27t50 11q38 0 57.5 -19t19.5 -64v-5q33 43 74.5 70.5t81.5 27.5q86 0 86 -84q0 -55 -44 -55q-17 0 -29 12q0 44 -44 44q-66 0 -125 -87v-313q-10 -9 -42 -9q-36 0 -36 36v344q0 31 -25 31h-37q-6 17 -6 33z" />
<glyph unicode="s" horiz-adv-x="456" d="M47 67q0 27 16 42q24 -18 71.5 -34t89.5 -16q113 0 113 70q0 33 -25.5 51t-87.5 29q-92 16 -129 48.5t-37 98.5q0 60 43.5 98t123.5 38q76 0 120.5 -24t44.5 -52q0 -30 -18 -40q-18 16 -59 27.5t-90 11.5t-72.5 -17.5t-23.5 -45.5q0 -31 26.5 -47t88.5 -28 q88 -15 126.5 -49t38.5 -98q0 -67 -45 -103.5t-133 -36.5q-77 0 -129.5 24t-52.5 53z" />
<glyph unicode="t" horiz-adv-x="367" d="M38 445q0 37 33 37h34v131q14 8 39 8q34 0 34 -33v-106h153q7 -7 7 -26q0 -39 -38 -39h-122v-275q0 -43 14.5 -59t46.5 -16h96q5 -12 5 -22q0 -45 -121 -45q-54 0 -84 28t-30 96v293h-59q-8 11 -8 28z" />
<glyph unicode="u" horiz-adv-x="592" d="M30 444q1 38 77 38q39 0 56.5 -16t17.5 -54v-244q0 -101 77 -101q93 0 155 106v300q17 9 43 9q37 0 37 -30v-359q0 -28 23 -28h37q3 -18 3 -25q0 -40 -75 -40q-68 0 -68 79v9q-75 -98 -178 -98q-134 0 -134 161v234q0 27 -23 27h-44q-4 18 -4 32z" />
<glyph unicode="v" horiz-adv-x="511" d="M12 451q0 13 14.5 22t39.5 9q53 0 69 -40l130 -343q50 71 87.5 157.5t37.5 134.5q0 30 -31 30h-29q-5 12 -5 30q0 31 61 31q40 0 58.5 -17.5t18.5 -57.5q0 -62 -47.5 -170t-108.5 -197q-15 -22 -26.5 -31t-28.5 -9q-18 0 -28 6l-150 393q-7 22 -27 22h-29q-6 16 -6 30z " />
<glyph unicode="w" horiz-adv-x="781" d="M12 448q0 34 67 34q48 0 63 -41l106 -333q45 68 80 157t35 133q0 23 -18 23h-29q-5 12 -5 26q0 16 19.5 25.5t50.5 9.5q39 0 51 -37l114 -339q48 65 80 149.5t32 138.5q0 27 -24 27h-34q-5 12 -5 27t18.5 24.5t48.5 9.5q70 0 70 -75q0 -67 -41 -174.5t-93 -184.5 q-17 -26 -29 -37t-29 -11t-27 7l-109 314q-37 -147 -115 -275q-16 -26 -28 -36t-28 -10q-19 0 -29 8l-129 395q-5 18 -22 18h-36q-5 13 -5 27z" />
<glyph unicode="x" horiz-adv-x="529" d="M40 443q0 18 20 28.5t50 10.5q48 0 75 -44l84 -133l105 146q19 31 47 31q25 0 37 -12.5t11 -29.5l-164 -191l100 -156q19 -32 45 -32h37q4 -7 4 -25q0 -36 -67 -36q-51 0 -76 40l-94 146l-118 -158q-22 -28 -50 -28q-18 0 -30 13t-14 30l176 200l-104 163q-10 15 -28 15 h-42q-4 14 -4 22z" />
<glyph unicode="y" horiz-adv-x="540" d="M12 448q0 34 64 34q29 0 45 -12.5t25 -40.5l124 -328q7 -22 23 -25q123 242 123 318q0 27 -24 27h-36q-5 10 -5 27q0 15 17.5 24.5t43.5 9.5q80 0 80 -70q0 -67 -73 -231t-133 -258q-40 -63 -83.5 -87t-101.5 -24q-69 0 -69 39q0 16 6 28h74q32 0 59 15.5t55 60.5l32 56 q-32 6 -47 47l-132 343q-7 20 -25 20h-37q-5 10 -5 27z" />
<glyph unicode="z" horiz-adv-x="499" d="M42 29q0 20 11 33l286 355h-274q-8 11 -8 28q0 12 2 19t9.5 12.5t21.5 5.5h343q5 -15 5 -26q0 -18 -13 -35l-283 -354h309q6 -10 6 -32q0 -35 -39 -35h-368q-8 14 -8 29z" />
<glyph unicode="{" horiz-adv-x="320" d="M33 299q0 22 7 31q22 -1 38 14.5t16 39.5v214q0 61 31.5 87.5t78.5 26.5q85 0 85 -44q0 -16 -7 -27h-69q-50 0 -50 -58v-203q0 -41 -14.5 -59.5t-30.5 -20.5v-4q15 -1 30 -22t15 -62v-201q0 -54 49 -54h71q6 -9 6 -25q0 -44 -96 -44q-41 0 -70 25.5t-29 77.5v218 q0 46 -39 52q-22 5 -22 38z" />
<glyph unicode="|" horiz-adv-x="266" d="M95 -78v782q13 8 42 8q36 0 36 -27v-789q-16 -8 -45 -8q-33 0 -33 34z" />
<glyph unicode="}" horiz-adv-x="320" d="M33 -68q0 16 7 27h69q50 0 50 58v203q0 41 14.5 59.5t30.5 20.5v4q-15 1 -30 22t-15 62v201q0 54 -49 54h-71q-6 9 -6 25q0 44 96 44q41 0 70 -25.5t29 -77.5v-218q0 -46 39 -52q22 -5 22 -38q0 -22 -7 -31q-22 1 -38 -14.5t-16 -39.5v-214q0 -61 -31.5 -87.5 t-78.5 -26.5q-85 0 -85 44z" />
<glyph unicode="~" horiz-adv-x="515" d="M58 604q0 17 21.5 35t53.5 18q29 0 82.5 -15.5t77.5 -15.5q42 0 63 24q18 -9 18 -34q0 -19 -18.5 -32.5t-50.5 -13.5q-27 0 -89 14.5t-84 14.5q-19 0 -35.5 -8.5t-18.5 -17.5q-20 7 -20 31z" />
<glyph unicode="&#xa1;" horiz-adv-x="173" d="M-42 437q0 45 46 45t46 -45q0 -47 -46 -47t-46 47zM-34 -187v511q11 11 39 11q39 0 39 -42v-503q-13 -8 -37 -8q-41 0 -41 31z" />
<glyph unicode="&#xa2;" horiz-adv-x="503" d="M60 240q0 120 59 181.5t146 69.5l1 79q12 7 27 7q30 -2 30 -27l-1 -61q56 -3 106 -31q20 -11 21 -34q2 -18 -19 -39q-57 27 -110 29l-2 -353q83 6 124 38q14 -12 14 -33q0 -29 -31 -46q-44 -25 -108 -28l-1 -76q-10 -8 -31 -8q-26 0 -26 27l1 57q-93 11 -146.5 76.5 t-53.5 171.5zM128 239q0 -74 35.5 -120t97.5 -55l2 350q-60 -6 -97.5 -48.5t-37.5 -126.5z" />
<glyph unicode="&#xa3;" horiz-adv-x="584" d="M13 36q0 35 26 38q59 3 69 210h-66q-8 20 -8 33q0 21 8 31t34 10h35q1 13 1 41q0 132 53 215t167 83q89 0 139 -19t50 -47q0 -30 -21 -41q-57 35 -164 35q-45 0 -75.5 -18.5t-46 -52.5t-21.5 -71t-6 -85v-40h254q8 -8 8 -29q0 -45 -52 -45h-214q-6 -159 -44 -210h415 q9 -13 9 -32q0 -42 -32 -42h-510q-8 20 -8 36z" />
<glyph unicode="&#xa4;" horiz-adv-x="528" d="M39 433q2 24 16 35.5t30 9.5l78 -84q43 31 97 31q48 0 87 -25l42 51q19 31 47 31q24 0 36.5 -12.5t11.5 -29.5l-80 -90q38 -48 38 -106q0 -54 -32 -97l55 -53q26 -21 24 -51q-1 -18 -15 -29t-32 -12l-84 91q-43 -31 -98 -31q-43 0 -79 22l-45 -56q-22 -28 -49 -28 q-18 0 -30.5 12.5t-14.5 30.5l79 87q-42 50 -42 114q0 54 31 96l-44 43q-29 22 -27 50zM138 244q0 -50 36 -86.5t86 -36.5t86.5 36.5t36.5 86.5t-36.5 86t-86.5 36t-86 -36t-36 -86z" />
<glyph unicode="&#xa5;" horiz-adv-x="590" d="M40 688q19 12 40 12q30 0 38 -26q68 -220 186 -390q60 90 117 216t69 195q10 5 34 5q11 0 18.5 -8t7.5 -19q-1 -48 -49.5 -155t-107.5 -203l115 1q8 -6 8 -25q0 -15 -13.5 -26.5t-43.5 -11.5h-105l-14 -20v-38h168q8 -6 8 -25q0 -38 -52 -38h-124v-123q-13 -9 -43 -9 q-34 0 -34 29v103h-162q-9 18 -9 28q0 18 8.5 26.5t32.5 8.5h130v35l-17 23h-145q-9 20 -9 30q0 16 8.5 25t31.5 8l76 -1q-110 180 -168 373z" />
<glyph unicode="&#xa6;" horiz-adv-x="266" d="M95 -75v330q11 8 36 8q42 0 42 -31v-334q-10 -10 -44 -10t-34 37zM95 375v329q11 8 36 8q42 0 42 -31v-334q-10 -10 -44 -10t-34 38z" />
<glyph unicode="&#xa7;" horiz-adv-x="592" d="M61 356q-1 68 69 132q-37 34 -37 92q0 62 53 102.5t160 40.5q83 0 133 -27t50 -59q0 -31 -28 -43q-16 22 -58.5 38t-103.5 16q-134 0 -134 -70q0 -32 35 -53t112 -38q102 -22 158 -59.5t57 -104.5q0 -70 -60 -142q34 -31 34 -71q1 -72 -57 -110.5t-155 -38.5 q-85 0 -141.5 29t-56.5 55q0 19 4 26t15 16q26 -24 73 -40.5t106 -16.5q68 0 104.5 20t35.5 57q-1 27 -38 46t-117 37q-108 25 -160 59.5t-53 106.5zM129 358q1 -30 25 -52t58 -34t94 -27q75 -19 108 -33q45 45 43 100q-1 40 -45 67t-137 49q-66 16 -95 31q-51 -43 -51 -101 z" />
<glyph unicode="&#xa8;" horiz-adv-x="477" d="M76 615q0 46 46 46t46 -46q0 -45 -46 -45t-46 45zM286 615q0 46 45 46q46 0 46 -46q0 -45 -46 -45q-45 0 -45 45z" />
<glyph unicode="&#xa9;" horiz-adv-x="794" d="M37 350q0 165 97.5 262.5t262.5 97.5q164 0 262 -97.5t98 -262.5q0 -164 -98 -262t-262 -98q-165 0 -262.5 98t-97.5 262zM103 350q0 -134 79.5 -214t214.5 -80t215 80t80 214q0 136 -80 215.5t-215 79.5t-214.5 -79.5t-79.5 -215.5zM224 352q0 103 50.5 152t120.5 49 q65 0 107 -27q16 -8 16 -27q2 -13 -17 -32q-29 15 -48 20t-56 5q-50 0 -82 -33.5t-32 -106.5q0 -67 33 -105t88 -38q62 0 105 30q13 -9 13 -26q0 -24 -23 -36q-39 -25 -99 -25q-80 0 -128 54t-48 146z" />
<glyph unicode="&#xaa;" horiz-adv-x="271" d="M16 426q0 61 79 66l88 6v10q0 46 -54 46q-44 0 -79 -16q-10 6 -10 25q0 17 30 27t62 10q93 0 93 -78v-119q0 -18 16 -18q4 0 10 2q5 -5 5 -15q0 -22 -30 -22q-43 0 -43 36q-44 -37 -93 -37q-36 0 -55 21t-19 56zM62 425q0 -34 37 -34q40 0 84 30v43l-85 -9 q-36 -3 -36 -30z" />
<glyph unicode="&#xab;" horiz-adv-x="495" d="M40 245q0 20 12 35l152 170q8 4 18 4q13 0 22.5 -10.5t9.5 -22.5q0 -14 -11 -27l-133 -151l140 -162q3 -12 3 -17q0 -12 -11 -20.5t-22 -8.5q-17 0 -29 15l-143 161q-8 14 -8 34zM240 245q0 20 12 35l152 170q8 4 18 4q13 0 22.5 -10.5t9.5 -22.5q0 -14 -11 -27 l-133 -151l140 -162q3 -12 3 -17q0 -12 -11 -20.5t-22 -8.5q-17 0 -29 15l-143 161q-8 14 -8 34z" />
<glyph unicode="&#xac;" horiz-adv-x="542" d="M54 342q0 35 32 35h376q8 -13 8 -36v-203q-10 -10 -44 -10t-34 38v137h-330q-8 20 -8 39z" />
<glyph unicode="&#xad;" horiz-adv-x="427" d="M54 265q0 38 40 38h270q8 -10 8 -34q0 -40 -42 -40h-267q-9 18 -9 36z" />
<glyph unicode="&#xae;" horiz-adv-x="583" d="M37 447q0 117 69 186t185 69t185.5 -69t69.5 -186q0 -116 -69.5 -185t-185.5 -69t-185 69t-69 185zM86 448q0 -95 55.5 -151t149.5 -56q95 0 150.5 56t55.5 151t-55.5 150t-150.5 55t-150 -55t-55 -150zM198 336v237q7 4 25 4h84q35 0 59 -18.5t24 -57.5q0 -55 -57 -74 q6 -8 18.5 -28.5t22 -31.5t20.5 -11h13q4 -4 4 -16q0 -27 -33 -27q-21 0 -35 16.5t-29 47.5t-26 45h-41v-104q-5 -5 -25 -5q-24 0 -24 23zM247 459h47q23 0 36.5 11t13.5 30q0 38 -44 38h-53v-79z" />
<glyph unicode="&#xaf;" horiz-adv-x="454" d="M58 607q0 18 8.5 26t36.5 8h274q8 -8 8 -24q0 -36 -53 -36h-266q-8 16 -8 26z" />
<glyph unicode="&#xb0;" horiz-adv-x="331" d="M32 567q0 55 39 94.5t94 39.5t94.5 -39.5t39.5 -94.5t-39.5 -94t-94.5 -39t-94 39t-39 94zM83 567q0 -35 24.5 -59t58.5 -24t58.5 24t24.5 59t-24.5 59t-58.5 24t-58.5 -24t-24.5 -59z" />
<glyph unicode="&#xb1;" horiz-adv-x="524" d="M54 26q0 32 32 32h376q8 -11 8 -33q0 -35 -36 -35h-372q-8 18 -8 36zM54 300q0 38 30 38h141v163q10 8 38 8q36 0 36 -37v-134h163q8 -10 8 -36q0 -38 -35 -38h-136v-163q-14 -8 -36 -8q-20 0 -29 9t-9 32v130h-163q-8 16 -8 36z" />
<glyph unicode="&#xb2;" horiz-adv-x="343" d="M22 315q0 24 17 37q110 77 150 118q54 57 55 102q0 35 -24 53.5t-65 18.5q-34 0 -65.5 -14t-43.5 -33q-21 11 -21 33q0 23 36.5 46t95.5 23q71 0 108.5 -32t37.5 -87q0 -37 -20.5 -75.5t-54.5 -70.5t-65 -54.5t-63 -41.5v-4l217 3q5 -10 5 -27q0 -25 -21 -25h-274 q-5 12 -5 30z" />
<glyph unicode="&#xb3;" horiz-adv-x="338" d="M21 360q0 25 23 33q26 -60 109 -60q47 0 71 19.5t24 50.5t-21 47.5t-59 16.5h-21q-15 0 -15 23q0 11 4 23q47 0 73.5 18t26.5 48q0 29 -22 46t-63 17q-74 0 -102 -42q-20 10 -20 31q0 24 33.5 46t92.5 22q68 0 103.5 -31t35.5 -80q0 -33 -19 -59.5t-49 -33.5v-1 q33 -5 56 -30t23 -66q0 -50 -37 -83.5t-112 -33.5q-70 0 -102.5 25t-32.5 54z" />
<glyph unicode="&#xb4;" horiz-adv-x="519" d="M143 579q12 7 44.5 36t64 52.5t49.5 23.5q38 0 38 -34q-19 -10 -54 -38t-63.5 -48t-43.5 -20q-29 0 -35 28z" />
<glyph unicode="&#xb5;" horiz-adv-x="603" d="M29 444q1 38 78 38q21 0 36 -7t22.5 -16.5t11.5 -27.5t5 -32.5t1 -38.5v-163q0 -64 19 -97t64 -33q52 0 96.5 28t71.5 77v301q16 9 43 9q36 0 36 -30q0 -60 0.5 -179.5t0.5 -179.5q0 -28 23 -28h39q3 -9 3 -25q0 -24 -41 -32t-62 23q-31 31 -38 65q-76 -101 -179 -105 q-55 -2 -81 23v-194q-11 -8 -39 -8q-35 0 -35 64v509q0 27 -25 27h-46q-4 18 -4 32z" />
<glyph unicode="&#xb6;" horiz-adv-x="683" d="M52 470q0 96 66.5 163t165.5 67h342q8 -12 8 -32q0 -42 -32 -42h-63v-768q-11 -9 -34 -9q-41 0 -41 38v739h-105l-1 -645q0 -51 -27.5 -74t-67.5 -23q-17 0 -28.5 12.5t-11.5 29.5q61 13 61 64v251q-96 0 -164 67t-68 162z" />
<glyph unicode="&#xb7;" horiz-adv-x="171" d="M40 262q0 47 45 47q46 0 46 -47q0 -45 -46 -45q-45 0 -45 45z" />
<glyph unicode="&#xb8;" horiz-adv-x="555" d="M192 -152q0 18 19 27q18 -26 56 -26q44 0 44 39t-64 41q-6 6 -6 20l1 67l49 -1l-4 -51q70 -10 70 -80q0 -37 -23.5 -58.5t-63.5 -21.5q-37 0 -57.5 13.5t-20.5 30.5z" />
<glyph unicode="&#xb9;" horiz-adv-x="318" d="M34 616q0 14 6 22q37 3 67.5 19t40.5 39q10 5 29 5q28 0 28 -22v-342h89q7 -7 7 -22q0 -30 -23 -30h-228q-7 12 -7 24q0 14 6.5 21t26.5 7h72v286q-41 -34 -90 -34q-24 0 -24 27z" />
<glyph unicode="&#xba;" horiz-adv-x="293" d="M29 475q0 63 32.5 95t86.5 32t85 -31.5t31 -95.5q0 -66 -32 -96.5t-86 -30.5q-117 0 -117 127zM80 474q0 -83 66 -83q67 0 67 83q0 84 -65 84q-31 0 -49.5 -21.5t-18.5 -62.5z" />
<glyph unicode="&#xbb;" horiz-adv-x="495" d="M40 68q0 14 11 27l133 151l-140 162q-3 12 -3 17q0 12 11 20.5t22 8.5q17 0 29 -15l143 -161q8 -14 8 -34t-12 -35l-152 -170q-8 -4 -18 -4q-13 0 -22.5 10.5t-9.5 22.5zM241 68q0 14 11 27l133 151l-140 162q-3 12 -3 17q0 12 11 20.5t22 8.5q17 0 29 -15l143 -161 q8 -14 8 -34t-12 -35l-152 -170q-8 -4 -18 -4q-13 0 -22.5 10.5t-9.5 22.5z" />
<glyph unicode="&#xbc;" horiz-adv-x="850" d="M34 616q0 14 6 22q37 3 67.5 19t40.5 39q10 5 29 5q28 0 28 -22v-342h89q7 -7 7 -22q0 -30 -23 -30h-228q-7 12 -7 24q0 14 6.5 21t26.5 7h72v286q-41 -34 -90 -34q-24 0 -24 27zM279 39l245 656q11 5 31 5q18 0 25.5 -8t2.5 -23l-251 -665q-14 -6 -31 -6q-38 0 -22 41z M500 103q0 12 5 25l92 281q12 5 32 5q12 0 17 -6.5t2 -16.5l-84 -260h143v153q14 8 29 8q26 0 26 -21v-140h60q6 -6 6 -24q0 -23 -19 -23h-47l1 -79q-10 -5 -31 -5q-24 0 -24 21l-1 63h-202q-5 6 -5 19z" />
<glyph unicode="&#xbd;" horiz-adv-x="883" d="M34 616q0 14 6 22q37 3 67.5 19t40.5 39q10 5 29 5q28 0 28 -22v-342h89q7 -7 7 -22q0 -30 -23 -30h-228q-7 12 -7 24q0 14 6.5 21t26.5 7h72v286q-41 -34 -90 -34q-24 0 -24 27zM279 39l245 656q11 5 31 5q18 0 25.5 -8t2.5 -23l-251 -665q-14 -6 -31 -6q-38 0 -22 41z M561 30q0 24 17 37q110 77 150 118q55 57 55 102q0 35 -23.5 53.5t-65.5 18.5q-34 0 -65.5 -14t-43.5 -33q-21 10 -21 33t36.5 46t95.5 23q71 0 108.5 -32t37.5 -87q0 -37 -20.5 -75.5t-54.5 -70.5t-65 -54.5t-63 -41.5v-4l217 3q5 -10 5 -27q0 -25 -21 -25h-274 q-5 12 -5 30z" />
<glyph unicode="&#xbe;" horiz-adv-x="829" d="M21 360q0 25 23 33q26 -60 109 -60q47 0 71 19.5t24 50.5t-21 47.5t-59 16.5h-21q-15 0 -15 23q0 11 4 23q47 0 73.5 18t26.5 48q0 29 -22 46t-63 17q-74 0 -102 -42q-20 10 -20 31q0 24 33.5 46t92.5 22q68 0 103.5 -31t35.5 -80q0 -33 -19 -59.5t-49 -33.5v-1 q33 -5 56 -30t23 -66q0 -50 -37 -83.5t-112 -33.5q-70 0 -102.5 25t-32.5 54zM258 39l245 656q11 5 31 5q18 0 25.5 -8t2.5 -23l-251 -665q-14 -6 -31 -6q-38 0 -22 41zM480 103q0 12 5 25l92 281q12 5 32 5q12 0 17 -6.5t2 -16.5l-84 -260h143v153q14 8 29 8q26 0 26 -21 v-140h60q6 -6 6 -24q0 -23 -19 -23h-47l1 -79q-10 -5 -31 -5q-24 0 -24 21l-1 63h-202q-5 6 -5 19z" />
<glyph unicode="&#xbf;" d="M33 -6q0 93 55.5 146t145.5 62l-6 132q11 10 38 10q29 0 31 -31l4 -130q0 -22 -8 -31q-74 -2 -129 -37.5t-55 -104.5q0 -72 40 -106.5t108 -34.5q58 0 102.5 23t59.5 57q32 -12 32 -45q0 -38 -52.5 -75t-145.5 -37q-101 0 -160.5 54t-59.5 148zM211 437q0 45 46 45 t46 -45q0 -47 -46 -47t-46 47z" />
<glyph unicode="&#xc0;" horiz-adv-x="640" d="M18 11l258 676q22 13 46 13q32 0 44 -30l256 -652q-8 -18 -38 -18q-35 0 -44 31l-56 139h-329l-55 -145q-9 -25 -44 -25q-27 0 -38 11zM180 236h278l-141 357zM213 874q2 34 39 34q24 0 87 -54t70 -58q-6 -28 -34 -28q-15 0 -43.5 20t-64 48t-54.5 38z" />
<glyph unicode="&#xc1;" horiz-adv-x="640" d="M18 11l258 676q22 13 46 13q32 0 44 -30l256 -652q-8 -18 -38 -18q-35 0 -44 31l-56 139h-329l-55 -145q-9 -25 -44 -25q-27 0 -38 11zM180 236h278l-141 357zM226 797q12 7 44.5 36t64 52.5t49.5 23.5q38 0 38 -34q-19 -10 -54 -38t-63.5 -48t-43.5 -20q-29 0 -35 28z " />
<glyph unicode="&#xc2;" horiz-adv-x="640" d="M18 11l258 676q22 13 46 13q32 0 44 -30l256 -652q-8 -18 -38 -18q-35 0 -44 31l-56 139h-329l-55 -145q-9 -25 -44 -25q-27 0 -38 11zM161 798q8 4 70 58t87 54q24 0 87 -53t74 -59q-5 -23 -24 -26q-8 -3 -19 0q-13 4 -31.5 16t-45 32t-39.5 29q-12 -8 -39.5 -28.5 t-46 -32.5t-31.5 -16q-10 -3 -18 0q-19 3 -24 26zM180 236h278l-141 357z" />
<glyph unicode="&#xc3;" horiz-adv-x="640" d="M18 11l258 676q22 13 46 13q32 0 44 -30l256 -652q-8 -18 -38 -18q-35 0 -44 31l-56 139h-329l-55 -145q-9 -25 -44 -25q-27 0 -38 11zM162 822q0 17 21.5 35t53.5 18q29 0 82.5 -15.5t77.5 -15.5q42 0 63 24q18 -9 18 -34q0 -19 -18.5 -32.5t-50.5 -13.5q-27 0 -89 14.5 t-84 14.5q-19 0 -35.5 -8.5t-18.5 -17.5q-20 7 -20 31zM180 236h278l-141 357z" />
<glyph unicode="&#xc4;" horiz-adv-x="640" d="M18 11l258 676q22 13 46 13q32 0 44 -30l256 -652q-8 -18 -38 -18q-35 0 -44 31l-56 139h-329l-55 -145q-9 -25 -44 -25q-27 0 -38 11zM169 833q0 46 46 46t46 -46q0 -45 -46 -45t-46 45zM180 236h278l-141 357zM379 833q0 46 45 46q46 0 46 -46q0 -45 -46 -45 q-45 0 -45 45z" />
<glyph unicode="&#xc5;" horiz-adv-x="640" d="M18 11l258 676q22 13 46 13q32 0 44 -30l256 -652q-8 -18 -38 -18q-35 0 -44 31l-56 139h-329l-55 -145q-9 -25 -44 -25q-27 0 -38 11zM180 236h278l-141 357zM232 851q0 88 88 88t88 -88t-88 -88t-88 88zM273 851q0 -47 47 -47t47 47q0 22 -12.5 34.5t-34.5 12.5 q-47 0 -47 -47z" />
<glyph unicode="&#xc6;" horiz-adv-x="978" d="M18 11l272 676q20 13 81 13h546q9 -9 9 -32q0 -42 -32 -42h-370v-230h334q9 -11 9 -35q0 -39 -31 -39h-312v-248h393q9 -9 9 -32q0 -42 -32 -42h-413q-35 0 -35 37v133h-285l-58 -145q-9 -25 -44 -25q-30 0 -41 11zM187 237h259v389h-103z" />
<glyph unicode="&#xc7;" horiz-adv-x="641" d="M64 350q0 178 78.5 269t212.5 91q146 0 215 -83q22 -19 22 -43q0 -26 -29 -36q-69 88 -205 88q-100 0 -158.5 -72.5t-58.5 -214.5q0 -287 222 -287q135 0 206 85q12 1 23 -7.5t11 -24.5q0 -27 -26 -46q-79 -79 -217 -79q-137 0 -216.5 88t-79.5 272zM289 -152q0 18 19 27 q18 -26 56 -26q44 0 44 39t-64 41q-6 6 -6 20l1 67l49 -1l-4 -51q70 -10 70 -80q0 -37 -23.5 -58.5t-63.5 -21.5q-37 0 -57.5 13.5t-20.5 30.5z" />
<glyph unicode="&#xc8;" horiz-adv-x="636" d="M104 37v655q13 8 37 8h434q9 -9 9 -32q0 -42 -32 -42h-370v-230h334q9 -9 9 -35q0 -39 -31 -39h-312v-248h393q9 -9 9 -32q0 -42 -32 -42h-413q-35 0 -35 37zM236 874q2 34 39 34q24 0 87 -54t70 -58q-6 -28 -34 -28q-15 0 -43.5 20t-64 48t-54.5 38z" />
<glyph unicode="&#xc9;" horiz-adv-x="636" d="M104 37v655q13 8 37 8h434q9 -9 9 -32q0 -42 -32 -42h-370v-230h334q9 -9 9 -35q0 -39 -31 -39h-312v-248h393q9 -9 9 -32q0 -42 -32 -42h-413q-35 0 -35 37zM236 797q12 7 44.5 36t64 52.5t49.5 23.5q38 0 38 -34q-19 -10 -54 -38t-63.5 -48t-43.5 -20q-29 0 -35 28z " />
<glyph unicode="&#xca;" horiz-adv-x="636" d="M104 37v655q13 8 37 8h434q9 -9 9 -32q0 -42 -32 -42h-370v-230h334q9 -9 9 -35q0 -39 -31 -39h-312v-248h393q9 -9 9 -32q0 -42 -32 -42h-413q-35 0 -35 37zM182 798q8 4 70 58t87 54q24 0 87 -53t74 -59q-5 -23 -24 -26q-8 -3 -19 0q-13 4 -31.5 16t-45 32t-39.5 29 q-12 -8 -39.5 -28.5t-46 -32.5t-31.5 -16q-10 -3 -18 0q-19 3 -24 26z" />
<glyph unicode="&#xcb;" horiz-adv-x="636" d="M104 37v655q13 8 37 8h434q9 -9 9 -32q0 -42 -32 -42h-370v-230h334q9 -9 9 -35q0 -39 -31 -39h-312v-248h393q9 -9 9 -32q0 -42 -32 -42h-413q-35 0 -35 37zM199 833q0 46 46 46t46 -46q0 -45 -46 -45t-46 45zM409 833q0 46 45 46q46 0 46 -46q0 -45 -46 -45 q-45 0 -45 45z" />
<glyph unicode="&#xcc;" horiz-adv-x="286" d="M45 874q2 34 39 34q24 0 87 -54t70 -58q-6 -28 -34 -28q-15 0 -43.5 20t-64 48t-54.5 38zM104 37v655q14 8 42 8q36 0 36 -31v-659q-17 -10 -42 -10q-36 0 -36 37z" />
<glyph unicode="&#xcd;" horiz-adv-x="286" d="M45 797q12 7 44.5 36t64 52.5t49.5 23.5q38 0 38 -34q-19 -10 -54 -38t-63.5 -48t-43.5 -20q-29 0 -35 28zM104 37v655q14 8 42 8q36 0 36 -31v-659q-17 -10 -42 -10q-36 0 -36 37z" />
<glyph unicode="&#xce;" horiz-adv-x="286" d="M-16 798q8 4 70 58t87 54q24 0 87 -53t74 -59q-5 -23 -24 -26q-8 -3 -19 0q-13 4 -31.5 16t-45 32t-39.5 29q-12 -8 -39.5 -28.5t-46 -32.5t-31.5 -16q-10 -3 -18 0q-19 3 -24 26zM104 37v655q14 8 42 8q36 0 36 -31v-659q-17 -10 -42 -10q-36 0 -36 37z" />
<glyph unicode="&#xcf;" horiz-adv-x="286" d="M-7 833q0 46 46 46t46 -46q0 -45 -46 -45t-46 45zM104 37v655q14 8 42 8q36 0 36 -31v-659q-17 -10 -42 -10q-36 0 -36 37zM203 833q0 46 45 46q46 0 46 -46q0 -45 -46 -45q-45 0 -45 45z" />
<glyph unicode="&#xd0;" horiz-adv-x="696" d="M16 342q0 39 40 39h48v311q13 8 39 8h136q180 0 266.5 -87t86.5 -271q0 -182 -83.5 -262t-242.5 -80h-160q-24 0 -33 17t-9 51v239h-79q-9 18 -9 35zM182 70h121q126 0 188.5 63t62.5 207q0 147 -66 217t-204 70h-102v-246h164q8 -11 8 -35q0 -39 -42 -39h-130v-237z" />
<glyph unicode="&#xd1;" horiz-adv-x="734" d="M104 36v656q16 8 41 8q22 0 36 -19l375 -541l-2 550q13 10 37 10q41 0 41 -31v-662q-12 -7 -40 -7q-22 0 -37 20l-377 531l4 -542q-11 -9 -44 -9q-34 0 -34 36zM209 822q0 17 21.5 35t53.5 18q29 0 82.5 -15.5t77.5 -15.5q42 0 63 24q18 -9 18 -34q0 -19 -18.5 -32.5 t-50.5 -13.5q-27 0 -89 14.5t-84 14.5q-19 0 -35.5 -8.5t-18.5 -17.5q-20 7 -20 31z" />
<glyph unicode="&#xd2;" horiz-adv-x="712" d="M64 350q0 178 79.5 269t215.5 91q134 0 211 -91t77 -269q0 -186 -76.5 -273t-211.5 -87q-137 0 -216 88.5t-79 271.5zM140 349q0 -151 59 -221t161 -70q211 0 211 291q0 144 -57 217.5t-155 73.5q-102 0 -160.5 -74t-58.5 -217zM258 874q2 34 39 34q24 0 87 -54t70 -58 q-6 -28 -34 -28q-15 0 -43.5 20t-64 48t-54.5 38z" />
<glyph unicode="&#xd3;" horiz-adv-x="712" d="M64 350q0 178 79.5 269t215.5 91q134 0 211 -91t77 -269q0 -186 -76.5 -273t-211.5 -87q-137 0 -216 88.5t-79 271.5zM140 349q0 -151 59 -221t161 -70q211 0 211 291q0 144 -57 217.5t-155 73.5q-102 0 -160.5 -74t-58.5 -217zM257 797q12 7 44.5 36t64 52.5t49.5 23.5 q38 0 38 -34q-19 -10 -54 -38t-63.5 -48t-43.5 -20q-29 0 -35 28z" />
<glyph unicode="&#xd4;" horiz-adv-x="712" d="M64 350q0 178 79.5 269t215.5 91q134 0 211 -91t77 -269q0 -186 -76.5 -273t-211.5 -87q-137 0 -216 88.5t-79 271.5zM140 349q0 -151 59 -221t161 -70q211 0 211 291q0 144 -57 217.5t-155 73.5q-102 0 -160.5 -74t-58.5 -217zM197 798q8 4 70 58t87 54q24 0 87 -53 t74 -59q-5 -23 -24 -26q-8 -3 -19 0q-13 4 -31.5 16t-45 32t-39.5 29q-12 -8 -39.5 -28.5t-46 -32.5t-31.5 -16q-10 -3 -18 0q-19 3 -24 26z" />
<glyph unicode="&#xd5;" horiz-adv-x="712" d="M64 350q0 178 79.5 269t215.5 91q134 0 211 -91t77 -269q0 -186 -76.5 -273t-211.5 -87q-137 0 -216 88.5t-79 271.5zM140 349q0 -151 59 -221t161 -70q211 0 211 291q0 144 -57 217.5t-155 73.5q-102 0 -160.5 -74t-58.5 -217zM198 822q0 17 21.5 35t53.5 18 q29 0 82.5 -15.5t77.5 -15.5q42 0 63 24q18 -9 18 -34q0 -19 -18.5 -32.5t-50.5 -13.5q-27 0 -89 14.5t-84 14.5q-19 0 -35.5 -8.5t-18.5 -17.5q-20 7 -20 31z" />
<glyph unicode="&#xd6;" horiz-adv-x="712" d="M64 350q0 178 79.5 269t215.5 91q134 0 211 -91t77 -269q0 -186 -76.5 -273t-211.5 -87q-137 0 -216 88.5t-79 271.5zM140 349q0 -151 59 -221t161 -70q211 0 211 291q0 144 -57 217.5t-155 73.5q-102 0 -160.5 -74t-58.5 -217zM205 833q0 46 46 46t46 -46q0 -45 -46 -45 t-46 45zM415 833q0 46 45 46q46 0 46 -46q0 -45 -46 -45q-45 0 -45 45z" />
<glyph unicode="&#xd7;" horiz-adv-x="471" d="M69 381q0 12 15 27q32 32 69 -5l83 -84l115 115q11 0 27 -16q31 -31 -6 -68l-83 -83l114 -115q-8 -20 -17 -29q-28 -30 -61 2l-89 89l-115 -115q-20 8 -29 17q-15 15 -15.5 27t18.5 35l88 88z" />
<glyph unicode="&#xd8;" horiz-adv-x="712" d="M64 350q0 178 79.5 269t215.5 91q57 0 106 -18l45 115q10 5 28 5q12 0 19.5 -6t8.5 -15q0 -7 -3 -14l-45 -114q129 -82 129 -313q0 -186 -76.5 -273t-211.5 -87q-54 0 -99 13l-53 -137q-7 -3 -24 -3q-11 0 -21 6t-10 15q0 8 4 16l50 130q-142 77 -142 320zM140 349 q0 -185 98 -245l198 522q-37 14 -77 14q-102 0 -160.5 -74t-58.5 -217zM289 67q31 -9 71 -9q211 0 211 291q0 168 -87 236z" />
<glyph unicode="&#xd9;" horiz-adv-x="701" d="M97 692q13 8 40 8q38 0 38 -31v-404q0 -104 41 -154t134 -50q97 0 138.5 49.5t41.5 153.5v428q13 8 39 8q39 0 39 -31v-415q0 -264 -258 -264q-129 0 -190.5 64.5t-61.5 199.5zM252 874q2 34 39 34q24 0 87 -54t70 -58q-6 -28 -34 -28q-15 0 -43.5 20t-64 48t-54.5 38z " />
<glyph unicode="&#xda;" horiz-adv-x="701" d="M97 692q13 8 40 8q38 0 38 -31v-404q0 -104 41 -154t134 -50q97 0 138.5 49.5t41.5 153.5v428q13 8 39 8q39 0 39 -31v-415q0 -264 -258 -264q-129 0 -190.5 64.5t-61.5 199.5zM252 797q12 7 44.5 36t64 52.5t49.5 23.5q38 0 38 -34q-19 -10 -54 -38t-63.5 -48t-43.5 -20 q-29 0 -35 28z" />
<glyph unicode="&#xdb;" horiz-adv-x="701" d="M97 692q13 8 40 8q38 0 38 -31v-404q0 -104 41 -154t134 -50q97 0 138.5 49.5t41.5 153.5v428q13 8 39 8q39 0 39 -31v-415q0 -264 -258 -264q-129 0 -190.5 64.5t-61.5 199.5zM191 798q8 4 70 58t87 54q24 0 87 -53t74 -59q-5 -23 -24 -26q-8 -3 -19 0q-13 4 -31.5 16 t-45 32t-39.5 29q-12 -8 -39.5 -28.5t-46 -32.5t-31.5 -16q-10 -3 -18 0q-19 3 -24 26z" />
<glyph unicode="&#xdc;" horiz-adv-x="701" d="M97 692q13 8 40 8q38 0 38 -31v-404q0 -104 41 -154t134 -50q97 0 138.5 49.5t41.5 153.5v428q13 8 39 8q39 0 39 -31v-415q0 -264 -258 -264q-129 0 -190.5 64.5t-61.5 199.5zM200 833q0 46 46 46t46 -46q0 -45 -46 -45t-46 45zM410 833q0 46 45 46q46 0 46 -46 q0 -45 -46 -45q-45 0 -45 45z" />
<glyph unicode="&#xdd;" horiz-adv-x="591" d="M36 688q19 12 44 12q29 0 38 -26q62 -202 188 -387q61 93 117.5 216.5t68.5 191.5q10 5 37 5q11 0 18.5 -8t7.5 -19q-1 -59 -74 -204.5t-139 -235.5v-224q-13 -9 -43 -9q-34 0 -34 29v201q-159 228 -229 458zM197 797q12 7 44.5 36t64 52.5t49.5 23.5q38 0 38 -34 q-19 -10 -54 -38t-63.5 -48t-43.5 -20q-29 0 -35 28z" />
<glyph unicode="&#xde;" horiz-adv-x="593" d="M94 36v657q14 7 46 7t32 -24v-102h180q87 0 142 -52t55 -154q0 -61 -18.5 -105t-51.5 -67.5t-70.5 -34t-81.5 -10.5h-155v-143q-13 -8 -43 -8q-35 0 -35 36zM172 217h139q79 0 121.5 33.5t42.5 112.5q0 73 -35.5 110t-99.5 37h-168v-293z" />
<glyph unicode="&#xdf;" horiz-adv-x="616" d="M64 9v468q0 113 61 168t152 55q81 0 133 -39.5t52 -118.5q0 -78 -11 -113q-18 2 -40 2q-49 0 -75 -18.5t-26 -51.5q0 -54 112 -80q71 -17 105.5 -51t35.5 -98q0 -65 -42.5 -103.5t-120.5 -38.5q-67 0 -116.5 27t-49.5 55q0 24 15 39q23 -19 64 -35t87 -16q47 0 71 20.5 t24 49.5q0 34 -22 53.5t-76 31.5q-155 37 -155 147q0 58 37 94t109 40q3 14 3 44q0 44 -32 66t-82 22q-136 0 -136 -165v-443q0 -9 -10 -14.5t-25 -5.5q-28 0 -42 9z" />
<glyph unicode="&#xe0;" d="M32 139q0 60 34.5 95.5t101.5 39.5l169 10v43q0 95 -104 95q-43 0 -85 -10.5t-63 -24.5q-14 12 -14 32q0 33 52.5 53t112.5 20q74 0 121 -34.5t47 -110.5v-257q0 -35 25 -35h28q6 -8 6 -26q0 -29 -64 -29q-28 0 -45 19t-17 50v4q-85 -83 -173 -83q-65 0 -98.5 40.5 t-33.5 108.5zM101 138q0 -35 19 -58.5t55 -23.5q78 0 162 78v94l-165 -16q-71 -7 -71 -74zM112 656q2 34 39 34q24 0 87 -54t70 -58q-6 -28 -34 -28q-15 0 -43.5 20t-64 48t-54.5 38z" />
<glyph unicode="&#xe1;" d="M32 139q0 60 34.5 95.5t101.5 39.5l169 10v43q0 95 -104 95q-43 0 -85 -10.5t-63 -24.5q-14 12 -14 32q0 33 52.5 53t112.5 20q74 0 121 -34.5t47 -110.5v-257q0 -35 25 -35h28q6 -8 6 -26q0 -29 -64 -29q-28 0 -45 19t-17 50v4q-85 -83 -173 -83q-65 0 -98.5 40.5 t-33.5 108.5zM101 138q0 -35 19 -58.5t55 -23.5q78 0 162 78v94l-165 -16q-71 -7 -71 -74zM165 579q12 7 44.5 36t64 52.5t49.5 23.5q38 0 38 -34q-19 -10 -54 -38t-63.5 -48t-43.5 -20q-29 0 -35 28z" />
<glyph unicode="&#xe2;" d="M32 139q0 60 34.5 95.5t101.5 39.5l169 10v43q0 95 -104 95q-43 0 -85 -10.5t-63 -24.5q-14 12 -14 32q0 33 52.5 53t112.5 20q74 0 121 -34.5t47 -110.5v-257q0 -35 25 -35h28q6 -8 6 -26q0 -29 -64 -29q-28 0 -45 19t-17 50v4q-85 -83 -173 -83q-65 0 -98.5 40.5 t-33.5 108.5zM75 580q8 4 70 58t87 54q24 0 87 -53t74 -59q-5 -23 -24 -26q-8 -3 -19 0q-13 4 -31.5 16t-45 32t-39.5 29q-12 -8 -39.5 -28.5t-46 -32.5t-31.5 -16q-10 -3 -18 0q-19 3 -24 26zM101 138q0 -35 19 -58.5t55 -23.5q78 0 162 78v94l-165 -16q-71 -7 -71 -74z " />
<glyph unicode="&#xe3;" d="M32 139q0 60 34.5 95.5t101.5 39.5l169 10v43q0 95 -104 95q-43 0 -85 -10.5t-63 -24.5q-14 12 -14 32q0 33 52.5 53t112.5 20q74 0 121 -34.5t47 -110.5v-257q0 -35 25 -35h28q6 -8 6 -26q0 -29 -64 -29q-28 0 -45 19t-17 50v4q-85 -83 -173 -83q-65 0 -98.5 40.5 t-33.5 108.5zM80 604q0 17 21.5 35t53.5 18q29 0 82.5 -15.5t77.5 -15.5q42 0 63 24q18 -9 18 -34q0 -19 -18.5 -32.5t-50.5 -13.5q-27 0 -89 14.5t-84 14.5q-19 0 -35.5 -8.5t-18.5 -17.5q-20 7 -20 31zM101 138q0 -35 19 -58.5t55 -23.5q78 0 162 78v94l-165 -16 q-71 -7 -71 -74z" />
<glyph unicode="&#xe4;" d="M32 139q0 60 34.5 95.5t101.5 39.5l169 10v43q0 95 -104 95q-43 0 -85 -10.5t-63 -24.5q-14 12 -14 32q0 33 52.5 53t112.5 20q74 0 121 -34.5t47 -110.5v-257q0 -35 25 -35h28q6 -8 6 -26q0 -29 -64 -29q-28 0 -45 19t-17 50v4q-85 -83 -173 -83q-65 0 -98.5 40.5 t-33.5 108.5zM85 615q0 46 46 46t46 -46q0 -45 -46 -45t-46 45zM101 138q0 -35 19 -58.5t55 -23.5q78 0 162 78v94l-165 -16q-71 -7 -71 -74zM295 615q0 46 45 46q46 0 46 -46q0 -45 -46 -45q-45 0 -45 45z" />
<glyph unicode="&#xe5;" d="M32 139q0 60 34.5 95.5t101.5 39.5l169 10v43q0 95 -104 95q-43 0 -85 -10.5t-63 -24.5q-14 12 -14 32q0 33 52.5 53t112.5 20q74 0 121 -34.5t47 -110.5v-257q0 -35 25 -35h28q6 -8 6 -26q0 -29 -64 -29q-28 0 -45 19t-17 50v4q-85 -83 -173 -83q-65 0 -98.5 40.5 t-33.5 108.5zM101 138q0 -35 19 -58.5t55 -23.5q78 0 162 78v94l-165 -16q-71 -7 -71 -74zM145 633q0 88 88 88t88 -88t-88 -88t-88 88zM186 633q0 -47 47 -47t47 47q0 22 -12.5 34.5t-34.5 12.5q-47 0 -47 -47z" />
<glyph unicode="&#xe6;" horiz-adv-x="785" d="M32 139q0 113 112 131q38 5 192 15q-1 83 -23 110t-80 27q-43 0 -85 -10.5t-63 -24.5q-14 12 -14 32q0 33 52.5 53t112.5 20q130 0 152 -88q58 88 166 88q88 0 134.5 -58t46.5 -150q0 -33 -7 -51h-316q6 -147 116 -170q22 -3 47 -3q85 3 138 45q17 -11 17 -33 q0 -30 -47.5 -56t-131.5 -26q-60 0 -107 27.5t-73 78.5q-44 -46 -100 -76t-107 -30q-65 0 -98.5 40.5t-33.5 108.5zM101 138q0 -35 19 -58.5t55 -23.5q85 0 173 91q-8 30 -10 68v13l-166 -16q-71 -7 -71 -74zM414 288h252q0 63 -28.5 99.5t-84.5 36.5q-51 0 -89 -35 t-50 -101z" />
<glyph unicode="&#xe7;" horiz-adv-x="473" d="M61 240q0 129 63.5 190.5t151.5 61.5q36 0 62.5 -5.5t39.5 -11.5t30 -17q20 -11 21 -34q0 -20 -19 -39q-38 18 -62 24.5t-70 6.5q-63 0 -103.5 -42.5t-40.5 -134.5q0 -84 41.5 -131.5t110.5 -47.5q83 0 136 39q13 -11 13 -33q0 -29 -30 -46q-52 -30 -123 -30 q-101 0 -161 67.5t-60 182.5zM198 -152q0 18 19 27q18 -26 56 -26q44 0 44 39t-64 41q-6 6 -6 20l1 67l49 -1l-4 -51q70 -10 70 -80q0 -37 -23.5 -58.5t-63.5 -21.5q-37 0 -57.5 13.5t-20.5 30.5z" />
<glyph unicode="&#xe8;" horiz-adv-x="504" d="M56 239q0 120 64 186.5t154 66.5q87 0 133.5 -58t46.5 -150q0 -33 -7 -51h-317q1 -83 41 -128t105 -45q48 0 91.5 14.5t64.5 30.5q17 -10 17 -33t-17 -35q-63 -47 -162 -47q-97 0 -155.5 68t-58.5 181zM134 288h252q0 63 -28.5 99.5t-85.5 36.5q-51 0 -89 -35t-49 -101z M152 656q2 34 39 34q24 0 87 -54t70 -58q-6 -28 -34 -28q-15 0 -43.5 20t-64 48t-54.5 38z" />
<glyph unicode="&#xe9;" horiz-adv-x="504" d="M56 239q0 120 64 186.5t154 66.5q87 0 133.5 -58t46.5 -150q0 -33 -7 -51h-317q1 -83 41 -128t105 -45q48 0 91.5 14.5t64.5 30.5q17 -10 17 -33t-17 -35q-63 -47 -162 -47q-97 0 -155.5 68t-58.5 181zM134 288h252q0 63 -28.5 99.5t-85.5 36.5q-51 0 -89 -35t-49 -101z M205 579q12 7 44.5 36t64 52.5t49.5 23.5q38 0 38 -34q-19 -10 -54 -38t-63.5 -48t-43.5 -20q-29 0 -35 28z" />
<glyph unicode="&#xea;" horiz-adv-x="504" d="M56 239q0 120 64 186.5t154 66.5q87 0 133.5 -58t46.5 -150q0 -33 -7 -51h-317q1 -83 41 -128t105 -45q48 0 91.5 14.5t64.5 30.5q17 -10 17 -33t-17 -35q-63 -47 -162 -47q-97 0 -155.5 68t-58.5 181zM116 580q8 4 70 58t87 54q24 0 87 -53t74 -59q-5 -23 -24 -26 q-8 -3 -19 0q-13 4 -31.5 16t-45 32t-39.5 29q-12 -8 -39.5 -28.5t-46 -32.5t-31.5 -16q-10 -3 -18 0q-19 3 -24 26zM134 288h252q0 63 -28.5 99.5t-85.5 36.5q-51 0 -89 -35t-49 -101z" />
<glyph unicode="&#xeb;" horiz-adv-x="504" d="M56 239q0 120 64 186.5t154 66.5q87 0 133.5 -58t46.5 -150q0 -33 -7 -51h-317q1 -83 41 -128t105 -45q48 0 91.5 14.5t64.5 30.5q17 -10 17 -33t-17 -35q-63 -47 -162 -47q-97 0 -155.5 68t-58.5 181zM126 615q0 46 46 46t46 -46q0 -45 -46 -45t-46 45zM134 288h252 q0 63 -28.5 99.5t-85.5 36.5q-51 0 -89 -35t-49 -101zM336 615q0 46 45 46q46 0 46 -46q0 -45 -46 -45q-45 0 -45 45z" />
<glyph unicode="&#xec;" horiz-adv-x="292" d="M4 656q2 34 39 34q24 0 87 -54t70 -58q-6 -28 -34 -28q-15 0 -43.5 20t-64 48t-54.5 38zM50 441q0 41 64 41q36 0 54 -17t18 -61v-316q0 -26 23 -26h30q5 -10 5 -25q0 -37 -67 -37t-67 68v315q0 28 -25 28h-29q-6 11 -6 30z" />
<glyph unicode="&#xed;" horiz-adv-x="292" d="M50 441q0 41 64 41q36 0 54 -17t18 -61v-316q0 -26 23 -26h30q5 -10 5 -25q0 -37 -67 -37t-67 68v315q0 28 -25 28h-29q-6 11 -6 30zM57 579q12 7 44.5 36t64 52.5t49.5 23.5q38 0 38 -34q-19 -10 -54 -38t-63.5 -48t-43.5 -20q-29 0 -35 28z" />
<glyph unicode="&#xee;" horiz-adv-x="292" d="M-33 580q8 4 70 58t87 54q24 0 87 -53t74 -59q-5 -23 -24 -26q-8 -3 -19 0q-13 4 -31.5 16t-45 32t-39.5 29q-12 -8 -39.5 -28.5t-46 -32.5t-31.5 -16q-10 -3 -18 0q-19 3 -24 26zM50 441q0 41 64 41q36 0 54 -17t18 -61v-316q0 -26 23 -26h30q5 -10 5 -25q0 -37 -67 -37 t-67 68v315q0 28 -25 28h-29q-6 11 -6 30z" />
<glyph unicode="&#xef;" horiz-adv-x="292" d="M-23 615q0 46 46 46t46 -46q0 -45 -46 -45t-46 45zM50 441q0 41 64 41q36 0 54 -17t18 -61v-316q0 -26 23 -26h30q5 -10 5 -25q0 -37 -67 -37t-67 68v315q0 28 -25 28h-29q-6 11 -6 30zM187 615q0 46 45 46q46 0 46 -46q0 -45 -46 -45q-45 0 -45 45z" />
<glyph unicode="&#xf0;" horiz-adv-x="550" d="M52 248q0 123 56.5 182t145.5 59q72 0 127 -35q-21 56 -54 107l-103 -29q-9 9 -13 23q-1 9 -1 16t9.5 14t28.5 13l44 12q-23 29 -55 57q8 21 23 32q35 24 55 4q32 -32 59 -71l89 25q9 -4 14 -21q8 -33 -37 -44l-33 -9q85 -148 85 -307q0 -151 -56.5 -215.5t-161.5 -64.5 q-104 0 -163 60.5t-59 191.5zM129 247q0 -181 145 -181q70 0 105 46.5t35 163.5q0 44 -10 94q-56 53 -139 53q-61 0 -98.5 -43.5t-37.5 -132.5z" />
<glyph unicode="&#xf1;" horiz-adv-x="592" d="M38 444q0 38 71 38q36 0 56.5 -20t20.5 -58v-15q78 103 176 103q64 0 101 -41.5t37 -123.5v-244q0 -27 19 -27h39q4 -10 4 -21q0 -35 -74 -35q-33 0 -49 16.5t-16 53.5v239q0 51 -22.5 78.5t-62.5 27.5q-84 0 -152 -99v-307q-14 -9 -43 -9q-37 0 -37 39v344q0 28 -25 28 h-36q-7 17 -7 33zM138 603q0 17 21.5 35t53.5 18q29 0 82.5 -15.5t77.5 -15.5q42 0 63 24q18 -9 18 -34q0 -19 -18.5 -32.5t-50.5 -13.5q-27 0 -89 14.5t-84 14.5q-19 0 -35.5 -8.5t-18.5 -17.5q-20 7 -20 31z" />
<glyph unicode="&#xf2;" horiz-adv-x="551" d="M56 240q0 124 61 188t162 64t158 -63.5t57 -188.5q0 -130 -58.5 -190t-161.5 -60q-101 0 -159.5 60.5t-58.5 189.5zM135 239q0 -179 139 -179q141 0 141 179q0 91 -35.5 136.5t-100.5 45.5q-66 0 -105 -46.5t-39 -135.5zM158 655q2 34 39 34q24 0 87 -54t70 -58 q-6 -28 -34 -28q-15 0 -43.5 20t-64 48t-54.5 38z" />
<glyph unicode="&#xf3;" horiz-adv-x="551" d="M56 240q0 124 61 188t162 64t158 -63.5t57 -188.5q0 -130 -58.5 -190t-161.5 -60q-101 0 -159.5 60.5t-58.5 189.5zM135 239q0 -179 139 -179q141 0 141 179q0 91 -35.5 136.5t-100.5 45.5q-66 0 -105 -46.5t-39 -135.5zM211 578q12 7 44.5 36t64 52.5t49.5 23.5 q38 0 38 -34q-19 -10 -54 -38t-63.5 -48t-43.5 -20q-29 0 -35 28z" />
<glyph unicode="&#xf4;" horiz-adv-x="551" d="M56 240q0 124 61 188t162 64t158 -63.5t57 -188.5q0 -130 -58.5 -190t-161.5 -60q-101 0 -159.5 60.5t-58.5 189.5zM121 579q8 4 70 58t87 54q24 0 87 -53t74 -59q-5 -23 -24 -26q-8 -3 -19 0q-13 4 -31.5 16t-45 32t-39.5 29q-12 -8 -39.5 -28.5t-46 -32.5t-31.5 -16 q-10 -3 -18 0q-19 3 -24 26zM135 239q0 -179 139 -179q141 0 141 179q0 91 -35.5 136.5t-100.5 45.5q-66 0 -105 -46.5t-39 -135.5z" />
<glyph unicode="&#xf5;" horiz-adv-x="551" d="M56 240q0 124 61 188t162 64t158 -63.5t57 -188.5q0 -130 -58.5 -190t-161.5 -60q-101 0 -159.5 60.5t-58.5 189.5zM126 603q0 17 21.5 35t53.5 18q29 0 82.5 -15.5t77.5 -15.5q42 0 63 24q18 -9 18 -34q0 -19 -18.5 -32.5t-50.5 -13.5q-27 0 -89 14.5t-84 14.5 q-19 0 -35.5 -8.5t-18.5 -17.5q-20 7 -20 31zM135 239q0 -179 139 -179q141 0 141 179q0 91 -35.5 136.5t-100.5 45.5q-66 0 -105 -46.5t-39 -135.5z" />
<glyph unicode="&#xf6;" horiz-adv-x="551" d="M56 240q0 124 61 188t162 64t158 -63.5t57 -188.5q0 -130 -58.5 -190t-161.5 -60q-101 0 -159.5 60.5t-58.5 189.5zM131 614q0 46 46 46t46 -46q0 -45 -46 -45t-46 45zM135 239q0 -179 139 -179q141 0 141 179q0 91 -35.5 136.5t-100.5 45.5q-66 0 -105 -46.5t-39 -135.5 zM341 614q0 46 45 46q46 0 46 -46q0 -45 -46 -45q-45 0 -45 45z" />
<glyph unicode="&#xf7;" horiz-adv-x="524" d="M54 255q0 35 32 35h376q8 -13 8 -36q0 -38 -36 -38h-372q-8 20 -8 39zM217 61q0 47 45 47q46 0 46 -47q0 -45 -46 -45q-45 0 -45 45zM217 439q0 47 45 47q46 0 46 -47q0 -45 -46 -45q-45 0 -45 45z" />
<glyph unicode="&#xf8;" horiz-adv-x="551" d="M56 240q0 124 61 188t162 64q25 0 52 -5l40 127q14 4 24 4q19 0 20 -14q0 -8 -3 -16l-36 -115q118 -50 118 -233q0 -130 -58.5 -190t-161.5 -60q-24 0 -51 5l-30 -99q-12 -6 -27 -6t-18 11q-1 5 3 21l27 85q-122 49 -122 233zM135 239q0 -123 68 -158l105 337 q-15 3 -29 3q-66 0 -105 -46.5t-39 -135.5zM246 61q9 -1 28 -1q141 0 141 179q0 116 -65 156z" />
<glyph unicode="&#xf9;" horiz-adv-x="592" d="M30 444q1 38 77 38q39 0 56.5 -16t17.5 -54v-244q0 -101 77 -101q93 0 155 106v300q17 9 43 9q37 0 37 -30v-359q0 -28 23 -28h37q3 -18 3 -25q0 -40 -75 -40q-68 0 -68 79v9q-75 -98 -178 -98q-134 0 -134 161v234q0 27 -23 27h-44q-4 18 -4 32zM163 655q2 34 39 34 q24 0 87 -54t70 -58q-6 -28 -34 -28q-15 0 -43.5 20t-64 48t-54.5 38z" />
<glyph unicode="&#xfa;" horiz-adv-x="592" d="M30 444q1 38 77 38q39 0 56.5 -16t17.5 -54v-244q0 -101 77 -101q93 0 155 106v300q17 9 43 9q37 0 37 -30v-359q0 -28 23 -28h37q3 -18 3 -25q0 -40 -75 -40q-68 0 -68 79v9q-75 -98 -178 -98q-134 0 -134 161v234q0 27 -23 27h-44q-4 18 -4 32zM216 578q12 7 44.5 36 t64 52.5t49.5 23.5q38 0 38 -34q-19 -10 -54 -38t-63.5 -48t-43.5 -20q-29 0 -35 28z" />
<glyph unicode="&#xfb;" horiz-adv-x="592" d="M30 444q1 38 77 38q39 0 56.5 -16t17.5 -54v-244q0 -101 77 -101q93 0 155 106v300q17 9 43 9q37 0 37 -30v-359q0 -28 23 -28h37q3 -18 3 -25q0 -40 -75 -40q-68 0 -68 79v9q-75 -98 -178 -98q-134 0 -134 161v234q0 27 -23 27h-44q-4 18 -4 32zM127 579q8 4 70 58 t87 54q24 0 87 -53t74 -59q-5 -23 -24 -26q-8 -3 -19 0q-13 4 -31.5 16t-45 32t-39.5 29q-12 -8 -39.5 -28.5t-46 -32.5t-31.5 -16q-10 -3 -18 0q-19 3 -24 26z" />
<glyph unicode="&#xfc;" horiz-adv-x="592" d="M30 444q1 38 77 38q39 0 56.5 -16t17.5 -54v-244q0 -101 77 -101q93 0 155 106v300q17 9 43 9q37 0 37 -30v-359q0 -28 23 -28h37q3 -18 3 -25q0 -40 -75 -40q-68 0 -68 79v9q-75 -98 -178 -98q-134 0 -134 161v234q0 27 -23 27h-44q-4 18 -4 32zM137 614q0 46 46 46 t46 -46q0 -45 -46 -45t-46 45zM347 614q0 46 45 46q46 0 46 -46q0 -45 -46 -45q-45 0 -45 45z" />
<glyph unicode="&#xfd;" horiz-adv-x="540" d="M12 448q0 34 64 34q29 0 45 -12.5t25 -40.5l124 -328q7 -22 23 -25q123 242 123 318q0 27 -24 27h-36q-5 10 -5 27q0 15 17.5 24.5t43.5 9.5q80 0 80 -70q0 -67 -73 -231t-133 -258q-40 -63 -83.5 -87t-101.5 -24q-69 0 -69 39q0 16 6 28h74q32 0 59 15.5t55 60.5l32 56 q-32 6 -47 47l-132 343q-7 20 -25 20h-37q-5 10 -5 27zM193 579q12 7 44.5 36t64 52.5t49.5 23.5q38 0 38 -34q-19 -10 -54 -38t-63.5 -48t-43.5 -20q-29 0 -35 28z" />
<glyph unicode="&#xfe;" horiz-adv-x="562" d="M97 -156v849q19 7 42 7q35 0 35 -27v-264q68 83 154 83q78 0 127.5 -55.5t50.5 -187.5q0 -125 -56 -192t-138 -67q-81 0 -138 59v-236q-13 -8 -40 -8q-37 0 -37 39zM174 130q53 -68 124 -68q59 0 96 45.5t37 133.5q0 172 -124 172q-75 0 -133 -74v-209z" />
<glyph unicode="&#xff;" horiz-adv-x="540" d="M12 448q0 34 64 34q29 0 45 -12.5t25 -40.5l124 -328q7 -22 23 -25q123 242 123 318q0 27 -24 27h-36q-5 10 -5 27q0 15 17.5 24.5t43.5 9.5q80 0 80 -70q0 -67 -73 -231t-133 -258q-40 -63 -83.5 -87t-101.5 -24q-69 0 -69 39q0 16 6 28h74q32 0 59 15.5t55 60.5l32 56 q-32 6 -47 47l-132 343q-7 20 -25 20h-37q-5 10 -5 27zM113 615q0 46 46 46t46 -46q0 -45 -46 -45t-46 45zM323 615q0 46 45 46q46 0 46 -46q0 -45 -46 -45q-45 0 -45 45z" />
<glyph unicode="&#x152;" horiz-adv-x="1030" d="M64 350q0 175 79.5 267.5t224.5 92.5q69 0 137 -15q10 5 33 5h432q8 -10 8 -32q0 -42 -32 -42h-370v-230h334q9 -9 9 -35q0 -39 -31 -39h-312v-248h394q8 -10 8 -32q0 -42 -32 -42h-411q-16 0 -22 4q-66 -14 -145 -14q-143 0 -223.5 88t-80.5 272zM140 349 q0 -291 228 -291q70 0 130 16v545q-56 21 -130 21q-108 0 -168 -73.5t-60 -217.5z" />
<glyph unicode="&#x153;" horiz-adv-x="864" d="M56 240q0 124 61 188t162 64q131 0 181 -110q28 54 75.5 82t103.5 28q87 0 133.5 -58t46.5 -150q0 -33 -7 -51h-316q3 -83 41 -128t104 -45q48 0 91.5 14.5t64.5 30.5q17 -10 17 -33q0 -30 -47.5 -56t-131.5 -26q-59 0 -104.5 27.5t-71.5 77.5q-49 -105 -185 -105 q-101 0 -159.5 60.5t-58.5 189.5zM135 239q0 -179 139 -179q137 0 141 172q0 189 -136 189q-66 0 -105 -46.5t-39 -135.5zM498 288h253q0 63 -27.5 99t-84.5 36q-51 0 -90.5 -34.5t-50.5 -100.5z" />
<glyph unicode="&#x178;" horiz-adv-x="591" d="M36 688q19 12 44 12q29 0 38 -26q62 -202 188 -387q61 93 117.5 216.5t68.5 191.5q10 5 37 5q11 0 18.5 -8t7.5 -19q-1 -59 -74 -204.5t-139 -235.5v-224q-13 -9 -43 -9q-34 0 -34 29v201q-159 228 -229 458zM145 833q0 46 46 46t46 -46q0 -45 -46 -45t-46 45zM355 833 q0 46 45 46q46 0 46 -46q0 -45 -46 -45q-45 0 -45 45z" />
<glyph unicode="&#x2c6;" horiz-adv-x="483" d="M73 580q8 4 70 58t87 54q24 0 87 -53t74 -59q-5 -23 -24 -26q-8 -3 -19 0q-13 4 -31.5 16t-45 32t-39.5 29q-12 -8 -39.5 -28.5t-46 -32.5t-31.5 -16q-10 -3 -18 0q-19 3 -24 26z" />
<glyph unicode="&#x2dc;" horiz-adv-x="515" d="M58 604q0 17 21.5 35t53.5 18q29 0 82.5 -15.5t77.5 -15.5q42 0 63 24q18 -9 18 -34q0 -19 -18.5 -32.5t-50.5 -13.5q-27 0 -89 14.5t-84 14.5q-19 0 -35.5 -8.5t-18.5 -17.5q-20 7 -20 31z" />
<glyph unicode="&#x2000;" horiz-adv-x="469" />
<glyph unicode="&#x2001;" horiz-adv-x="939" />
<glyph unicode="&#x2002;" horiz-adv-x="469" />
<glyph unicode="&#x2003;" horiz-adv-x="939" />
<glyph unicode="&#x2004;" horiz-adv-x="313" />
<glyph unicode="&#x2005;" horiz-adv-x="234" />
<glyph unicode="&#x2006;" horiz-adv-x="156" />
<glyph unicode="&#x2007;" horiz-adv-x="156" />
<glyph unicode="&#x2008;" horiz-adv-x="117" />
<glyph unicode="&#x2009;" horiz-adv-x="187" />
<glyph unicode="&#x200a;" horiz-adv-x="52" />
<glyph unicode="&#x2010;" horiz-adv-x="427" d="M54 265q0 38 40 38h270q8 -10 8 -34q0 -40 -42 -40h-267q-9 18 -9 36z" />
<glyph unicode="&#x2011;" horiz-adv-x="427" d="M54 265q0 38 40 38h270q8 -10 8 -34q0 -40 -42 -40h-267q-9 18 -9 36z" />
<glyph unicode="&#x2012;" horiz-adv-x="427" d="M54 265q0 38 40 38h270q8 -10 8 -34q0 -40 -42 -40h-267q-9 18 -9 36z" />
<glyph unicode="&#x2013;" horiz-adv-x="524" d="M54 268q0 35 32 35h376q8 -13 8 -36q0 -38 -36 -38h-372q-8 20 -8 39z" />
<glyph unicode="&#x2014;" horiz-adv-x="676" d="M54 266q0 37 36 37h525q7 -9 7 -34q0 -40 -30 -40h-530q-8 20 -8 37z" />
<glyph unicode="&#x2018;" horiz-adv-x="175" d="M40 582q0 54 15 86t36 32q22 0 26 -17q-13 -12 -20.5 -36.5t-7.5 -41.5q46 0 46 -45q0 -47 -46 -47q-25 0 -37 15.5t-12 53.5z" />
<glyph unicode="&#x2019;" horiz-adv-x="175" d="M40 653q0 47 46 47q25 0 37 -15.5t12 -53.5q0 -54 -15 -86t-36 -32q-22 0 -26 17q13 12 20.5 36.5t7.5 41.5q-46 0 -46 45z" />
<glyph unicode="&#x201a;" horiz-adv-x="175" d="M40 45q0 47 46 47q25 0 37 -15.5t12 -53.5q0 -54 -15 -86t-36 -32q-22 0 -26 17q13 12 20.5 36.5t7.5 41.5q-46 0 -46 45z" />
<glyph unicode="&#x201c;" horiz-adv-x="298" d="M40 583q0 54 15 86t36 32q22 0 26 -17q-13 -12 -20.5 -36.5t-7.5 -41.5q46 0 46 -45q0 -47 -46 -47q-25 0 -37 15.5t-12 53.5zM163 583q0 54 15 86t36 32q22 0 26 -17q-13 -12 -20.5 -36.5t-7.5 -41.5q46 0 46 -45q0 -47 -46 -47q-25 0 -37 15.5t-12 53.5z" />
<glyph unicode="&#x201d;" horiz-adv-x="298" d="M40 654q0 47 46 47q25 0 37 -15.5t12 -53.5q0 -54 -15 -86t-36 -32q-22 0 -26 17q13 12 20.5 36.5t7.5 41.5q-46 0 -46 45zM163 654q0 47 46 47q25 0 37 -15.5t12 -53.5q0 -54 -15 -86t-36 -32q-22 0 -26 17q13 12 20.5 36.5t7.5 41.5q-46 0 -46 45z" />
<glyph unicode="&#x201e;" horiz-adv-x="298" d="M40 45q0 47 46 47q25 0 37 -15.5t12 -53.5q0 -54 -15 -86t-36 -32q-22 0 -26 17q13 12 20.5 36.5t7.5 41.5q-46 0 -46 45zM163 45q0 47 46 47q25 0 37 -15.5t12 -53.5q0 -54 -15 -86t-36 -32q-22 0 -26 17q13 12 20.5 36.5t7.5 41.5q-46 0 -46 45z" />
<glyph unicode="&#x2022;" horiz-adv-x="261" d="M56 266q0 83 80 83q81 0 81 -83q0 -79 -81 -79q-80 0 -80 79z" />
<glyph unicode="&#x2026;" horiz-adv-x="514" d="M40 45q0 47 45 47q46 0 46 -47q0 -45 -46 -45q-45 0 -45 45zM211 45q0 47 46 47t46 -47q0 -45 -46 -45t-46 45zM383 45q0 47 45 47q46 0 46 -47q0 -45 -46 -45q-45 0 -45 45z" />
<glyph unicode="&#x202f;" horiz-adv-x="187" />
<glyph unicode="&#x2039;" horiz-adv-x="294" d="M40 245q0 20 12 35l152 170q8 4 18 4q13 0 22.5 -10.5t9.5 -22.5q0 -14 -11 -27l-133 -151l140 -162q3 -12 3 -17q0 -12 -11 -20.5t-22 -8.5q-17 0 -29 15l-143 161q-8 14 -8 34z" />
<glyph unicode="&#x203a;" horiz-adv-x="294" d="M40 68q0 14 11 27l133 151l-140 162q-3 12 -3 17q0 12 11 20.5t22 8.5q17 0 29 -15l143 -161q8 -14 8 -34t-12 -35l-152 -170q-8 -4 -18 -4q-13 0 -22.5 10.5t-9.5 22.5z" />
<glyph unicode="&#x205f;" horiz-adv-x="234" />
<glyph unicode="&#x20ac;" horiz-adv-x="682" d="M24 415q0 19 8 27.5t36 8.5h50q21 128 96 192t191 64q76 0 132 -17.5t76 -46.5q17 -23 5 -40q-12 -21 -32 -24q-61 54 -181 54q-82 0 -135.5 -46t-71.5 -136h281q7 -7 7 -26q0 -37 -51 -37h-248q-1 -14 -1 -41q0 -24 1 -35h259q7 -6 7 -25q0 -38 -52 -38h-204 q32 -180 208 -180q63 0 115 24.5t71 58.5q13 4 29 -2q11 -3 16 -10q15 -17 -1 -44q-23 -38 -82 -69t-148 -31q-248 0 -287 253h-87q-6 12 -6 22q-1 9 0 19q5 22 43 22h42v37q0 26 1 39h-80q-7 14 -7 27z" />
<glyph unicode="&#x2122;" horiz-adv-x="727" d="M3 671q-1 7 0 14q2 17 41 17h254q6 -12 6 -23q0 -29 -20 -29h-103v-302q-8 -4 -32 -4q-23 0 -23 42v264h-118q-5 10 -5 21zM327 348l23 291q4 63 41 63q17 0 27 -5l105 -260l74 211q17 54 47 54q19 0 34 -7l44 -344q-10 -7 -30 -7q-27 0 -29 20l-24 238l-79 -211 q-5 -19 -14 -24.5t-24 -5.5q-26 0 -36 30l-87 210l-16 -237q-1 -20 -28 -20q-20 0 -28 4z" />
</font>
</defs>
</svg>
