<?xml version="1.0" encoding="utf-8"?>
<!-- Generator: Adobe Illustrator 16.0.0, SVG Export Plug-In . SVG Version: 6.00 Build 0)  -->
<!DOCTYPE svg PUBLIC "-//W3C//DTD SVG 1.1//EN" "http://www.w3.org/Graphics/SVG/1.1/DTD/svg11.dtd">
<svg version="1.1" id="Layer_1" xmlns="http://www.w3.org/2000/svg" xmlns:xlink="http://www.w3.org/1999/xlink" x="0px" y="0px"
	 width="250px" height="250px" viewBox="0 0 250 250" enable-background="new 0 0 250 250" xml:space="preserve">
<g>
	<path d="M143.413,189.863c0,11.122-8.634,20.132-19.281,20.132l0,0c-10.654,0-19.281-9.01-19.281-20.132V58.143
		c0-11.116,8.626-20.138,19.281-20.138l0,0c10.647,0,19.281,9.022,19.281,20.138V189.863z"/>
	<path d="M189.982,104.726c11.128,0,20.15,8.632,20.15,19.281l0,0c0,10.641-9.022,19.28-20.15,19.28H58.27
		c-11.128,0-20.139-8.639-20.139-19.28l0,0c0-10.648,9.011-19.281,20.139-19.281H189.982z"/>
</g>
</svg>
