<?xml version="1.0" standalone="no"?>
<!DOCTYPE svg PUBLIC "-//W3C//DTD SVG 1.1//EN" "http://www.w3.org/Graphics/SVG/1.1/DTD/svg11.dtd">
<svg xmlns="http://www.w3.org/2000/svg"><metadata>This SVG WebFont was generated by YouWorkForThem.
Copyright  2011 Rod McDonald. Published by Canada Type. All rights reserved.</metadata><defs><font horiz-adv-x="1112" id="ywftsvg"><font-face ascent="1638" bbox="-381 -483.014 2867 1944" cap-height="1413" descent="-410" font-family="" font-stretch="normal" font-weight="300" panose-1="2 0 0 0 0 0 0 0 0 0" underline-position="0" underline-thickness="0" unicode-range="U+000D-FB04" units-per-em="2048" x-height="946"/><missing-glyph horiz-adv-x="397"/><glyph d="M612 1337q-128 0 -176 -144q-26 -79 -45 -245h371q35 225 72 309q78 176 251 177q100 0 127 -21l-24 -96q-51 20 -98 20q-83 0 -140 -68q-20 -26 -36 -76t-22 -80q-5 -30 -13 -89t-11 -76h232l-17 -100h-231l-170 -1077q-16 -90 -51 -160h-107q33 61 47 147l174 1090 h-370l-170 -1077q-19 -110 -51 -160h-107q33 61 47 147l174 1090h-137l16 100h138q35 225 71 309q78 176 252 177q100 0 127 -21l-24 -96q-51 20 -99 20z" glyph-name="uniFB00" horiz-adv-x="954" unicode="ff"/><glyph d="M621 67q0 44 8 91l102 649q6 45 6 78l-6 67h107q6 -22 6 -66t-8 -93l-103 -650q-4 -27 -4 -75l6 -68h-108q-6 23 -6 67zM948 1298q0 -36 -30 -68t-68 -32q-37 0 -57 22q-21 22 -21 58t32 68t66 32t56 -22t22 -58zM612 1337q-128 0 -176 -144q-26 -79 -45 -245h232 l-17 -100h-231l-170 -1077q-19 -110 -51 -160h-107q33 61 47 147l174 1090h-137l16 100h138q35 225 71 309q78 176 252 177q100 0 127 -21l-24 -96q-51 20 -99 20z" glyph-name="uniFB01" horiz-adv-x="913" unicode="fi"/><glyph d="M915 1346q0 -44 -8 -93l-176 -1110q-4 -27 -4 -75l6 -68h-108q-16 62 2 158l176 1110q6 45 6 78l-6 67h106q6 -23 6 -67zM612 1337q-128 0 -176 -144q-26 -79 -45 -245h232l-17 -100h-231l-170 -1077q-19 -110 -51 -160h-107q33 61 47 147l174 1090h-137l16 100h138 q35 225 71 309q78 176 252 177q100 0 127 -21l-24 -96q-51 20 -99 20z" glyph-name="uniFB02" horiz-adv-x="913" unicode="fl"/><glyph d="M1413 1298q0 -36 -31 -68q-32 -32 -68 -32t-57 22q-20 22 -20 58t32 68q33 32 67 32t56 -22t21 -58zM1309 886q0 -44 -9 -93l-102 -650q-4 -27 -4 -75l6 -68h-108q-16 62 2 158l102 649q6 45 6 78l-6 67h107q6 -22 6 -66zM612 1337q-128 0 -176 -144q-26 -79 -45 -245 h371q35 225 72 309q78 176 251 177q100 0 127 -21l-24 -96q-51 20 -98 20q-83 0 -140 -68q-20 -26 -36 -76t-22 -80q-5 -30 -13 -89t-11 -76h232l-17 -100h-231l-170 -1077q-16 -90 -51 -160h-107q33 61 47 147l174 1090h-370l-170 -1077q-19 -110 -51 -160h-107 q33 61 47 147l174 1090h-137l16 100h138q35 225 71 309q78 176 252 177q100 0 127 -21l-24 -96q-51 20 -99 20z" glyph-name="uniFB03" horiz-adv-x="1376" unicode="ffi"/><glyph d="M1382 1346q0 -44 -8 -93l-176 -1110q-4 -27 -4 -75l6 -68h-108q-16 62 2 158l176 1110q6 45 6 78l-6 67h106q6 -23 6 -67zM612 1337q-128 0 -176 -144q-26 -79 -45 -245h371q35 225 72 309q78 176 251 177q100 0 127 -21l-24 -96q-51 20 -98 20q-83 0 -140 -68 q-20 -26 -36 -76t-22 -80q-5 -30 -13 -89t-11 -76h232l-17 -100h-231l-170 -1077q-16 -90 -51 -160h-107q33 61 47 147l174 1090h-370l-170 -1077q-19 -110 -51 -160h-107q33 61 47 147l174 1090h-137l16 100h138q35 225 71 309q78 176 252 177q100 0 127 -21l-24 -96 q-51 20 -99 20z" glyph-name="uniFB04" horiz-adv-x="1376" unicode="ffl"/><glyph d="M936 1298q0 -36 -31 -68t-67 -32t-58 20q-20 20 -20 58q0 37 31 69q31 31 67 31t58 -21q20 -21 20 -57zM387 -313q83 0 128 58q44 58 60 157q4 25 13 80l129 811q18 100 41 141l10 18h106q-33 -61 -47 -147l-131 -823q-58 -392 -308 -392q-72 0 -99 17l14 96 q35 -16 84 -16zM612 1337q-128 0 -176 -144q-26 -79 -45 -245h232l-17 -100h-231l-170 -1077q-19 -110 -51 -160h-107q33 61 47 147l174 1090h-137l16 100h138q35 225 71 309q78 176 252 177q100 0 127 -21l-24 -96q-51 20 -99 20z" glyph-name="f_j.liga" horiz-adv-x="899" unicode="fj"/><glyph d="M758 209q0 -129 104 -129q55 0 105 26l-6 -96q-53 -30 -141 -30t-132 50q-43 50 -43 135q-1 146 47 394t53 289h-370l-170 -1077q-19 -110 -51 -160h-107q33 61 47 147l174 1090h-137l16 100h138q35 225 71 309q78 176 252 177q100 0 127 -21l-24 -96q-51 20 -99 20 q-128 0 -176 -144q-26 -79 -45 -245h371l24 156q6 47 7 78l-7 67h107q6 -23 6 -67t-8 -92l-23 -142h232l-17 -100h-231l-76 -490q-18 -111 -18 -149z" glyph-name="f_t.liga" horiz-adv-x="1032" unicode="ft"/><glyph glyph-name=".notdef" horiz-adv-x="397"/><glyph glyph-name="glyph1" horiz-adv-x="0"/><glyph glyph-name="glyph2" horiz-adv-x="681"/><glyph glyph-name="space" horiz-adv-x="397" unicode=" "/><glyph d="M348 91q0 -42 -33 -77q-33 -34 -73 -34t-64 22q-22 22 -22 64t32 77q33 35 74 35q86 0 86 -87zM408 1413h110l-180 -1075h-92z" glyph-name="exclam" horiz-adv-x="565" unicode="!"/><glyph d="M397 1413h111l-72 -389h-90zM645 1413h111l-74 -389h-88z" glyph-name="quotedbl" horiz-adv-x="794" unicode="&quot;"/><glyph d="M711 586l94 317h-270l-95 -317h271zM928 1006h225l-16 -103h-240l-94 -317h223l-14 -101h-238l-127 -430h-92l127 430h-270l-127 -430h-92l126 430h-217l17 101h229l94 317h-215l17 103h227l129 428h92l-129 -428h271l129 428h92z" glyph-name="numbersign" unicode="#"/><glyph d="M881 391q0 111 -55 159q-55 47 -146 97l-88 -567q119 8 204 104t85 207zM420 1042q0 -57 33 -104t64 -69q32 -21 95 -58l82 526q-118 -12 -196 -94t-78 -201zM995 424q0 -174 -121 -301t-299 -143l-28 -175h-94l26 172q-133 0 -227 77t-125 208l104 53q21 -104 91 -169 t174 -66l96 610q-66 35 -88 46t-71 47q-50 36 -68 63q-54 81 -56 174q0 168 114 283t288 131l24 159h96l-26 -159q206 -19 280 -207l-92 -64q-25 74 -77 120t-125 54l-91 -567q158 -84 205 -127q90 -86 90 -219z" glyph-name="dollar" unicode="$"/><glyph d="M1001 70q109 0 177 86t69 182q0 96 -45 147t-139 51t-163 -85t-69 -181q-1 -96 45 -148t125 -52zM311 1060q1 -198 187 -198q94 0 162 85t69 181q1 198 -185 199q-96 0 -164 -86q-68 -85 -69 -181zM1346 365q0 -156 -100 -271t-259 -114q-115 0 -185 72t-69 190 q1 156 101 270t256 115q116 -1 186 -73t70 -189zM1278 1444l70 -47l-1065 -1444l-70 49zM827 1157q0 -155 -100 -271t-258 -116q-117 0 -187 73t-69 189q0 156 101 272t257 115q117 0 187 -72q69 -73 69 -190z" glyph-name="percent" horiz-adv-x="1435" unicode="%"/><glyph d="M207 315q-1 -111 69 -175t181 -64t225 70t195 167l-285 432q-195 -104 -262 -167q-123 -113 -123 -263zM920 1202q0 64 -44 100t-128 36t-148 -67q-63 -67 -63 -163q0 -44 10 -70t14 -38q7 -21 35 -64l22 -33q18 -27 21 -31q104 55 193 133q88 78 88 197zM420 -25 q-149 0 -242 84q-92 84 -92 226q0 205 144 335q73 64 140 106t169 93q-45 75 -53 89q-60 94 -60 192q0 147 98 240q98 94 232 94t205 -60q72 -60 71 -170q0 -219 -340 -405l264 -402q48 49 114 143t99 158l97 -30q-100 -186 -256 -349l211 -307l-2 -12h-136l-153 233 q-125 -125 -243 -191t-267 -67z" glyph-name="ampersand" horiz-adv-x="1290" unicode="&amp;"/><glyph d="M397 1413h111l-72 -389h-90z" glyph-name="quotesingle" horiz-adv-x="544" unicode="'"/><glyph d="M580 1556l63 -43q-174 -219 -284 -529t-109 -587q0 -155 31 -327t88 -293l-80 -43q-152 315 -152 659q1 614 443 1163z" glyph-name="parenleft" horiz-adv-x="495" unicode="("/><glyph d="M477 897q0 -614 -442 -1163l-66 43q174 217 284 527t109 589q0 375 -116 620l78 43q153 -313 153 -659z" glyph-name="parenright" horiz-adv-x="495" unicode=")"/><glyph d="M991 1262l21 -97l-310 -96l150 -264l-92 -57l-123 278l-211 -278l-72 57l234 264l-281 96l51 97l263 -117l32 299h103l-64 -299z" glyph-name="asterisk" horiz-adv-x="1042" unicode="*"/><glyph d="M1137 752v-93h-471v-471h-93v471h-471v93h471v471h93v-471h471z" glyph-name="plus" horiz-adv-x="1320" unicode="+"/><glyph d="M258 164h123l-229 -451h-84z" glyph-name="comma" horiz-adv-x="565" unicode=","/><glyph d="M98 621h432l-14 -103h-434z" glyph-name="hyphen" horiz-adv-x="520" unicode="-"/><glyph d="M348 88q0 -41 -34 -75q-34 -33 -74 -33t-63 22t-23 64q0 40 33 74q34 34 74 34t64 -22q23 -23 23 -64z" glyph-name="period" horiz-adv-x="565" unicode="."/><glyph d="M1081 1608l82 -39l-1100 -1751l-86 39z" glyph-name="slash" horiz-adv-x="1003" unicode="/"/><glyph d="M947 497q69 207 69 390t-60 306q-67 140 -235 140q-129 0 -229 -87t-154 -221q-110 -272 -111 -517q0 -160 60 -284q67 -140 235 -140q104 0 192 59q87 59 141 149t92 205zM1130 882q0 -122 -36 -276q-86 -372 -304 -535q-126 -93 -284 -94q-298 0 -374 339 q-19 89 -19 212t35 277q87 374 306 535q126 93 283 94q109 0 188 -46t123 -125t63 -169t19 -212z" glyph-name="zero" unicode="0"/><glyph d="M299 1413h387l-223 -1413h-109l209 1317h-278z" glyph-name="one" horiz-adv-x="823" unicode="1"/><glyph d="M973 1066q0 128 -75 198t-194 70t-215 -72q-96 -70 -161 -181l-74 54q178 299 463 299q162 0 266 -90t104 -262t-124 -326q-63 -78 -115 -129t-139 -125l-453 -396h735l-18 -106h-869l-6 84l572 502q135 120 219 236t84 244z" glyph-name="two" unicode="2"/><glyph d="M1069 1136q0 -138 -81 -248t-212 -143v-2q102 -16 164 -99t61 -189q-1 -213 -157 -344t-377 -131q-117 0 -220 68t-147 179l93 70q39 -90 119 -153q81 -62 175 -62q172 0 286 96t114 264q0 221 -262 239q-43 3 -107 3l17 111h92q139 0 233 88t94 229q0 104 -73 163 q-75 58 -179 58t-185 -46t-169 -134l-61 64q100 111 200 163q99 52 241 54q142 0 242 -80t99 -218z" glyph-name="three" unicode="3"/><glyph d="M774 432l131 819l-706 -819h575zM883 432h209l-17 -104h-209l-51 -328h-108l51 328h-701l15 94l868 1001h100z" glyph-name="four" unicode="4"/><glyph d="M623 903q169 0 279 -104t110 -273q0 -231 -160 -391t-395 -160q-129 1 -235 63t-142 179l92 64q31 -97 117 -149t194 -52q178 0 296 126t118 306q0 133 -83 211q-82 78 -230 78t-234 -76l-65 41l231 647h612l-16 -100h-530l-164 -449q86 39 205 39z" glyph-name="five" unicode="5"/><glyph d="M936 506q0 129 -72 206t-200 76q-170 0 -280 -126t-110 -300q0 -132 74 -208t203 -76q169 0 277 127t108 301zM791 1337q-99 0 -181 -49t-137 -122t-113 -206t-88 -329q154 258 422 258q156 1 256 -101t101 -260q1 -219 -147 -386t-369 -167q-381 0 -381 465 q0 266 93 515q50 133 123 239q74 106 188 173t230 67t214 -39q96 -39 141 -111l-74 -80q-117 133 -278 133z" glyph-name="six" unicode="6"/><glyph d="M1196 1413l21 -63l-904 -1350h-112l876 1313h-794l16 100h897z" glyph-name="seven" unicode="7"/><glyph d="M899 449q0 121 -78 187t-200 64q-158 0 -268 -104t-109 -262q0 -119 79 -188t199 -68q156 0 266 108t111 263zM961 1118q0 102 -68 158q-67 56 -189 57q-122 0 -216 -90t-93 -229q0 -102 68 -158q69 -56 191 -55q122 0 214 89t93 228zM1075 1139q0 -276 -272 -387v-2 q98 -35 152 -113t55 -184q0 -213 -142 -344t-362 -132q-166 0 -272 84q-105 84 -105 243t88 279t238 167v2q-170 76 -170 258t129 303t323 121q141 0 239 -79t99 -216z" glyph-name="eight" unicode="8"/><glyph d="M969 1049q0 131 -74 207t-203 77q-170 0 -278 -127t-107 -301q0 -129 72 -206t201 -76q170 0 280 127t109 299zM1090 969q0 -195 -62 -421t-206 -397q-69 -81 -167 -128t-213 -48q-242 0 -352 150l74 80q111 -129 293 -129q119 0 214 70t153 184q104 206 147 448 q-154 -258 -424 -258q-156 0 -256 102t-101 259q0 219 148 386t369 167q383 0 383 -465z" glyph-name="nine" unicode="9"/><glyph d="M348 91q0 -42 -33 -77q-33 -34 -73 -34t-64 22q-22 22 -22 64t32 77q33 35 74 35q86 0 86 -87zM387 963q86 0 86 -87q0 -42 -33 -77t-74 -35q-40 0 -64 22t-24 65q0 42 34 77t75 35z" glyph-name="colon" horiz-adv-x="565" unicode=":"/><glyph d="M260 166h121l-229 -453h-84zM387 963q86 0 86 -87q0 -42 -33 -77t-74 -35q-40 0 -64 22t-24 65q0 42 34 77t75 35z" glyph-name="semicolon" horiz-adv-x="565" unicode=";"/><glyph d="M1137 276v-102l-1035 481v103l1035 481v-102l-932 -430z" glyph-name="less" horiz-adv-x="1320" unicode="&lt;"/><glyph d="M1137 594v-92h-1035v92h1035zM1137 911v-92h-1035v92h1035z" glyph-name="equal" horiz-adv-x="1320" unicode="="/><glyph d="M1137 758v-103l-1035 -481v102l932 431l-932 430v102z" glyph-name="greater" horiz-adv-x="1320" unicode=">"/><glyph d="M424 178q86 0 86 -87q0 -42 -33 -77q-33 -34 -74 -34t-63 22t-23 64q0 42 33 77t74 35zM948 1182q0 -108 -38 -184q-38 -74 -85 -118t-119 -108t-111 -114q-40 -51 -56 -114q-15 -62 -25 -128t-12 -78h-92l7 63q16 141 40 203t53 98q37 51 128 125t143 147q53 73 53 167 t-58 143t-147 49q-88 0 -160 -46t-113 -124l-73 54q125 217 370 217q127 0 211 -72t84 -180z" glyph-name="question" horiz-adv-x="923" unicode="?"/><glyph d="M922 801q-106 0 -208 -96q-102 -95 -158 -223q-58 -128 -58 -232q0 -150 127 -150q163 0 302 234q56 95 108 211q51 116 63 141q-12 57 -64 86t-112 29zM1552 692q0 -143 -70 -302q-70 -158 -205 -274q-134 -116 -286 -116q-129 0 -127 129q-133 -129 -295 -129 q-90 0 -136 66t-46 181t74 270t207 267q132 112 284 113q152 0 197 -111l35 70h119q-17 -29 -99 -190q-229 -447 -229 -514q0 -51 61 -52q111 0 211 102t154 235q53 132 53 239q0 204 -141 320t-351 116t-388 -118t-275 -305q-98 -187 -98 -405t131 -362t358 -143 q146 0 320 50t270 134l31 -69q-113 -102 -290 -156t-345 -55q-266 1 -423 165t-157 416t114 466q114 212 318 345q205 133 449 133q243 0 409 -138t166 -378z" glyph-name="at" horiz-adv-x="1589" unicode="@"/><glyph d="M377 530h561l-168 713zM834 1417l356 -1417h-127l-100 424h-646l-233 -424h-119l807 1417h62z" glyph-name="A" horiz-adv-x="1251" unicode="A"/><glyph d="M924 451q0 233 -361 233h-221l-92 -580h235q193 0 316 82t123 265zM930 1110q0 123 -86 161t-201 38h-201l-84 -525h183q173 0 281 78t108 248zM649 1413q287 0 363 -133q32 -56 32 -164t-72 -219t-194 -145v-2q121 -25 193 -97t71 -188q0 -225 -196 -373 q-125 -92 -357 -92h-364l223 1413h301z" glyph-name="B" horiz-adv-x="1116" unicode="B"/><glyph d="M936 1331q-293 0 -484 -224t-192 -523q0 -224 129 -362t350 -138q270 0 461 186l62 -73q-227 -221 -539 -222q-264 0 -423 163q-159 164 -159 410t102 445q101 199 289 320t420 121q289 0 457 -211l-80 -80q-53 92 -165 140t-228 48z" glyph-name="C" horiz-adv-x="1339" unicode="C"/><glyph d="M1210 815q0 229 -141 361t-373 133h-254l-192 -1205h256q295 0 500 208q204 208 204 503zM1327 827q0 -347 -241 -587t-586 -240h-375l223 1413h375q266 0 435 -161t169 -425z" glyph-name="D" horiz-adv-x="1339" unicode="D"/><glyph d="M348 1413h742l-17 -104h-631l-80 -506h596l-16 -103h-598l-94 -596h647l-16 -104h-756z" glyph-name="E" horiz-adv-x="1021" unicode="E"/><glyph d="M348 1413h692l-16 -104h-582l-88 -549h549l-18 -105h-547l-105 -655h-108z" glyph-name="F" horiz-adv-x="944" unicode="F"/><glyph d="M928 1331q-289 0 -478 -225t-190 -526q0 -224 132 -360t358 -136q127 0 260 38t209 114l59 382h-418l17 103h526l-86 -537q-96 -104 -260 -156t-334 -53q-262 0 -422 166t-160 430q1 351 231 607t563 256t513 -252l-86 -80q-145 229 -434 229z" glyph-name="G" horiz-adv-x="1488" unicode="G"/><glyph d="M1294 1413h109l-223 -1413h-111l113 705h-836l-113 -705h-108l223 1413h111l-97 -604h836z" glyph-name="H" horiz-adv-x="1400" unicode="H"/><glyph d="M348 1413h111l-226 -1413h-108z" glyph-name="I" horiz-adv-x="444" unicode="I"/><glyph d="M-75 -420q-75 0 -115 21l16 96q35 -16 87 -16t80 12t48 43t33 51q12 21 22 69t14 62q3 14 11 64l227 1431h111l-226 -1421q-23 -150 -82 -268q-35 -68 -93 -106t-133 -38z" glyph-name="J" horiz-adv-x="444" unicode="J"/><glyph d="M1096 1413h143l-635 -553l451 -860h-137l-402 784l-182 -159l-101 -625h-108l223 1413h111l-105 -655z" glyph-name="K" horiz-adv-x="1081" unicode="K"/><glyph d="M250 104h485l-16 -104h-594l223 1413h111z" glyph-name="L" horiz-adv-x="784" unicode="L"/><glyph d="M1475 1413h124l-86 -1413h-108l78 1214l-697 -1239h-12l-301 1239h-2l-305 -1214h-111l363 1413h125l274 -1194h4z" glyph-name="M" horiz-adv-x="1667" unicode="M"/><glyph d="M1350 1413h108l-223 -1413h-98l-707 1231l-197 -1231h-108l223 1413h109l700 -1210z" glyph-name="N" horiz-adv-x="1456" unicode="N"/><glyph d="M1427 845q0 207 -132 347t-340 139q-207 0 -367 -106q-160 -105 -245 -277t-85 -378t132 -346t340 -140t368 106t244 277t85 378zM1544 844q0 -356 -233 -612t-584 -257q-262 0 -424 164t-162 426q1 357 233 613t584 256q260 0 423 -164t163 -426z" glyph-name="O" horiz-adv-x="1558" unicode="O"/><glyph d="M928 1087q0 117 -79 169t-202 53h-205l-88 -547h207q159 0 263 84t104 241zM1044 1106q0 -215 -142 -331t-361 -116h-203l-105 -659h-108l223 1413h314q164 -1 273 -75t109 -232z" glyph-name="P" horiz-adv-x="993" unicode="P"/><glyph d="M1427 831q0 221 -132 361t-340 139q-207 0 -367 -106q-160 -105 -245 -277t-85 -378t132 -346t353 -140q184 0 340 98l-104 158l92 66l107 -154q119 106 184 260t65 319zM1544 844q0 -201 -80 -378t-227 -302l121 -189l-90 -65l-125 184q-188 -119 -433 -119t-407 164 q-162 165 -162 411t103 444q102 198 292 319t436 121t409 -164t163 -426z" glyph-name="Q" horiz-adv-x="1558" unicode="Q"/><glyph d="M920 1092q0 136 -95 175q-95 40 -219 42h-164l-88 -551h162q182 0 293 79t111 255zM664 1413q162 -1 266 -77t104 -245t-110 -287t-287 -145l309 -659h-141l-297 653h-170l-105 -653h-108l223 1413h316z" glyph-name="R" horiz-adv-x="993" unicode="R"/><glyph d="M711 1333q-135 0 -229 -80t-93 -221q0 -141 203 -231q84 -37 168 -77t143 -115t60 -183q0 -201 -151 -326t-355 -125q-133 0 -231 67q-97 67 -144 189l88 60q37 -99 122 -157t191 -58q145 0 256 95t111 239q0 86 -59 145t-143 96t-169 77q-84 40 -143 114t-60 178 q0 190 134 302t338 112q206 0 315 -187l-82 -63q-49 78 -113 114t-157 35z" glyph-name="S" horiz-adv-x="1038" unicode="S"/><glyph d="M201 1413h915l-16 -104h-404l-207 -1309h-110l209 1309h-404z" glyph-name="T" horiz-adv-x="960" unicode="T"/><glyph d="M182 360q0 82 23 209l133 844h111l-130 -813q-23 -154 -22 -211q0 -145 84 -226t215 -81t215 41q196 96 256 477l129 813h109l-134 -844q-38 -259 -167 -426q-129 -168 -410 -168q-184 -1 -298 101t-114 284z" glyph-name="U" horiz-adv-x="1290" unicode="U"/><glyph d="M1153 1413h115l-721 -1415h-86l-271 1415h119l230 -1220z" glyph-name="V" horiz-adv-x="1101" unicode="V"/><glyph d="M1831 1413h117l-623 -1415h-100l-178 1247l-572 -1247h-100l-174 1415h116l146 -1214l553 1214h117l167 -1214z" glyph-name="W" horiz-adv-x="1792" unicode="W"/><glyph d="M1061 1413h129l-524 -686l333 -727h-133l-282 647l-486 -647h-133l563 727l-305 686h127l260 -606z" glyph-name="X" horiz-adv-x="1056" unicode="X"/><glyph d="M1120 1413h127l-602 -809l-96 -604h-109l95 604l-347 809h129l291 -702z" glyph-name="Y" horiz-adv-x="1081" unicode="Y"/><glyph d="M262 1413h916l-13 -76l-999 -1233h815l-16 -104h-949l15 94l983 1215h-768z" glyph-name="Z" horiz-adv-x="1062" unicode="Z"/><glyph d="M301 1556h320l-15 -90h-211l-262 -1646h213l-14 -92h-320z" glyph-name="bracketleft" horiz-adv-x="495" unicode="["/><glyph d="M340 1628l569 -1608l-94 -40l-567 1607z" glyph-name="backslash" horiz-adv-x="993" unicode="\"/><glyph d="M301 1556h320l-289 -1828h-320l15 92h211l262 1646h-213z" glyph-name="bracketright" horiz-adv-x="495" unicode="]"/><glyph d="M670 1413l368 -799h-102l-318 697l-317 -697h-102l368 799h103z" glyph-name="asciicircum" horiz-adv-x="1320" unicode="^"/><glyph d="M1024 -51h-1024v100h1024v-100z" glyph-name="underscore" horiz-adv-x="1024" unicode="_"/><glyph d="M430 1413l141 -297h-92l-182 297h133z" glyph-name="grave" horiz-adv-x="555" unicode="`"/><glyph d="M913 561q0 137 -74 223q-75 86 -210 86q-184 0 -298 -145t-114 -336q0 -137 75 -223t210 -86q184 0 298 145q113 146 113 336zM844 63q0 40 6 82l4 23h-2q-147 -190 -365 -191q-184 0 -284 109t-101 291q0 244 152 417t375 173t319 -189h2l27 172h108l-127 -794 q-6 -37 -6 -88l6 -68h-108q-6 23 -6 63z" glyph-name="a" horiz-adv-x="1132" unicode="a"/><glyph d="M983 563q0 139 -75 224t-212 85q-184 0 -298 -145t-113 -336q-1 -137 75 -224t211 -87q184 0 298 146t114 337zM566 -20q-230 0 -316 188h-2q-16 -99 -51 -168h-107q33 61 47 147l176 1106q18 99 52 160h104q-33 -59 -47 -145l-78 -488h2q158 188 371 189q176 0 277 -109 t102 -285q0 -247 -150 -421t-380 -174z" glyph-name="b" horiz-adv-x="1142" unicode="b"/><glyph d="M631 872q-178 0 -296 -147t-118 -328q0 -139 77 -228t214 -89q86 0 180 34t154 91l39 -80q-154 -145 -400 -145q-170 0 -273 116t-104 289q0 236 155 409t388 173q101 0 197 -42t139 -122l-78 -70q-96 139 -274 139z" glyph-name="c" horiz-adv-x="933" unicode="c"/><glyph d="M915 563q0 137 -75 223q-76 86 -211 86q-184 0 -298 -145t-114 -336q0 -139 75 -225t210 -86q184 0 299 146q114 147 114 337zM842 62q0 42 14 112q-147 -195 -369 -194q-184 0 -284 108t-101 291q0 242 152 416t375 174t319 -189h2l78 488q6 45 6 78l-6 67h107 q6 -23 6 -67t-8 -93l-177 -1110q-4 -27 -4 -75l6 -68h-108q-8 20 -8 62z" glyph-name="d" horiz-adv-x="1142" unicode="d"/><glyph d="M244 543q298 -35 468 41q116 51 115 151q0 57 -59 99t-152 40q-150 0 -248 -105t-124 -226zM219 373q0 -139 72 -218t215 -79t255 75q52 31 62 42l8 6l37 -76q-89 -89 -258 -128q-70 -15 -143 -15q-168 0 -264 110t-97 293q0 250 161 417t372 167q139 0 218 -70t79 -166 q0 -121 -130 -207t-386 -86q-89 1 -195 13q-6 -41 -6 -78z" glyph-name="e" horiz-adv-x="995" unicode="e"/><glyph d="M612 1337q-128 0 -176 -144q-26 -79 -45 -245h232l-17 -100h-231l-170 -1077q-19 -110 -51 -160h-107q33 61 47 147l174 1090h-137l16 100h138q35 225 71 309q78 176 252 177q100 0 127 -21l-24 -96q-51 20 -99 20z" glyph-name="f" horiz-adv-x="477" unicode="f"/><glyph d="M915 569q0 137 -75 219q-76 82 -213 82q-184 0 -297 -140t-113 -329q0 -139 76 -220t213 -81q186 0 298 140t111 329zM430 -309q246 0 348 214q53 111 80 288h-2q-141 -195 -371 -195q-172 0 -276 110t-105 281q0 238 151 408t384 170q102 0 186 -48t123 -141h2 q12 110 54 172h106q-33 -61 -47 -147l-96 -598q-23 -141 -57 -242q-127 -373 -486 -373q-121 0 -224 38t-163 108l76 84q47 -57 139 -93t178 -36z" glyph-name="g" horiz-adv-x="1132" unicode="g"/><glyph d="M668 969q272 0 272 -269q0 -43 -12 -133l-68 -424q-4 -27 -4 -75l6 -68h-108q-6 23 -6 67t8 91l63 405q12 78 12 115q0 195 -184 194q-149 0 -237 -118t-113 -283l-76 -471h-106l200 1268q6 47 7 78l-7 67h107q6 -23 6 -67t-8 -93l-74 -462h2q53 80 139 129t181 49z" glyph-name="h" horiz-adv-x="1034" unicode="h"/><glyph d="M131 67q0 44 8 91l103 649q6 47 6 78l-6 67h106q6 -22 6 -66t-8 -93l-102 -650q-4 -27 -4 -75l6 -68h-109q-6 23 -6 67zM459 1298q0 -36 -31 -68t-68 -32t-57 22t-20 58t31 68q32 32 67 32t57 -22t21 -58z" glyph-name="i" horiz-adv-x="421" unicode="i"/><glyph d="M360 1198q-77 0 -77 78q0 37 30 69q31 31 68 31t57 -21t21 -57q0 -36 -31 -68t-68 -32zM-90 -313q83 0 128 58q44 58 60 157q4 25 13 80l129 811q19 106 43 141l8 18h106q-33 -61 -47 -147l-131 -823q-59 -392 -309 -392q-72 0 -98 17l14 96q35 -16 84 -16z" glyph-name="j" horiz-adv-x="421" unicode="j"/><glyph d="M428 1346q0 -44 -8 -93l-115 -725l502 424h133l-432 -362l340 -590h-133l-291 520l-139 -117l-64 -403h-106l200 1268q6 47 7 78l-7 67h107q6 -23 6 -67z" glyph-name="k" horiz-adv-x="882" unicode="k"/><glyph d="M131 67q0 44 8 91l176 1110q6 47 7 78l-7 67h107q6 -23 6 -67t-8 -93l-176 -1110q-4 -27 -4 -75l6 -68h-109q-6 23 -6 67z" glyph-name="l" horiz-adv-x="421" unicode="l"/><glyph d="M1454 696q0 -53 -10 -118l-70 -435q-4 -27 -4 -75l6 -68h-108q-6 23 -6 67t8 91l67 420q8 47 9 104q0 188 -158 188q-133 0 -219 -114t-109 -260l-78 -496h-108l92 578q10 57 10 104q0 188 -158 188q-133 0 -219 -114t-108 -260l-80 -496h-107l134 834q2 18 2 49l-7 67 h107q6 -23 6 -62t-10 -100h2q45 76 129 127t172 52q205 0 240 -195q55 86 139 140t180 55q256 0 256 -271z" glyph-name="m" horiz-adv-x="1544" unicode="m"/><glyph d="M657 967q270 0 271 -273q0 -45 -13 -131l-67 -420q-4 -27 -4 -75l6 -68h-109q-6 23 -6 67t8 91l64 395q12 82 12 125q0 98 -45 145t-141 47q-150 0 -235 -114t-109 -275l-78 -481h-107l129 805q6 47 7 78l-7 67h107q6 -24 6 -60t-10 -102h2q53 80 139 130t180 49z" glyph-name="n" horiz-adv-x="1011" unicode="n"/><glyph d="M944 555q0 139 -81 227t-220 88q-184 0 -305 -143t-121 -330q0 -139 81 -228t220 -89q182 0 304 144t122 331zM1055 559q0 -239 -159 -409t-394 -170q-178 0 -289 112t-111 291q0 238 160 411t395 173q176 0 287 -115t111 -293z" glyph-name="o" horiz-adv-x="1101" unicode="o"/><glyph d="M983 561q0 139 -75 224t-212 85q-184 0 -298 -145t-113 -336q1 -139 75 -224t211 -85q184 0 298 146t114 335zM354 885q0 -42 -10 -107h2q158 188 371 189q176 0 277 -108t102 -286q0 -247 -150 -421t-380 -174t-316 190h-2l-66 -414q-4 -27 -4 -76l6 -67h-108 q-6 23 -6 67t8 91l164 1038q6 47 6 76l-6 67h106q6 -23 6 -65z" glyph-name="p" horiz-adv-x="1142" unicode="p"/><glyph d="M913 561q0 137 -74 223q-75 86 -210 86q-184 0 -298 -145t-114 -336q0 -137 75 -223t210 -86q184 0 298 145q113 146 113 336zM629 967q223 0 319 -189h2q16 105 54 172h106q-35 -66 -47 -147l-164 -1032q-16 -90 -51 -160h-107q33 61 47 147l66 410h-2 q-147 -190 -365 -191q-184 0 -284 109t-101 291q0 244 152 417t375 173z" glyph-name="q" horiz-adv-x="1132" unicode="q"/><glyph d="M566 862q-122 0 -194 -123q-55 -94 -79 -227l-82 -512h-107l129 807q6 45 7 76l-7 67h107q6 -23 6 -69t-10 -101q84 188 258 189q53 0 98 -17l-26 -106h-9q-29 16 -91 16z" glyph-name="r" horiz-adv-x="595" unicode="r"/><glyph d="M115 229q69 -149 253 -149q88 0 160 55t72 151t-150 154q-62 24 -124 50t-108 72q-44 46 -44 112q0 133 94 213t228 80q170 -1 266 -140l-78 -63q-66 111 -203 110q-82 0 -141 -47t-59 -127q-1 -55 67 -96q68 -42 148 -66t148 -82t67 -147q0 -149 -108 -239t-259 -90 q-104 0 -188 47t-123 139z" glyph-name="s" horiz-adv-x="774" unicode="s"/><glyph d="M281 209q0 -129 104 -129q55 0 104 26l-6 -96q-53 -30 -141 -30t-131 50t-43 135q0 152 47 397t53 286h-137l14 100h140l24 156q6 47 6 78l-6 67h107q6 -23 6 -67t-8 -92l-23 -142h232l-17 -100h-231l-76 -490q-18 -111 -18 -149z" glyph-name="t" horiz-adv-x="555" unicode="t"/><glyph d="M250 262q0 -186 188 -186q141 0 227 106q85 106 109 258l80 512h109l-129 -809q-4 -27 -5 -75l7 -68h-109q-6 23 -6 70t6 77q-119 -168 -319 -167q-264 0 -265 268q0 47 13 137l67 422q6 45 6 78l-6 67h107q6 -22 6 -64t-8 -91l-68 -428q-10 -57 -10 -107z" glyph-name="u" horiz-adv-x="1007" unicode="u"/><glyph d="M856 950h113l-537 -950h-82l-233 950h112l189 -790z" glyph-name="v" horiz-adv-x="874" unicode="v"/><glyph d="M1386 950h113l-457 -950h-92l-157 791l-410 -791h-90l-156 950h111l121 -788l407 790h82l158 -790z" glyph-name="w" horiz-adv-x="1429" unicode="w"/><glyph d="M825 950h119l-401 -448l295 -502h-123l-246 432l-381 -432h-123l455 502l-260 448h119l213 -379z" glyph-name="x" horiz-adv-x="892" unicode="x"/><glyph d="M92 -399q-80 0 -119 30l37 103q41 -20 92 -21q90 0 144 113l92 188l-221 936h112l183 -821l444 821h113l-647 -1175q-92 -174 -230 -174z" glyph-name="y" horiz-adv-x="864" unicode="y"/><glyph d="M186 946h693l-15 -78l-702 -768h612l-16 -100h-752l12 80l705 766h-553z" glyph-name="z" horiz-adv-x="854" unicode="z"/><glyph d="M293 471q0 -79 -41 -273t-41 -256t9 -78q8 -16 18 -26q18 -18 72 -18h44l-14 -92h-31q-102 0 -151 41t-49 138t37 283q38 186 38 279q0 119 -104 119l16 110q127 0 156 172l59 377q29 174 90 242q62 67 230 67l-15 -90q-94 0 -132 -24t-52 -113l-67 -428 q-19 -111 -53 -170t-122 -88v-2q57 -20 80 -55t23 -115z" glyph-name="braceleft" horiz-adv-x="495" unicode="{"/><glyph d="M260 1638v-1843h-92v1843h92z" glyph-name="bar" horiz-adv-x="512" unicode="|"/><glyph d="M403 1376q0 43 -24 65q-25 21 -49 23t-72 2l14 90h31q104 0 154 -40q49 -42 49 -138t-39 -282t-39 -281q1 -117 107 -117l-19 -110q-127 0 -156 -172l-59 -379q-29 -174 -90 -242t-227 -67l14 92q92 0 131 24t51 111l70 430q16 111 50 169t122 87v2q-55 20 -78 55 q-22 35 -22 116q0 82 40 274t41 288z" glyph-name="braceright" horiz-adv-x="495" unicode="}"/><glyph d="M840 440q-80 0 -234 77t-213 77q-106 0 -194 -154l-76 52q111 205 276 204q84 0 236 -78q150 -75 209 -75q110 -1 194 153l78 -51q-115 -205 -276 -205z" glyph-name="asciitilde" horiz-adv-x="1320" unicode="~"/><glyph glyph-name="uni00A0" horiz-adv-x="397" unicode=" "/><glyph d="M291 612h92l-162 -1075h-110zM387 971q41 -1 63 -23t23 -63q0 -41 -33 -77t-74 -36q-42 0 -64 23t-22 65t33 76q33 35 74 35z" glyph-name="exclamdown" horiz-adv-x="565" unicode="¡"/><glyph d="M295 553q1 -123 65 -209t181 -104l123 780q-158 -25 -264 -164t-105 -303zM1075 977l-69 -80q-37 55 -107 89t-141 38l-125 -791q72 2 159 38t138 87l39 -82q-55 -55 -164 -99t-189 -44l-30 -194h-92l30 198q-156 20 -246 130t-92 270q0 215 140 384t354 195l31 195h92 l-31 -191q82 -4 173 -43t130 -100z" glyph-name="cent" unicode="¢"/><glyph d="M520 995q0 -76 53 -317h301l-14 -96h-276l2 -45q6 -227 -144 -431h539l-16 -106h-881l18 106h226q154 201 145 429v47h-237l16 96h209q-53 186 -53 321q0 182 115 309q116 126 302 126q231 -1 297 -187l-86 -59q-47 150 -227 149q-143 0 -216 -97t-73 -245z" glyph-name="sterling" unicode="£"/><glyph d="M346 539v-39q-5 -230 111 -346q68 -68 174 -68q193 0 321 164l62 -64q-61 -96 -172 -153t-225 -57q-115 0 -195 50t-121 135q-78 162 -72 378h-137l14 98h132q8 78 24 156h-131l16 100h138q63 217 207 379t348 162q122 0 200 -42t131 -145l-77 -69q-88 156 -271 155 q-106 1 -196 -73q-154 -126 -224 -367h564l-15 -100h-573q-16 -78 -25 -156h574l-17 -98h-565z" glyph-name="currency" unicode="¤"/><glyph d="M1110 1413h129l-442 -612h245l-16 -99h-297l-65 -92l-13 -75h348l-16 -99h-346l-70 -436h-116l69 436h-346l14 99h349l12 75l-37 92h-297l16 99h244l-246 612h127l269 -692z" glyph-name="yen" unicode="¥"/><glyph d="M260 635v-635h-92v635h92zM260 1638v-634h-92v634h92z" glyph-name="brokenbar" horiz-adv-x="512" unicode="¦"/><glyph d="M844 553q0 48 -18 75q-18 28 -26 42q-9 14 -33 30t-34 24t-42 27q-32 18 -71 36t-42 20q-98 -33 -160 -112t-64 -168q0 -89 58 -139q22 -20 34 -30t53 -33t79 -41q39 -17 43 -20q99 33 161 111t62 178zM752 1343q-106 0 -179 -68q-71 -69 -71 -183t157 -196 q66 -34 133 -71q66 -37 112 -101t46 -168q0 -102 -72 -195t-182 -140q146 -94 146 -255q0 -160 -120 -268t-272 -108q-299 0 -339 258l92 39q18 -98 86 -149q69 -51 179 -51q110 1 188 73t77 189q0 74 -50 128t-122 89q-71 35 -143 72q-72 36 -122 102t-50 170t77 202 q77 99 189 138q-55 39 -88 100t-33 127q0 154 108 255t267 102q262 -1 311 -228l-86 -49q-43 186 -239 186z" glyph-name="section" unicode="§"/><glyph d="M290 1171q-76 -1 -75 81q0 38 30 71q29 33 67 33q76 0 77 -79q0 -38 -31 -72q-32 -34 -68 -34zM578 1356q75 0 75 -79q1 -38 -29 -72t-67 -34t-56 22q-19 21 -19 59t29 71q30 33 67 33z" glyph-name="dieresis" horiz-adv-x="555" unicode="¨"/><glyph d="M389 706q0 186 121 310q120 123 312 123t296 -121l-57 -74q-35 43 -99 76t-149 33q-133 0 -225 -92t-92 -251t89 -251t237 -92t247 102l59 -63q-109 -131 -321 -132q-176 0 -297 123t-121 309zM1419 707q0 262 -189 451q-190 190 -452 190t-451 -190t-189 -451t188 -451 q190 -190 452 -190t452 189q189 190 189 452zM1507 707q0 -305 -212 -517t-517 -213q-305 0 -517 212q-212 211 -212 517t212 518t517 212t517 -212t212 -517z" glyph-name="copyright" horiz-adv-x="1638" unicode="©"/><glyph d="M456 653q-145 0 -193 -26q-22 -12 -39 -38t-17 -61q0 -84 105 -84t175 80l21 129h-52zM396 969q108 -1 166 -45t59 -122q-1 -119 -27 -253q-26 -135 -33 -176h-96l10 73q-88 -84 -203 -84q-70 0 -120 41t-52 97q-1 139 96 181t324 42q4 29 4 45q0 59 -38 89t-87 30 q-49 -1 -101 -15t-79 -36l-31 63q100 70 208 70z" glyph-name="ordfeminine" horiz-adv-x="665" unicode="ª"/><glyph d="M469 856l63 -59l-284 -322l184 -323l-84 -58l-219 381zM750 856l63 -59l-285 -322l185 -323l-84 -58l-219 381z" glyph-name="guillemotleft" horiz-adv-x="864" unicode="«"/><glyph d="M1137 911v-563h-93v471h-942v92h1035z" glyph-name="logicalnot" horiz-adv-x="1325" unicode="¬"/><glyph d="M98 621h432l-14 -103h-434z" glyph-name="uni00AD" horiz-adv-x="520" unicode="­"/><glyph d="M750 735q188 0 188 151t-188 150h-123v-301h123zM627 647v-358h-101v835h238q129 0 206 -61t77 -171q-1 -110 -59 -164q-58 -55 -136 -71l238 -368h-127l-220 358h-116zM1419 707q0 262 -189 451q-190 190 -452 190t-451 -190t-189 -451t188 -451q190 -190 452 -190 t452 189q189 190 189 452zM1507 707q0 -305 -212 -517t-517 -213q-305 0 -517 212q-212 211 -212 517t212 518t517 212t517 -212t212 -517z" glyph-name="registered" horiz-adv-x="1638" unicode="®"/><glyph d="M266 1249h436l-12 -82h-436z" glyph-name="macron" horiz-adv-x="555" unicode="¯"/><glyph d="M578 1208q0 86 -60 148t-149 61q-91 0 -151 -61q-60 -62 -60 -148t60 -148t150 -62t150 62t60 148zM670 1208q0 -129 -88 -213t-213 -84t-214 84t-89 213t89 213t214 84t213 -84t88 -213z" glyph-name="degree" horiz-adv-x="819" unicode="°"/><glyph d="M1137 311v-92h-1035v92h1035zM1137 926v-92h-471v-431h-93v431h-471v92h471v430h93v-430h471z" glyph-name="plusminus" horiz-adv-x="1320" unicode="±"/><glyph d="M784 1318q0 -83 -39 -154q-39 -70 -77 -108t-79 -76q-42 -38 -48 -44l-277 -250h434l-14 -88h-553l12 80l379 348q51 47 80 77t58 83q30 52 30 110t-48 94t-118 35q-162 0 -213 -174l-86 6q33 115 117 185t192 70t180 -56q70 -55 70 -138z" glyph-name="uni00B2" horiz-adv-x="704" unicode="²"/><glyph d="M559 1509q91 0 157 -52t66 -138t-54 -152t-134 -94q63 -18 101 -69t38 -117q0 -129 -100 -214t-217 -85t-185 55t-69 158l88 18q4 -69 49 -107t126 -38t149 57t67 146q0 147 -209 151l14 84q102 4 174 48q71 44 70 140q0 58 -43 92t-102 33q-143 0 -197 -135l-72 27 q37 86 114 139t169 53z" glyph-name="uni00B3" horiz-adv-x="704" unicode="³"/><glyph d="M487 1413h131l-274 -297h-94z" glyph-name="acute" horiz-adv-x="555" unicode="´"/><glyph d="M264 283q0 -205 193 -205q139 0 221 93t104 239l84 536h109l-152 -948h-106l22 139q-51 -69 -136 -115q-147 -80 -295 -22q-65 25 -85 74l-73 -463h-107l211 1335h108l-88 -547q-10 -66 -10 -116z" glyph-name="uni00B5" horiz-adv-x="1019" unicode="µ"/><glyph d="M723 1413h444l-14 -96h-109l-270 -1706h-102l270 1706h-172l-270 -1706h-103l158 1001q-150 0 -239 82t-89 232q0 227 132 357q133 130 364 130z" glyph-name="paragraph" unicode="¶"/><glyph d="M430 600q0 -41 -34 -75q-34 -33 -74 -33t-64 22t-22 64q0 40 33 74q34 34 74 34t64 -22q23 -23 23 -64z" glyph-name="periodcentered" horiz-adv-x="565" unicode="·"/><glyph d="M311 0h95l-218 -297h-133z" glyph-name="cedilla" horiz-adv-x="595" unicode="¸"/><glyph d="M403 1489h263l-142 -891h-90l127 811h-170z" glyph-name="uni00B9" horiz-adv-x="704" unicode="¹"/><glyph d="M629 702q0 177 -175 177q-87 0 -152 -75q-64 -75 -64 -164t44 -136t130 -47t151 79q66 79 66 166zM729 702q0 -126 -98 -232t-246 -108q-109 0 -179 71t-69 197t99 232t245 107q109 -1 179 -71t69 -196z" glyph-name="ordmasculine" horiz-adv-x="745" unicode="º"/><glyph d="M295 856l219 -381l-340 -381l-63 60l284 321l-184 324zM575 856l222 -381l-342 -381l-64 60l285 321l-184 324z" glyph-name="guillemotright" horiz-adv-x="864" unicode="»"/><glyph d="M1292 276l76 476l-403 -476h327zM319 1413h261l-127 -811h-93l117 731h-172zM1288 1444l70 -47l-1067 -1444l-70 49zM1382 276h129l-14 -88h-129l-29 -188h-90l29 188h-447l11 54l573 671h70z" glyph-name="onequarter" horiz-adv-x="1695" unicode="¼"/><glyph d="M319 1413h261l-136 -852h-90l123 772h-172zM1288 1444l70 -47l-1067 -1444l-70 49zM1366 883q94 -1 158 -59t65 -138q0 -144 -132 -286q-102 -108 -216 -200q-115 -92 -137 -110h424l-15 -90h-542l-6 63l338 297q57 51 89 84q32 32 66 92t35 122q0 62 -43 100 q-43 39 -111 39q-127 0 -215 -154l-65 43q127 197 307 197z" glyph-name="onehalf" horiz-adv-x="1697" unicode="½"/><glyph d="M1292 276l76 476l-403 -476h327zM250 819q8 -145 174 -145q82 0 150 57t67 146q0 145 -209 149l14 86q102 4 174 48q71 44 70 140q0 58 -43 92t-102 33q-143 0 -197 -135l-72 27q37 86 114 139t169 53q91 0 157 -52t66 -138t-53 -152t-135 -96q63 -16 101 -67t38 -119 q0 -127 -100 -212t-218 -85t-185 55t-68 156zM1366 1444l70 -47l-1065 -1444l-70 49zM1382 276h129l-14 -88h-129l-29 -188h-90l29 188h-447l11 54l573 671h70z" glyph-name="threequarters" horiz-adv-x="1695" unicode="¾"/><glyph d="M340 -483q-127 -1 -211 71t-84 197q0 90 38 166t85 119q47 44 119 108t111 114t55 113q16 64 26 130t13 77h92l-7 -63q-15 -133 -38 -196t-56 -105q-37 -51 -128 -125t-143 -147t-52 -167t57 -143t145 -49t162 46q72 46 113 124l74 -53q-125 -217 -371 -217zM590 971 q86 0 86 -87q0 -42 -33 -77t-74 -35t-65 23t-23 65q0 42 34 76q34 35 75 35z" glyph-name="questiondown" horiz-adv-x="923" unicode="¿"/><glyph d="M377 530h561l-168 713zM834 1419l356 -1419h-127l-100 424h-644l-235 -424h-119l807 1419h62zM727 1833l141 -301h-92l-182 301h133z" glyph-name="Agrave" horiz-adv-x="1251" unicode="À"/><glyph d="M377 530h561l-168 713zM834 1419l356 -1419h-127l-100 424h-644l-235 -424h-119l807 1419h62zM1010 1833h133l-277 -301h-92z" glyph-name="Aacute" horiz-adv-x="1251" unicode="Á"/><glyph d="M377 530h561l-168 713zM834 1419l356 -1419h-127l-100 424h-644l-235 -424h-119l807 1419h62zM899 1833l141 -301h-92l-94 213l-160 -213h-92l236 301h61z" glyph-name="Acircumflex" horiz-adv-x="1251" unicode="Â"/><glyph d="M377 530h561l-168 713zM834 1419l356 -1419h-127l-100 424h-644l-235 -424h-119l807 1419h62zM954 1583q-62 0 -132 49t-104 49q-34 -1 -61 -27t-36 -61l-64 21q17 66 67 114q103 97 242 -1q70 -48 105 -48q35 1 61 27t35 61l66 -22q-17 -66 -67 -114t-112 -48z" glyph-name="Atilde" horiz-adv-x="1251" unicode="Ã"/><glyph d="M377 530h561l-168 713zM834 1419l356 -1419h-127l-100 424h-644l-235 -424h-119l807 1419h62zM797 1685q0 -38 -30 -72t-67 -34t-57 22q-20 21 -20 59t30 72q31 34 68 34t57 -22q20 -21 19 -59zM966 1579q-76 -1 -77 81q0 38 30 72q29 34 67 34t58 -22q20 -21 19 -59 q0 -38 -30 -72q-29 -34 -67 -34z" glyph-name="Adieresis" horiz-adv-x="1251" unicode="Ä"/><glyph d="M377 530h561l-168 713zM950 1707q0 44 -24 71q-25 26 -68 26t-79 -40t-36 -84t25 -70q26 -26 68 -27q42 0 78 40t36 84zM834 1419l356 -1419h-127l-100 424h-644l-235 -424h-119l807 1419h62zM1028 1714q0 -76 -63 -142t-139 -65q-76 0 -118 45t-42 120q0 74 63 140 t139 66t118 -44t42 -120z" glyph-name="Aring" horiz-adv-x="1251" unicode="Å"/><glyph d="M858 535l123 778h-2l-563 -778h442zM948 1413h738l-17 -104h-579l-78 -496h542l-16 -104h-543l-96 -605h592l-16 -104h-703l70 428h-504l-309 -428h-123z" glyph-name="AE" horiz-adv-x="1624" unicode="Æ"/><glyph d="M936 1331q-293 0 -484 -224t-192 -523q0 -224 129 -362t350 -138q270 0 461 186l62 -73q-227 -219 -533 -222l-174 -282h-131l211 287q-227 27 -361 186q-133 160 -133 395t102 433q101 198 289 319t420 121q289 0 457 -211l-80 -80q-53 92 -165 140t-228 48z" glyph-name="Ccedilla" horiz-adv-x="1339" unicode="Ç"/><glyph d="M348 1413h742l-17 -102h-631l-80 -506h596l-16 -105h-596l-96 -596h647l-16 -104h-756zM672 1833l141 -301h-92l-182 301h133z" glyph-name="Egrave" horiz-adv-x="1021" unicode="È"/><glyph d="M348 1413h742l-17 -102h-631l-80 -506h596l-16 -105h-596l-96 -596h647l-16 -104h-756zM866 1833h133l-276 -301h-94z" glyph-name="Eacute" horiz-adv-x="1021" unicode="É"/><glyph d="M348 1413h742l-17 -102h-631l-80 -506h596l-16 -105h-596l-96 -596h647l-16 -104h-756zM815 1833l143 -301h-94l-92 213l-162 -213h-92l236 301h61z" glyph-name="Ecircumflex" horiz-adv-x="1021" unicode="Ê"/><glyph d="M348 1413h742l-17 -102h-631l-80 -506h596l-16 -105h-596l-96 -596h647l-16 -104h-756zM617 1579q-76 -1 -76 81q0 38 29 72q30 34 67 34t57 -22q20 -21 21 -59q0 -38 -30 -72t-68 -34zM882 1579q-76 -1 -77 81q0 38 30 72q29 34 67 34t58 -22q20 -21 19 -59 q0 -38 -30 -72q-29 -34 -67 -34z" glyph-name="Edieresis" horiz-adv-x="1021" unicode="Ë"/><glyph d="M348 1413h111l-226 -1413h-108zM338 1833l141 -301h-94l-180 301h133z" glyph-name="Igrave" horiz-adv-x="444" unicode="Ì"/><glyph d="M348 1413h111l-226 -1413h-108zM602 1833h133l-276 -301h-94z" glyph-name="Iacute" horiz-adv-x="444" unicode="Í"/><glyph d="M348 1413h111l-226 -1413h-108zM500 1833l141 -301h-92l-94 213l-160 -213h-92l235 301h62z" glyph-name="Icircumflex" horiz-adv-x="444" unicode="Î"/><glyph d="M348 1413h111l-226 -1413h-108zM323 1776q76 0 76 -81q1 -38 -29 -72t-67 -34t-57 22q-20 21 -20 59t29 72q30 34 68 34zM568 1589q-76 -1 -76 81q0 38 29 72q30 34 68 34q77 0 77 -81q0 -38 -30 -72t-68 -34z" glyph-name="Idieresis" horiz-adv-x="444" unicode="Ï"/><glyph d="M1210 815q0 229 -141 361t-373 133h-254l-82 -510h396l-17 -105h-395l-94 -590h256q295 0 500 208q204 208 204 503zM1327 827q0 -347 -241 -587t-586 -240h-375l108 694h-137l17 105h137l98 614h375q266 0 435 -161t169 -425z" glyph-name="Eth" horiz-adv-x="1339" unicode="Ð"/><glyph d="M1350 1413h108l-223 -1413h-98l-707 1233l-197 -1233h-108l223 1413h109l700 -1210zM1056 1583q-60 0 -131 49t-106 49q-35 -1 -61 -27t-35 -61l-66 21q17 66 67 114q103 97 244 -1q72 -48 106 -48q34 1 60 27t35 61l64 -22q-17 -66 -67 -114t-110 -48z" glyph-name="Ntilde" horiz-adv-x="1456" unicode="Ñ"/><glyph d="M1427 845q0 207 -132 347t-340 139q-207 0 -367 -106q-160 -105 -245 -277t-85 -378t132 -346t340 -140t368 106t244 277t85 378zM1544 844q0 -356 -233 -612t-584 -257q-262 0 -424 164t-162 426q1 357 233 613t584 256q260 0 423 -164t163 -426zM879 1833l143 -301h-94 l-180 301h131z" glyph-name="Ograve" horiz-adv-x="1558" unicode="Ò"/><glyph d="M1427 845q0 207 -132 347t-340 139q-207 0 -367 -106q-160 -105 -245 -277t-85 -378t132 -346t340 -140t368 106t244 277t85 378zM1544 844q0 -356 -233 -612t-584 -257q-262 0 -424 164t-162 426q1 357 233 613t584 256q260 0 423 -164t163 -426zM1163 1833h133 l-278 -301h-92z" glyph-name="Oacute" horiz-adv-x="1558" unicode="Ó"/><glyph d="M1427 845q0 207 -132 347t-340 139q-207 0 -367 -106q-160 -105 -245 -277t-85 -378t132 -346t340 -140t368 106t244 277t85 378zM1544 844q0 -356 -233 -612t-584 -257q-262 0 -424 164t-162 426q1 357 233 613t584 256q260 0 423 -164t163 -426zM1051 1833l143 -301 h-94l-92 213l-162 -213h-92l237 301h60z" glyph-name="Ocircumflex" horiz-adv-x="1558" unicode="Ô"/><glyph d="M1427 845q0 207 -132 347t-340 139q-207 0 -367 -106q-160 -105 -245 -277t-85 -378t132 -346t340 -140t368 106t244 277t85 378zM1544 844q0 -356 -233 -612t-584 -257q-262 0 -424 164t-162 426q1 357 233 613t584 256q260 0 423 -164t163 -426zM1108 1583 q-60 0 -132 49q-71 49 -106 49q-36 -1 -62 -27t-34 -61l-65 21q16 66 66 114q102 97 244 -1q71 -48 105 -48q34 1 61 27q26 26 36 61l63 -22q-16 -66 -66 -114t-110 -48z" glyph-name="Otilde" horiz-adv-x="1558" unicode="Õ"/><glyph d="M1427 845q0 207 -132 347t-340 139q-207 0 -367 -106q-160 -105 -245 -277t-85 -378t132 -346t340 -140t368 106t244 277t85 378zM1544 844q0 -356 -233 -612t-584 -257q-262 0 -424 164t-162 426q1 357 233 613t584 256q260 0 423 -164t163 -426zM950 1685 q0 -38 -30 -72t-67 -34q-38 0 -57 22q-20 21 -20 59t30 72t68 34t57 -22q19 -21 19 -59zM1214 1685q0 -38 -30 -72t-66 -34q-37 0 -57 22q-21 21 -21 59t31 72t68 34t56 -22q19 -21 19 -59z" glyph-name="Odieresis" horiz-adv-x="1558" unicode="Ö"/><glyph d="M686 705l430 -435l-61 -65l-437 434l-434 -434l-61 65l430 435l-430 432l61 65l434 -434l437 434l61 -65z" glyph-name="multiply" horiz-adv-x="1320" unicode="×"/><glyph d="M1427 816q0 178 -69 296l-973 -883q137 -145 345 -145t368 106t244 277t85 349zM958 1331q-212 0 -370 -106q-160 -105 -245 -277t-85 -351t74 -296l973 883q-135 147 -347 147zM1544 844q0 -356 -233 -612t-584 -257q-266 0 -432 172l-186 -167l-56 67l187 170 q-98 145 -99 348q1 357 233 613t584 256q266 0 433 -174l192 174l55 -68l-192 -174q98 -150 98 -348z" glyph-name="Oslash" horiz-adv-x="1558" unicode="Ø"/><glyph d="M182 360q0 82 23 209l133 844h111l-130 -813q-23 -154 -22 -211q0 -145 84 -226t215 -81t215 41q196 96 256 477l129 813h109l-134 -844q-38 -259 -167 -426q-129 -168 -410 -168q-184 -1 -298 101t-114 284zM793 1833l141 -301h-92l-183 301h134z" glyph-name="Ugrave" horiz-adv-x="1290" unicode="Ù"/><glyph d="M182 360q0 82 23 209l133 844h111l-130 -813q-23 -154 -22 -211q0 -145 84 -226t215 -81t215 41q196 96 256 477l129 813h109l-134 -844q-38 -259 -167 -426q-129 -168 -410 -168q-184 -1 -298 101t-114 284zM983 1833h133l-276 -301h-92z" glyph-name="Uacute" horiz-adv-x="1290" unicode="Ú"/><glyph d="M182 360q0 82 23 209l133 844h111l-130 -813q-23 -154 -22 -211q0 -145 84 -226t215 -81t215 41q196 96 256 477l129 813h109l-134 -844q-38 -259 -167 -426q-129 -168 -410 -168q-184 -1 -298 101t-114 284zM920 1833l141 -301h-94l-93 213l-159 -213h-94l237 301h62z " glyph-name="Ucircumflex" horiz-adv-x="1290" unicode="Û"/><glyph d="M182 360q0 82 23 209l133 844h111l-130 -813q-23 -154 -22 -211q0 -145 84 -226t215 -81t215 41q196 96 256 477l129 813h109l-134 -844q-38 -259 -167 -426q-129 -168 -410 -168q-184 -1 -298 101t-114 284zM817 1685q0 -38 -30 -72q-29 -34 -67 -34t-57 22 q-19 21 -19 59t29 72t67 34t58 -22q20 -21 19 -59zM1083 1685q1 -38 -29 -72t-68 -34t-57 22q-19 21 -19 59t29 72q30 34 67 34t57 -22q20 -21 20 -59z" glyph-name="Udieresis" horiz-adv-x="1290" unicode="Ü"/><glyph d="M1120 1413h127l-602 -809l-96 -604h-109l95 604l-347 809h129l291 -702zM883 1833h133l-277 -301h-94z" glyph-name="Yacute" horiz-adv-x="1081" unicode="Ý"/><glyph d="M862 797q0 117 -79 170t-201 53h-187l-86 -549h187q158 0 262 85t104 241zM979 815q0 -211 -143 -330t-361 -118h-182l-60 -367h-108l223 1413h111l-47 -291q242 0 329 -20q238 -54 238 -287z" glyph-name="Thorn" horiz-adv-x="983" unicode="Þ"/><glyph d="M696 1434q104 0 183 -69q77 -69 77 -185t-61 -210q-61 -93 -180 -122v-2q125 -14 199 -114t75 -228q0 -225 -154 -371q-155 -145 -386 -145q-43 0 -99 10l27 104q49 -12 98 -12q174 0 288 118t114 292t-119 232q-98 48 -264 48l16 103q336 0 336 280q0 80 -56 127 t-132 47q-142 0 -204 -98q-49 -76 -71 -215l-199 -1253q-19 -110 -51 -160h-104q33 61 47 147l186 1174q45 308 146 405q100 97 288 97z" glyph-name="germandbls" horiz-adv-x="1042" unicode="ß"/><glyph d="M594 1413l141 -297h-92l-182 297h133zM913 561q0 137 -74 223q-75 86 -210 86q-184 0 -298 -145t-114 -336q0 -137 75 -223t210 -86q184 0 298 145q113 146 113 336zM844 63q0 40 6 82l4 23h-2q-147 -190 -365 -191q-184 0 -284 109t-101 291q0 244 152 417t375 173 t319 -189h2l27 172h108l-127 -794q-6 -37 -6 -88l6 -68h-108q-6 23 -6 63z" glyph-name="agrave" horiz-adv-x="1132" unicode="à"/><glyph d="M752 1413h131l-275 -297h-94zM913 561q0 137 -74 223q-75 86 -210 86q-184 0 -298 -145t-114 -336q0 -137 75 -223t210 -86q184 0 298 145q113 146 113 336zM844 63q0 40 6 82l4 23h-2q-147 -190 -365 -191q-184 0 -284 109t-101 291q0 244 152 417t375 173t319 -189h2 l27 172h108l-127 -794q-6 -37 -6 -88l6 -68h-108q-6 23 -6 63z" glyph-name="aacute" horiz-adv-x="1132" unicode="á"/><glyph d="M696 1413l142 -297h-93l-94 211l-159 -211h-95l238 297h61zM913 561q0 137 -74 223q-75 86 -210 86q-184 0 -298 -145t-114 -336q0 -137 75 -223t210 -86q184 0 298 145q113 146 113 336zM844 63q0 40 6 82l4 23h-2q-147 -190 -365 -191q-184 0 -284 109t-101 291 q0 244 152 417t375 173t319 -189h2l27 172h108l-127 -794q-6 -37 -6 -88l6 -68h-108q-6 23 -6 63z" glyph-name="acircumflex" horiz-adv-x="1132" unicode="â"/><glyph d="M750 1178q-62 0 -133 47t-105 47t-60 -25t-36 -59l-66 20q18 66 68 112t110 46q61 0 132 -47t105 -47q35 0 61 26t36 60l64 -21q-16 -67 -66 -113q-48 -46 -110 -46zM913 561q0 137 -74 223q-75 86 -210 86q-184 0 -298 -145t-114 -336q0 -137 75 -223t210 -86 q184 0 298 145q113 146 113 336zM844 63q0 40 6 82l4 23h-2q-147 -190 -365 -191q-184 0 -284 109t-101 291q0 244 152 417t375 173t319 -189h2l27 172h108l-127 -794q-6 -37 -6 -88l6 -68h-108q-6 23 -6 63z" glyph-name="atilde" horiz-adv-x="1132" unicode="ã"/><glyph d="M498 1171q-76 -1 -76 81q0 38 30 71t68 33q76 0 76 -79q0 -38 -30 -72t-68 -34zM784 1356q76 0 76 -79q0 -38 -30 -72t-66 -34t-56 22q-20 21 -20 59t30 71t66 33zM913 561q0 137 -74 223q-75 86 -210 86q-184 0 -298 -145t-114 -336q0 -137 75 -223t210 -86 q184 0 298 145q113 146 113 336zM844 63q0 40 6 82l4 23h-2q-147 -190 -365 -191q-184 0 -284 109t-101 291q0 244 152 417t375 173t319 -189h2l27 172h108l-127 -794q-6 -37 -6 -88l6 -68h-108q-6 23 -6 63z" glyph-name="adieresis" horiz-adv-x="1132" unicode="ä"/><glyph d="M721 1308q0 44 -25 70q-26 26 -68 27q-42 0 -78 -40t-36 -83t25 -70q25 -26 67 -26t79 39q36 39 36 83zM799 1316q1 -74 -63 -140t-139 -66t-118 45t-43 120t64 141t138 65q75 0 118 -45t43 -120zM913 561q0 137 -74 223q-75 86 -210 86q-184 0 -298 -145t-114 -336 q0 -137 75 -223t210 -86q184 0 298 145q113 146 113 336zM844 63q0 40 6 82l4 23h-2q-147 -190 -365 -191q-184 0 -284 109t-101 291q0 244 152 417t375 173t319 -189h2l27 172h108l-127 -794q-6 -37 -6 -88l6 -68h-108q-6 23 -6 63z" glyph-name="aring" horiz-adv-x="1132" unicode="å"/><glyph d="M836 543q298 -35 468 41q116 51 115 151q0 57 -59 99t-152 40q-150 0 -248 -105t-124 -226zM361 76q89 0 191 58t155 153q-13 69 -5 180q-94 12 -167 12q-371 0 -371 -243q0 -78 54 -119t143 -41zM811 373q0 -139 72 -218t215 -79t255 75q52 31 62 42l8 6l37 -76 q-89 -89 -258 -128q-70 -15 -143 -15q-244 0 -330 219q-96 -113 -192 -166q-95 -53 -213 -53t-194 64t-75 170q0 105 45 177t122 108q141 66 335 66q86 0 164 -10q12 70 12 113q0 98 -60 151q-59 53 -143 53t-164 -24t-135 -60l-28 82q156 96 321 97q102 -1 198 -53 t105 -150q160 200 416 202q127 0 206 -69q79 -70 79 -166q0 -121 -130 -207t-386 -86q-89 1 -195 13q-6 -39 -6 -78z" glyph-name="ae" horiz-adv-x="1587" unicode="æ"/><glyph d="M631 872q-178 0 -296 -147t-118 -328q0 -139 77 -228t214 -89q86 0 180 33t154 90l39 -80q-131 -121 -349 -143l-200 -277h-133l235 279q-152 14 -240 130t-90 271q0 229 156 407t387 177q99 0 197 -43t139 -121l-78 -70q-96 139 -274 139z" glyph-name="ccedilla" horiz-adv-x="933" unicode="ç"/><glyph d="M514 1413l141 -297h-92l-182 297h133zM244 543q298 -35 468 41q116 51 115 151q0 57 -59 99t-152 40q-150 0 -248 -105t-124 -226zM219 373q0 -139 72 -218t215 -79t255 75q52 31 62 42l8 6l37 -76q-89 -89 -258 -128q-70 -15 -143 -15q-168 0 -264 110t-97 293 q0 250 161 417t372 167q139 0 218 -70t79 -166q0 -121 -130 -207t-386 -86q-89 1 -195 13q-6 -41 -6 -78z" glyph-name="egrave" horiz-adv-x="995" unicode="è"/><glyph d="M674 1413h131l-275 -297h-94zM244 543q298 -35 468 41q116 51 115 151q0 57 -59 99t-152 40q-150 0 -248 -105t-124 -226zM219 373q0 -139 72 -218t215 -79t255 75q52 31 62 42l8 6l37 -76q-89 -89 -258 -128q-70 -15 -143 -15q-168 0 -264 110t-97 293q0 250 161 417 t372 167q139 0 218 -70t79 -166q0 -121 -130 -207t-386 -86q-89 1 -195 13q-6 -41 -6 -78z" glyph-name="eacute" horiz-adv-x="995" unicode="é"/><glyph d="M659 1413l142 -297h-92l-95 211l-159 -211h-95l238 297h61zM244 543q298 -35 468 41q116 51 115 151q0 57 -59 99t-152 40q-150 0 -248 -105t-124 -226zM219 373q0 -139 72 -218t215 -79t255 75q52 31 62 42l8 6l37 -76q-89 -89 -258 -128q-70 -15 -143 -15 q-168 0 -264 110t-97 293q0 250 161 417t372 167q139 0 218 -70t79 -166q0 -121 -130 -207t-386 -86q-89 1 -195 13q-6 -41 -6 -78z" glyph-name="ecircumflex" horiz-adv-x="995" unicode="ê"/><glyph d="M458 1171q-76 -1 -77 81q0 38 30 71q29 33 67 33q76 0 77 -79q0 -38 -30 -72q-29 -34 -67 -34zM744 1356q75 0 75 -79q1 -38 -29 -72t-67 -34t-56 22q-19 21 -19 59t29 71q30 33 67 33zM244 543q298 -35 468 41q116 51 115 151q0 57 -59 99t-152 40q-150 0 -248 -105 t-124 -226zM219 373q0 -139 72 -218t215 -79t255 75q52 31 62 42l8 6l37 -76q-89 -89 -258 -128q-70 -15 -143 -15q-168 0 -264 110t-97 293q0 250 161 417t372 167q139 0 218 -70t79 -166q0 -121 -130 -207t-386 -86q-89 1 -195 13q-6 -41 -6 -78z" glyph-name="edieresis" horiz-adv-x="995" unicode="ë"/><glyph d="M131 67q0 44 8 91l103 649q6 47 6 78l-6 67h106q6 -22 6 -66t-8 -93l-102 -650q-4 -27 -4 -75l6 -68h-109q-6 23 -6 67zM258 1413l141 -301h-92l-182 301h133z" glyph-name="igrave" horiz-adv-x="421" unicode="ì"/><glyph d="M131 67q0 44 8 91l103 649q6 47 6 78l-6 67h106q6 -22 6 -66t-8 -93l-102 -650q-4 -27 -4 -75l6 -68h-109q-6 23 -6 67zM526 1413h133l-276 -301h-94z" glyph-name="iacute" horiz-adv-x="421" unicode="í"/><glyph d="M131 67q0 44 8 91l103 649q6 47 6 78l-6 67h106q6 -22 6 -66t-8 -93l-102 -650q-4 -27 -4 -75l6 -68h-109q-6 23 -6 67zM422 1413l143 -301h-94l-92 213l-162 -213h-92l237 301h60z" glyph-name="icircumflex" horiz-adv-x="421" unicode="î"/><glyph d="M131 67q0 44 8 91l103 649q6 47 6 78l-6 67h106q6 -22 6 -66t-8 -93l-102 -650q-4 -27 -4 -75l6 -68h-109q-6 23 -6 67zM225 1169q-75 -1 -75 81q0 38 29 73q30 35 67 35q38 0 58 -22t20 -61q0 -38 -31 -72t-68 -34zM490 1169q-76 -1 -76 81q0 38 29 73q30 35 67 35 q38 0 58 -22t20 -61q0 -38 -30 -72t-68 -34z" glyph-name="idieresis" horiz-adv-x="421" unicode="ï"/><glyph d="M942 539q0 139 -83 226t-220 87q-178 0 -301 -138t-123 -321q0 -137 83 -225t220 -88q178 0 301 140t123 319zM1059 621q0 -261 -151 -451t-412 -190q-172 0 -283 112t-111 287q0 221 162 395t385 174q174 0 281 -114q-70 217 -240 401l-256 -158l-35 70l238 147 q-98 94 -176 152l71 65q123 -88 195 -163l268 163l35 -69l-250 -154q131 -135 205 -309t74 -358z" glyph-name="eth" horiz-adv-x="1101" unicode="ð"/><glyph d="M766 1174q-62 0 -131 49q-70 49 -105 49q-36 0 -62 -27t-34 -61l-65 22q16 64 66 112q49 48 111 48t133 -48t105 -48t60 26q27 26 37 62l63 -23q-16 -65 -66 -113t-112 -48zM657 967q270 0 271 -273q0 -45 -13 -131l-67 -420q-4 -27 -4 -75l6 -68h-109q-6 23 -6 67t8 91 l64 395q12 82 12 125q0 98 -45 145t-141 47q-150 0 -235 -114t-109 -275l-78 -481h-107l129 805q6 47 7 78l-7 67h107q6 -24 6 -60t-10 -102h2q53 80 139 130t180 49z" glyph-name="ntilde" horiz-adv-x="1011" unicode="ñ"/><glyph d="M944 555q0 139 -81 227t-220 88q-184 0 -305 -143t-121 -330q0 -139 81 -228t220 -89q182 0 304 144t122 331zM1055 559q0 -239 -159 -409t-394 -170q-178 0 -289 112t-111 291q0 238 160 411t395 173q176 0 287 -115t111 -293zM631 1413l141 -301h-92l-182 301h133z" glyph-name="ograve" horiz-adv-x="1101" unicode="ò"/><glyph d="M944 555q0 139 -81 227t-220 88q-184 0 -305 -143t-121 -330q0 -139 81 -228t220 -89q182 0 304 144t122 331zM1055 559q0 -239 -159 -409t-394 -170q-178 0 -289 112t-111 291q0 238 160 411t395 173q176 0 287 -115t111 -293zM825 1413h133l-276 -301h-94z" glyph-name="oacute" horiz-adv-x="1101" unicode="ó"/><glyph d="M944 555q0 139 -81 227t-220 88q-184 0 -305 -143t-121 -330q0 -139 81 -228t220 -89q182 0 304 144t122 331zM1055 559q0 -239 -159 -409t-394 -170q-178 0 -289 112t-111 291q0 238 160 411t395 173q176 0 287 -115t111 -293zM760 1413l141 -301h-94l-92 213l-160 -213 h-94l237 301h62z" glyph-name="ocircumflex" horiz-adv-x="1101" unicode="ô"/><glyph d="M944 555q0 139 -81 227t-220 88q-184 0 -305 -143t-121 -330q0 -139 81 -228t220 -89q182 0 304 144t122 331zM1055 559q0 -239 -159 -409t-394 -170q-178 0 -289 112t-111 291q0 238 160 411t395 173q176 0 287 -115t111 -293zM816 1174q-62 0 -132 49t-104 49t-62 -27 q-27 -27 -35 -61l-65 22q16 64 66 112t112 48t132 -48q71 -48 105 -48q35 0 61 26t36 62l63 -23q-16 -65 -66 -113q-49 -48 -111 -48z" glyph-name="otilde" horiz-adv-x="1101" unicode="õ"/><glyph d="M944 555q0 139 -81 227t-220 88q-184 0 -305 -143t-121 -330q0 -139 81 -228t220 -89q182 0 304 144t122 331zM1055 559q0 -239 -159 -409t-394 -170q-178 0 -289 112t-111 291q0 238 160 411t395 173q176 0 287 -115t111 -293zM582 1358q37 0 57 -22t20 -61 q1 -38 -29 -72t-68 -34t-57 22q-19 21 -19 59t29 73q30 35 67 35zM847 1358q37 0 57 -22t20 -61q0 -38 -30 -72t-67 -34t-57 22q-20 21 -20 59t30 73q31 35 67 35z" glyph-name="odieresis" horiz-adv-x="1101" unicode="ö"/><glyph d="M713 408q0 -39 -27 -67t-67 -28q-39 0 -67 28t-28 67q0 38 28 66t66 28t67 -28q28 -28 28 -66zM1137 752v-93h-1035v93h1035zM713 1006q0 -39 -27 -67t-67 -28q-39 0 -67 28t-28 67q0 38 28 66t66 28t67 -28q28 -28 28 -66z" glyph-name="divide" horiz-adv-x="1320" unicode="÷"/><glyph d="M944 555q0 88 -35 160l-610 -547q80 -88 219 -88q182 0 304 144t122 331zM643 870q-184 0 -305 -143t-121 -330q0 -89 35 -161l610 546q-80 88 -219 88zM502 -20q-180 0 -287 112l-143 -129l-52 64l144 129q-61 96 -62 227q0 238 160 411t395 173q174 0 287 -113l143 129 l52 -63l-146 -132q61 -96 62 -229q0 -239 -159 -409t-394 -170z" glyph-name="oslash" horiz-adv-x="1101" unicode="ø"/><glyph d="M250 262q0 -186 188 -186q141 0 227 106q85 106 109 258l80 512h109l-129 -809q-4 -27 -5 -75l7 -68h-109q-6 23 -6 70t6 77q-119 -168 -319 -167q-264 0 -265 268q0 47 13 137l67 422q6 45 6 78l-6 67h107q6 -22 6 -64t-8 -91l-68 -428q-10 -57 -10 -107zM563 1413 l142 -301h-95l-180 301h133z" glyph-name="ugrave" horiz-adv-x="1007" unicode="ù"/><glyph d="M250 262q0 -186 188 -186q141 0 227 106q85 106 109 258l80 512h109l-129 -809q-4 -27 -5 -75l7 -68h-109q-6 23 -6 70t6 77q-119 -168 -319 -167q-264 0 -265 268q0 47 13 137l67 422q6 45 6 78l-6 67h107q6 -22 6 -64t-8 -91l-68 -428q-10 -57 -10 -107zM791 1413h133 l-277 -301h-92z" glyph-name="uacute" horiz-adv-x="1007" unicode="ú"/><glyph d="M250 262q0 -186 188 -186q141 0 227 106q85 106 109 258l80 512h109l-129 -809q-4 -27 -5 -75l7 -68h-109q-6 23 -6 70t6 77q-119 -168 -319 -167q-264 0 -265 268q0 47 13 137l67 422q6 45 6 78l-6 67h107q6 -22 6 -64t-8 -91l-68 -428q-10 -57 -10 -107zM709 1413 l141 -301h-94l-92 213l-160 -213h-94l237 301h62z" glyph-name="ucircumflex" horiz-adv-x="1007" unicode="û"/><glyph d="M250 262q0 -186 188 -186q141 0 227 106q85 106 109 258l80 512h109l-129 -809q-4 -27 -5 -75l7 -68h-109q-6 23 -6 70t6 77q-119 -168 -319 -167q-264 0 -265 268q0 47 13 137l67 422q6 45 6 78l-6 67h107q6 -22 6 -64t-8 -91l-68 -428q-10 -57 -10 -107zM531 1358 q37 0 57 -22t20 -61q0 -38 -30 -72t-67 -34q-38 0 -57 22q-20 21 -20 59t30 73t67 35zM797 1358q75 0 75 -83q0 -38 -30 -72t-66 -34q-37 0 -57 22q-21 21 -21 59t31 73t68 35z" glyph-name="udieresis" horiz-adv-x="1007" unicode="ü"/><glyph d="M92 -399q-80 0 -119 30l37 103q41 -20 92 -21q90 0 144 113l92 188l-221 936h112l183 -821l444 821h113l-647 -1175q-92 -174 -230 -174zM713 1413h133l-277 -301h-94z" glyph-name="yacute" horiz-adv-x="864" unicode="ý"/><glyph d="M983 561q0 139 -75 225t-212 86q-184 0 -298 -145t-113 -336q1 -139 75 -225t211 -86q184 0 298 146t114 335zM566 -20q-230 0 -316 188h-2l-66 -414q-4 -27 -4 -76l6 -67h-108q-6 23 -6 67t8 91l237 1499q6 47 7 78l-7 67h107q6 -23 6 -66t-8 -92l-76 -475h2 q156 186 371 187q176 0 277 -108t102 -284q0 -243 -150 -419t-380 -176z" glyph-name="thorn" horiz-adv-x="1142" unicode="þ"/><glyph d="M92 -399q-80 0 -119 30l37 103q41 -20 92 -21q90 0 144 113l92 188l-221 936h112l183 -821l444 821h113l-647 -1175q-92 -174 -230 -174zM470 1366q77 0 77 -81q0 -38 -30 -72q-30 -33 -67 -33t-57 22t-20 58q0 38 29 72q30 34 68 34zM813 1285q0 -38 -30 -72 q-29 -33 -67 -33t-58 21q-19 21 -19 59t30 72q29 34 67 34q76 0 77 -81z" glyph-name="ydieresis" horiz-adv-x="864" unicode="ÿ"/><glyph d="M600 1712h436l-12 -82h-436zM377 530h561l-168 713zM834 1417l356 -1417h-127l-100 424h-646l-233 -424h-119l807 1417h62z" glyph-name="Amacron" horiz-adv-x="1251" unicode="Ā"/><glyph d="M442 1249h437l-13 -82h-436zM913 561q0 137 -74 223q-75 86 -210 86q-184 0 -298 -145t-114 -336q0 -137 75 -223t210 -86q184 0 298 145q113 146 113 336zM844 63q0 40 6 82l4 23h-2q-147 -190 -365 -191q-184 0 -284 109t-101 291q0 244 152 417t375 173t319 -189h2 l27 172h108l-127 -794q-6 -37 -6 -88l6 -68h-108q-6 23 -6 63z" glyph-name="amacron" horiz-adv-x="1132" unicode="ā"/><glyph d="M787 1610q-114 0 -174 61t-56 174h72q6 -141 174 -141t217 141h72q-33 -113 -112 -174t-193 -61zM377 530h561l-168 713zM834 1417l356 -1417h-127l-100 424h-646l-233 -424h-119l807 1417h62z" glyph-name="Abreve" horiz-adv-x="1251" unicode="Ă"/><glyph d="M638 1147q-114 0 -174 61t-56 174h71q6 -141 174 -141t217 141h72q-33 -113 -112 -174q-78 -61 -192 -61zM913 561q0 137 -74 223q-75 86 -210 86q-184 0 -298 -145t-114 -336q0 -137 75 -223t210 -86q184 0 298 145q113 146 113 336zM844 63q0 40 6 82l4 23h-2 q-147 -190 -365 -191q-184 0 -284 109t-101 291q0 244 152 417t375 173t319 -189h2l27 172h108l-127 -794q-6 -37 -6 -88l6 -68h-108q-6 23 -6 63z" glyph-name="abreve" horiz-adv-x="1132" unicode="ă"/><glyph d="M377 530h561l-168 713zM963 -248q0 -88 113 -88q56 0 132 47l19 -55q-92 -82 -203 -82q-72 0 -117 40t-45 110q0 150 199 282l-98 418h-646l-233 -424h-119l807 1417h62l356 -1417q-88 -24 -158 -100t-69 -148z" glyph-name="Aogonek" horiz-adv-x="1251" unicode="Ą"/><glyph d="M913 561q0 137 -74 223q-75 86 -210 86q-184 0 -298 -145t-114 -336q0 -137 75 -223t210 -86q184 0 298 145q113 146 113 336zM844 64q0 38 6 81l4 23h-2q-147 -190 -365 -191q-184 0 -284 109t-101 291q0 244 152 417t375 173t319 -189h2l27 172h108l-127 -794 q-6 -37 -6 -88l6 -68q-74 -37 -138 -109t-64 -127q1 -100 100 -100q69 0 145 47l19 -55q-92 -82 -203 -82q-72 0 -117 40t-45 110q0 145 193 278v8q-4 16 -4 54z" glyph-name="aogonek" horiz-adv-x="1132" unicode="ą"/><glyph d="M991 1876h131l-274 -297h-94zM936 1331q-293 0 -484 -224t-192 -523q0 -224 129 -362t350 -138q270 0 461 186l62 -73q-227 -221 -539 -222q-264 0 -423 163q-159 164 -159 410t102 445q101 199 289 320t420 121q289 0 457 -211l-80 -80q-53 92 -165 140t-228 48z" glyph-name="Cacute" horiz-adv-x="1339" unicode="Ć"/><glyph d="M688 1413h131l-274 -297h-94zM631 872q-178 0 -296 -147t-118 -328q0 -139 77 -228t214 -89q86 0 180 34t154 91l39 -80q-154 -145 -400 -145q-170 0 -273 116t-104 289q0 236 155 409t388 173q101 0 197 -42t139 -122l-78 -70q-96 139 -274 139z" glyph-name="cacute" horiz-adv-x="933" unicode="ć"/><glyph d="M969 1876l141 -297h-92l-94 211l-160 -211h-94l237 297h62zM936 1331q-293 0 -484 -224t-192 -523q0 -224 129 -362t350 -138q270 0 461 186l62 -73q-227 -221 -539 -222q-264 0 -423 163q-159 164 -159 410t102 445q101 199 289 320t420 121q289 0 457 -211l-80 -80 q-53 92 -165 140t-228 48z" glyph-name="Ccircumflex" horiz-adv-x="1339" unicode="Ĉ"/><glyph d="M670 1413l141 -297h-92l-94 211l-160 -211h-94l237 297h62zM631 872q-178 0 -296 -147t-118 -328q0 -139 77 -228t214 -89q86 0 180 34t154 91l39 -80q-154 -145 -400 -145q-170 0 -273 116t-104 289q0 236 155 409t388 173q101 0 197 -42t139 -122l-78 -70 q-96 139 -274 139z" glyph-name="ccircumflex" horiz-adv-x="933" unicode="ĉ"/><glyph d="M897 1819q37 -1 59 -21t21 -58q0 -38 -31 -70t-69 -32q-37 0 -59 20t-22 59q0 38 32 70t69 32zM936 1331q-293 0 -484 -224t-192 -523q0 -224 129 -362t350 -138q270 0 461 186l62 -73q-227 -221 -539 -222q-264 0 -423 163q-159 164 -159 410t102 445q101 199 289 320 t420 121q289 0 457 -211l-80 -80q-53 92 -165 140t-228 48z" glyph-name="Cdotaccent" horiz-adv-x="1339" unicode="Ċ"/><glyph d="M606 1356q36 0 58 -20t22 -59q0 -38 -31 -70q-31 -31 -69 -31t-59 20t-21 58t32 70t68 32zM631 872q-178 0 -296 -147t-118 -328q0 -139 77 -228t214 -89q86 0 180 34t154 91l39 -80q-154 -145 -400 -145q-170 0 -273 116t-104 289q0 236 155 409t388 173q101 0 197 -42 t139 -122l-78 -70q-96 139 -274 139z" glyph-name="cdotaccent" horiz-adv-x="933" unicode="ċ"/><glyph d="M1057 1876h92l-236 -297h-61l-143 297h94l92 -211zM936 1331q-293 0 -484 -224t-192 -523q0 -224 129 -362t350 -138q270 0 461 186l62 -73q-227 -221 -539 -222q-264 0 -423 163q-159 164 -159 410t102 445q101 199 289 320t420 121q289 0 457 -211l-80 -80 q-53 92 -165 140t-228 48z" glyph-name="Ccaron" horiz-adv-x="1339" unicode="Č"/><glyph d="M766 1413h92l-235 -297h-62l-143 297h94l92 -211zM631 872q-178 0 -296 -147t-118 -328q0 -139 77 -228t214 -89q86 0 180 34t154 91l39 -80q-154 -145 -400 -145q-170 0 -273 116t-104 289q0 236 155 409t388 173q101 0 197 -42t139 -122l-78 -70q-96 139 -274 139z" glyph-name="ccaron" horiz-adv-x="933" unicode="č"/><glyph d="M940 1876h92l-235 -297h-62l-143 297h94l92 -211zM1210 815q0 229 -141 361t-373 133h-254l-192 -1205h256q295 0 500 208q204 208 204 503zM1327 827q0 -347 -241 -587t-586 -240h-375l223 1413h375q266 0 435 -161t169 -425z" glyph-name="Dcaron" horiz-adv-x="1339" unicode="Ď"/><glyph d="M1391 1413h122l-221 -389h-82zM915 563q0 137 -75 223q-76 86 -211 86q-184 0 -298 -145t-114 -336q0 -139 75 -225t210 -86q184 0 299 146q114 147 114 337zM842 62q0 42 14 112q-147 -195 -369 -194q-184 0 -284 108t-101 291q0 242 152 416t375 174t319 -189h2l78 488 q6 45 6 78l-6 67h107q6 -23 6 -67t-8 -93l-177 -1110q-4 -27 -4 -75l6 -68h-108q-8 20 -8 62z" glyph-name="dcaron" horiz-adv-x="1308" unicode="ď"/><glyph d="M1210 815q0 229 -141 361t-373 133h-254l-82 -510h396l-17 -105h-395l-94 -590h256q295 0 500 208q204 208 204 503zM1327 827q0 -347 -241 -587t-586 -240h-375l108 694h-137l17 105h137l98 614h375q266 0 435 -161t169 -425z" glyph-name="Dcroat" horiz-adv-x="1339" unicode="Đ"/><glyph d="M915 563q0 137 -75 223q-76 86 -211 86q-184 0 -298 -145t-114 -336q0 -139 75 -225t210 -86q184 0 299 146q114 147 114 337zM842 62q0 42 14 112q-147 -195 -369 -194q-184 0 -284 108t-101 291q0 242 152 416t375 174t319 -189h2l62 394h-394l17 102h393q6 39 6 70 l-6 67h107q6 -23 6 -61t-6 -76h145l-16 -102h-144l-164 -1031q-4 -27 -4 -75l6 -68h-108q-8 20 -8 62z" glyph-name="dcroat" horiz-adv-x="1142" unicode="đ"/><glyph d="M518 1712h436l-12 -82h-436zM348 1413h742l-17 -104h-631l-80 -506h596l-16 -103h-598l-94 -596h647l-16 -104h-756z" glyph-name="Emacron" horiz-adv-x="1021" unicode="Ē"/><glyph d="M397 1249h437l-13 -82h-436zM244 543q298 -35 468 41q116 51 115 151q0 57 -59 99t-152 40q-150 0 -248 -105t-124 -226zM219 373q0 -139 72 -218t215 -79t255 75q52 31 62 42l8 6l37 -76q-89 -89 -258 -128q-70 -15 -143 -15q-168 0 -264 110t-97 293q0 250 161 417 t372 167q139 0 218 -70t79 -166q0 -121 -130 -207t-386 -86q-89 1 -195 13q-6 -41 -6 -78z" glyph-name="emacron" horiz-adv-x="995" unicode="ē"/><glyph d="M716 1610q-114 0 -174 61t-57 174h72q6 -141 174 -141t217 141h72q-33 -113 -112 -174q-78 -61 -192 -61zM348 1413h742l-17 -104h-631l-80 -506h596l-16 -103h-598l-94 -596h647l-16 -104h-756z" glyph-name="Ebreve" horiz-adv-x="1021" unicode="Ĕ"/><glyph d="M586 1147q-114 0 -173 61q-60 61 -57 174h72q6 -141 174 -141t217 141h72q-33 -113 -112 -174t-193 -61zM244 543q298 -35 468 41q116 51 115 151q0 57 -59 99t-152 40q-150 0 -248 -105t-124 -226zM219 373q0 -139 72 -218t215 -79t255 75q52 31 62 42l8 6l37 -76 q-89 -89 -258 -128q-70 -15 -143 -15q-168 0 -264 110t-97 293q0 250 161 417t372 167q139 0 218 -70t79 -166q0 -121 -130 -207t-386 -86q-89 1 -195 13q-6 -41 -6 -78z" glyph-name="ebreve" horiz-adv-x="995" unicode="ĕ"/><glyph d="M750 1819q37 -1 58 -21t21 -58q-1 -38 -31 -70t-68 -32t-60 20t-21 59q0 38 32 70t69 32zM348 1413h742l-17 -104h-631l-80 -506h596l-16 -103h-598l-94 -596h647l-16 -104h-756z" glyph-name="Edotaccent" horiz-adv-x="1021" unicode="Ė"/><glyph d="M621 1356q37 0 58 -20t21 -59q0 -38 -30 -70q-30 -31 -69 -31q-37 0 -59 20t-22 58t32 70t69 32zM244 543q298 -35 468 41q116 51 115 151q0 57 -59 99t-152 40q-150 0 -248 -105t-124 -226zM219 373q0 -139 72 -218t215 -79t255 75q52 31 62 42l8 6l37 -76 q-89 -89 -258 -128q-70 -15 -143 -15q-168 0 -264 110t-97 293q0 250 161 417t372 167q139 0 218 -70t79 -166q0 -121 -130 -207t-386 -86q-89 1 -195 13q-6 -41 -6 -78z" glyph-name="edotaccent" horiz-adv-x="995" unicode="ė"/><glyph d="M602 -250q0 -88 114 -88q56 0 132 47l18 -55q-92 -82 -202 -82q-72 0 -117 40t-45 109q0 145 192 279h-569l223 1413h742l-17 -104h-631l-80 -506h596l-16 -103h-598l-94 -596h647l-16 -104q-95 0 -187 -87t-92 -163z" glyph-name="Eogonek" horiz-adv-x="1021" unicode="Ę"/><glyph d="M244 543q298 -35 468 41q116 51 115 151q0 57 -59 99t-152 40q-150 0 -248 -105t-124 -226zM604 -389q-72 0 -117 40t-45 109q0 117 125 228q-43 -8 -100 -8q-168 0 -264 110t-97 293q0 250 161 417t372 167q139 0 218 -70t79 -166q0 -121 -130 -207t-386 -86 q-88 0 -195 13q-6 -41 -6 -78q0 -139 72 -218t215 -79t255 75q52 31 62 42l8 6l37 -76q-51 -51 -139 -90q-68 -39 -127 -109t-59 -124q0 -99 100 -99q69 0 145 47l19 -55q-92 -82 -203 -82z" glyph-name="eogonek" horiz-adv-x="995" unicode="ę"/><glyph d="M870 1876h93l-236 -297h-61l-144 297h94l93 -211zM348 1413h742l-17 -104h-631l-80 -506h596l-16 -103h-598l-94 -596h647l-16 -104h-756z" glyph-name="Ecaron" horiz-adv-x="1021" unicode="Ě"/><glyph d="M752 1413h92l-236 -297h-61l-144 297h95l92 -211zM244 543q298 -35 468 41q116 51 115 151q0 57 -59 99t-152 40q-150 0 -248 -105t-124 -226zM219 373q0 -139 72 -218t215 -79t255 75q52 31 62 42l8 6l37 -76q-89 -89 -258 -128q-70 -15 -143 -15q-168 0 -264 110 t-97 293q0 250 161 417t372 167q139 0 218 -70t79 -166q0 -121 -130 -207t-386 -86q-89 1 -195 13q-6 -41 -6 -78z" glyph-name="ecaron" horiz-adv-x="995" unicode="ě"/><glyph d="M967 1876l141 -297h-92l-94 211l-160 -211h-94l237 297h62zM928 1331q-289 0 -478 -225t-190 -526q0 -224 132 -360t358 -136q127 0 260 38t209 114l59 382h-418l17 103h526l-86 -537q-96 -104 -260 -156t-334 -53q-262 0 -422 166t-160 430q1 351 231 607t563 256 t513 -252l-86 -80q-145 229 -434 229z" glyph-name="Gcircumflex" horiz-adv-x="1488" unicode="Ĝ"/><glyph d="M696 1413l142 -297h-93l-94 211l-159 -211h-95l238 297h61zM915 569q0 137 -75 219q-76 82 -213 82q-184 0 -297 -140t-113 -329q0 -139 76 -220t213 -81q186 0 298 140t111 329zM430 -309q246 0 348 214q53 111 80 288h-2q-141 -195 -371 -195q-172 0 -276 110t-105 281 q0 238 151 408t384 170q102 0 186 -48t123 -141h2q12 110 54 172h106q-33 -61 -47 -147l-96 -598q-23 -141 -57 -242q-127 -373 -486 -373q-121 0 -224 38t-163 108l76 84q47 -57 139 -93t178 -36z" glyph-name="gcircumflex" horiz-adv-x="1132" unicode="ĝ"/><glyph d="M896 1610q-114 0 -174 61t-56 174h71q6 -141 174 -141t217 141h72q-34 -113 -112 -174t-192 -61zM928 1331q-289 0 -478 -225t-190 -526q0 -224 132 -360t358 -136q127 0 260 38t209 114l59 382h-418l17 103h526l-86 -537q-96 -104 -260 -156t-334 -53q-262 0 -422 166 t-160 430q1 351 231 607t563 256t513 -252l-86 -80q-145 229 -434 229z" glyph-name="Gbreve" horiz-adv-x="1488" unicode="Ğ"/><glyph d="M628 1147q-114 0 -174 61t-57 174h72q6 -141 174 -141t217 141h72q-33 -113 -112 -174q-78 -61 -192 -61zM915 569q0 137 -75 219q-76 82 -213 82q-184 0 -297 -140t-113 -329q0 -139 76 -220t213 -81q186 0 298 140t111 329zM430 -309q246 0 348 214q53 111 80 288h-2 q-141 -195 -371 -195q-172 0 -276 110t-105 281q0 238 151 408t384 170q102 0 186 -48t123 -141h2q12 110 54 172h106q-33 -61 -47 -147l-96 -598q-23 -141 -57 -242q-127 -373 -486 -373q-121 0 -224 38t-163 108l76 84q47 -57 139 -93t178 -36z" glyph-name="gbreve" horiz-adv-x="1132" unicode="ğ"/><glyph d="M916 1819q37 -1 58 -21t21 -58q-1 -38 -31 -70t-68 -32t-60 20t-21 59q0 38 32 70t69 32zM928 1331q-289 0 -478 -225t-190 -526q0 -224 132 -360t358 -136q127 0 260 38t209 114l59 382h-418l17 103h526l-86 -537q-96 -104 -260 -156t-334 -53q-262 0 -422 166t-160 430 q1 351 231 607t563 256t513 -252l-86 -80q-145 229 -434 229z" glyph-name="Gdotaccent" horiz-adv-x="1488" unicode="Ġ"/><glyph d="M658 1356q37 0 58 -20t21 -59q-1 -38 -31 -70q-30 -31 -68 -31t-60 20t-21 58q0 38 32 70t69 32zM915 569q0 137 -75 219q-76 82 -213 82q-184 0 -297 -140t-113 -329q0 -139 76 -220t213 -81q186 0 298 140t111 329zM430 -309q246 0 348 214q53 111 80 288h-2 q-141 -195 -371 -195q-172 0 -276 110t-105 281q0 238 151 408t384 170q102 0 186 -48t123 -141h2q12 110 54 172h106q-33 -61 -47 -147l-96 -598q-23 -141 -57 -242q-127 -373 -486 -373q-121 0 -224 38t-163 108l76 84q47 -57 139 -93t178 -36z" glyph-name="gdotaccent" horiz-adv-x="1132" unicode="ġ"/><glyph d="M664 -389h-82l118 287h123zM928 1331q-289 0 -478 -225t-190 -526q0 -224 132 -360t358 -136q127 0 260 38t209 114l59 382h-418l17 103h526l-86 -537q-96 -104 -260 -156t-334 -53q-262 0 -422 166t-160 430q1 351 231 607t563 256t513 -252l-86 -80q-145 229 -434 229z " glyph-name="Gcommaaccent" horiz-adv-x="1488" unicode="Ģ"/><glyph d="M731 1442h82l-119 -287h-123zM915 569q0 137 -75 219q-76 82 -213 82q-184 0 -297 -140t-113 -329q0 -139 76 -220t213 -81q186 0 298 140t111 329zM430 -309q246 0 348 214q53 111 80 288h-2q-141 -195 -371 -195q-172 0 -276 110t-105 281q0 238 151 408t384 170 q102 0 186 -48t123 -141h2q12 110 54 172h106q-33 -61 -47 -147l-96 -598q-23 -141 -57 -242q-127 -373 -486 -373q-121 0 -224 38t-163 108l76 84q47 -57 139 -93t178 -36z" glyph-name="gcommaaccent" horiz-adv-x="1132" unicode="ģ"/><glyph d="M952 1876l142 -297h-93l-94 211l-159 -211h-95l238 297h61zM1294 1413h109l-223 -1413h-111l113 705h-836l-113 -705h-108l223 1413h111l-97 -604h836z" glyph-name="Hcircumflex" horiz-adv-x="1400" unicode="Ĥ"/><glyph d="M461 1845l141 -297h-92l-94 211l-160 -211h-94l237 297h62zM668 969q272 0 272 -269q0 -43 -12 -133l-68 -424q-4 -27 -4 -75l6 -68h-108q-6 23 -6 67t8 91l63 405q12 78 12 115q0 195 -184 194q-149 0 -237 -118t-113 -283l-76 -471h-106l200 1268q6 47 7 78l-7 67h107 q6 -23 6 -67t-8 -93l-74 -462h2q53 80 139 129t181 49z" glyph-name="hcircumflex" horiz-adv-x="1034" unicode="ĥ"/><glyph d="M362 809h836l41 256h-836zM150 1157h157l41 256h111l-41 -256h835l41 256h109l-41 -256h158l-15 -92h-157l-168 -1065h-111l113 705h-836l-113 -705h-108l168 1065h-160z" glyph-name="Hbar" horiz-adv-x="1400" unicode="Ħ"/><glyph d="M428 1352q0 -38 -6 -76h395l-16 -102h-393l-62 -383h2q53 80 139 129t181 49q272 0 272 -269q0 -43 -12 -133l-68 -424q-4 -27 -4 -75l6 -68h-108q-6 23 -6 67t8 91l63 405q12 78 12 115q0 195 -184 194q-149 0 -237 -118t-113 -283l-76 -471h-106l184 1174h-143l16 102 h143q6 39 7 70l-7 67h107q6 -23 6 -61z" glyph-name="hbar" horiz-adv-x="1034" unicode="ħ"/><glyph d="M301 1735q-35 0 -61 -25t-35 -59l-66 20q17 66 67 112t111 46t133 -47t104 -47q34 -1 60 25t37 61l64 -21q-16 -66 -66 -112q-100 -96 -242 0q-71 48 -106 47zM348 1413h111l-226 -1413h-108z" glyph-name="Itilde" horiz-adv-x="444" unicode="Ĩ"/><glyph d="M430 1178q-62 0 -132 47q-71 47 -106 47q-34 0 -60 -25t-36 -59l-65 20q18 66 67 112q48 46 110 46t133 -47t105 -47t60 26q27 26 37 60l63 -21q-16 -67 -65 -113t-111 -46zM131 67q0 44 8 91l103 649q6 47 6 78l-6 67h106q6 -22 6 -66t-8 -93l-102 -650q-4 -27 -4 -75 l6 -68h-109q-6 23 -6 67z" glyph-name="itilde" horiz-adv-x="421" unicode="ĩ"/><glyph d="M219 1712h436l-12 -82h-436zM348 1413h111l-226 -1413h-108z" glyph-name="Imacron" horiz-adv-x="444" unicode="Ī"/><glyph d="M113 1249h436l-12 -82h-437zM131 67q0 44 8 91l103 649q6 47 6 78l-6 67h106q6 -22 6 -66t-8 -93l-102 -650q-4 -27 -4 -75l6 -68h-109q-6 23 -6 67z" glyph-name="imacron" horiz-adv-x="421" unicode="ī"/><glyph d="M406 1610q-114 0 -174 61t-56 174h72q6 -141 174 -141t217 141h72q-33 -113 -112 -174t-193 -61zM348 1413h111l-226 -1413h-108z" glyph-name="Ibreve" horiz-adv-x="444" unicode="Ĭ"/><glyph d="M312 1147q-114 0 -174 61t-56 174h72q6 -141 174 -141t217 141h71q-34 -113 -112 -174t-192 -61zM131 67q0 44 8 91l103 649q6 47 6 78l-6 67h106q6 -22 6 -66t-8 -93l-102 -650q-4 -27 -4 -75l6 -68h-109q-6 23 -6 67z" glyph-name="ibreve" horiz-adv-x="421" unicode="ĭ"/><glyph d="M92 -426q-72 0 -117 40t-45 110q0 150 195 278l223 1411h111l-226 -1413q-75 -37 -139 -109t-64 -127q1 -100 101 -100q69 0 145 47l19 -55q-92 -82 -203 -82z" glyph-name="Iogonek" horiz-adv-x="444" unicode="Į"/><glyph d="M459 1298q0 -36 -31 -68t-68 -32t-57 22t-20 58t31 68q32 32 67 32t57 -22t21 -58zM100 -426q-72 0 -116 40t-45 110q0 152 196 280q-4 16 -4 62t8 92l103 649q6 47 6 78l-6 67h106q6 -22 6 -66t-8 -93l-102 -650q-4 -27 -4 -75l6 -68q-76 -37 -142 -109t-66 -127 q1 -100 101 -100q70 0 146 47l18 -55q-92 -82 -203 -82z" glyph-name="iogonek" horiz-adv-x="421" unicode="į"/><glyph d="M451 1819q37 -1 58 -21t21 -58t-30 -70t-69 -32q-37 0 -59 20t-22 59q0 38 32 70t69 32zM348 1413h111l-226 -1413h-108z" glyph-name="Idotaccent" horiz-adv-x="444" unicode="İ"/><glyph d="M131 67q0 44 8 91l103 649q6 47 6 78l-6 67h106q6 -22 6 -66t-8 -93l-102 -650q-4 -27 -4 -75l6 -68h-109q-6 23 -6 67z" glyph-name="dotlessi" horiz-adv-x="421" unicode="ı"/><glyph d="M367 -420q-72 0 -113 21l16 96q36 -16 88 -16t80 12t47 43q20 31 37 59t43 187l228 1431h110l-225 -1421q-68 -412 -311 -412zM348 1413h111l-226 -1413h-108z" glyph-name="IJ" horiz-adv-x="888" unicode="Ĳ"/><glyph d="M782 1198q-77 0 -77 78q0 37 30 69q31 31 68 31t57 -21t21 -57q0 -36 -31 -68t-68 -32zM332 -313q83 0 128 58q44 58 60 157q4 25 12 80l130 811q19 106 43 141l8 18h106q-33 -61 -47 -147l-131 -823q-59 -392 -309 -392q-72 0 -99 17l15 96q35 -16 84 -16zM131 67 q0 44 8 91l103 649q6 47 6 78l-6 67h106q6 -22 6 -66t-8 -93l-102 -650q-4 -27 -4 -75l6 -68h-109q-6 23 -6 67zM459 1298q0 -36 -31 -68t-68 -32t-57 22t-20 58t31 68q32 32 67 32t57 -22t21 -58z" glyph-name="ij" horiz-adv-x="843" unicode="ĳ"/><glyph d="M518 1876l141 -297h-92l-94 211l-160 -211h-94l238 297h61zM-75 -420q-75 0 -115 21l16 96q35 -16 87 -16t80 12t48 43t33 51q12 21 22 69t14 62q3 14 11 64l227 1431h111l-226 -1421q-23 -150 -82 -268q-35 -68 -93 -106t-133 -38z" glyph-name="Jcircumflex" horiz-adv-x="444" unicode="Ĵ"/><glyph d="M424 1413l141 -297h-92l-94 211l-160 -211h-94l237 297h62zM-90 -313q83 0 128 58q44 58 60 157q4 25 13 80l129 811q19 106 43 141l8 18h106q-33 -61 -47 -147l-131 -823q-59 -392 -309 -392q-72 0 -98 17l14 96q35 -16 84 -16z" glyph-name="jcircumflex" horiz-adv-x="421" unicode="ĵ"/><glyph d="M461 -389h-82l119 287h123zM1096 1413h143l-635 -553l451 -860h-137l-402 784l-182 -159l-101 -625h-108l223 1413h111l-105 -655z" glyph-name="Kcommaaccent" horiz-adv-x="1081" unicode="Ķ"/><glyph d="M360 -389h-81l118 287h123zM428 1346q0 -44 -8 -93l-115 -725l502 424h133l-432 -362l340 -590h-133l-291 520l-139 -117l-64 -403h-106l200 1268q6 47 7 78l-7 67h107q6 -23 6 -67z" glyph-name="kcommaaccent" horiz-adv-x="882" unicode="ķ"/><glyph d="M344 886q0 -44 -8 -93l-41 -265l502 424h133l-432 -362l340 -590h-133l-291 520l-140 -117l-63 -403h-107l127 807q6 45 7 78l-7 67h107q6 -22 6 -66z" glyph-name="kgreenlandic" horiz-adv-x="872" unicode="ĸ"/><glyph d="M559 1876h131l-274 -297h-94zM250 104h485l-16 -104h-594l223 1413h111z" glyph-name="Lacute" horiz-adv-x="784" unicode="Ĺ"/><glyph d="M541 1866h131l-275 -297h-94zM131 67q0 44 8 91l176 1110q6 47 7 78l-7 67h107q6 -23 6 -67t-8 -93l-176 -1110q-4 -27 -4 -75l6 -68h-109q-6 23 -6 67z" glyph-name="lacute" horiz-adv-x="421" unicode="ĺ"/><glyph d="M352 -389h-82l119 287h123zM250 104h485l-16 -104h-594l223 1413h111z" glyph-name="Lcommaaccent" horiz-adv-x="784" unicode="Ļ"/><glyph d="M131 -389h-82l119 287h123zM131 67q0 44 8 91l176 1110q6 47 7 78l-7 67h107q6 -23 6 -67t-8 -93l-176 -1110q-4 -27 -4 -75l6 -68h-109q-6 23 -6 67z" glyph-name="lcommaaccent" horiz-adv-x="421" unicode="ļ"/><glyph d="M799 1413h123l-222 -389h-82zM250 104h485l-16 -104h-594l223 1413h111z" glyph-name="Lcaron" horiz-adv-x="784" unicode="Ľ"/><glyph d="M678 1413h123l-221 -389h-82zM131 67q0 44 8 91l176 1110q6 47 7 78l-7 67h107q6 -23 6 -67t-8 -93l-176 -1110q-4 -27 -4 -75l6 -68h-109q-6 23 -6 67z" glyph-name="lcaron" horiz-adv-x="595" unicode="ľ"/><glyph d="M788 615q0 -41 -34 -75t-73 -34q-40 0 -64 22q-23 22 -23 64q0 41 34 75q34 33 74 33t63 -22t23 -63zM250 104h485l-16 -104h-594l223 1413h111z" glyph-name="Ldot" horiz-adv-x="784" unicode="Ŀ"/><glyph d="M585 686q39 0 63 -22t24 -64q0 -41 -34 -75q-34 -33 -74 -33t-64 22t-23 64q0 40 34 74t74 34zM131 67q0 44 8 91l176 1110q6 47 7 78l-7 67h107q6 -23 6 -67t-8 -93l-176 -1110q-4 -27 -4 -75l6 -68h-109q-6 23 -6 67z" glyph-name="ldot" horiz-adv-x="679" unicode="ŀ"/><glyph d="M250 104h485l-16 -104h-594l90 569l-156 -112l19 118l155 113l115 725h111l-103 -641l269 195l-19 -119l-268 -193z" glyph-name="Lslash" horiz-adv-x="784" unicode="Ł"/><glyph d="M131 67q0 44 8 91l78 491l-149 -131l20 129l150 129l77 492q6 47 7 78l-7 67h107q6 -23 6 -67t-8 -93l-60 -370l150 135l-21 -129l-149 -133l-96 -613q-4 -27 -4 -75l6 -68h-109q-6 23 -6 67z" glyph-name="lslash" horiz-adv-x="421" unicode="ł"/><glyph d="M1038 1876h131l-274 -297h-94zM1350 1413h108l-223 -1413h-98l-707 1231l-197 -1231h-108l223 1413h109l700 -1210z" glyph-name="Nacute" horiz-adv-x="1456" unicode="Ń"/><glyph d="M737 1413h131l-274 -297h-94zM657 967q270 0 271 -273q0 -45 -13 -131l-67 -420q-4 -27 -4 -75l6 -68h-109q-6 23 -6 67t8 91l64 395q12 82 12 125q0 98 -45 145t-141 47q-150 0 -235 -114t-109 -275l-78 -481h-107l129 805q6 47 7 78l-7 67h107q6 -24 6 -60t-10 -102h2 q53 80 139 130t180 49z" glyph-name="nacute" horiz-adv-x="1011" unicode="ń"/><glyph d="M614 -389h-82l119 287h123zM1350 1413h108l-223 -1413h-98l-707 1231l-197 -1231h-108l223 1413h109l700 -1210z" glyph-name="Ncommaaccent" horiz-adv-x="1456" unicode="Ņ"/><glyph d="M403 -389h-81l118 287h123zM657 967q270 0 271 -273q0 -45 -13 -131l-67 -420q-4 -27 -4 -75l6 -68h-109q-6 23 -6 67t8 91l64 395q12 82 12 125q0 98 -45 145t-141 47q-150 0 -235 -114t-109 -275l-78 -481h-107l129 805q6 47 7 78l-7 67h107q6 -24 6 -60t-10 -102h2 q53 80 139 130t180 49z" glyph-name="ncommaaccent" horiz-adv-x="1011" unicode="ņ"/><glyph d="M1087 1876h93l-236 -297h-61l-144 297h95l92 -211zM1350 1413h108l-223 -1413h-98l-707 1231l-197 -1231h-108l223 1413h109l700 -1210z" glyph-name="Ncaron" horiz-adv-x="1456" unicode="Ň"/><glyph d="M782 1413h92l-235 -297h-61l-144 297h94l93 -211zM657 967q270 0 271 -273q0 -45 -13 -131l-67 -420q-4 -27 -4 -75l6 -68h-109q-6 23 -6 67t8 91l64 395q12 82 12 125q0 98 -45 145t-141 47q-150 0 -235 -114t-109 -275l-78 -481h-107l129 805q6 47 7 78l-7 67h107 q6 -24 6 -60t-10 -102h2q53 80 139 130t180 49z" glyph-name="ncaron" horiz-adv-x="1011" unicode="ň"/><glyph d="M922 -420q-72 0 -113 21l16 96q35 -16 87 -16q91 0 130 58t54 117q14 59 24 126l6 36l-696 1213l-197 -1231h-108l223 1413h109l698 -1208l193 1208h110l-225 -1421q-63 -412 -311 -412z" glyph-name="Eng" horiz-adv-x="1456" unicode="Ŋ"/><glyph d="M819 678q0 98 -45 145t-141 47q-150 0 -235 -114t-109 -275l-78 -481h-107l129 805q6 47 7 78l-7 67h107q6 -24 6 -60t-10 -102h2q53 80 139 130t180 49q270 0 271 -273q0 -45 -13 -131l-92 -581q-59 -392 -309 -392q-72 0 -98 17l14 96q35 -16 80 -16t74 12t48 39t37 57 t46 187l92 571q12 82 12 125z" glyph-name="eng" horiz-adv-x="1011" unicode="ŋ"/><glyph d="M741 1712h437l-13 -82h-436zM1427 845q0 207 -132 347t-340 139q-207 0 -367 -106q-160 -105 -245 -277t-85 -378t132 -346t340 -140t368 106t244 277t85 378zM1544 844q0 -356 -233 -612t-584 -257q-262 0 -424 164t-162 426q1 357 233 613t584 256q260 0 423 -164 t163 -426z" glyph-name="Omacron" horiz-adv-x="1558" unicode="Ō"/><glyph d="M461 1249h436l-12 -82h-436zM944 555q0 139 -81 227t-220 88q-184 0 -305 -143t-121 -330q0 -139 81 -228t220 -89q182 0 304 144t122 331zM1055 559q0 -239 -159 -409t-394 -170q-178 0 -289 112t-111 291q0 238 160 411t395 173q176 0 287 -115t111 -293z" glyph-name="omacron" horiz-adv-x="1101" unicode="ō"/><glyph d="M945 1610q-114 0 -174 61t-56 174h71q6 -141 174 -141t218 141h71q-33 -113 -111 -174t-193 -61zM1427 845q0 207 -132 347t-340 139q-207 0 -367 -106q-160 -105 -245 -277t-85 -378t132 -346t340 -140t368 106t244 277t85 378zM1544 844q0 -356 -233 -612t-584 -257 q-262 0 -424 164t-162 426q1 357 233 613t584 256q260 0 423 -164t163 -426z" glyph-name="Obreve" horiz-adv-x="1558" unicode="Ŏ"/><glyph d="M646 1147q-114 0 -174 61t-56 174h71q7 -141 175 -141t217 141h71q-34 -113 -112 -174t-192 -61zM944 555q0 139 -81 227t-220 88q-184 0 -305 -143t-121 -330q0 -139 81 -228t220 -89q182 0 304 144t122 331zM1055 559q0 -239 -159 -409t-394 -170q-178 0 -289 112 t-111 291q0 238 160 411t395 173q176 0 287 -115t111 -293z" glyph-name="obreve" horiz-adv-x="1101" unicode="ŏ"/><glyph d="M940 1876h133l-276 -297h-95zM1155 1876h133l-276 -297h-92zM1427 845q0 207 -132 347t-340 139q-207 0 -367 -106q-160 -105 -245 -277t-85 -378t132 -346t340 -140t368 106t244 277t85 378zM1544 844q0 -356 -233 -612t-584 -257q-262 0 -424 164t-162 426 q1 357 233 613t584 256q260 0 423 -164t163 -426z" glyph-name="Ohungarumlaut" horiz-adv-x="1558" unicode="Ő"/><glyph d="M649 1413h133l-276 -297h-94zM864 1413h133l-276 -297h-92zM944 555q0 139 -81 227t-220 88q-184 0 -305 -143t-121 -330q0 -139 81 -228t220 -89q182 0 304 144t122 331zM1055 559q0 -239 -159 -409t-394 -170q-178 0 -289 112t-111 291q0 238 160 411t395 173 q176 0 287 -115t111 -293z" glyph-name="ohungarumlaut" horiz-adv-x="1101" unicode="ő"/><glyph d="M258 584q0 -220 129 -360t357 -140t421 154l148 938q-141 156 -381 155q-290 0 -482 -226t-192 -521zM706 -25q-244 0 -405 166q-160 165 -160 409t102 442q101 198 287 320t414 122t391 -121l17 100h682l-17 -104h-573l-80 -506h539l-17 -103h-538l-95 -596h588 l-16 -104h-699l17 100q-193 -125 -437 -125z" glyph-name="OE" horiz-adv-x="1976" unicode="Œ"/><glyph d="M1649 735q1 57 -59 99t-152 40q-150 0 -249 -105t-124 -226q298 -35 468 41q116 51 116 151zM944 555q0 139 -81 227t-220 88q-184 0 -305 -143t-121 -330q0 -139 81 -228t220 -89q182 0 304 144t122 331zM1315 76q174 0 338 123l37 -76q-89 -89 -258 -128 q-70 -15 -144 -15q-127 0 -214 63t-124 176q-76 -111 -192 -175t-256 -64q-178 0 -289 112t-111 291q0 238 160 411t395 173q131 0 229 -66t140 -178q76 115 192 179t248 65q132 0 212 -70q79 -70 79 -166q0 -121 -130 -207t-386 -86q-86 0 -194 13q-6 -39 -7 -78 q0 -139 72 -218t203 -79z" glyph-name="oe" horiz-adv-x="1816" unicode="œ"/><glyph d="M797 1876h131l-275 -297h-94zM920 1092q0 136 -95 175q-95 40 -219 42h-164l-88 -551h162q182 0 293 79t111 255zM664 1413q162 -1 266 -77t104 -245t-110 -287t-287 -145l309 -659h-141l-297 653h-170l-105 -653h-108l223 1413h316z" glyph-name="Racute" horiz-adv-x="993" unicode="Ŕ"/><glyph d="M612 1413h131l-274 -297h-94zM566 862q-122 0 -194 -123q-55 -94 -79 -227l-82 -512h-107l129 807q6 45 7 76l-7 67h107q6 -23 6 -69t-10 -101q84 188 258 189q53 0 98 -17l-26 -106h-9q-29 16 -91 16z" glyph-name="racute" horiz-adv-x="595" unicode="ŕ"/><glyph d="M416 -389h-82l119 287h122zM920 1092q0 136 -95 175q-95 40 -219 42h-164l-88 -551h162q182 0 293 79t111 255zM664 1413q162 -1 266 -77t104 -245t-110 -287t-287 -145l309 -659h-141l-297 653h-170l-105 -653h-108l223 1413h316z" glyph-name="Rcommaaccent" horiz-adv-x="993" unicode="Ŗ"/><glyph d="M117 -389h-82l119 287h122zM566 862q-122 0 -194 -123q-55 -94 -79 -227l-82 -512h-107l129 807q6 45 7 76l-7 67h107q6 -23 6 -69t-10 -101q84 188 258 189q53 0 98 -17l-26 -106h-9q-29 16 -91 16z" glyph-name="rcommaaccent" horiz-adv-x="595" unicode="ŗ"/><glyph d="M809 1876h92l-235 -297h-62l-143 297h94l92 -211zM920 1092q0 136 -95 175q-95 40 -219 42h-164l-88 -551h162q182 0 293 79t111 255zM664 1413q162 -1 266 -77t104 -245t-110 -287t-287 -145l309 -659h-141l-297 653h-170l-105 -653h-108l223 1413h316z" glyph-name="Rcaron" horiz-adv-x="993" unicode="Ř"/><glyph d="M623 1413h92l-236 -297h-61l-144 297h95l92 -211zM566 862q-122 0 -194 -123q-55 -94 -79 -227l-82 -512h-107l129 807q6 45 7 76l-7 67h107q6 -23 6 -69t-10 -101q84 188 258 189q53 0 98 -17l-26 -106h-9q-29 16 -91 16z" glyph-name="rcaron" horiz-adv-x="595" unicode="ř"/><glyph d="M811 1876h131l-274 -297h-95zM711 1333q-135 0 -229 -80t-93 -221q0 -141 203 -231q84 -37 168 -77t143 -115t60 -183q0 -201 -151 -326t-355 -125q-133 0 -231 67q-97 67 -144 189l88 60q37 -99 122 -157t191 -58q145 0 256 95t111 239q0 86 -59 145t-143 96t-169 77 q-84 40 -143 114t-60 178q0 190 134 302t338 112q206 0 315 -187l-82 -63q-49 78 -113 114t-157 35z" glyph-name="Sacute" horiz-adv-x="1038" unicode="Ś"/><glyph d="M602 1413h131l-274 -297h-94zM115 229q69 -149 253 -149q88 0 160 55t72 151t-150 154q-62 24 -124 50t-108 72q-44 46 -44 112q0 133 94 213t228 80q170 -1 266 -140l-78 -63q-66 111 -203 110q-82 0 -141 -47t-59 -127q-1 -55 67 -96q68 -42 148 -66t148 -82t67 -147 q0 -149 -108 -239t-259 -90q-104 0 -188 47t-123 139z" glyph-name="sacute" horiz-adv-x="774" unicode="ś"/><glyph d="M766 1876l141 -297h-92l-94 211l-160 -211h-94l238 297h61zM711 1333q-135 0 -229 -80t-93 -221q0 -141 203 -231q84 -37 168 -77t143 -115t60 -183q0 -201 -151 -326t-355 -125q-133 0 -231 67q-97 67 -144 189l88 60q37 -99 122 -157t191 -58q145 0 256 95t111 239 q0 86 -59 145t-143 96t-169 77q-84 40 -143 114t-60 178q0 190 134 302t338 112q206 0 315 -187l-82 -63q-49 78 -113 114t-157 35z" glyph-name="Scircumflex" horiz-adv-x="1038" unicode="Ŝ"/><glyph d="M569 1413l142 -297h-93l-94 211l-159 -211h-95l238 297h61zM115 229q69 -149 253 -149q88 0 160 55t72 151t-150 154q-62 24 -124 50t-108 72q-44 46 -44 112q0 133 94 213t228 80q170 -1 266 -140l-78 -63q-66 111 -203 110q-82 0 -141 -47t-59 -127q-1 -55 67 -96 q68 -42 148 -66t148 -82t67 -147q0 -149 -108 -239t-259 -90q-104 0 -188 47t-123 139z" glyph-name="scircumflex" horiz-adv-x="774" unicode="ŝ"/><glyph d="M483 76q145 0 256 95t111 239q0 86 -59 145t-143 96t-169 77q-84 40 -143 114t-60 178q0 190 134 302t338 112q206 0 315 -187l-82 -63q-49 78 -113 114t-157 35q-135 0 -229 -80t-93 -221q0 -141 203 -231q84 -37 168 -77t143 -115t60 -183q1 -158 -97 -272t-248 -154 l-200 -276h-133l219 253l-47 -2q-133 0 -231 67q-97 67 -144 189l88 60q37 -99 122 -157t191 -58z" glyph-name="Scedilla" horiz-adv-x="1038" unicode="Ş"/><glyph d="M115 229q69 -149 253 -149q88 0 160 55t72 151t-150 154q-62 24 -124 50t-108 72q-44 46 -44 112q0 133 94 213t228 80q170 -1 266 -140l-78 -63q-66 111 -203 110q-82 0 -141 -47t-59 -127q-1 -55 67 -96q68 -42 148 -66t148 -82t67 -158q1 -100 -61 -180t-163 -114 l-204 -280h-133l221 258q-10 -2 -27 -2q-104 0 -188 47t-123 139z" glyph-name="scedilla" horiz-adv-x="774" unicode="ş"/><glyph d="M711 1333q-135 0 -229 -80t-93 -221q0 -141 203 -231q84 -37 168 -77t143 -115t60 -183q0 -201 -151 -326t-355 -125q-133 0 -231 67q-97 67 -144 189l88 60q37 -99 122 -157t191 -58q145 0 256 95t111 239q0 86 -59 145t-143 96t-169 77q-84 40 -143 114t-60 178 q0 190 134 302t338 112q206 0 315 -187l-82 -63q-49 78 -113 114t-157 35zM922 1833h94l-238 -301h-61l-142 301h93l94 -213z" glyph-name="Scaron" horiz-adv-x="1038" unicode="Š"/><glyph d="M115 229q69 -149 253 -149q88 0 160 55t72 151t-150 154q-62 24 -124 50t-108 72q-44 46 -44 112q0 133 94 213t228 80q170 -1 266 -140l-78 -63q-66 111 -203 110q-82 0 -141 -47t-59 -127q-1 -55 67 -96q68 -42 148 -66t148 -82t67 -147q0 -149 -108 -239t-259 -90 q-104 0 -188 47t-123 139zM692 1413h94l-237 -301h-62l-141 301h94l92 -213z" glyph-name="scaron" horiz-adv-x="774" unicode="š"/><glyph d="M358 -389h-82l119 287h123zM201 1413h915l-16 -104h-404l-207 -1309h-110l209 1309h-404z" glyph-name="Tcommaaccent" horiz-adv-x="960" unicode="Ţ"/><glyph d="M238 -389h-82l118 287h123zM281 209q0 -129 104 -129q55 0 104 26l-6 -96q-53 -30 -141 -30t-131 50t-43 135q0 152 47 397t53 286h-137l14 100h140l24 156q6 47 6 78l-6 67h107q6 -23 6 -67t-8 -92l-23 -142h232l-17 -100h-231l-76 -490q-18 -111 -18 -149z" glyph-name="tcommaaccent" horiz-adv-x="555" unicode="ţ"/><glyph d="M844 1876h92l-236 -297h-61l-143 297h94l92 -211zM201 1413h915l-16 -104h-404l-207 -1309h-110l209 1309h-404z" glyph-name="Tcaron" horiz-adv-x="960" unicode="Ť"/><glyph d="M733 1411h123l-221 -389h-82zM281 209q0 -129 104 -129q55 0 104 26l-6 -96q-53 -30 -141 -30t-131 50t-43 135q0 152 47 397t53 286h-137l14 100h140l24 156q6 47 6 78l-6 67h107q6 -23 6 -67t-8 -92l-23 -142h232l-17 -100h-231l-76 -490q-18 -111 -18 -149z" glyph-name="tcaron" horiz-adv-x="555" unicode="ť"/><glyph d="M201 1413h915l-16 -104h-404l-57 -359h233l-12 -82h-233l-138 -868h-110l137 868h-229l12 82h231l58 359h-404z" glyph-name="Tbar" horiz-adv-x="960" unicode="Ŧ"/><glyph d="M281 209q0 -129 104 -129q55 0 104 26l-6 -96q-53 -30 -141 -30t-131 50t-43 154t49 389h-117l13 82h120q23 117 35 193h-137l14 100h140l24 156q6 47 6 78l-6 67h107q6 -23 6 -67t-8 -92l-23 -142h232l-17 -100h-231l-31 -193h219l-12 -82h-219l-33 -211 q-18 -119 -18 -153z" glyph-name="tbar" horiz-adv-x="555" unicode="ŧ"/><glyph d="M712 1735q-34 0 -60 -25t-36 -59l-65 20q18 66 67 112q48 46 110 46t133 -47t105 -47q34 -1 60 25t37 61l63 -21q-16 -66 -65 -112q-100 -96 -243 0q-72 48 -106 47zM182 360q0 82 23 209l133 844h111l-130 -813q-23 -154 -22 -211q0 -145 84 -226t215 -81t215 41 q196 96 256 477l129 813h109l-134 -844q-38 -259 -167 -426q-129 -168 -410 -168q-184 -1 -298 101t-114 284z" glyph-name="Utilde" horiz-adv-x="1290" unicode="Ũ"/><glyph d="M724 1178q-62 0 -133 47t-106 47t-61 -25t-35 -59l-65 20q18 66 67 112t111 46t132 -47t104 -47t61 26t37 60l63 -21q-16 -67 -65 -113q-48 -46 -110 -46zM250 262q0 -186 188 -186q141 0 227 106q85 106 109 258l80 512h109l-129 -809q-4 -27 -5 -75l7 -68h-109 q-6 23 -6 70t6 77q-119 -168 -319 -167q-264 0 -265 268q0 47 13 137l67 422q6 45 6 78l-6 67h107q6 -22 6 -64t-8 -91l-68 -428q-10 -57 -10 -107z" glyph-name="utilde" horiz-adv-x="1007" unicode="ũ"/><glyph d="M621 1712h436l-13 -82h-436zM182 360q0 82 23 209l133 844h111l-130 -813q-23 -154 -22 -211q0 -145 84 -226t215 -81t215 41q196 96 256 477l129 813h109l-134 -844q-38 -259 -167 -426q-129 -168 -410 -168q-184 -1 -298 101t-114 284z" glyph-name="Umacron" horiz-adv-x="1290" unicode="Ū"/><glyph d="M397 1249h437l-13 -82h-436zM250 262q0 -186 188 -186q141 0 227 106q85 106 109 258l80 512h109l-129 -809q-4 -27 -5 -75l7 -68h-109q-6 23 -6 70t6 77q-119 -168 -319 -167q-264 0 -265 268q0 47 13 137l67 422q6 45 6 78l-6 67h107q6 -22 6 -64t-8 -91l-68 -428 q-10 -57 -10 -107z" glyph-name="umacron" horiz-adv-x="1007" unicode="ū"/><glyph d="M824 1610q-114 0 -174 61t-56 174h72q6 -141 174 -141t217 141h71q-34 -113 -112 -174t-192 -61zM182 360q0 82 23 209l133 844h111l-130 -813q-23 -154 -22 -211q0 -145 84 -226t215 -81t215 41q196 96 256 477l129 813h109l-134 -844q-38 -259 -167 -426 q-129 -168 -410 -168q-184 -1 -298 101t-114 284z" glyph-name="Ubreve" horiz-adv-x="1290" unicode="Ŭ"/><glyph d="M576 1147q-114 0 -174 61t-56 174h72q6 -141 174 -141t217 141h72q-33 -113 -112 -174t-193 -61zM250 262q0 -186 188 -186q141 0 227 106q85 106 109 258l80 512h109l-129 -809q-4 -27 -5 -75l7 -68h-109q-6 23 -6 70t6 77q-119 -168 -319 -167q-264 0 -265 268 q0 47 13 137l67 422q6 45 6 78l-6 67h107q6 -22 6 -64t-8 -91l-68 -428q-10 -57 -10 -107z" glyph-name="ubreve" horiz-adv-x="1007" unicode="ŭ"/><glyph d="M948 1771q0 45 -24 71t-68 26q-43 0 -79 -40t-36 -83t25 -70q26 -27 68 -27t78 40q36 39 36 83zM664 1738q0 74 63 140t138 66t118 -45t43 -120t-63 -141t-139 -66t-118 46q-42 45 -42 120zM182 360q0 82 23 209l133 844h111l-130 -813q-23 -154 -22 -211q0 -145 84 -226 t215 -81t215 41q196 96 256 477l129 813h109l-134 -844q-38 -259 -167 -426q-129 -168 -410 -168q-184 -1 -298 101t-114 284z" glyph-name="Uring" horiz-adv-x="1290" unicode="Ů"/><glyph d="M723 1308q0 44 -25 70q-26 26 -68 27q-42 0 -78 -40t-36 -83t25 -70q25 -26 67 -26t79 39q36 39 36 83zM801 1316q1 -74 -63 -140t-139 -66t-118 45t-43 120t64 141t138 65q75 0 118 -45t43 -120zM250 262q0 -186 188 -186q141 0 227 106q85 106 109 258l80 512h109 l-129 -809q-4 -27 -5 -75l7 -68h-109q-6 23 -6 70t6 77q-119 -168 -319 -167q-264 0 -265 268q0 47 13 137l67 422q6 45 6 78l-6 67h107q6 -22 6 -64t-8 -91l-68 -428q-10 -57 -10 -107z" glyph-name="uring" horiz-adv-x="1007" unicode="ů"/><glyph d="M846 1876h133l-277 -297h-94zM1061 1876h133l-276 -297h-93zM182 360q0 82 23 209l133 844h111l-130 -813q-23 -154 -22 -211q0 -145 84 -226t215 -81t215 41q196 96 256 477l129 813h109l-134 -844q-38 -259 -167 -426q-129 -168 -410 -168q-184 -1 -298 101t-114 284z " glyph-name="Uhungarumlaut" horiz-adv-x="1290" unicode="Ű"/><glyph d="M635 1413h133l-276 -297h-95zM850 1413h133l-276 -297h-93zM250 262q0 -186 188 -186q141 0 227 106q85 106 109 258l80 512h109l-129 -809q-4 -27 -5 -75l7 -68h-109q-6 23 -6 70t6 77q-119 -168 -319 -167q-264 0 -265 268q0 47 13 137l67 422q6 45 6 78l-6 67h107 q6 -22 6 -64t-8 -91l-68 -428q-10 -57 -10 -107z" glyph-name="uhungarumlaut" horiz-adv-x="1007" unicode="ű"/><glyph d="M512 -244q0 -88 114 -88q56 0 132 47l18 -55q-92 -82 -203 -82q-73 0 -117 40t-44 110q0 129 151 249q-172 7 -276 107t-105 276q0 82 23 209l133 844h111l-130 -813q-23 -154 -22 -211q0 -145 84 -226t215 -81t215 41q196 96 256 477l129 813h109l-134 -844 q-43 -261 -157 -415t-348 -174q-154 -115 -154 -224z" glyph-name="Uogonek" horiz-adv-x="1290" unicode="Ų"/><glyph d="M690 -424q-72 0 -117 40t-45 110q0 147 197 280q-4 16 -4 64t6 77q-119 -168 -319 -167q-264 0 -265 268q0 47 13 137l67 422q6 45 6 78l-6 67h107q6 -22 6 -64t-8 -91l-68 -428q-10 -57 -10 -107q0 -186 188 -186q141 0 227 106q85 106 109 258l80 512h109l-129 -809 q-4 -27 -5 -75l7 -68q-76 -30 -142 -104t-66 -130t30 -78q28 -22 84 -22t132 47l19 -55q-92 -82 -203 -82z" glyph-name="uogonek" horiz-adv-x="1007" unicode="ų"/><glyph d="M1163 1876l142 -297h-93l-94 211l-160 -211h-94l238 297h61zM1831 1413h117l-623 -1415h-100l-178 1247l-572 -1247h-100l-174 1415h116l146 -1214l553 1214h117l167 -1214z" glyph-name="Wcircumflex" horiz-adv-x="1792" unicode="Ŵ"/><glyph d="M909 1413l142 -297h-93l-94 211l-159 -211h-95l238 297h61zM1386 950h113l-457 -950h-92l-157 791l-410 -791h-90l-156 950h111l121 -788l407 790h82l158 -790z" glyph-name="wcircumflex" horiz-adv-x="1429" unicode="ŵ"/><glyph d="M797 1876l141 -297h-92l-94 211l-160 -211h-94l237 297h62zM1120 1413h127l-602 -809l-96 -604h-109l95 604l-347 809h129l291 -702z" glyph-name="Ycircumflex" horiz-adv-x="1081" unicode="Ŷ"/><glyph d="M614 1413l142 -297h-92l-95 211l-159 -211h-95l238 297h61zM92 -399q-80 0 -119 30l37 103q41 -20 92 -21q90 0 144 113l92 188l-221 936h112l183 -821l444 821h113l-647 -1175q-92 -174 -230 -174z" glyph-name="ycircumflex" horiz-adv-x="864" unicode="ŷ"/><glyph d="M1120 1413h127l-602 -809l-96 -604h-109l95 604l-347 809h129l291 -702zM619 1599q-76 -1 -76 81q0 38 29 72q30 34 68 34q77 0 77 -81q0 -38 -30 -72t-68 -34zM886 1599q-76 -1 -77 81q0 38 30 72q29 34 67 34q76 0 77 -81q0 -38 -30 -72q-29 -34 -67 -34z" glyph-name="Ydieresis" horiz-adv-x="1081" unicode="Ÿ"/><glyph d="M834 1876h131l-275 -297h-94zM262 1413h916l-13 -76l-999 -1233h815l-16 -104h-949l15 94l983 1215h-768z" glyph-name="Zacute" horiz-adv-x="1062" unicode="Ź"/><glyph d="M664 1413h131l-275 -297h-94zM186 946h693l-15 -78l-702 -768h612l-16 -100h-752l12 80l705 766h-553z" glyph-name="zacute" horiz-adv-x="854" unicode="ź"/><glyph d="M752 1819q37 -1 58 -21t21 -58q-1 -38 -31 -70t-68 -32t-60 20t-21 59q0 38 32 70t69 32zM262 1413h916l-13 -76l-999 -1233h815l-16 -104h-949l15 94l983 1215h-768z" glyph-name="Zdotaccent" horiz-adv-x="1062" unicode="Ż"/><glyph d="M582 1356q36 0 58 -20t22 -59q0 -38 -31 -70q-31 -31 -69 -31t-60 20t-21 58q0 38 32 70t69 32zM186 946h693l-15 -78l-702 -768h612l-16 -100h-752l12 80l705 766h-553z" glyph-name="zdotaccent" horiz-adv-x="854" unicode="ż"/><glyph d="M262 1413h916l-13 -76l-999 -1233h815l-16 -104h-949l15 94l983 1217h-768zM913 1833h93l-236 -301h-61l-144 301h94l93 -213z" glyph-name="Zcaron" horiz-adv-x="1062" unicode="Ž"/><glyph d="M186 948h693l-13 -80l-704 -768h612l-16 -100h-752l12 80l705 768h-553zM733 1413h92l-237 -301h-60l-143 301h94l92 -213z" glyph-name="zcaron" horiz-adv-x="854" unicode="ž"/><glyph d="M173 -242q-107 0 -163 49l56 91q45 -33 98 -33q98 0 142 73q32 50 71 166l209 623h-180l30 98h182l127 361q37 110 111 184t176 74t154 -47l-56 -90q-49 37 -112 36t-110 -50q-29 -29 -48 -78q-18 -49 -33 -95l-100 -295h225l-30 -98h-230l-225 -666q-47 -137 -117 -220 t-177 -83z" glyph-name="florin" unicode="ƒ"/><glyph d="M1475 1876h131l-275 -297h-94zM858 535l123 778h-2l-563 -778h442zM948 1413h738l-17 -104h-579l-78 -496h542l-16 -104h-543l-96 -605h592l-16 -104h-703l70 428h-504l-309 -428h-123z" glyph-name="AEacute" horiz-adv-x="1624" unicode="Ǽ"/><glyph d="M1030 1413h131l-274 -297h-94zM836 543q298 -35 468 41q116 51 115 151q0 57 -59 99t-152 40q-150 0 -248 -105t-124 -226zM361 76q89 0 191 58t155 153q-13 69 -5 180q-94 12 -167 12q-371 0 -371 -243q0 -78 54 -119t143 -41zM811 373q0 -139 72 -218t215 -79t255 75 q52 31 62 42l8 6l37 -76q-89 -89 -258 -128q-70 -15 -143 -15q-244 0 -330 219q-96 -113 -192 -166q-95 -53 -213 -53t-194 64t-75 170q0 105 45 177t122 108q141 66 335 66q86 0 164 -10q12 70 12 113q0 98 -60 151q-59 53 -143 53t-164 -24t-135 -60l-28 82q156 96 321 97 q102 -1 198 -53t105 -150q160 200 416 202q127 0 206 -69q79 -70 79 -166q0 -121 -130 -207t-386 -86q-89 1 -195 13q-6 -39 -6 -78z" glyph-name="aeacute" horiz-adv-x="1587" unicode="ǽ"/><glyph d="M1085 1876h132l-275 -297h-94zM1427 816q0 178 -69 296l-973 -883q137 -145 345 -145t368 106t244 277t85 349zM958 1331q-212 0 -370 -106q-160 -105 -245 -277t-85 -351t74 -296l973 883q-135 147 -347 147zM1544 844q0 -356 -233 -612t-584 -257q-266 0 -432 172 l-186 -167l-56 67l187 170q-98 145 -99 348q1 357 233 613t584 256q266 0 433 -174l192 174l55 -68l-192 -174q98 -150 98 -348z" glyph-name="Oslashacute" horiz-adv-x="1558" unicode="Ǿ"/><glyph d="M745 1413h132l-275 -297h-94zM944 555q0 88 -35 160l-610 -547q80 -88 219 -88q182 0 304 144t122 331zM643 870q-184 0 -305 -143t-121 -330q0 -89 35 -161l610 546q-80 88 -219 88zM502 -20q-180 0 -287 112l-143 -129l-52 64l144 129q-61 96 -62 227q0 238 160 411 t395 173q174 0 287 -113l143 129l52 -63l-146 -132q61 -96 62 -229q0 -239 -159 -409t-394 -170z" glyph-name="oslashacute" horiz-adv-x="1101" unicode="ǿ"/><glyph d="M-90 -313q83 0 128 58q44 58 60 157q4 25 13 80l129 811q19 106 43 141l8 18h106q-33 -61 -47 -147l-131 -823q-59 -392 -309 -392q-72 0 -98 17l14 96q35 -16 84 -16z" glyph-name="uni0237" horiz-adv-x="421" unicode="ȷ"/><glyph d="M489 1413l142 -297h-92l-95 211l-159 -211h-95l238 297h61z" glyph-name="circumflex" horiz-adv-x="555" unicode="ˆ"/><glyph d="M586 1413h92l-236 -297h-61l-143 297h94l92 -211z" glyph-name="caron" horiz-adv-x="555" unicode="ˇ"/><glyph d="M416 1147q-114 0 -173 61q-60 61 -57 174h72q6 -141 174 -141t217 141h72q-33 -113 -112 -174t-193 -61z" glyph-name="breve" horiz-adv-x="555" unicode="˘"/><glyph d="M445 1356q37 0 58 -20t21 -59q0 -38 -30 -70q-30 -31 -69 -31q-37 0 -59 20t-22 58t32 70t69 32z" glyph-name="dotaccent" horiz-adv-x="555" unicode="˙"/><glyph d="M543 1308q0 44 -25 70q-26 26 -68 27q-42 0 -78 -40t-36 -83t24 -70q24 -26 68 -26q43 0 79 39t36 83zM621 1316q1 -74 -63 -140t-139 -66t-118 45t-43 120t64 141t138 65q75 0 118 -45t43 -120z" glyph-name="ring" horiz-adv-x="555" unicode="˚"/><glyph d="M166 -430q-72 0 -117 40t-45 109q0 152 211 291h86l-2 -14q-70 -39 -132 -111q-63 -72 -63 -126q-1 -99 101 -99q69 0 145 47l19 -55q-92 -82 -203 -82z" glyph-name="ogonek" horiz-adv-x="555" unicode="˛"/><glyph d="M547 1178q-61 0 -132 47t-106 47t-61 -25t-35 -59l-66 20q17 66 67 112t112 46t132 -47t104 -47t61 25q26 26 36 61l64 -21q-15 -67 -65 -113t-111 -46z" glyph-name="tilde" horiz-adv-x="555" unicode="˜"/><glyph d="M379 1413h133l-276 -297h-95zM594 1413h133l-276 -297h-93z" glyph-name="hungarumlaut" horiz-adv-x="555" unicode="˝"/><glyph d="M975 1876l141 -297h-92l-182 297h133zM1831 1413h117l-623 -1415h-100l-178 1247l-572 -1247h-100l-174 1415h116l146 -1214l553 1214h117l167 -1214z" glyph-name="Wgrave" horiz-adv-x="1792" unicode="Ẁ"/><glyph d="M721 1413l141 -297h-92l-182 297h133zM1386 950h113l-457 -950h-92l-157 791l-410 -791h-90l-156 950h111l121 -788l407 790h82l158 -790z" glyph-name="wgrave" horiz-adv-x="1429" unicode="ẁ"/><glyph d="M1214 1876h132l-275 -297h-94zM1831 1413h117l-623 -1415h-100l-178 1247l-572 -1247h-100l-174 1415h116l146 -1214l553 1214h117l167 -1214z" glyph-name="Wacute" horiz-adv-x="1792" unicode="Ẃ"/><glyph d="M956 1413h131l-274 -297h-94zM1386 950h113l-457 -950h-92l-157 791l-410 -791h-90l-156 950h111l121 -788l407 790h82l158 -790z" glyph-name="wacute" horiz-adv-x="1429" unicode="ẃ"/><glyph d="M970 1819q77 0 77 -79q0 -38 -30 -72t-68 -34t-57 22q-20 22 -20 60t30 70q30 33 68 33zM1214 1634q-75 0 -75 82q0 38 29 70q30 33 67 33q76 0 76 -79q0 -38 -30 -72t-67 -34zM1831 1413h117l-623 -1415h-100l-178 1247l-572 -1247h-100l-174 1415h116l146 -1214 l553 1214h117l167 -1214z" glyph-name="Wdieresis" horiz-adv-x="1792" unicode="Ẅ"/><glyph d="M703 1171q-76 -1 -76 81q0 38 29 71q30 33 68 33q77 0 77 -79q0 -38 -30 -72t-68 -34zM968 1171q-76 -1 -75 81q0 38 30 71q31 33 67 33q76 0 75 -79q0 -38 -30 -72q-31 -34 -67 -34zM1386 950h113l-457 -950h-92l-157 791l-410 -791h-90l-156 950h111l121 -788l407 790 h82l158 -790z" glyph-name="wdieresis" horiz-adv-x="1429" unicode="ẅ"/><glyph d="M647 1876l141 -297h-92l-182 297h133zM1120 1413h127l-602 -809l-96 -604h-109l95 604l-347 809h129l291 -702z" glyph-name="Ygrave" horiz-adv-x="1081" unicode="Ỳ"/><glyph d="M485 1413l142 -297h-92l-183 297h133zM92 -399q-80 0 -119 30l37 103q41 -20 92 -21q90 0 144 113l92 188l-221 936h112l183 -821l444 821h113l-647 -1175q-92 -174 -230 -174z" glyph-name="ygrave" horiz-adv-x="864" unicode="ỳ"/><glyph d="M55 614h887l-14 -92h-889z" glyph-name="endash" horiz-adv-x="892" unicode="–"/><glyph d="M55 614h1575l-14 -92h-1577z" glyph-name="emdash" horiz-adv-x="1589" unicode="—"/><glyph d="M506 1413h82l-180 -389h-123z" glyph-name="quoteleft" horiz-adv-x="565" unicode="‘"/><glyph d="M457 1413h123l-222 -389h-82z" glyph-name="quoteright" horiz-adv-x="565" unicode="’"/><glyph d="M258 154h121l-219 -390h-84z" glyph-name="quotesinglbase" horiz-adv-x="565" unicode="‚"/><glyph d="M506 1413h82l-180 -389h-123zM801 1413h82l-181 -389h-122z" glyph-name="quotedblleft" horiz-adv-x="864" unicode="“"/><glyph d="M457 1413h123l-222 -389h-82zM752 1413h122l-221 -389h-82z" glyph-name="quotedblright" horiz-adv-x="864" unicode="”"/><glyph d="M258 154h121l-219 -390h-84zM553 154h121l-219 -390h-84z" glyph-name="quotedblbase" horiz-adv-x="864" unicode="„"/><glyph d="M711 948h374l-16 -100h-375l-194 -1237h-103l195 1237h-373l17 100h372l86 537h103z" glyph-name="dagger" unicode="†"/><glyph d="M711 948h374l-16 -100h-375l-94 -600h373l-15 -101h-374l-84 -536h-103l84 536h-372l16 101h373l94 600h-373l17 100h372l86 537h103z" glyph-name="daggerdbl" unicode="‡"/><glyph d="M758 748q0 -115 -86 -201t-201 -86t-201 86t-86 201q0 114 86 200t201 86t201 -86t86 -200z" glyph-name="bullet" horiz-adv-x="1024" unicode="•"/><glyph d="M304 170q38 0 60 -22t21 -60q0 -37 -32 -70q-33 -32 -69 -32t-58 22t-22 60t32 70q30 32 68 32zM891 170q37 0 59 -22t21 -59q0 -38 -32 -71q-32 -32 -69 -32q-36 0 -58 22t-22 60q0 36 32 69t69 33zM1477 170q37 0 58 -22t21 -60q0 -39 -30 -71q-30 -31 -69 -31 q-37 0 -59 22t-22 60q0 36 32 69t69 33z" glyph-name="ellipsis" horiz-adv-x="1837" unicode="…"/><glyph d="M1001 70q109 0 177 86t69 182q0 96 -45 147t-139 51t-163 -85t-69 -181q-1 -96 45 -148t125 -52zM311 1060q1 -198 187 -198q94 0 162 85t69 181q1 198 -185 199q-96 0 -164 -86q-68 -85 -69 -181zM1513 268q0 -198 186 -198q93 0 163 86t69 182q0 96 -45 147t-139 51 t-164 -85q-70 -87 -70 -183zM1346 365q0 -156 -100 -271t-259 -114q-115 0 -185 72t-69 190q-1 156 99 270t258 115q116 -1 186 -73t70 -189zM1278 1444l70 -47l-1065 -1444l-70 49zM827 1157q0 -159 -99 -273t-259 -114q-117 0 -187 73t-69 189q0 156 100 272t258 115 q117 0 187 -72q69 -73 69 -190zM2030 365q0 -156 -100 -271t-259 -114q-117 0 -187 72t-69 190q1 156 101 270t258 115q116 -1 186 -73t70 -189z" glyph-name="perthousand" horiz-adv-x="2123" unicode="‰"/><glyph d="M471 856l64 -59l-285 -322l184 -323l-84 -58l-219 381z" glyph-name="guilsinglleft" horiz-adv-x="565" unicode="‹"/><glyph d="M279 856l221 -381l-342 -381l-64 60l285 321l-184 324z" glyph-name="guilsinglright" horiz-adv-x="565" unicode="›"/><glyph d="M756 1550l71 -49l-1136 -1554l-72 49z" glyph-name="fraction" horiz-adv-x="294" unicode="⁄"/><glyph d="M346 539v-39q-5 -230 111 -346q68 -68 174 -68q193 0 321 164l62 -64q-61 -96 -172 -153t-225 -57q-115 0 -195 50t-121 135q-78 162 -72 378h-137l14 98h132q8 78 24 156h-131l16 100h138q63 217 207 379t348 162q122 0 200 -42t131 -145l-77 -69q-88 156 -271 155 q-106 1 -196 -73q-154 -126 -224 -367h564l-15 -100h-573q-16 -78 -25 -156h574l-17 -98h-565z" glyph-name="Euro" unicode="€"/><glyph d="M635 1413v-92h-236v-707h-102v707h-236v92h574zM1468 1413l68 -799h-102l-52 666h-6l-229 -666h-78l-229 666h-6l-52 -666h-102l68 799h143l215 -635h4l215 635h143z" glyph-name="trademark" horiz-adv-x="1689" unicode="™"/><glyph d="M1360 854h-879l-45 -285h881q19 51 33 131t10 154zM821 1313h-268l-57 -367h847q-33 129 -116 215q-137 152 -406 152zM629 100q268 0 454 150q117 94 189 227h-852l-60 -377h269zM1477 854q0 -156 -43 -285h170l-17 -92h-194q-76 -156 -222 -282q-229 -195 -546 -195 h-389l73 477h-174l17 92h174l45 285h-174l14 92h174l74 467h389q170 0 294 -57t191 -137q100 -123 131 -273h199l-14 -92h-172z" glyph-name="product" horiz-adv-x="1656" unicode="∏"/><glyph d="M1137 752v-93h-1035v93h1035z" glyph-name="minus" horiz-adv-x="1320" unicode="−"/><glyph d="M1610 735q0 57 -60 99t-151 40q-150 0 -249 -105t-124 -226q298 -35 468 41q116 51 116 151zM913 561q0 137 -74 223q-75 86 -210 86q-184 0 -298 -145t-114 -336q0 -137 75 -223t210 -86q184 0 298 145q113 146 113 336zM1276 76q174 0 338 123l37 -76 q-89 -89 -258 -128q-70 -15 -144 -15q-201 0 -295 149q-2 -12 -2 -61l6 -68h-108q-6 23 -6 63t6 82l4 23h-2q-147 -190 -365 -191q-184 0 -284 109t-101 291q0 244 152 417t375 173t319 -189h2l27 172h108l-22 -135q158 152 358 152q139 0 218 -70t79 -166q0 -121 -130 -207 t-386 -86q-88 0 -194 13q-6 -39 -7 -78q0 -139 72 -218t203 -79z" glyph-name="approxequal" horiz-adv-x="1777" unicode="≈"/><glyph d="M1137 594v-92h-523l-77 -318h-93l78 318h-420v92h443l55 225h-498v92h521l77 318h93l-78 -318h422v-92h-445l-55 -225h500z" glyph-name="notequal" horiz-adv-x="1320" unicode="≠"/><glyph d="M1294 705q-48 -1 -76 33t-20 81t47 81t86 34t76 -34t21 -81t-48 -81q-39 -34 -86 -33zM956 705q-48 -1 -76 33t-20 81t47 81t86 34t76 -34t21 -81t-48 -81t-86 -33zM281 705q-47 -1 -76 33t-21 81t47 81t86 34t76 -34t21 -81t-47 -81t-86 -33zM618 705q-48 -1 -76 33 t-20 81t47 81t86 34t76 -34t21 -81t-47 -81q-40 -33 -87 -33zM1632 705q-47 -1 -76 33t-20 81q8 47 47 81t86 34t76 -34t21 -81t-48 -81q-39 -34 -86 -33zM1970 705q-47 -1 -76 33t-20 81q8 47 47 81t86 34t76 -34t21 -81t-48 -81q-39 -34 -86 -33zM492 940q-47 0 -76 34 t-21 81t47 81t86 34t76 -34t21 -81t-47 -81t-86 -34zM702 1176q-48 0 -76 34t-20 80q8 47 47 81t86 34t76 -34t21 -81q-8 -46 -48 -80t-86 -34zM915 1411q-47 0 -75 34t-23 81q8 47 47 81q39 33 86 33t76 -34t22 -80q-6 -47 -46 -81t-87 -34zM418 469q-47 0 -76 34t-20 81 q8 47 47 81q39 33 86 33t75 -34t21 -80q-8 -47 -47 -81t-86 -34zM555 233q-47 0 -76 34t-22 81q8 47 47 81t86 34t76 -34q30 -34 22 -81t-47 -81t-86 -34zM690 -2q-47 0 -76 34t-20 81q8 47 47 81t86 34t76 -34t21 -81t-48 -81q-39 -34 -86 -34z" glyph-name="lessequal" horiz-adv-x="2015" unicode="≤"/><glyph d="M1239 -2q-47 0 -76 34t-20 81q8 47 47 81t86 34t76 -34q28 -34 20 -81t-47 -81t-86 -34zM1452 233q-47 0 -76 34t-22 81q8 47 47 81t86 34t76 -34t21 -81t-46 -81q-39 -34 -86 -34zM1663 469q-47 0 -76 34t-20 81q8 47 47 81q39 33 86 33t76 -34q28 -34 20 -80 q-8 -47 -47 -81t-86 -34zM1464 1411q-48 0 -76 34t-22 81q8 47 47 81q39 33 86 33t76 -34t21 -80q-8 -47 -46 -81q-39 -34 -86 -34zM1599 1176q-47 0 -75 34t-21 80q8 47 47 81t86 34t76 -34t21 -81t-47 -81q-40 -33 -87 -33zM1737 940q-47 0 -76 34t-21 81t48 81t86 34 q48 0 76 -34t20 -81t-47 -81t-86 -34zM184 705q-48 -1 -76 33t-20 81t47 81t86 34t76 -34t21 -81t-48 -81q-39 -34 -86 -33zM522 705q-47 -1 -76 33t-20 81q8 47 47 81t86 34t76 -34t21 -81t-48 -81q-39 -34 -86 -33zM1536 705q-47 -1 -76 33t-20 81q8 47 47 81t86 34 t76 -34t21 -81t-48 -81q-39 -34 -86 -33zM1874 705q-47 -1 -76 33t-20 81q8 47 47 81t86 34t76 -34t21 -81t-48 -81q-39 -34 -86 -33zM1198 705q-47 -1 -76 33t-20 81q8 47 47 81t86 34t76 -34t21 -81t-48 -81q-39 -34 -86 -33zM860 705q-47 -1 -76 33t-20 81q8 47 47 81 t86 34t76 -34t21 -81t-48 -81q-39 -34 -86 -33z" glyph-name="greaterequal" horiz-adv-x="2015" unicode="≥"/><glyph d="M162 -389h-82l119 287h123z" glyph-name="uniF6C3" horiz-adv-x="583" unicode=""/><glyph d="M1010 -74q0 -49 24 -49t25 19q0 31 -47 51q-2 -8 -2 -21zM2210 668h6q-12 53 -55 53q-25 0 -25 -21q0 -32 74 -32zM578 438q0 -31 8 -47q68 47 67 105q0 31 -24 30q-27 0 -39 -28t-12 -60zM541 -84q1 -27 31 -40q30 -14 61 -14t31 28t-26 48t-54 19q-43 0 -43 -41z M1556 49q17 0 23 36t12 70t6 68q-33 -2 -55 -39t-22 -86t36 -49zM1165 680q0 49 -71 49q-35 0 -35 -29q0 -23 24 -22q18 0 35 10l2 -12q-16 -8 -35 -8q-39 0 -38 30q0 16 20 28t45 13q25 0 45 -16t21 -41q0 -47 -64 -47l-94 10q-61 0 -62 -43q0 -29 35 -29t88 26t84 26 t57 -29t27 -74l-8 2v4q-6 40 -30 60t-42 20t-67 -24t-100 -23q-51 0 -52 41q0 27 23 39t47 12l94 -10q51 0 51 37zM369 623q-17 29 -57 51t-72 20q-63 0 -64 -37q0 -49 109 -49q43 1 84 15zM1968 53v-4q39 0 87 56q48 57 48 93t-14 35q-45 -1 -83 -63t-38 -117zM2056 438 q0 48 -16 47q-66 0 -115 -254q57 8 94 84q37 75 37 123zM1700 586h-17q-27 -27 -77 -27q-115 0 -160 86v2q72 -80 156 -80q45 0 67 21q-71 10 -139 52t-68 116q0 37 17 55l8 -6q-8 -29 -8 -45q-1 -68 65 -105t144 -45q6 12 6 39t-31 53t-70 25q-39 0 -65 -16l-6 2 q26 25 68 25t78 -28t36 -69q0 -14 -4 -31h6q59 0 109 30q49 30 61 89l16 -8q-12 -55 -68 -95t-124 -40zM1956 628q0 42 26 70t60 31v-6q-26 -4 -48 -26t-22 -46q0 -84 121 -84t125 80q-4 -2 -26 -2t-49 15q-25 14 -25 34t12 30t30 9q18 0 40 -19q20 -19 28 -46q52 6 96 43 t56 84h4q-10 -63 -54 -101t-102 -47q0 -43 -43 -76t-96 -33t-93 24t-40 66zM471 1454q-18 0 -43 -31t-48 -98q-23 -68 -41 -114t-40 -111q82 37 141 127t60 186q0 41 -29 41zM811 1214q-17 0 -33 -36t-20 -68q-49 -217 -49 -313q0 -16 12 -17q47 1 84 146q4 59 35 198 q0 90 -29 90zM1628 810q0 -30 10 -30q51 1 86 146q2 43 35 198q0 90 -26 90t-34 -22q-22 -54 -22 -82q-49 -270 -49 -300zM2640 1214q-39 0 -53 -104q-49 -270 -49 -300t12 -30q49 1 84 146q4 59 35 198q0 90 -29 90zM971 -49q-68 0 -68 -64q0 -43 35 -67t79 -25q44 0 84 28 t40 68q0 50 -41 152q-59 -20 -82 -70q29 -11 45 -33t16 -37t-11 -29q-12 -14 -30 -13q-18 0 -32 19t-15 40q0 21 4 31h-24zM2058 797q0 -16 15 -17q39 0 61 70t59 291q-4 74 -30 73q-32 0 -50 -88q-3 -14 -4 -16q-51 -225 -51 -313zM406 -103q0 -44 50 -68t104 -24t87 43h-8 q-37 0 -76 20t-39 60q0 41 46 41q46 1 76 -25q32 -26 32 -59q0 -2 -1 -8t-1 -8q49 12 86 47t37 77t-11 73h7q12 -18 12 -68t-41 -92q-41 -43 -98 -53q-32 -57 -102 -57t-121 25q-50 26 -50 75q1 25 15 41t34 16t29 -2q-131 115 -295 115q-53 0 -174 -17q37 15 86 29t64 20 q72 27 129 90t57 126t-46 102t-116 39q-145 0 -145 -84q-1 -25 27 -40t64 -15t103 55v-15q-45 -63 -96 -63q-51 -1 -83 21t-32 57q0 98 154 98q90 0 139 -46q49 -47 49 -113t-51 -124t-94 -84l29 -8q86 -18 143 -52t109 -105h-2v-3l-35 7q-51 0 -51 -44zM700 758 q-53 0 -83 70q-29 70 -29 139q0 70 78 167t139 97q31 0 49 -47l10 41q55 -20 72 -13q18 6 34 18t17 11q-4 -25 -41 -198t-39 -234q0 -27 17 -27q26 0 59 86h14q-27 -109 -94 -108q-33 0 -61 24t-35 74q-31 -61 -53 -81q-23 -19 -54 -19zM2533 758q-55 0 -87 70t-32 139 q0 70 78 167t140 97q35 0 53 -47l10 41q39 -15 56 -15t65 31q-4 -23 -40 -202t-37 -218t14 -39q26 0 59 86h16q-31 -109 -94 -108q-80 0 -96 98q-33 -61 -55 -81q-23 -19 -50 -19zM1622 758q-55 0 -86 70t-31 139q0 70 77 167t138 97q39 0 54 -47l10 41q39 -15 55 -15t68 31 q-78 -399 -78 -429t12 -30q29 0 62 86h14q-27 -109 -92 -108q-78 0 -99 98q-31 -59 -54 -80q-24 -20 -50 -20zM2263 760q-35 0 -65 26t-37 74q-31 -62 -55 -82t-52 -20q-55 0 -85 70t-30 139q0 70 77 167t138 97q35 0 50 -39q16 101 31 160q14 59 14 63q33 -16 53 -16t72 33 q-113 -596 -113 -623t14 -27q27 0 55 52t40 102h18q-47 -176 -125 -176zM262 1401h-18q-66 1 -113 -61t-47 -132t49 -104q55 125 161 248t177 123q63 -1 63 -99t-72 -179q-73 -81 -167 -116v-2q-3 -2 -25 -95t-22 -135q0 -41 22 -65t62 -24q41 0 92 37q-29 20 -72 20 t-55 -12v6q18 18 61 18t76 -24q86 76 86 176t-56 100t-91 -48t-35 -106q0 -59 33 -59t50 36t17 58t-4 37h12q4 -7 4 -35t-22 -68q-23 -40 -53 -40q-49 0 -49 66t38 120t87 54t75 -38t25 -91q0 -109 -98 -179q25 -25 24 -69q0 -76 -88 -113q2 -2 2 -20q-1 -18 -27 -38 q-26 -22 -55 -22h-8l6 6q18 0 43 18t25 42v10q-37 -14 -80 -14t-91 17t-48 52q0 25 28 37q65 27 124 -4t77 -61q72 31 72 94q0 39 -17 57q-55 -33 -114 -32q-96 0 -159 67q-62 68 -63 182q0 31 21 88q-53 39 -53 117t48 145t116 66l26 -2v-10zM1591 -8v-8q-16 0 -30 -10 q-15 -10 -15 -28t14 -30t31 -12q59 0 103 61q43 61 43 109t-23 84q-61 -129 -143 -129q-61 0 -62 86q0 55 30 88t60 39q23 143 23 223q0 16 -24 16t-44 -43t-20 -85q0 -41 -47 -281t-55 -267q-32 17 -52 17t-69 -33q4 23 61 320t56 345q-2 74 -81 123q-30 17 -56 77 q-25 60 -25 139t38 201t38 170t-17 46q-16 0 -46 -34t-50 -89q-5 -27 -19 -103t-27 -150q-13 -72 -16 -78q-37 18 -63 18t-53 -20q3 20 35 199t32 217q0 39 -14 38q-27 0 -62 -86h-16q10 32 20 52t31 37q23 17 53 18q82 0 97 -92q4 6 15 23q46 71 94 71t76 -56 q28 -57 28 -135t-41 -198t-41 -179q0 -58 23 -90q24 -31 54 -37q29 -6 57 -35q28 -28 36 -77q47 78 98 78t85 -71t34 -133t-27 -124q31 -46 31 -106t-41 -119t-111 -60q-27 1 -45 17t-18 38t13 34q13 13 32 14h12zM2406 -43q109 0 150 84h4q-8 -47 -52 -76q-77 -51 -202 -8 q-118 -121 -234 -121t-116 195q-2 -2 -12 -2q-63 0 -110 58q-46 58 -46 165q0 72 84 161t176 89q34 0 58 -26t24 -88t-67 -114q-67 -51 -140 -59q-20 -102 -20 -136t41 -34q8 0 12 2v2q0 63 40 130t97 67q27 0 27 -46t-48 -104t-102 -63q0 -178 115 -178q90 0 201 110 q-129 61 -129 197q0 51 29 96q30 45 79 55v-6q-47 -12 -72 -55t-24 -96q0 -119 131 -176q90 100 123 208l-185 56l80 32l-106 220l86 -27l-19 129l84 -92l50 72l49 -160l69 219l35 -57l127 75v-145h78l-168 -166l166 47l-27 -86l125 -12l-121 -57l66 -52l-232 -45l17 -82 l-143 115q-51 -117 -132 -201q35 -14 84 -14zM1284 -35q0 72 -59 84q10 -61 10 -106q0 -78 -66 -119t-133 -41t-109 30t-42 79t31 68q51 30 90 17q29 55 92 82v7q-6 14 -6 47q-41 -84 -113 -84q-39 0 -66 42t-27 94t38 145q37 93 37 131t-21 38q-20 -1 -42 -25t-24 -36 q0 -72 -69 -109q0 -291 -238 -291q-71 0 -117 33t-46 89t24 90q25 34 64 34q51 0 51 -51t-23 -85t-61 -34q-5 0 -17 5t-16 5q6 -25 26 -42t48 -17q62 0 96 84q33 84 55 180q-45 18 -71 64q-18 -6 -29 -6q-115 0 -115 118q0 92 66 165t148 73t140 -26q56 -25 70 -25t35 4v-8 q-115 -27 -188 -129q-4 39 -33 63t-79 23t-96 -51t-46 -111q0 -86 92 -86q16 0 28 6q-10 20 -10 59t22 68t44 29q35 0 35 -37t-22 -70t-52 -51q16 -37 63 -57q35 139 97 215q22 27 64 59t79 37v-10q-96 -45 -96 -224q0 -20 4 -77q65 35 65 89t-24 83v2q27 -12 30 -62 q36 66 92 66t80 -44t25 -108q0 -23 -36 -117t-36 -133t19 -39q47 0 81 117q16 58 70 320q33 -16 55 -16t68 32q-4 -25 -38 -168t-33 -229v-15l2 -28q76 -16 75 -103q0 -57 -49 -98h-14q51 43 51 92z" glyph-name="uniF8FF" horiz-adv-x="2947" unicode=""/></font>
</defs>
</svg>
